<svg width="24" height="24" viewBox="0 0 24 24" fill="none" xmlns="http://www.w3.org/2000/svg">
<path d="M18.7472 14.5753L18.7472 14.5753L18.7431 14.5795C18.318 15.0132 18.1289 15.6319 18.2235 16.2325L18.2234 16.2325L18.2246 16.2393L19.2912 22.4532C19.2912 22.4533 19.2912 22.4534 19.2913 22.4535C19.2913 22.4536 19.2913 22.4536 19.2913 22.4536C19.3503 22.8002 19.209 23.1406 18.9501 23.3287L18.95 23.3286L18.9392 23.3369C18.6878 23.5303 18.3588 23.5527 18.0861 23.3988L18.0861 23.3987L18.081 23.3959L12.7707 20.4803C12.77 20.48 12.7694 20.4796 12.7687 20.4792C12.5127 20.3362 12.2293 20.2599 11.9413 20.2513L11.9338 20.251H11.9263H11.6011H11.5622L11.5237 20.2571C11.3542 20.2836 11.1867 20.3405 11.032 20.429L5.72474 23.3561C5.56055 23.442 5.37826 23.4718 5.20056 23.4434C4.77826 23.3551 4.45949 22.9141 4.53567 22.4101L5.60276 16.2002L5.60282 16.2002L5.604 16.1927C5.69823 15.5891 5.50962 14.9698 5.08706 14.5318L5.08707 14.5318L5.08433 14.529L0.751867 10.1084C0.523271 9.87497 0.43835 9.51567 0.546646 9.18776L0.547858 9.18399C0.654485 8.85227 0.91887 8.62797 1.2175 8.5774L7.16738 7.66877C7.79752 7.59612 8.33641 7.19271 8.60923 6.6183L8.60925 6.61831L8.61126 6.61398L11.236 0.94903C11.2727 0.875916 11.3166 0.81209 11.3653 0.759297L11.45 0.690004L11.4839 0.662177L11.5126 0.628852C11.5263 0.612833 11.5415 0.598391 11.5586 0.585246L11.6373 0.554822L11.6468 0.551185L11.656 0.547171L11.7648 0.5H12.1357C12.3989 0.536897 12.6397 0.707239 12.7716 0.974682L15.4312 6.61453C15.4314 6.61498 15.4316 6.61542 15.4318 6.61587C15.6909 7.17232 16.2 7.56971 16.8008 7.66662L16.8008 7.66663L16.805 7.66726L22.7682 8.57794L22.7693 8.57811C23.0745 8.62401 23.3472 8.84887 23.4593 9.18348C23.5605 9.51503 23.4685 9.87308 23.2362 10.1025L23.2347 10.1041L18.7472 14.5753Z" fill="url(#paint0_linear_1586_36)" stroke="#FFC400"/>
<defs>
<linearGradient id="paint0_linear_1586_36" x1="24" y1="12" x2="-2.38418e-07" y2="12" gradientUnits="userSpaceOnUse">
<stop stop-color="white"/>
<stop offset="0.3549" stop-color="#FFE8C1"/>
<stop offset="0.355" stop-color="#FF9F00"/>
<stop offset="0.3551" stop-color="#FF9F00"/>
<stop offset="1" stop-color="#FF9F00"/>
</linearGradient>
</defs>
</svg>
