<svg width="110" height="118" viewBox="0 0 110 118" fill="none" xmlns="http://www.w3.org/2000/svg">
<g clip-path="url(#clip0_1239_9)">
<path d="M104.492 29.3457C102.845 28.2985 101.413 26.9868 99.7114 26.1879C97.2471 25.0615 94.6393 24.1114 91.9213 23.6579C75.1879 20.737 59.0932 23.1724 45.2957 32.9C31.2829 42.892 24.2108 57.3607 25.1558 74.9838C25.5925 83.8394 28.0063 92.2525 31.7567 100.288C32.4757 101.752 33.1064 103.145 34.1741 105.626C30.6769 104.685 28.014 103.983 25.2626 103.209C25.1358 103.546 24.9206 103.81 24.722 104.235C25.2692 104.827 25.673 105.595 26.3637 106.011C29.6739 108.265 33.0559 110.432 36.4378 112.598C38.6869 113.989 40.9527 115.54 43.6307 114.056C46.469 112.555 46.7211 109.536 46.4376 106.814C45.9656 103.059 45.0849 99.2648 44.1324 95.5584C43.8888 94.7739 42.6291 94.3349 41.8332 93.6871C41.1875 94.4805 40.1329 95.2343 40.0561 96.0512C39.9142 98.5736 40.2527 101.048 40.4478 103.698C40.1108 103.57 39.7904 103.602 39.7737 103.442C25.9163 80.7322 25.8126 57.1989 44.2058 38.7545C45.0835 37.8567 46.0496 37.0309 47.1926 36.3491C62.5035 26.3877 79.012 23.2633 96.8732 27.6883C99.1991 28.2623 101.431 29.4931 103.719 30.4755C104.006 30.1229 104.205 29.6983 104.492 29.3457Z" fill="#1E96FC"/>
</g>
<defs>
<clipPath id="clip0_1239_9">
<rect width="108.801" height="52.2672" fill="white" transform="matrix(-0.63125 0.77558 0.77558 0.63125 69.1501 0.581055)"/>
</clipPath>
</defs>
</svg>
