<svg width="124" height="103" viewBox="0 0 124 103" fill="none" xmlns="http://www.w3.org/2000/svg">
<g clip-path="url(#clip0_1236_9)">
<path d="M9.14559 28.279C10.7602 27.8533 12.4398 27.7385 14.022 27.1574C27.8247 21.7768 41.4083 23.5068 54.6441 28.234C59.2017 29.8599 63.6469 32.8901 67.1312 36.3688C77.2049 46.1552 84.5872 57.8149 88.7796 71.2919C89.9955 75.1734 90.4672 79.3761 90.3177 83.7113C89.5306 82.6613 88.6497 81.5502 87.9241 80.4058C85.7798 77.1284 83.6969 73.7566 81.3358 70.6066C80.3286 69.2788 78.7325 68.239 77.1688 67.3547C76.6055 66.9877 75.2076 67.286 74.7451 67.7906C74.2826 68.2952 74.1702 69.6995 74.5782 70.0997C80.9614 77.7504 84.8374 86.9916 89.4251 95.7562C91.0385 98.8221 92.8803 99.4847 95.6657 97.6725C102.504 93.1281 108.087 87.2278 112.384 80.2215C112.507 80.0329 112.315 79.5053 112.121 78.5725C105.23 77.0385 102.988 84.1747 97.132 87.2104C97.212 85.6506 97.3569 84.4018 97.2851 83.2804C94.9774 60.957 84.3358 43.0099 67.9646 28.3151C65.549 26.0699 62.4218 24.3012 59.298 22.9378C47.8031 18.0015 35.7762 16.3453 23.441 18.6523C19.464 19.4196 15.6529 21.3694 11.9646 23.1306C10.4763 23.7729 9.43191 25.3761 8.29018 26.5128C8.57532 27.1015 8.86046 27.6902 9.14559 28.279Z" fill="#1E96FC"/>
</g>
<defs>
<clipPath id="clip0_1236_9">
<rect width="116.557" height="46.0932" fill="white" transform="matrix(0.837885 0.545847 0.545847 -0.837885 0.263916 38.8333)"/>
</clipPath>
</defs>
</svg>
