<svg width="179" height="178" viewBox="0 0 179 178" fill="none" xmlns="http://www.w3.org/2000/svg">
<g clip-path="url(#clip0_1236_9)">
<path d="M16.7552 37.5788C19.3389 37.4324 21.9248 37.7783 24.5073 37.3857C47.1332 33.4892 67.2244 40.3225 85.8595 51.5994C92.2768 55.4796 98.0886 61.4574 102.302 67.8189C114.569 85.7991 122.169 105.791 124.362 127.554C125.006 133.824 124.421 140.352 122.852 146.889C121.982 145.051 120.988 143.091 120.241 141.129C117.999 135.488 115.88 129.723 113.27 124.208C112.152 121.88 110.05 119.807 107.95 117.98C107.208 117.248 104.993 117.268 104.134 117.891C103.276 118.514 102.67 120.612 103.166 121.346C110.49 134.94 113.514 150.173 117.766 164.903C119.267 170.058 121.859 171.635 126.65 169.746C138.442 164.962 148.745 157.731 157.44 148.423C157.685 148.174 157.558 147.314 157.551 145.837C147.562 141.374 141.948 151.516 132.116 154.313C132.72 151.969 133.327 150.117 133.565 148.392C136.974 113.779 126.371 83.2311 106.062 55.8473C103.089 51.6899 98.8878 48.0358 94.5664 44.9981C78.6398 33.9428 60.8896 27.7037 41.4439 27.3872C35.1673 27.3208 28.7762 29.1015 22.6301 30.6339C20.1712 31.1484 18.0888 33.2594 16.0031 34.632C16.2538 35.6143 16.5045 36.5966 16.7552 37.5788Z" fill="#1E96FC"/>
</g>
<defs>
<clipPath id="clip0_1236_9">
<rect width="180.637" height="71.4338" fill="white" transform="matrix(0.711925 0.702255 0.702255 -0.711925 0 50.8555)"/>
</clipPath>
</defs>
</svg>
