<svg width="28" height="28" viewBox="0 0 28 28" fill="none" xmlns="http://www.w3.org/2000/svg">
<rect x="3" y="1" width="22" height="13" rx="1" fill="white"/>
<rect x="3" y="14" width="22" height="10" rx="1" fill="#A2D6F9"/>
<path d="M23 1H5C3.89544 1 3 1.89543 3 3V22C3 23.1046 3.89544 24 5 24H23C24.1046 24 25 23.1046 25 22V3C25 1.89543 24.1046 1 23 1Z" stroke="#1E96FC" stroke-linecap="round" stroke-linejoin="round"/>
<path d="M7 24V27" stroke="black" stroke-linecap="round" stroke-linejoin="round"/>
<path d="M21 24V27" stroke="black" stroke-linecap="round" stroke-linejoin="round"/>
<path d="M3 14H25" stroke="#1E96FC" stroke-linecap="round" stroke-linejoin="round"/>
<path d="M8 19.5C7.72386 19.5 7.5 19.2761 7.5 19C7.5 18.7239 7.72386 18.5 8 18.5" stroke="#FF4B55" stroke-width="4" stroke-linecap="round" stroke-linejoin="round"/>
<path d="M8 19.5C8.27614 19.5 8.5 19.2761 8.5 19C8.5 18.7239 8.27614 18.5 8 18.5" stroke="#FF4B55" stroke-width="4" stroke-linecap="round" stroke-linejoin="round"/>
<path d="M20 19.5C19.7239 19.5 19.5 19.2761 19.5 19C19.5 18.7239 19.7239 18.5 20 18.5" stroke="#FF4B55" stroke-width="4" stroke-linecap="round" stroke-linejoin="round"/>
<path d="M20 19.5C20.2762 19.5 20.5 19.2761 20.5 19C20.5 18.7239 20.2762 18.5 20 18.5" stroke="#FF4B55" stroke-width="4" stroke-linecap="round" stroke-linejoin="round"/>
</svg>
