<svg width="24" height="24" viewBox="0 0 24 24" fill="none" xmlns="http://www.w3.org/2000/svg">
<path d="M1.98657 13.7043C1.56307 14.1278 1.56307 14.8144 1.98657 15.2379L7.18994 20.4421C7.61408 20.8646 8.30011 20.8646 8.72435 20.4421L22.013 7.1525C22.4365 6.72909 22.4365 6.04251 22.013 5.61901L19.9539 3.55907C19.5304 3.13493 18.8431 3.13493 18.4195 3.55907L7.9571 14.0224L5.58009 11.6443C5.15631 11.2208 4.46936 11.2208 4.04568 11.6443L1.98657 13.7043Z" fill="#00ADD8"/>
<path d="M7.95731 17.1666L20.7591 4.3649L19.9505 3.5564C19.5267 3.13281 18.8399 3.13281 18.4161 3.5564L7.95731 14.0224L5.5803 11.6443C5.15671 11.2203 4.4694 11.2203 4.0459 11.6443L3.2373 12.4529L7.95731 17.1666Z" fill="#008CD3"/>
<path d="M1.98657 13.7043C1.56307 14.1278 1.56307 14.8144 1.98657 15.2379L7.18994 20.4421C7.61408 20.8646 8.30011 20.8646 8.72435 20.4421L22.013 7.1525C22.4365 6.72909 22.4365 6.04251 22.013 5.61901L19.9539 3.55907C19.5304 3.13493 18.8431 3.13493 18.4195 3.55907L7.9571 14.0224L5.58009 11.6443C5.15631 11.2208 4.46936 11.2208 4.04568 11.6443L1.98657 13.7043Z" stroke="#191919" stroke-linecap="round" stroke-linejoin="round"/>
</svg>
