<svg width="78" height="92" viewBox="0 0 78 92" fill="none" xmlns="http://www.w3.org/2000/svg">
<path d="M43.6426 23.9624L25.7901 17.6542C25.3273 17.4909 24.8521 17.3987 24.3791 17.3741L25.8999 23.0497C26.8187 23.3366 27.575 24.0745 27.8429 25.0742C28.2583 26.6244 27.3408 28.2172 25.7938 28.6317C24.2467 29.0463 22.6557 28.1256 22.2404 26.5754C21.9725 25.5757 22.2589 24.5579 22.9108 23.8507L21.39 18.175C20.9923 18.4329 20.6273 18.7503 20.3082 19.1231L8.00104 33.5125C6.92389 34.7728 6.53627 36.4847 6.96585 38.088L19.9367 86.4956C20.656 89.1803 23.4104 90.7742 26.0896 90.0563L56.2493 81.9751C58.9286 81.2572 60.517 78.4996 59.7976 75.8149L46.8268 27.4072C46.3973 25.804 45.2056 24.5152 43.6426 23.9624Z" fill="#FF4B55"/>
<path d="M73.9176 65.3814L49.8132 21.4508C49.0146 19.9954 47.5512 19.0277 45.9024 18.8637L27.0677 16.9956C26.8461 16.9734 26.6242 16.9666 26.406 16.9736L43.9229 23.1636C45.7506 23.8092 47.1413 25.3141 47.6434 27.1882L60.6142 75.5958C60.8691 76.5472 60.8749 77.5079 60.6717 78.4074L71.9372 72.2122C74.3678 70.8756 75.2548 67.8174 73.9176 65.3814Z" fill="#EA353F"/>
<path d="M21.9568 10.6232C21.82 10.1126 21.2959 9.80933 20.7864 9.94588C20.2768 10.0824 19.9746 10.6071 20.1114 11.1177L23.8222 24.9668C23.9591 25.4774 24.4831 25.7806 24.9927 25.6441C25.5023 25.5076 25.8045 24.9829 25.6676 24.4723L21.9568 10.6232Z" fill="#FF4B55"/>
<path d="M49.5143 54.6605C47.9073 53.5418 46.0284 53.2699 43.8787 53.8459C41.729 54.4219 40.2304 55.5988 39.3839 57.3749C38.5376 59.1517 38.4476 61.2834 39.1141 63.7709L39.1199 63.7925C39.7824 66.265 40.9253 68.0628 42.5486 69.1858C44.1719 70.3088 46.0582 70.5816 48.2086 70.0054C50.359 69.4292 51.8487 68.2511 52.679 66.4714C53.5094 64.6917 53.5929 62.5653 52.9302 60.092L52.9244 60.0704C52.258 57.5837 51.1208 55.78 49.5143 54.6605ZM48.9472 61.1592C49.3618 62.7066 49.429 63.9674 49.1486 64.9415C48.8683 65.9157 48.266 66.5262 47.3427 66.7736C46.4194 67.0211 45.5487 66.8052 44.8195 66.1015C44.0897 65.3981 43.5176 64.2733 43.1028 62.7252L43.097 62.7036C42.6824 61.1563 42.6164 59.8995 42.8985 58.9321C43.1808 57.9654 43.7982 57.3544 44.7505 57.0993C45.7027 56.8441 46.4997 57.0761 47.2276 57.7721C47.9555 58.4682 48.5268 59.5902 48.9414 61.1376L48.9472 61.1592Z" fill="white"/>
<path d="M27.8844 56.2839C28.7148 54.5042 28.7963 52.3703 28.1298 49.8829L28.124 49.8613C27.4614 47.3887 26.3262 45.5925 24.7197 44.473C23.1125 43.3536 21.2271 43.0842 19.0625 43.6642C16.898 44.2442 15.4358 45.4113 14.5893 47.1874C13.743 48.9642 13.651 51.0885 14.3137 53.5618L14.3195 53.5834C14.986 56.0708 16.1307 57.8753 17.754 58.9983C19.3773 60.1213 21.2569 60.3959 23.3925 59.8237C25.5281 59.2515 27.054 58.0636 27.8844 56.2839ZM20.0243 55.9142C19.2944 55.2107 18.7223 54.086 18.3075 52.5379L18.3017 52.5163C17.8871 50.9689 17.8211 49.7122 18.1034 48.7455C18.3857 47.7787 18.9956 47.1698 19.9338 46.9184C20.8719 46.667 21.7046 46.8894 22.4325 47.5855C23.1604 48.2815 23.7317 49.4036 24.1461 50.9503L24.1519 50.9719C24.5666 52.5193 24.6337 53.7801 24.3533 54.7542C24.073 55.7284 23.4633 56.3409 22.5258 56.5921C21.5884 56.8433 20.7541 56.6177 20.0243 55.9142Z" fill="white"/>
<path d="M37.2135 39.1027L25.7279 75.7268L30.1008 74.5551L41.5426 37.9428L37.2135 39.1027Z" fill="white"/>
</svg>
