<svg width="2632" height="1245" viewBox="0 0 2632 1245" fill="none" xmlns="http://www.w3.org/2000/svg">
<path d="M0.560059 180.222L110.094 249.659C219.956 319.129 439.024 458.003 658.42 494.416C877.816 530.466 1096.88 464.384 1316.28 370.541C1535.68 276.697 1754.74 155.059 1974.14 88.9765C2193.54 22.5327 2412.6 11.2833 2522.47 5.62568L2632 0.000976562V1235.1H149.5C136.211 1235.1 0.560059 1235.76 0.560059 1234.34V180.222Z" fill="#5967B2"/>
<path d="M0.560059 945.676C220.812 897.389 441.063 848.74 658.42 788.448C986.495 697.465 1308.75 570.597 1645.21 512.936C1810.53 484.582 1975.75 482.575 2140.64 514.975C2271.36 540.664 2397.8 582.636 2522.47 628.916L2632 669.375V1235.13H0.560059V945.676Z" fill="#00ADD8"/>
<path d="M0.560059 695.689L110.094 711.576C219.956 727.201 439.024 758.975 658.42 765.357C877.816 771.771 1096.88 753.383 1316.28 768.975C1535.68 784.862 1754.74 835.024 1974.14 862.062C2193.54 888.804 2412.6 892.718 2522.47 894.396L2632 896.336V1225.23H0.560059V695.656V695.689Z" fill="#C0FCF8"/>
<path d="M0.560059 850.285L110.094 895.349C219.956 940.083 439.024 1030.21 658.42 1024.62C817.326 1020.57 970.114 968.799 1121.88 926.794C1286.41 881.27 1450.12 856.897 1621.13 867.587C1929.08 886.862 2230.8 982.712 2522.47 1077.9L2632 1113.43V1245H0.560059V850.285Z" fill="white"/>
<path d="M2583 962.283C2535.49 1031.21 2480.24 1145.12 2383.29 1137.65C2347.47 1134.65 2318.8 1105.86 2313.15 1071.15C2305.3 1023.28 2322.16 979.485 2336.13 933.189C2354.62 876.696 2378.22 821.934 2401.4 766.98C2426.27 703.136 2464.77 633.559 2450.84 563.596C2436.6 495.365 2357.95 475.316 2303.56 510.066C2210.94 587.879 2087.56 763.286 2005.93 845.717C1980.55 869.268 1938.57 866.998 1917.83 836.327C1899.65 808.542 1902.01 771.56 1908.7 741.273C1928.63 659.073 1974.74 529.577 1979.04 449.801C1984.22 395.04 1941.32 363.714 1891.45 358.403C1792.64 350.591 1675.03 458.037 1607.9 522.996C1555.36 576.488 1508.71 636.83 1465.76 700.096C1385.83 823.512 1334.73 940.54 1398.79 1010.46C1424.52 1038.71 1471.72 1057.72 1512.03 1049.45C1590.53 1036.94 1627.52 964.014 1641.06 891.704C1654.72 827.745 1656.65 763.016 1644.15 698.788C1606.16 495.943 1439.26 436.794 1316 618.473" stroke="#00CAC3" stroke-width="18" stroke-miterlimit="10" stroke-linecap="round"/>
<circle cx="2307.5" cy="565.5" r="44.5" fill="#00BFCB"/>
<circle cx="2510.5" cy="502.5" r="44.5" fill="#00BFCB"/>
<circle cx="2441.5" cy="849.5" r="44.5" fill="#00BFCB"/>
<circle cx="162.5" cy="596.5" r="44.5" fill="#00BFCB"/>
<circle cx="219.5" cy="695.5" r="44.5" fill="#00BFCB"/>
</svg>
