<svg width="119" height="175" viewBox="0 0 119 175" fill="none" xmlns="http://www.w3.org/2000/svg">
<g clip-path="url(#clip0_701_28)">
<path d="M99.0169 115.726L82.0813 110.081L62.3234 172.177H70.791L87.7266 146.774L76.4361 141.129L96.1943 132.661L99.0169 115.726Z" fill="#1E96FC"/>
<path d="M19.9838 115.726L36.9192 110.081L56.6774 172.177H48.2095L31.2742 146.774L42.5645 141.129L22.8064 132.661L19.9838 115.726Z" fill="#1E96FC"/>
<path d="M27.3824 113.259L45.3875 107.258V97.8339C38.5142 93.8562 33.4728 87.0658 31.8423 79.0323H31.2746C25.0395 79.0323 19.9842 73.9769 19.9842 67.742C19.9842 61.5069 25.0395 56.4517 31.2746 56.4517V50.8065H32.242C42.4655 50.8065 52.2716 46.7448 59.5002 39.5162C66.7291 46.7448 76.535 50.8065 86.7587 50.8065H87.7261V56.4517C93.9612 56.4517 99.0164 61.5069 99.0164 67.742C99.0164 73.9769 93.9612 79.0323 87.7261 79.0323H87.1584C85.5279 87.0658 80.4865 93.8562 73.6132 97.8339V107.258L91.6181 113.259C97.8367 109.827 101.839 103.239 101.839 95.9677V34.2183C101.839 26.4479 96.8182 19.6561 89.4957 17.3283C82.1154 6.46933 69.9046 0 56.7537 0C34.9239 0 17.1616 17.7624 17.1616 39.592V95.9677C17.1616 103.236 21.164 109.827 27.3824 113.259Z" fill="#FFB02C"/>
<path d="M105.265 114.837L76.4353 105.222V99.3746C82.673 95.2966 87.3411 89.0353 89.3877 81.6853C96.3795 80.8528 101.839 74.9541 101.839 67.7418C101.839 60.928 96.9803 55.2263 90.5483 53.9142V36.6935H84.903V47.8928C76.0604 47.4423 67.8008 43.8258 61.4955 37.5205L59.4998 35.5248L57.5041 37.5205C51.1987 43.8258 42.9392 47.4423 34.0965 47.8928V36.6935H28.4515V53.9142C22.0193 55.2263 17.1611 60.9252 17.1611 67.7418C17.1611 74.9541 22.6202 80.8528 29.6119 81.6853C31.6545 89.0381 36.3265 95.2966 42.5642 99.3746V105.222L13.7348 114.834C5.65574 117.527 0.225586 125.06 0.225586 133.576V175H118.774V133.576C118.774 125.06 113.344 117.527 105.265 114.837ZM78.5468 111.879L74.9 123.344C73.588 123.86 72.2234 124.194 70.7901 124.194C68.0267 124.194 65.4523 123.2 63.4263 121.436L74.3748 110.487L78.5468 111.879ZM62.3224 127.555C64.8541 129.023 67.7441 129.839 70.7901 129.839C71.4875 129.839 72.1849 129.791 72.8726 129.704L62.3224 162.869V127.555ZM56.6771 162.869L46.127 129.709C46.812 129.793 47.5067 129.839 48.2095 129.839C51.2554 129.839 54.1455 129.023 56.6771 127.555V162.869ZM45.3868 94.4944V70.5644H73.6127V94.4944C69.5732 97.2039 64.719 98.7903 59.4998 98.7903C54.2806 98.7903 49.4263 97.2039 45.3868 94.4944ZM84.903 73.3871C84.903 79.4194 82.7806 84.9571 79.2577 89.3179V70.5644H84.903V73.3871ZM96.1933 67.7418C96.1933 71.459 93.769 74.5915 90.4297 75.7272C90.489 74.9513 90.5483 74.1769 90.5483 73.3871V59.7938C93.8254 60.9625 96.1933 64.0675 96.1933 67.7418ZM59.4998 43.3834C66.581 49.6046 75.4609 53.1328 84.903 53.5477V64.9194H34.0965V53.5477C43.5386 53.13 52.4186 49.6018 59.4998 43.3834ZM22.8062 67.7418C22.8062 64.0675 25.1741 60.9625 28.4515 59.7938V73.3871C28.4515 74.1769 28.5108 74.9513 28.57 75.7272C25.2306 74.5915 22.8062 71.459 22.8062 67.7418ZM34.0965 73.3871V70.5644H39.7418V89.3179C36.2189 84.9571 34.0965 79.4194 34.0965 73.3871ZM59.4998 104.436C63.4856 104.436 67.284 103.654 70.7901 102.279V106.089L59.4998 117.38L48.2095 106.089V102.279C51.7155 103.654 55.514 104.436 59.4998 104.436ZM44.6248 110.487L55.5732 121.436C53.5472 123.2 50.9728 124.194 48.2095 124.194C46.7761 124.194 45.4116 123.86 44.0995 123.342L40.4528 111.876L44.6248 110.487ZM5.87074 133.576C5.87074 127.493 9.74904 122.111 15.521 120.188L35.0957 113.663L52.8155 169.355H28.4515V146.774H22.8062V169.355H5.87074V133.576ZM113.129 169.355H96.1933V146.774H90.5483V169.355H66.1841L83.9039 113.663L103.479 120.188C109.25 122.114 113.129 127.493 113.129 133.576V169.355Z" fill="#2A272A"/>
<path d="M48.2092 59.2741C48.2092 60.833 46.9453 62.0967 45.3866 62.0967C43.8277 62.0967 42.564 60.833 42.564 59.2741C42.564 57.7154 43.8277 56.4515 45.3866 56.4515C46.9453 56.4515 48.2092 57.7154 48.2092 59.2741Z" fill="black"/>
<path d="M76.4358 59.2741C76.4358 60.833 75.1721 62.0967 73.6132 62.0967C72.0545 62.0967 70.7908 60.833 70.7908 59.2741C70.7908 57.7154 72.0545 56.4515 73.6132 56.4515C75.1721 56.4515 76.4358 57.7154 76.4358 59.2741Z" fill="black"/>
</g>
<defs>
<clipPath id="clip0_701_28">
<rect width="119" height="175" fill="white"/>
</clipPath>
</defs>
</svg>
