<svg width="242" height="341" viewBox="0 0 242 341" fill="none" xmlns="http://www.w3.org/2000/svg">
<path d="M46.3291 60.4182C48.7781 58.7485 51.7641 57.8212 54.7161 57.6095C55.4451 57.5572 56.6661 57.6878 57.3181 57.3805C57.5171 57.2869 57.8751 56.8123 58.0471 56.6367C58.5431 57.1692 58.6841 57.3794 59.3911 57.6126L58.0531 59.4618C57.5481 59.7442 57.0011 60.0116 56.5821 60.4118C61.5821 67.597 64.6391 74.9904 65.6711 83.7076C65.8311 85.0563 66.2451 87.0273 65.9751 88.3211C65.9491 88.4448 65.8771 88.6104 65.8331 88.7201L65.4551 88.7421L65.1821 88.4947L63.9241 89.583C68.0794 94.8664 72.4847 99.9334 77.1401 104.784C77.5661 104.388 77.8681 103.909 78.1951 103.432C78.1941 103.367 78.1881 103.303 78.1941 103.238C78.2941 102.079 79.5531 99.3416 80.4221 98.6892C80.4961 98.6343 80.5731 98.5844 80.6431 98.5246C81.8761 97.4782 81.5411 95.2927 81.7031 93.8064C81.8781 91.955 80.8511 89.7426 81.7081 88.0947C81.7741 87.4992 82.2291 86.9904 82.5581 86.5066C83.2521 86.7201 83.5861 86.9555 84.0321 87.5421L83.6161 88.384C84.0161 90.78 84.3991 93.149 84.5861 95.572C85.1211 99.6288 85.0401 105.235 84.6791 109.373C85.8451 111.558 89.0241 113.686 90.9681 115.242C103.474 125.257 117.18 132.269 132.511 136.936C134.216 137.458 135.929 137.949 137.651 138.409C139.286 132.343 141.392 126.727 145.511 121.846C146.135 121.106 146.869 120.132 147.648 119.558C148.788 120.136 149.468 119.35 149.884 119.866L149.816 120.211C148.865 123.384 148.599 126.765 148.576 130.068C148.568 131.152 148.9 133.341 148.625 134.287C148.56 134.51 148.391 134.689 148.275 134.89C148.88 135.423 149.244 135.559 150.036 135.694C148.229 136.729 146.791 137.815 145.425 139.395C143.364 141.781 137.232 152.643 136.454 155.494C141.259 155.832 143.723 155.603 147.643 152.669C148.582 152.703 148.722 152.75 149.5 153.276C150.053 152.813 150.986 151.793 151.706 151.756C151.973 152.538 151.748 153.3 151.609 154.092L151.914 154.551C152.606 154.485 152.824 154.094 153.459 154.299C156.947 161.476 161.379 175.569 162.723 183.38C163.49 189.173 163.605 190.612 160.896 195.859C160.329 196.959 159.45 198.287 159.126 199.45C158.653 199.855 158.216 200.228 157.667 200.528C157.805 200.945 157.795 201.292 157.545 201.683C157.438 201.85 157.374 201.885 157.234 201.996C152.492 203.879 147.102 205.194 142.17 206.536C140.303 207.228 137.807 208.355 135.843 208.562L135.581 208.678C132.761 209.914 129.578 210.368 126.82 211.704C124.239 212.955 121.975 214.82 119.67 216.504C117.275 218.252 114.749 219.846 112.415 221.67C109.645 223.834 107.061 226.254 104.246 228.358C103.327 229.044 102.237 229.785 101.039 229.298C100.325 229.006 100.096 228.311 99.6321 227.755C98.4951 228.318 96.9431 232.358 96.3101 233.612C95.7581 232.874 95.7471 232.812 95.7511 231.889L94.8001 232.083L94.3831 232.063C94.0431 232.407 93.7541 232.677 93.5771 233.14C93.3241 233.102 93.1001 232.946 92.8751 232.829C92.4521 232.213 92.3611 231.847 92.3091 231.108C92.1761 229.282 92.1661 227.429 92.4831 225.621C93.8471 217.84 99.8811 215.042 105.71 210.939C112.602 203.831 118.079 196 123.073 187.492C128.099 177.623 130.571 170.609 133.15 159.906C132.393 160.595 131.622 161.347 130.75 161.889C128.168 163.495 125.692 162.878 122.932 162.261C119.454 165.129 115.131 167.559 110.778 168.741C105.134 170.274 99.0361 169.772 93.9431 166.809C86.6471 162.564 83.8851 154.311 81.8341 146.632C81.5051 162.715 80.9941 178.965 79.8601 195.011C77.4521 194.002 75.1841 192.499 72.8781 191.265C69.8001 189.617 66.6741 188.302 63.4021 187.086C62.4941 188.74 62.9671 195.116 62.9351 197.331C62.5824 214.746 62.7581 232.156 63.4621 249.56C63.7771 259.221 64.0161 268.933 64.8541 278.565C65.3051 283.756 65.8341 288.987 66.6541 294.135C67.1961 297.536 68.6181 301.628 68.4501 305.021C68.3211 307.598 66.2161 309.832 64.5111 311.592L64.4701 311.835C67.4521 312.668 71.9151 311.792 73.8231 314.88C74.1721 315.445 74.2981 316.123 74.1241 316.769C73.7161 318.29 72.1901 319.362 70.8601 320.058C69.0961 320.981 66.9321 321.617 64.9711 321.932C62.9311 322.409 60.7901 323.021 58.6951 323.143C58.1081 323.237 57.4791 323.382 56.8871 323.399C54.6471 323.749 52.2211 323.826 50.0421 324.425C50.1051 324.483 50.1681 324.542 50.2321 324.597C53.2671 327.261 61.2151 330.361 62.6391 333.884C62.6021 334.526 62.5251 334.963 62.0321 335.424C60.5491 336.848 58.5811 337.931 56.5631 338.357C49.3921 339.87 21.6401 337.981 15.7851 334.175C15.2043 333.838 14.7056 333.341 14.294 332.813C12.7909 330.886 13.1113 328.361 13.4061 326.119L12.7489 325.494C11.8087 325.106 11.0072 324.436 10.2736 323.741C8.84487 322.385 8.12307 320.407 8.00957 318.48C7.70647 313.333 8.19207 308.038 8.39657 302.891L9.56687 274.133C9.92337 263.536 10.4489 252.913 10.5047 242.31C10.5698 229.966 10.1324 217.657 10.0284 205.318C6.12037 201.732 2.75567 198.126 1.41627 192.859C-0.25343 186.294 0.816368 179.567 1.57417 172.957C2.2723 166.958 3.16667 160.989 4.25727 155.05C5.34794 149.11 6.63247 143.213 8.11087 137.358C9.58934 131.502 11.2585 125.701 13.1184 119.955C14.9783 114.209 17.0249 108.529 19.2583 102.917C21.0801 98.3131 22.8541 93.2129 25.3691 88.9625C28.7091 80.2792 38.3411 65.5863 46.3291 60.4182Z" fill="#FEFEFE"/>
<path d="M46.329 60.4182C48.778 58.7485 51.764 57.8212 54.716 57.6095C55.445 57.5572 56.666 57.6878 57.318 57.3805C57.517 57.2869 57.875 56.8123 58.047 56.6367C58.543 57.1692 58.684 57.3794 59.391 57.6126L58.053 59.4618C57.548 59.7442 57.001 60.0116 56.582 60.4118C61.582 67.597 64.639 74.9904 65.671 83.7076C65.831 85.0563 66.245 87.0273 65.975 88.3211C65.949 88.4448 65.877 88.6104 65.833 88.7201L65.455 88.7421L65.182 88.4947L63.924 89.583C68.0793 94.8664 72.4846 99.9334 77.14 104.784C77.566 104.388 77.868 103.909 78.195 103.432C78.194 103.367 78.188 103.303 78.194 103.238C78.294 102.079 79.553 99.3416 80.422 98.6892C80.496 98.6343 80.573 98.5844 80.643 98.5246C81.876 97.4782 81.541 95.2927 81.703 93.8064C81.878 91.955 80.851 89.7426 81.708 88.0947C81.774 87.4992 82.229 86.9904 82.558 86.5066C83.252 86.7201 83.586 86.9555 84.032 87.5421L83.616 88.384C84.016 90.78 84.399 93.149 84.586 95.572C85.121 99.6288 85.04 105.235 84.679 109.373C85.845 111.558 89.024 113.686 90.968 115.242C103.474 125.257 117.18 132.269 132.511 136.936C134.216 137.458 135.929 137.949 137.651 138.409C139.286 132.343 141.392 126.727 145.511 121.846C146.135 121.106 146.869 120.132 147.648 119.558C148.788 120.136 149.468 119.35 149.884 119.866L149.816 120.211C148.865 123.384 148.599 126.765 148.576 130.068C148.568 131.152 148.9 133.341 148.625 134.287C148.56 134.51 148.391 134.689 148.275 134.89C148.88 135.423 149.244 135.559 150.036 135.694C148.229 136.729 146.791 137.815 145.425 139.395C143.364 141.781 137.232 152.643 136.454 155.494C141.259 155.832 143.723 155.603 147.643 152.669C148.582 152.703 148.722 152.75 149.5 153.276C150.053 152.813 150.986 151.793 151.706 151.756C151.973 152.538 151.748 153.3 151.609 154.092L151.914 154.551C152.606 154.485 152.824 154.094 153.459 154.299C156.947 161.476 161.379 175.569 162.723 183.38C163.49 189.173 163.605 190.612 160.896 195.859C160.329 196.959 159.45 198.287 159.126 199.45C158.653 199.855 158.216 200.228 157.667 200.528C157.805 200.945 157.795 201.292 157.545 201.683C157.438 201.85 157.374 201.885 157.234 201.996C152.492 203.879 147.102 205.194 142.17 206.536C140.303 207.228 137.807 208.355 135.843 208.562L135.581 208.678C132.761 209.914 129.578 210.368 126.82 211.704C124.239 212.955 121.975 214.82 119.67 216.504C117.275 218.252 114.749 219.846 112.415 221.67C109.645 223.834 107.061 226.254 104.246 228.358C103.327 229.044 102.237 229.785 101.039 229.298C100.325 229.006 100.096 228.311 99.632 227.755C98.495 228.318 96.943 232.358 96.31 233.612C95.758 232.874 95.747 232.812 95.751 231.889L94.8 232.083L94.383 232.063C94.043 232.407 93.754 232.677 93.577 233.14C93.324 233.102 93.1 232.946 92.875 232.829C92.452 232.213 92.361 231.847 92.309 231.108C92.176 229.282 92.166 227.429 92.483 225.621C93.847 217.84 99.881 215.042 105.71 210.939C112.602 203.831 118.079 196 123.073 187.492C128.099 177.623 130.571 170.609 133.15 159.906C132.393 160.595 131.622 161.347 130.75 161.889C128.168 163.495 125.692 162.878 122.932 162.261C119.454 165.129 115.131 167.559 110.778 168.741C105.134 170.274 99.036 169.772 93.943 166.809C86.647 162.564 83.885 154.311 81.834 146.632C81.505 162.715 80.994 178.965 79.86 195.011C77.452 194.002 75.184 192.499 72.878 191.265C69.8 189.617 66.674 188.302 63.402 187.086C62.494 188.74 62.967 195.116 62.935 197.331C62.5823 214.746 62.758 232.156 63.462 249.56C63.777 259.221 64.016 268.933 64.854 278.565C65.305 283.756 65.834 288.987 66.654 294.135C67.196 297.536 68.618 301.628 68.45 305.021C68.321 307.598 66.216 309.832 64.511 311.592L64.47 311.835C67.452 312.668 71.915 311.792 73.823 314.88C74.172 315.445 74.298 316.123 74.124 316.769C73.716 318.29 72.19 319.362 70.86 320.058C69.096 320.981 66.932 321.617 64.971 321.932C62.931 322.409 60.79 323.021 58.695 323.143C58.108 323.237 57.479 323.382 56.887 323.399C54.647 323.749 52.221 323.826 50.042 324.425C50.105 324.483 50.168 324.542 50.232 324.597C53.267 327.261 61.215 330.361 62.639 333.884C62.602 334.526 62.525 334.963 62.032 335.424C60.549 336.848 58.581 337.931 56.563 338.357C49.392 339.87 21.64 337.981 15.785 334.175C15.2042 333.838 14.7055 333.341 14.2939 332.813C12.7908 330.886 13.1112 328.361 13.406 326.119L12.7488 325.494C12.938 325.159 12.8275 325.279 13.1584 325.03C13.2395 324.969 13.3234 324.913 13.406 324.854L13.3853 324.599L13.719 324.208L15.5247 325.039C21.076 327.074 26.053 328.687 32.074 328.835C37.364 328.966 44.107 328.692 48.116 324.812C50.416 322.585 51.176 319.626 51.264 316.517C51.453 309.882 50.405 303.067 49.822 296.461C48.9973 287.173 48.3603 277.873 47.911 268.56C46.495 241.138 46.708 213.527 47.228 186.083C47.311 181.694 47.505 177.296 47.633 172.906C47.697 170.706 47.527 168.213 47.888 166.065C47.989 165.462 48.082 165.061 48.528 164.632C50.319 165.387 49.346 175.325 49.279 177.439C48.4717 198.543 48.323 219.65 48.833 240.763C49.3436 261.876 50.512 282.952 52.338 303.992C52.507 305.817 52.733 313.707 53.492 314.544C57.079 312.854 60.097 312.542 63.48 309.98C64.852 308.583 66.478 307.196 66.605 305.1C66.804 301.805 65.376 298.154 64.862 294.891C64.123 290.202 63.67 285.467 63.235 280.743C61.769 264.818 61.446 248.648 61.223 232.658C61.058 220.795 60.787 208.934 61.117 197.067C61.194 194.289 60.763 190.126 61.424 187.536L61.801 175.854C61.657 173.315 62.022 170.56 62.176 168.012C62.533 162.141 63.017 156.272 63.308 150.398C58.864 152.381 53.765 152.479 48.967 152.581C48.477 152.071 47.839 152.158 47.325 151.61C49.349 144.27 51.503 136.905 52.628 129.366C52.87 127.324 53.004 125.197 53.461 123.192C53.594 122.347 53.64 121.863 53.094 121.159C51.292 118.838 48.78 116.932 46.76 114.776C41.521 109.184 36.547 102.878 32.802 96.1825C31.694 94.6403 29.153 88.4548 27.933 87.9121L27.447 88.5017C27.199 88.3889 26.953 88.363 26.687 88.3161L25.916 89.0243L25.369 88.9625C28.709 80.2792 38.341 65.5863 46.329 60.4182Z" fill="#752346"/>
<path d="M46.3289 60.4182C48.7779 58.7485 51.7639 57.8212 54.7159 57.6095C55.4449 57.5572 56.6659 57.6878 57.3179 57.3805C57.5169 57.2869 57.8749 56.8123 58.0469 56.6367C58.5429 57.1692 58.6839 57.3794 59.3909 57.6126L58.0529 59.4618C57.5479 59.7442 57.0009 60.0116 56.5819 60.4118C61.5819 67.597 64.6389 74.9904 65.6709 83.7076C65.8309 85.0563 66.2449 87.0273 65.9749 88.3211C65.9489 88.4448 65.8769 88.6104 65.8329 88.7201L65.4549 88.7421L65.1819 88.4947L63.9239 89.583C68.0792 94.8664 72.4846 99.9334 77.1399 104.784C91.1269 118.593 104.054 128.326 122.591 135.445C126.104 136.762 129.666 137.931 133.277 138.954C135.056 139.469 137.423 139.821 139.05 140.657L139.483 140.461C139.834 140.654 140.037 140.757 140.256 141.107C140.604 141.66 140.249 142.719 140.071 143.316C138.433 148.799 133.507 158.522 128.476 161.214C122.785 161.383 116.825 157.758 111.807 155.438C97.2399 148.708 82.9389 141.345 69.7699 132.135C69.3519 132.708 69.0249 133.056 68.4229 133.438L68.0049 133.576C67.9589 139.931 70.1659 143.983 65.3899 149.293C64.6299 152.758 64.6239 156.48 64.4279 160.017L63.4859 177.573L63.1179 178.878L62.8829 177.819C62.7689 178.204 62.7319 178.545 62.7129 178.943C62.6939 179.326 62.6789 179.475 62.5419 179.847C61.9339 178.989 61.9559 176.949 61.8009 175.854C61.6569 173.315 62.0219 170.56 62.1759 168.012C62.5329 162.141 63.0169 156.272 63.3079 150.398C58.8639 152.381 53.7649 152.479 48.9669 152.581C48.4769 152.071 47.8389 152.158 47.3249 151.61C49.3489 144.27 51.5029 136.905 52.6279 129.366C52.8699 127.324 53.0039 125.197 53.4609 123.192C53.5939 122.347 53.6399 121.863 53.0939 121.159C51.2919 118.838 48.7799 116.932 46.7599 114.776C41.5209 109.184 36.5469 102.878 32.8019 96.1825C31.6939 94.6403 29.1529 88.4548 27.9329 87.9121L27.4469 88.5017C27.1989 88.3889 26.9529 88.363 26.6869 88.3161L25.9159 89.0243L25.3689 88.9625C28.7089 80.2792 38.3409 65.5863 46.3289 60.4182Z" fill="#FEFEFE"/>
<path d="M32.802 96.1825C32.687 95.212 32.449 94.5686 31.996 93.7087C31.465 92.6982 29.145 88.6733 29.397 87.8613L29.804 87.982C30.084 88.5486 30.334 89.1411 30.824 89.5611C30.92 89.6429 31.02 89.7207 31.118 89.7995C33.034 93.1052 34.762 96.4927 36.906 99.6648C44.915 111.513 57.677 124.34 69.77 132.135C69.352 132.708 69.025 133.056 68.423 133.438L68.005 133.576C67.959 139.931 70.166 143.983 65.39 149.293C64.63 152.758 64.624 156.48 64.428 160.017L63.486 177.573L63.118 178.878L62.883 177.819C62.769 178.204 62.732 178.545 62.713 178.943C62.694 179.326 62.679 179.475 62.542 179.847C61.934 178.99 61.956 176.949 61.801 175.854C61.657 173.315 62.022 170.56 62.176 168.012C62.533 162.141 63.017 156.272 63.308 150.398C58.864 152.381 53.765 152.479 48.967 152.582C48.477 152.071 47.839 152.158 47.325 151.61C49.349 144.27 51.503 136.905 52.628 129.366C52.87 127.324 53.004 125.197 53.461 123.192C53.594 122.347 53.64 121.863 53.094 121.159C51.292 118.838 48.78 116.932 46.76 114.776C41.521 109.184 36.547 102.878 32.802 96.1825Z" fill="#752346"/>
<path d="M53.4609 123.192C54.1309 123.011 54.5329 122.94 55.2109 123.122C55.4459 123.185 55.3349 123.176 55.5849 123.137C54.5359 124.782 54.5079 128.489 54.1839 130.487C53.3479 130.224 53.2179 130.031 52.6279 129.366C52.8699 127.324 53.0039 125.197 53.4609 123.192Z" fill="#752346"/>
<path d="M55.585 123.137C56.079 123.611 56.83 124.159 56.999 124.838C56.611 126.283 55.123 131.488 53.984 132.184C53.958 131.58 54.054 131.074 54.184 130.487C54.508 128.489 54.536 124.782 55.585 123.137Z" fill="#FEFEFE"/>
<path d="M54.115 59.177C54.694 59.1294 55.21 59.0064 55.702 59.4158C56.031 59.6888 56.313 60.0806 56.582 60.412C61.582 67.5972 64.639 74.9906 65.671 83.7078C65.831 85.0565 66.245 87.0275 65.975 88.3213C65.949 88.445 65.877 88.6106 65.833 88.7203L65.455 88.7422L65.182 88.4949C63.687 86.0679 61.754 83.7826 60.08 81.4614C59.572 81.7587 59.083 82.048 58.618 82.4111L57.539 80.837C57.114 80.4141 56.748 79.7168 56.4 79.2151C56.479 78.7542 56.626 78.3373 56.781 77.8984C57.363 77.4674 57.515 77.4634 58.208 77.3826C58.4 76.9298 58.556 76.5787 58.599 76.0829C58.036 75.4106 56.93 74.9926 56.273 74.3233C54.233 72.2465 54.226 62.2889 54.115 59.177Z" fill="#FEFEFE"/>
<path d="M58.5989 76.0828C60.2489 76.9047 61.7259 77.9391 63.0899 79.178C62.2539 79.8404 61.4319 80.5356 60.5459 81.1311L60.0799 81.4613C59.5719 81.7586 59.0829 82.0479 58.6179 82.4109L57.5389 80.8369C57.1139 80.4139 56.7479 79.7167 56.3999 79.2149C56.4789 78.7541 56.6259 78.3371 56.7809 77.8982C57.3629 77.4673 57.5149 77.4633 58.2079 77.3825C58.3999 76.9296 58.5559 76.5785 58.5989 76.0828Z" fill="#752346"/>
<path d="M59.9651 79.7856L60.5461 81.1313L60.0801 81.4615C59.5721 81.7587 59.0831 82.048 58.6181 82.4111L57.5391 80.837C58.3341 80.3552 59.0761 80.057 59.9651 79.7856Z" fill="#752346"/>
<path d="M46.3289 60.4182C48.7779 58.7485 51.7639 57.8212 54.7159 57.6095C55.4449 57.5572 56.6659 57.6878 57.3179 57.3805C57.5169 57.2869 57.8749 56.8123 58.0469 56.6367C58.5429 57.1692 58.6839 57.3794 59.3909 57.6126L58.0529 59.4618C57.5479 59.7442 57.0009 60.0116 56.5819 60.4118C56.3129 60.0804 56.0309 59.6886 55.7019 59.4156C55.2099 59.0062 54.6939 59.1292 54.1149 59.1768C54.2259 62.2887 54.2329 72.2463 56.2729 74.3231C56.9299 74.9924 58.0359 75.4104 58.5989 76.0827C58.5559 76.5785 58.3999 76.9296 58.2079 77.3825C57.5149 77.4633 57.3629 77.4672 56.7809 77.8982C56.6259 78.3371 56.4789 78.754 56.3999 79.2149C55.2279 77.4712 52.4589 74.2872 52.2369 72.1994C52.4079 72.0528 52.7089 71.8343 52.8459 71.6428C53.4369 70.8129 52.3439 61.331 52.2469 59.4149C50.9259 59.9839 49.5909 60.5335 48.2979 61.1646C39.8169 66.6036 33.3449 76.3431 29.0509 85.3076C29.8019 86.7859 30.4859 88.2672 31.1179 89.7994C31.0199 89.7206 30.9199 89.6428 30.8239 89.561C30.3339 89.1411 30.0839 88.5485 29.8039 87.982L29.3969 87.8613C29.1449 88.6732 31.4649 92.6982 31.9959 93.7086C32.4489 94.5685 32.6869 95.2119 32.8019 96.1825C31.6939 94.6403 29.1529 88.4548 27.9329 87.9121L27.4469 88.5017C27.1989 88.3889 26.9529 88.363 26.6869 88.3161L25.9159 89.0243L25.3689 88.9625C28.7089 80.2792 38.3409 65.5863 46.3289 60.4182Z" fill="#752346"/>
<path d="M58.6179 82.4111C59.0829 82.048 59.5719 81.7587 60.0799 81.4614C61.7539 83.7826 63.6869 86.0679 65.1819 88.4948L63.9239 89.5831C62.0429 87.2839 60.3259 84.84 58.6179 82.4111Z" fill="#752346"/>
<path d="M149.5 153.276C150.053 152.813 150.986 151.794 151.706 151.756C151.973 152.538 151.748 153.3 151.609 154.092L151.914 154.551C152.606 154.485 152.824 154.094 153.459 154.299C156.947 161.476 161.379 175.569 162.723 183.381C163.49 189.173 163.605 190.612 160.896 195.859C160.329 196.959 159.45 198.287 159.126 199.45C158.653 199.855 158.216 200.228 157.667 200.528C157.805 200.945 157.795 201.292 157.545 201.683C157.438 201.85 157.374 201.885 157.234 201.996C152.492 203.879 147.102 205.194 142.17 206.536C140.303 207.228 137.807 208.355 135.843 208.562L135.581 208.678C132.761 209.914 129.578 210.368 126.82 211.704C124.239 212.955 121.975 214.82 119.67 216.504C117.275 218.252 114.749 219.846 112.415 221.67C109.645 223.834 107.061 226.254 104.246 228.358C103.327 229.044 102.237 229.786 101.039 229.298C100.325 229.006 100.096 228.311 99.632 227.755C98.495 228.318 96.943 232.358 96.31 233.612C95.758 232.874 95.747 232.812 95.751 231.889L94.8 232.083L94.383 232.063C93.887 230.961 93.981 229.708 93.959 228.522C93.959 228.456 93.959 228.389 93.96 228.323C94.101 221.844 97.588 218.326 102.718 214.965C104.18 214.006 105.832 213.088 107.086 211.87C107.138 211.82 107.189 211.768 107.24 211.716C108.39 210.92 109.509 209.461 110.45 208.41C116.655 201.472 121.641 193.801 126.014 185.615C127.639 182.503 129.082 179.31 130.343 176.035C131.604 172.76 132.676 169.425 133.558 166.029C134.281 163.17 134.475 159.901 135.613 157.189C136.206 156.884 136.924 157.13 137.549 157.251C138.056 157.313 138.565 157.355 139.075 157.379C143.459 157.601 146.294 156.148 149.5 153.276Z" fill="#FEFEFE"/>
<path d="M153.459 154.299C156.947 161.476 161.379 175.569 162.723 183.381C163.49 189.173 163.605 190.613 160.896 195.859C160.329 196.959 159.45 198.287 159.126 199.45C158.653 199.855 158.216 200.229 157.667 200.528C157.805 200.945 157.795 201.292 157.545 201.683C157.438 201.85 157.374 201.885 157.234 201.996C152.492 203.879 147.102 205.194 142.17 206.536C140.303 207.228 137.807 208.355 135.843 208.562C134.726 208.319 132.518 208.987 131.536 209.56C131.122 209.803 130.954 209.88 130.45 209.813C130.681 208.593 133.679 208.62 134.41 207.643C134.475 207.556 134.532 207.464 134.592 207.376C132.716 207.944 130.879 208.541 129.049 209.249C129.062 208.674 129.426 208.342 129.772 207.922C141.076 196.356 146.796 180.461 150.988 165.143C151.939 161.666 152.2 157.903 153.38 154.517C153.405 154.444 153.432 154.372 153.459 154.299Z" fill="#FEFEFE"/>
<path d="M142.782 204.787C147.506 202.971 152.759 201.814 157.667 200.528C157.805 200.945 157.795 201.292 157.545 201.683C157.438 201.85 157.374 201.885 157.234 201.996C152.492 203.879 147.102 205.194 142.17 206.536C140.303 207.228 137.807 208.355 135.843 208.562C134.726 208.319 132.518 208.986 131.536 209.56C131.122 209.802 130.954 209.88 130.45 209.812C130.681 208.592 133.679 208.619 134.41 207.643C134.475 207.556 134.532 207.464 134.592 207.375C136.86 206.12 140.282 205.513 142.782 204.787Z" fill="#752346"/>
<path d="M142.782 204.787C144.413 205.535 147.406 203.249 149.269 203.401C148.797 203.963 147.847 204.051 147.2 204.483C146.065 205.241 142.729 205.19 141.924 206.38L142.17 206.536C140.303 207.228 137.807 208.355 135.843 208.561C134.726 208.319 132.518 208.986 131.536 209.56C131.122 209.802 130.954 209.88 130.45 209.812C130.681 208.592 133.679 208.619 134.41 207.643C134.475 207.556 134.532 207.464 134.592 207.375C136.86 206.12 140.282 205.513 142.782 204.787Z" fill="#752346"/>
<path d="M128.696 206.435C131.295 203.739 133.695 200.979 135.755 197.844C141.878 188.528 146.493 175.204 149.28 164.46C150.168 161.036 150.81 157.538 151.609 154.092L151.914 154.551C152.606 154.485 152.824 154.094 153.459 154.299C153.432 154.372 153.405 154.444 153.38 154.517C152.2 157.903 151.939 161.666 150.988 165.143C146.796 180.461 141.076 196.356 129.772 207.922C129.426 208.342 129.062 208.674 129.049 209.249L128.378 209.597L128.233 209.43C127.998 209.166 128.086 209.263 127.789 208.983C126.821 209.182 126.434 210.454 125.599 210.338L125.434 209.721C126.245 208.552 127.667 207.448 128.696 206.435Z" fill="#752346"/>
<path d="M129.049 209.249C130.879 208.541 132.716 207.944 134.592 207.375C134.532 207.464 134.475 207.556 134.41 207.643C133.679 208.619 130.681 208.592 130.45 209.812C130.954 209.88 131.122 209.802 131.536 209.56C132.518 208.986 134.726 208.319 135.843 208.562L135.581 208.678C132.761 209.914 129.578 210.368 126.82 211.704C124.239 212.955 121.975 214.82 119.67 216.504C117.275 218.252 114.749 219.846 112.415 221.67C109.645 223.834 107.061 226.254 104.246 228.358C103.327 229.044 102.237 229.785 101.039 229.298C100.325 229.006 100.096 228.311 99.632 227.755C98.495 228.318 96.943 232.358 96.31 233.612C95.758 232.874 95.7471 232.812 95.7511 231.889L94.8 232.083C97.325 229.221 98.067 224.235 101.506 222.295C102.083 221.969 102.397 221.825 103.023 222.006C103.609 223.273 101.763 226.925 101.348 228.317C104.971 226.187 108.03 222.857 111.36 220.28C113.862 218.345 116.574 216.673 119.14 214.824C121.331 213.245 123.378 211.468 125.434 209.721L125.599 210.338C126.434 210.454 126.821 209.182 127.789 208.982C128.086 209.263 127.998 209.166 128.233 209.43L128.378 209.597L129.049 209.249Z" fill="#752346"/>
<path d="M65.3901 149.293C70.1661 143.983 67.9591 139.931 68.0051 133.576L68.4231 133.438C72.3111 135.898 76.1091 138.485 80.0241 140.905C80.1071 147.01 79.8171 153.084 79.6231 159.183C79.4051 166.04 79.2611 172.888 78.8791 179.738C78.6501 183.847 78.8591 188.25 78.1621 192.292C73.3621 189.282 68.4351 187.032 63.1311 185.058C63.3381 182.556 63.5381 180.087 63.4861 177.573L64.4281 160.017C64.6241 156.48 64.6301 152.758 65.3901 149.293Z" fill="#F9F871"/>
<path d="M139.282 138.749C140.951 133.218 144.733 123.069 149.816 120.211C148.865 123.384 148.599 126.765 148.576 130.068C148.568 131.152 148.9 133.341 148.625 134.287C148.56 134.51 148.391 134.689 148.275 134.89C145.864 135.618 143.784 138.301 142.435 140.32C141.523 139.366 140.508 139.127 139.282 138.749Z" fill="#FEFEFE"/>
<path d="M80.422 98.6892C80.496 98.6343 80.573 98.5844 80.643 98.5246C81.876 97.4782 81.541 95.2927 81.703 93.8064C81.942 97.3246 82.054 100.819 81.924 104.345L82.044 107.454C81.535 106.983 81.161 106.49 80.762 105.924C79.859 105.138 79.031 104.288 78.195 103.432C78.194 103.368 78.188 103.303 78.194 103.238C78.294 102.079 79.553 99.3416 80.422 98.6892Z" fill="#752346"/>
<path d="M78.195 103.432C78.194 103.368 78.188 103.303 78.194 103.238C78.294 102.079 79.553 99.3416 80.422 98.6892C80.476 100.709 80.477 102.749 80.665 104.762L80.762 105.924C79.859 105.138 79.031 104.288 78.195 103.432Z" fill="#F9F871"/>
<path d="M81.703 93.8064C81.878 91.9551 80.851 89.7426 81.708 88.0947C82.074 89.2788 82.216 90.4768 82.544 91.6528C82.622 93.7626 82.763 95.9341 83.045 98.0259C83.014 99.6319 82.535 105.15 83.226 106.323L82.806 107.594L82.405 107.688L82.044 107.454L81.924 104.345C82.054 100.819 81.942 97.3246 81.703 93.8064Z" fill="#FEFEFE"/>
<path d="M82.558 86.5068C83.252 86.7203 83.586 86.9557 84.032 87.5422L83.616 88.3841C83.266 89.4535 83.027 90.439 82.882 91.5552L82.544 91.653C82.216 90.4769 82.074 89.2789 81.708 88.0949C81.774 87.4994 82.229 86.9906 82.558 86.5068Z" fill="#752346"/>
<path d="M13.719 324.208L15.5247 325.039C15.1192 325.782 14.7911 326.338 14.1505 326.898L13.6342 326.872L13.406 326.119L12.7488 325.494C12.938 325.159 12.8275 325.279 13.1584 325.03C13.2395 324.97 13.3234 324.913 13.406 324.854L13.3853 324.6L13.719 324.208Z" fill="#752346"/>
<path d="M83.1631 142.756C84.7081 143.407 86.2301 144.448 87.7031 145.277C90.6584 146.949 93.6464 148.561 96.6671 150.112C104.702 154.172 113.004 157.655 121.06 161.655C119.878 162.488 118.597 163.218 117.367 163.981C114.022 165.961 110.63 167.41 106.72 167.782C101.526 168.274 96.4721 166.919 92.4501 163.541C86.8511 158.84 83.8121 149.85 83.1631 142.756Z" fill="#FEFEFE"/>
<path d="M49.412 326.327C51.753 327.823 59.862 332.335 60.97 334.139L60.997 334.372C60.476 334.728 59.951 335.08 59.402 335.391C51.886 339.651 26.819 335.747 18.1571 333.421C17.044 332.976 15.9353 332.505 15.4078 331.336C14.7871 329.96 14.9475 328.178 14.9428 326.689C24.152 330.405 35.76 332.638 45.241 328.619C46.718 327.993 48.065 327.191 49.412 326.327Z" fill="#FEFEFE"/>
<path d="M55.55 315.653C60.633 313.862 60.966 312.995 66.619 313.794C68.043 313.995 69.493 314.146 70.818 314.741C71.424 315.012 71.773 315.254 72.139 315.804C72.202 316.432 72.248 316.808 71.863 317.348C71.692 317.587 71.436 317.798 71.215 317.992C66.231 320.512 60.469 321.285 54.984 321.964L52.444 322.19C52.065 321.204 53.02 317.665 53.105 316.395L55.55 315.653Z" fill="#FEFEFE"/>
<path d="M27.447 88.5016L27.933 87.9121C29.153 88.4548 31.694 94.6403 32.802 96.1824C36.547 102.878 41.521 109.184 46.76 114.776C48.78 116.932 51.292 118.838 53.094 121.159C53.64 121.863 53.594 122.347 53.461 123.192C53.004 125.197 52.87 127.324 52.628 129.365C51.503 136.905 49.349 144.27 47.325 151.61C42.658 169.736 39.467 187.779 38.338 206.476C38.143 209.696 37.547 213.528 38.146 216.677L37.758 216.981C36.077 216.837 33.351 214.884 31.686 214.184C27.321 211.877 22.547 210.209 18.0552 208.151C12.3092 205.515 6.04667 200.599 3.82657 194.482C1.22867 187.324 2.63777 178.544 3.55387 171.167C3.99741 167.595 4.51124 164.032 5.09537 160.479C5.67957 156.926 6.33361 153.387 7.05747 149.86C7.78141 146.333 8.57464 142.822 9.43717 139.327C10.2997 135.831 11.2309 132.353 12.2307 128.894C13.2305 125.435 14.2981 121.997 15.4337 118.579C16.5692 115.162 17.7717 111.768 19.0412 108.399C20.3107 105.029 21.6463 101.685 23.048 98.368C24.4493 95.0503 25.9156 91.7615 27.447 88.5016Z" fill="#FEFEFE"/>
<path d="M25.3691 88.9625L25.9161 89.0244L26.6871 88.3162C26.9531 88.363 27.1991 88.389 27.4471 88.5017C25.9157 91.7615 24.4494 95.0503 23.0481 98.368C21.6464 101.685 20.3108 105.029 19.0413 108.399C17.7718 111.769 16.5693 115.162 15.4338 118.58C14.2982 121.997 13.2306 125.435 12.2308 128.894C11.231 132.353 10.2998 135.831 9.43727 139.327C8.57474 142.822 7.78151 146.333 7.05757 149.86C6.33371 153.387 5.67967 156.926 5.09547 160.479C4.51134 164.032 3.99751 167.595 3.55397 171.167C2.63787 178.544 1.22877 187.324 3.82667 194.482C6.04677 200.599 12.3093 205.515 18.0553 208.151C22.5471 210.209 27.3211 211.877 31.6861 214.184C33.3511 214.884 36.0771 216.837 37.7581 216.982L38.1461 216.677C37.5471 213.528 38.1431 209.696 38.3381 206.476C39.4671 187.78 42.6581 169.736 47.3251 151.61C47.8391 152.158 48.4771 152.071 48.9671 152.581C44.2811 167.774 41.7361 184.872 40.5161 200.703C40.2381 204.382 40.0221 208.064 39.8681 211.75C39.7961 213.647 39.8891 215.66 39.6961 217.54C39.6891 218.375 39.7091 219.3 39.2291 220.011C38.3991 220.123 37.6111 219.221 36.9021 218.753C34.7021 217.304 32.0671 216.243 29.6881 215.096C24.4751 213.13 16.0541 209.786 11.6306 206.502C12.0365 209.188 11.9631 211.881 12.0404 214.588C12.2196 219.874 12.2931 225.161 12.2609 230.449C12.2779 251.542 11.4089 272.564 10.5329 293.633L9.93657 308.328C9.78077 312.367 9.35337 316.76 10.136 320.743C11.1323 322.142 12.3789 323.15 13.7191 324.208L13.3854 324.599L13.4061 324.854C13.3235 324.913 13.2396 324.97 13.1585 325.03C12.8276 325.279 12.9381 325.159 12.7489 325.494C11.8087 325.106 11.0072 324.436 10.2736 323.741C8.84487 322.385 8.12307 320.407 8.00957 318.48C7.70647 313.333 8.19207 308.038 8.39657 302.891L9.56687 274.133C9.92337 263.536 10.4489 252.913 10.5047 242.31C10.5698 229.966 10.1324 217.657 10.0284 205.318C6.12037 201.732 2.75567 198.126 1.41627 192.859C-0.25343 186.294 0.816368 179.567 1.57417 172.957C2.2723 166.958 3.16667 160.989 4.25727 155.05C5.34794 149.111 6.63247 143.213 8.11087 137.358C9.58934 131.502 11.2585 125.701 13.1184 119.955C14.9783 114.209 17.0249 108.529 19.2583 102.917C21.0801 98.3132 22.8541 93.2129 25.3691 88.9625Z" fill="#752346"/>
<path d="M176.045 108.622C179.658 108.591 183.235 109.26 186.697 110.248C190.709 110.972 194.764 110.431 198.813 110.355C211.67 110.114 227.888 110.719 235.982 122.328C238.91 126.528 240.269 131.543 241.008 136.546C243.09 150.619 240.53 173.946 237.873 188.083C236.339 196.241 233.847 208.143 230.641 215.652C229.47 219.331 227.488 222.817 225.342 226.011C218.266 236.411 208.17 242.174 197.23 247.839C192.8 250.134 188.346 252.49 183.701 254.325C181.605 255.178 179.498 255.98 177.288 256.498C177.13 261.41 177.223 266.335 177.236 271.25C177.243 273.756 177.553 276.778 177.009 279.212C177.309 279.772 177.302 279.875 177.935 280.075C179.656 280.618 181.617 280.73 183.393 281.127C189.094 282.402 196.594 285.163 199.572 290.585C200.748 292.726 201.147 295.431 200.423 297.784C199.237 301.641 195.621 304.46 192.178 306.255C182.24 311.437 167.529 311.824 156.905 308.478C154.353 307.674 151.979 306.564 149.601 305.36C150.02 307.804 152.107 317.54 151.654 319.311C150.56 321.653 147.875 324.228 145.555 325.362L145.136 325.918C145.757 327.554 145.504 329.661 144.819 331.258C144.081 332.975 142.742 334.477 140.969 335.159C140.884 335.192 140.797 335.221 140.712 335.252C138.891 336.827 118.426 340.687 114.838 340.646C113.495 340.631 111.412 340.517 110.467 339.465C110.053 339.003 109.866 338.433 109.962 337.813C110.465 334.566 119.649 328.657 122.516 326.69C121.1 325.159 117.817 325.8 116.529 324.43C115.929 322.364 116.614 320.136 117.073 318.102C116.236 317.917 115.559 318.189 114.769 318.433C113.891 318.574 110.928 318.761 110.398 319.387C110.337 319.461 110.288 319.544 110.232 319.623C109.839 321.354 109.154 322.578 107.635 323.54C103.712 326.025 89.3719 327.485 84.2839 327.666C83.1789 327.819 81.9199 327.978 80.8069 327.915C79.7209 327.855 78.6719 327.513 77.9419 326.675C77.3379 325.984 76.8689 325.139 77.0009 324.191C77.5939 319.927 88.1919 317.192 91.4139 314.902C91.4589 314.87 91.5019 314.837 91.5459 314.804C90.3279 314.287 88.6829 313.517 87.7759 312.545C87.6589 312.419 87.4849 312.202 87.3859 312.065C86.6229 310.998 86.5239 309.781 86.6409 308.514C87.3039 301.292 88.9069 294.01 89.8349 286.792C91.7119 272.187 92.8839 257.698 93.6189 242.995C93.7609 240.157 94.1809 237.285 94.2599 234.46C94.2819 233.676 94.0939 233.661 93.5769 233.14C93.7539 232.677 94.0429 232.407 94.3829 232.063L94.7999 232.083L95.7509 231.889C95.7469 232.812 95.7579 232.874 96.3099 233.612C96.9429 232.358 98.4949 228.318 99.6319 227.755C100.096 228.311 100.325 229.006 101.039 229.298C102.237 229.785 103.327 229.044 104.246 228.358C107.061 226.254 109.645 223.834 112.415 221.67C114.749 219.846 117.275 218.252 119.67 216.504C121.975 214.82 124.239 212.955 126.82 211.704C129.578 210.368 132.761 209.914 135.581 208.678L135.843 208.562C137.807 208.355 140.303 207.228 142.17 206.536C147.102 205.194 152.492 203.879 157.234 201.996C157.374 201.885 157.438 201.85 157.545 201.683C157.795 201.292 157.805 200.945 157.667 200.528C158.216 200.228 158.653 199.855 159.126 199.45C159.45 198.287 160.329 196.959 160.896 195.859C163.605 190.612 163.49 189.173 162.723 183.38C161.379 175.569 156.947 161.476 153.459 154.299C152.824 154.094 152.606 154.485 151.914 154.551L151.609 154.092C151.748 153.3 151.973 152.538 151.706 151.756C150.986 151.793 150.053 152.813 149.5 153.276C148.722 152.75 148.582 152.703 147.643 152.669C143.723 155.603 141.259 155.832 136.454 155.494C137.232 152.643 143.364 141.781 145.425 139.395C146.791 137.815 148.229 136.729 150.036 135.694C149.244 135.559 148.88 135.423 148.275 134.89C148.391 134.689 148.56 134.51 148.625 134.287C148.9 133.341 148.568 131.152 148.576 130.068C148.599 126.765 148.865 123.384 149.816 120.211L149.884 119.866C149.468 119.35 148.788 120.136 147.648 119.558C149.62 117.488 151.971 115.756 154.405 114.27L155.113 114.73C155.457 114.284 155.474 114.14 156.014 114.011L155.708 115.209L155.912 115.411C155.415 117.29 155.249 118.783 156.246 120.569C156.575 121.158 156.974 121.67 157.418 122.175C159.225 123.541 161.059 124.338 163.387 123.975C164.373 123.821 165.379 123.538 166.32 123.211C169.009 121.706 170.957 120.054 172.919 117.674C174.365 115.224 175.719 112.798 176.844 110.183L171.364 110.284C171.241 109.895 171.24 109.482 171.208 109.077C172.243 108.431 174.699 108.76 176.045 108.622Z" fill="#F9F871"/>
<path d="M157.667 200.528C158.216 200.228 158.653 199.855 159.126 199.45C159.556 199.742 159.98 200.09 160.469 200.266C159.657 201.759 158.818 203.236 157.953 204.698C152.919 213.077 146.988 221.839 140.048 228.777L139.933 229.129L139.709 229.424C139.459 229.757 139.257 230.096 139.054 230.458C138.43 230.908 137.902 230.976 137.15 231.085C133.444 231.475 129.351 232.57 126.934 235.658C126.17 236.633 124.858 238.572 124.985 239.823C125.319 239.983 125.337 240.087 125.713 239.952C127.727 239.235 128.873 235.131 131.681 235.843C131.824 236.493 131.54 236.939 131.178 237.49C130.279 238.865 129.249 239.985 128.616 241.531C128.526 241.751 128.434 241.965 128.35 242.187L127.612 242.588L127.299 242.425L127.29 242.254L126.613 242.077L126.514 242.327L126.625 242.438L125.541 243.81C123.213 247.369 122.315 251.039 121.508 255.152C121.655 253.795 121.263 252.439 121.288 251.062C121.297 250.544 121.163 250.462 120.902 250.029C120.481 251.81 120.365 254.713 119.257 256.132C119.138 256.961 119.101 257.748 119.109 258.584C118.704 259.082 118.317 259.571 117.968 260.11C118.397 266.189 119.405 272.28 119.703 278.344C119.857 281.486 119.607 284.683 119.568 287.83C119.478 295.03 119.315 302.048 118.656 309.235C118.201 311.408 118.106 313.645 117.449 315.775C117.999 316.303 118.478 316.805 118.925 317.424L118.812 317.873L117.629 323.138C123.943 325.564 130.445 326.678 137.188 326.613C138.697 326.27 140.185 325.836 141.676 325.424C142.811 324.896 143.92 324.291 145.033 323.718L145.555 325.362L145.136 325.918C145.757 327.554 145.504 329.661 144.819 331.258C144.081 332.975 142.742 334.477 140.969 335.159C140.884 335.192 140.797 335.221 140.712 335.252C138.891 336.827 118.426 340.687 114.838 340.646C113.495 340.631 111.412 340.517 110.467 339.465C110.053 339.004 109.866 338.433 109.962 337.814C110.465 334.566 119.649 328.657 122.516 326.69C121.1 325.159 117.817 325.801 116.529 324.43C115.929 322.364 116.614 320.136 117.073 318.102C116.236 317.917 115.559 318.19 114.769 318.433C113.891 318.575 110.928 318.761 110.398 319.388C110.337 319.461 110.288 319.544 110.232 319.623C109.839 321.354 109.154 322.578 107.635 323.54C103.712 326.025 89.3719 327.485 84.2839 327.666C83.1789 327.82 81.9199 327.978 80.8069 327.915C79.7209 327.855 78.6719 327.513 77.9419 326.675C77.3379 325.984 76.8689 325.139 77.0009 324.192C77.5939 319.927 88.1919 317.192 91.4139 314.902C91.4589 314.87 91.5019 314.837 91.5459 314.804C90.3279 314.287 88.6829 313.517 87.7759 312.545C87.6589 312.419 87.4849 312.203 87.3859 312.065C86.6229 310.999 86.5239 309.782 86.6409 308.514C87.3039 301.292 88.9069 294.01 89.8349 286.792C91.7119 272.188 92.8839 257.698 93.6189 242.996C93.7609 240.157 94.1809 237.285 94.2599 234.46C94.2819 233.676 94.0939 233.661 93.5769 233.14C93.7539 232.677 94.0429 232.407 94.3829 232.063L94.7999 232.083L95.7509 231.889C95.7469 232.812 95.7579 232.874 96.3099 233.612C96.9429 232.358 98.4949 228.318 99.6319 227.755C100.096 228.311 100.325 229.007 101.039 229.298C102.237 229.786 103.327 229.044 104.246 228.358C107.061 226.254 109.645 223.834 112.415 221.67C114.749 219.846 117.275 218.252 119.67 216.504C121.975 214.82 124.239 212.955 126.82 211.704C129.578 210.368 132.761 209.914 135.581 208.678L135.843 208.562C137.807 208.355 140.303 207.228 142.17 206.536C147.102 205.194 152.492 203.879 157.234 201.996C157.374 201.885 157.438 201.85 157.545 201.683C157.795 201.292 157.805 200.945 157.667 200.528Z" fill="#F8C457"/>
<path d="M144.97 326.019L145.136 325.918C145.757 327.554 145.504 329.661 144.819 331.258C144.081 332.975 142.742 334.477 140.969 335.159C140.884 335.192 140.797 335.221 140.712 335.252C138.891 336.827 118.426 340.687 114.838 340.646C113.495 340.631 111.412 340.517 110.467 339.465C110.053 339.003 109.866 338.433 109.962 337.813C110.465 334.566 119.649 328.657 122.516 326.69C122.837 327.064 122.766 327.141 123.282 327.193C123.647 327.23 123.895 327.313 124.223 327.485C124.391 327.386 124.535 327.223 124.728 327.186C125.991 326.946 128.654 327.783 130.022 327.97C132.851 328.357 135.47 328.484 138.293 328.008C140.147 327.641 141.959 327.126 143.728 326.464L144.97 326.019Z" fill="#FEFEFE"/>
<path d="M144.97 326.019L145.136 325.918C145.757 327.554 145.504 329.661 144.819 331.258C144.081 332.975 142.742 334.477 140.969 335.159C140.884 335.192 140.797 335.221 140.712 335.252C138.891 336.827 118.426 340.687 114.838 340.646C113.495 340.631 111.412 340.517 110.467 339.465C110.053 339.003 109.866 338.433 109.962 337.813C110.465 334.566 119.649 328.657 122.516 326.69C122.837 327.064 122.766 327.141 123.282 327.193C123.647 327.23 123.895 327.313 124.223 327.485C121.185 329.736 113.296 334.68 111.739 337.894L111.795 338.292C113.862 339.709 119.317 338.626 121.744 338.182C126.229 337.359 138.299 335.105 141.723 332.862C142.037 332.476 142.316 332.086 142.564 331.655C143.405 330.194 144.172 328.158 143.728 326.464L144.97 326.019Z" fill="#752346"/>
<path d="M91.5459 314.804C92.3079 315.218 92.2489 315.289 92.5299 316.064C94.3209 315.576 99.4379 318.124 101.592 318.566C103.878 319.034 106.458 318.73 108.669 319.306C109.368 319.84 109.4 319.73 110.232 319.623C109.839 321.354 109.154 322.578 107.635 323.54C103.712 326.025 89.3719 327.485 84.2839 327.666C83.1789 327.819 81.9199 327.978 80.8069 327.915C79.7209 327.855 78.6719 327.513 77.9419 326.675C77.3379 325.984 76.8689 325.139 77.0009 324.191C77.5939 319.927 88.1919 317.192 91.4139 314.902C91.4589 314.87 91.5019 314.837 91.5459 314.804Z" fill="#FEFEFE"/>
<path d="M91.5459 314.804C92.3079 315.218 92.2489 315.289 92.5299 316.064C90.7309 318.402 79.0579 320.83 78.8999 324.81C79.1609 325.468 79.1799 325.579 79.7819 326.01C80.3429 326.071 80.9029 326.146 81.4679 326.153C87.9199 325.781 98.7409 325.054 104.672 322.891C106.682 322.158 107.766 321.229 108.669 319.306C109.368 319.84 109.4 319.73 110.232 319.623C109.839 321.354 109.154 322.578 107.635 323.54C103.712 326.025 89.3719 327.485 84.2839 327.666C83.1789 327.819 81.9199 327.978 80.8069 327.915C79.7209 327.855 78.6719 327.513 77.9419 326.675C77.3379 325.984 76.8689 325.139 77.0009 324.191C77.5939 319.927 88.1919 317.192 91.4139 314.902C91.4589 314.87 91.5019 314.837 91.5459 314.804Z" fill="#752346"/>
<path d="M94.7999 232.083L95.7509 231.889C95.7469 232.812 95.7579 232.874 96.3099 233.612C94.8339 238.562 95.0369 247.29 94.7669 252.662C94.4209 260.143 93.8599 267.608 93.0839 275.056C92.3013 282.138 91.3683 289.2 90.2849 296.242C89.5359 300.976 88.4949 305.786 88.1339 310.564C92.1949 314.874 102.146 317.335 107.8 317.533C108.354 317.553 108.899 317.551 109.452 317.503C111.82 317.407 113.975 316.95 116.256 316.32L117.449 315.774C117.999 316.303 118.478 316.805 118.925 317.424L118.812 317.873L117.629 323.138C123.943 325.564 130.445 326.678 137.188 326.612C138.697 326.27 140.185 325.836 141.676 325.424C142.811 324.896 143.92 324.291 145.033 323.718L145.555 325.361L145.136 325.918L144.97 326.019L143.728 326.464C141.959 327.126 140.147 327.641 138.293 328.008C135.47 328.484 132.851 328.357 130.022 327.97C128.654 327.782 125.991 326.946 124.728 327.186C124.535 327.223 124.391 327.385 124.223 327.485C123.895 327.313 123.647 327.23 123.282 327.193C122.766 327.141 122.837 327.064 122.516 326.69C121.1 325.159 117.817 325.8 116.529 324.43C115.929 322.364 116.614 320.136 117.073 318.102C116.236 317.917 115.559 318.189 114.769 318.433C113.891 318.574 110.928 318.761 110.398 319.387C110.337 319.461 110.288 319.544 110.232 319.623C109.4 319.73 109.368 319.84 108.669 319.306C106.458 318.73 103.878 319.034 101.592 318.565C99.4379 318.124 94.3209 315.576 92.5299 316.064C92.2489 315.289 92.3079 315.218 91.5459 314.804C90.3279 314.287 88.6829 313.517 87.7759 312.545C87.6589 312.419 87.4849 312.202 87.3859 312.065C86.6229 310.998 86.5239 309.781 86.6409 308.514C87.3039 301.292 88.9069 294.01 89.8349 286.792C91.7119 272.187 92.8839 257.698 93.6189 242.995C93.7609 240.156 94.1809 237.285 94.2599 234.46C94.2819 233.676 94.0939 233.661 93.5769 233.14C93.7539 232.677 94.0429 232.407 94.3829 232.063L94.7999 232.083Z" fill="#752346"/>
<path d="M117.449 315.775C117.999 316.303 118.478 316.805 118.925 317.425L118.812 317.873C118.688 318.066 118.649 318.142 118.481 318.329C118.12 318.731 117.873 318.959 117.343 318.977L117.333 318.24C117.483 317.884 117.494 317.659 117.476 317.275C117.071 317.075 116.769 316.929 116.472 316.581C116.398 316.495 116.328 316.407 116.256 316.32L117.449 315.775Z" fill="#752346"/>
<path d="M157.667 200.528C158.216 200.228 158.653 199.855 159.126 199.45C159.556 199.742 159.98 200.09 160.469 200.266C159.657 201.759 158.818 203.236 157.953 204.698C152.919 213.077 146.988 221.839 140.048 228.777L139.933 229.129L139.709 229.424C139.459 229.757 139.257 230.096 139.054 230.458C138.43 230.908 137.902 230.976 137.15 231.085C133.444 231.475 129.351 232.57 126.934 235.658C126.17 236.633 124.858 238.572 124.985 239.823C125.319 239.983 125.337 240.087 125.713 239.952C127.727 239.235 128.873 235.131 131.681 235.843C131.824 236.493 131.54 236.939 131.178 237.49C130.279 238.865 129.249 239.985 128.616 241.531C128.526 241.751 128.434 241.965 128.35 242.187L127.612 242.588L127.299 242.425L127.29 242.254L126.613 242.077L126.514 242.327L126.625 242.438L125.541 243.81C123.213 247.369 122.315 251.039 121.508 255.152C121.655 253.795 121.263 252.439 121.288 251.062C121.297 250.544 121.163 250.462 120.902 250.029C120.481 251.81 120.365 254.713 119.257 256.132C118.981 254.815 119.061 253.386 119.049 252.042C118.714 252.146 118.423 252.136 118.075 252.145L117.627 251.7C117.698 247.721 118.144 243.758 118.307 239.782C118.548 239.425 118.791 239.073 119.051 238.731C120.238 237.176 122.163 237.111 123.715 236.091C124.87 235.333 125.913 234.279 126.968 233.384C130.222 230.623 133.142 229.817 137.339 229.242L139.167 227.342C142.784 223.016 146.393 218.703 149.686 214.123C151.678 211.352 153.401 208.152 155.584 205.562C156.153 204.405 157.184 203.316 157.234 201.996C157.374 201.885 157.438 201.85 157.545 201.683C157.795 201.292 157.805 200.945 157.667 200.528Z" fill="#752346"/>
<path d="M120.119 240.683C121.235 241.142 123.347 241.73 124.08 242.674L123.886 243.287C122.491 245.022 121.402 247.863 120.902 250.029C120.481 251.81 120.365 254.713 119.257 256.132C118.981 254.815 119.061 253.386 119.049 252.042C119.482 248.263 119.474 244.437 120.119 240.683Z" fill="#FEFEFE"/>
<path d="M117.627 251.7L118.075 252.145C118.423 252.136 118.714 252.146 119.049 252.042C119.061 253.386 118.981 254.815 119.257 256.132C119.138 256.961 119.101 257.748 119.109 258.583C118.704 259.082 118.317 259.571 117.968 260.11C117.6 257.343 117.912 254.493 117.627 251.7Z" fill="#752346"/>
<path d="M182.377 110.574C183.232 110.387 183.833 110.399 184.69 110.57L185.141 110.957L185.132 111.759C187.428 112.22 190.966 111.981 192.296 114.345C192.418 114.562 192.456 114.779 192.503 115.02C193.377 115.813 194.491 117.121 195.501 117.667C198.105 118.749 200.712 124.299 201.74 126.798C203.107 130.119 206.226 137.62 205.443 141.045C205.193 142.136 205.273 142.961 205.47 144.035C205.513 144.069 205.557 144.1 205.598 144.136C205.855 144.359 205.893 144.373 205.987 144.714C203.293 149.243 201.634 152.698 196.076 154.071C195.791 154.143 195.503 154.206 195.213 154.258L194.948 155.683C191.495 168.792 187.525 181.44 181.868 193.798C181.354 193.554 180.827 193.349 180.3 193.136C177.406 198.533 174.738 203.974 171.56 209.221C166.393 217.755 160.103 225.539 153.48 232.979C152.736 233.81 151.881 235.025 150.87 235.49C150.465 235.216 150.589 235.394 150.446 234.999C148.078 230.417 144.233 230.86 140.089 229.196C140.037 229.174 139.985 229.152 139.933 229.129L140.048 228.777C146.988 221.839 152.919 213.077 157.953 204.698C158.818 203.236 159.657 201.759 160.469 200.266C159.98 200.09 159.556 199.742 159.126 199.45C159.45 198.287 160.329 196.959 160.896 195.859C163.605 190.613 163.49 189.173 162.723 183.381C161.379 175.569 156.947 161.476 153.459 154.299C152.824 154.094 152.606 154.485 151.914 154.551L151.609 154.092C151.748 153.3 151.973 152.538 151.706 151.756C150.986 151.794 150.053 152.813 149.5 153.276C148.722 152.75 148.582 152.703 147.643 152.669C143.723 155.603 141.259 155.832 136.454 155.494C137.232 152.643 143.364 141.782 145.425 139.396C146.791 137.816 148.229 136.729 150.036 135.694C149.244 135.559 148.88 135.424 148.275 134.89C148.391 134.689 148.56 134.51 148.625 134.287C148.9 133.341 148.568 131.152 148.576 130.068C148.599 126.765 148.865 123.385 149.816 120.212L149.884 119.866C149.468 119.35 148.788 120.136 147.648 119.558C149.62 117.488 151.971 115.756 154.405 114.27L155.113 114.73C155.457 114.284 155.474 114.14 156.014 114.011L155.708 115.209L155.912 115.412C155.415 117.29 155.249 118.783 156.246 120.569C156.575 121.158 156.974 121.67 157.418 122.176C159.225 123.541 161.059 124.338 163.387 123.975C164.373 123.822 165.379 123.538 166.32 123.211C169.009 121.706 170.957 120.054 172.919 117.674C173.307 118.032 173.705 118.38 174.051 118.78C176.057 116.237 177.3 113.094 178.598 110.159C179.783 110.403 181.168 110.829 182.377 110.574Z" fill="#FEFEFE"/>
<path d="M178.598 110.159C179.783 110.403 181.168 110.829 182.377 110.574C182.908 110.746 183.569 110.827 183.924 111.26C183.844 111.289 183.763 111.316 183.683 111.346C180.85 112.416 178.252 115.116 177.033 117.858C176.643 118.735 176.247 119.673 175.989 120.598L177.412 121.704C176.756 125.054 176.67 128.024 177.105 131.409C176.609 131.911 176.118 132.419 175.632 132.931C176.12 135.181 176.666 137.521 177.655 139.612C177.977 142.234 177.174 145.44 176.713 148.021C174.32 161.392 170.499 174.067 165.412 186.651L165.091 186.699C164.587 186.206 164.42 183.526 164.261 182.66C164.148 183.218 164.028 183.773 163.902 184.327C163.511 184.009 163.118 183.694 162.723 183.381C161.379 175.569 156.947 161.476 153.459 154.299C152.824 154.094 152.606 154.485 151.914 154.551L151.609 154.092C151.748 153.3 151.973 152.538 151.706 151.756C150.986 151.794 150.053 152.813 149.5 153.276C148.722 152.75 148.582 152.703 147.643 152.669C143.723 155.603 141.259 155.832 136.454 155.494C137.232 152.643 143.364 141.782 145.425 139.396C146.791 137.816 148.229 136.729 150.036 135.694C149.244 135.559 148.88 135.424 148.275 134.89C148.391 134.689 148.56 134.51 148.625 134.287C148.9 133.341 148.568 131.152 148.576 130.068C148.599 126.765 148.865 123.385 149.816 120.212L149.884 119.866C149.468 119.35 148.788 120.136 147.648 119.558C149.62 117.488 151.971 115.756 154.405 114.27L155.113 114.73C155.457 114.284 155.474 114.14 156.014 114.011L155.708 115.209L155.912 115.412C155.415 117.29 155.249 118.783 156.246 120.569C156.575 121.158 156.974 121.67 157.418 122.176C159.225 123.541 161.059 124.338 163.387 123.975C164.373 123.822 165.379 123.538 166.32 123.211C169.009 121.706 170.957 120.054 172.919 117.674C173.307 118.032 173.705 118.38 174.051 118.78C176.057 116.237 177.3 113.094 178.598 110.159Z" fill="#F8C457"/>
<path d="M154.405 114.27L155.113 114.73C155.457 114.284 155.474 114.14 156.014 114.011L155.708 115.209L155.912 115.411C155.415 117.29 155.249 118.783 156.246 120.569C156.575 121.158 156.974 121.67 157.418 122.176L156.031 123.023C155.985 122.983 155.937 122.942 155.891 122.899C154.526 121.634 153.994 119.784 153.83 117.989L153.724 116.875L153.424 116.644C152.57 117.052 152.307 117.516 151.978 118.416C150.464 122.566 149.78 129.025 150.234 133.448C151.393 133.312 153.111 132.94 154.232 133.21C155.175 133.438 156.035 133.968 157.015 134.059C159.709 134.309 161.945 133.123 164.389 135.061C166.007 136.344 166.753 138.402 166.906 140.403C167.074 142.611 166.573 145.046 165.053 146.725C164.179 147.691 156.462 149.867 155.094 149.964C154.855 150.119 154.313 150.352 154.267 150.638C154.012 152.226 163.962 175.713 164.261 182.66C164.148 183.218 164.028 183.773 163.902 184.327C163.511 184.009 163.118 183.694 162.723 183.381C161.379 175.569 156.947 161.476 153.459 154.299C152.824 154.094 152.606 154.485 151.914 154.551L151.609 154.092C151.748 153.3 151.973 152.538 151.706 151.756C150.986 151.794 150.053 152.813 149.5 153.276C148.722 152.75 148.582 152.703 147.643 152.669C143.723 155.603 141.259 155.832 136.454 155.494C137.232 152.643 143.364 141.782 145.425 139.396C146.791 137.815 148.229 136.729 150.036 135.694C149.244 135.559 148.88 135.423 148.275 134.89C148.391 134.689 148.56 134.51 148.625 134.287C148.9 133.341 148.568 131.152 148.576 130.068C148.599 126.765 148.865 123.385 149.816 120.211L149.884 119.866C149.468 119.35 148.788 120.136 147.648 119.558C149.62 117.488 151.971 115.756 154.405 114.27Z" fill="#752346"/>
<path d="M150.036 135.694C151.823 135.127 153.488 134.85 155.332 134.582L155.086 134.833C153.312 136.637 150.233 138.31 149.135 140.576L149.266 140.94C152.126 140.695 155.99 136.902 158.792 139.606C158.976 139.784 159.069 140.011 159.172 140.239C159.042 140.928 158.84 141.303 158.22 141.678C156.615 142.648 153.924 142.429 152.765 144.033C152.87 144.609 152.869 144.578 153.339 144.933C155.093 144.934 156.937 143.819 158.543 144.778C158.932 145.402 158.959 145.441 158.912 146.171C157.806 147.783 155.876 147.924 154.197 148.648C153.585 148.858 152.986 149.1 152.401 149.376C151.816 149.651 151.247 149.958 150.696 150.296C150.145 150.634 149.614 151.002 149.104 151.399C148.593 151.795 148.106 152.218 147.643 152.669C143.723 155.603 141.259 155.832 136.454 155.494C137.232 152.643 143.364 141.782 145.425 139.396C146.791 137.815 148.229 136.729 150.036 135.694Z" fill="#FEFEFE"/>
<path d="M175.989 120.597L177.412 121.704C176.756 125.054 176.67 128.024 177.105 131.408C176.609 131.911 176.118 132.419 175.632 132.931C175.193 128.72 175.113 124.764 175.989 120.597Z" fill="#752346"/>
<path d="M157.418 122.176C159.225 123.541 161.059 124.338 163.387 123.975C164.373 123.821 165.379 123.538 166.32 123.211L166.644 123.641C166.44 124.133 166.208 124.556 165.935 125.009C164.922 125.359 163.881 125.587 162.81 125.637C160.075 125.763 158.029 124.846 156.031 123.023L157.418 122.176Z" fill="#752346"/>
<path d="M172.919 117.674C173.307 118.032 173.705 118.38 174.051 118.78C171.828 121.524 169.378 123.896 165.935 125.009C166.208 124.556 166.44 124.133 166.644 123.641L166.32 123.211C169.009 121.706 170.957 120.054 172.919 117.674Z" fill="#752346"/>
<path d="M177.105 131.408C177.372 133.046 177.616 134.68 178.063 136.282L178.4 136.071C178.52 134.808 178.658 133.547 178.814 132.287C179.657 133.581 178.879 134.716 180.105 135.93C179.368 142.85 178.248 149.708 176.746 156.504C175.243 163.3 173.368 169.992 171.12 176.58C170.346 178.815 169.568 181.594 168.374 183.627C166.818 184.801 166.463 186.445 165.543 186.719L165.412 186.651C170.499 174.067 174.32 161.391 176.713 148.021C177.174 145.44 177.977 142.234 177.655 139.612C176.666 137.521 176.12 135.181 175.632 132.931C176.118 132.419 176.609 131.911 177.105 131.408Z" fill="#752346"/>
<path d="M193.915 152.503C194.657 153.013 194.66 153.561 194.797 154.421C194.86 154.84 194.91 155.26 194.948 155.683C191.495 168.792 187.525 181.44 181.868 193.797C181.354 193.554 180.827 193.349 180.3 193.136C186.141 179.869 190.685 166.631 193.915 152.503Z" fill="#752346"/>
<path d="M195.501 117.667C198.105 118.749 200.712 124.299 201.74 126.798C203.107 130.119 206.226 137.62 205.443 141.045C205.193 142.136 205.273 142.961 205.47 144.035C205.513 144.069 205.557 144.1 205.598 144.136C205.855 144.359 205.893 144.373 205.987 144.714C203.293 149.243 201.634 152.698 196.076 154.071C195.791 154.143 195.503 154.206 195.213 154.258C194.944 153.865 194.945 153.653 194.953 153.184C195.375 152.659 195.433 152.645 196.083 152.451C197.403 151.911 198.736 151.347 199.872 150.472C202.646 148.336 204.287 145.137 204.732 141.695C205.698 134.223 199.871 123.336 195.501 117.667Z" fill="#752346"/>
<path d="M164.261 182.66C164.42 183.526 164.587 186.206 165.091 186.699L165.412 186.651L165.543 186.719C166.463 186.445 166.818 184.801 168.374 183.627C166.645 188.324 163.308 196.332 160.469 200.266C159.98 200.09 159.556 199.742 159.126 199.45C159.45 198.287 160.329 196.959 160.896 195.859C163.605 190.613 163.49 189.173 162.723 183.381C163.118 183.694 163.511 184.009 163.902 184.327C164.028 183.773 164.148 183.218 164.261 182.66Z" fill="#752346"/>
<path d="M182.377 110.574C183.232 110.387 183.833 110.399 184.69 110.57L185.141 110.957L185.132 111.759C187.428 112.22 190.966 111.981 192.296 114.345C192.418 114.562 192.456 114.779 192.503 115.02C190.032 113.426 188.041 112.253 185.012 112.883C182.596 113.385 180.575 115.068 179.294 117.123C178.411 118.541 177.837 120.098 177.412 121.704L175.989 120.598C176.247 119.673 176.643 118.735 177.033 117.858C178.252 115.116 180.85 112.416 183.683 111.346C183.763 111.316 183.844 111.289 183.924 111.26C183.569 110.827 182.908 110.746 182.377 110.574Z" fill="#752346"/>
<path d="M193.915 152.503C194.329 150.668 196.758 137.877 197.293 137.338C197.561 137.067 197.699 137.151 198.06 137.138C199.911 139.213 195.247 149.832 195.991 152.256C196.012 152.325 196.052 152.386 196.083 152.451C195.433 152.645 195.375 152.659 194.953 153.184C194.945 153.653 194.944 153.865 195.213 154.258L194.948 155.683C194.91 155.26 194.86 154.84 194.797 154.421C194.66 153.561 194.657 153.013 193.915 152.503Z" fill="#752346"/>
<path d="M178.814 132.287C178.837 130.628 179.312 124.419 179.635 122.998C179.744 122.52 180.02 122.203 180.34 121.853L180.635 121.83C181.797 123.67 180.571 133.366 180.121 135.863C180.117 135.885 180.111 135.907 180.105 135.93C178.879 134.716 179.657 133.581 178.814 132.287Z" fill="#752346"/>
<path d="M153.48 232.979C160.103 225.539 166.393 217.755 171.56 209.221C174.738 203.974 177.406 198.533 180.3 193.136C180.827 193.349 181.354 193.554 181.868 193.798C180.295 197.121 178.158 202.517 175.682 205.236L175.348 205.136C175.002 205.594 174.739 205.897 174.696 206.495L174.795 206.781C183.027 208.644 194.607 209.271 201.982 204.62C202.353 204.384 202.719 204.14 203.08 203.887C201.928 212.085 202.103 218.992 194.86 224.502C190.492 227.826 185.307 230.302 180.52 232.974C173.449 236.922 156.66 246.696 151.815 253.049C148.911 256.858 147.43 261.45 146.755 266.143C146.02 271.254 146.168 276.507 146.31 281.651C146.515 289.042 146.813 296.33 147.691 303.682C148.282 308.628 149.255 313.503 149.933 318.434C149.961 318.504 149.993 318.571 150.017 318.641C150.209 319.186 150.283 319.78 150.37 320.349L150.656 320.076C150.972 319.778 151.292 319.549 151.654 319.311C150.56 321.653 147.875 324.229 145.555 325.362L145.033 323.718C143.92 324.291 142.811 324.896 141.676 325.425C140.185 325.836 138.697 326.27 137.188 326.613C130.445 326.678 123.943 325.564 117.629 323.138L118.812 317.873L118.925 317.425C118.478 316.805 117.999 316.303 117.449 315.775C118.106 313.645 118.201 311.408 118.656 309.235C119.315 302.048 119.478 295.03 119.568 287.83C119.607 284.683 119.857 281.486 119.703 278.344C119.405 272.28 118.397 266.189 117.968 260.11C118.317 259.571 118.704 259.082 119.109 258.584C119.101 257.748 119.138 256.961 119.257 256.132C120.365 254.713 120.481 251.81 120.902 250.029C121.163 250.462 121.297 250.544 121.288 251.062C121.263 252.439 121.655 253.795 121.508 255.152C122.315 251.039 123.213 247.369 125.541 243.81L126.625 242.438L126.514 242.327L126.613 242.077L127.29 242.254L127.299 242.425L127.612 242.588L128.35 242.187C128.434 241.965 128.526 241.751 128.616 241.531C129.249 239.985 130.279 238.865 131.178 237.49C131.54 236.939 131.824 236.493 131.681 235.843C128.873 235.131 127.727 239.235 125.713 239.952C125.337 240.087 125.319 239.983 124.985 239.823C124.858 238.572 126.17 236.633 126.934 235.658C129.351 232.57 133.444 231.475 137.15 231.085C137.902 230.976 138.43 230.908 139.054 230.458C139.257 230.096 139.459 229.757 139.709 229.425L139.933 229.129C139.985 229.152 140.037 229.174 140.089 229.196C144.233 230.86 148.078 230.417 150.446 234.999C150.589 235.394 150.465 235.216 150.87 235.49C151.881 235.025 152.736 233.81 153.48 232.979Z" fill="#F8C457"/>
<path d="M137.15 231.085C137.902 230.976 138.43 230.908 139.054 230.458C139.257 230.096 139.459 229.757 139.709 229.424L139.933 229.129C139.985 229.152 140.037 229.174 140.089 229.196C144.233 230.86 148.078 230.417 150.446 234.998C149.981 235.25 149.514 235.496 149.045 235.738C149.03 237.127 149.001 238.007 147.922 239.032C147.705 239.24 147.468 239.441 147.214 239.603C145.005 241.013 141.833 240.024 139.471 241.17C137.625 242.065 136.818 244.558 135.111 245.644C134.812 245.833 134.541 245.871 134.196 245.899C133.458 245.523 133.225 244.849 132.88 244.143C133.565 242.623 134.624 241.169 135.214 239.643C135.468 238.988 135.565 238.705 135.301 238.068C135.041 238.01 134.996 237.983 134.695 238.012C131.904 238.272 131.304 242.628 129.688 244.364C129.64 244.416 129.588 244.466 129.537 244.517C129.377 244.44 129.164 244.348 129.032 244.23C128.446 243.709 128.466 242.913 128.35 242.187C128.434 241.965 128.526 241.751 128.616 241.531C129.249 239.985 130.279 238.865 131.178 237.49C131.54 236.939 131.824 236.493 131.681 235.843C128.873 235.131 127.727 239.235 125.713 239.952C125.337 240.087 125.319 239.983 124.985 239.823C124.858 238.572 126.17 236.633 126.934 235.658C129.351 232.57 133.444 231.475 137.15 231.085Z" fill="#FEFEFE"/>
<path d="M137.15 231.085C137.902 230.976 138.43 230.908 139.054 230.458C139.257 230.096 139.459 229.757 139.709 229.424L139.933 229.129C139.985 229.152 140.037 229.174 140.089 229.196C144.233 230.86 148.078 230.417 150.446 234.998C149.981 235.25 149.514 235.496 149.045 235.738C148.75 235.321 148.428 234.927 148.079 234.555C145.299 231.554 140.982 231.214 137.15 231.085Z" fill="#752346"/>
<path d="M153.48 232.979C160.103 225.539 166.393 217.755 171.56 209.221C174.738 203.974 177.406 198.533 180.3 193.136C180.827 193.349 181.354 193.554 181.868 193.798C180.295 197.121 178.158 202.517 175.682 205.236L175.348 205.136C175.002 205.594 174.739 205.897 174.696 206.495L174.795 206.781C173.71 210.729 159.861 229.331 156.166 232.375C153.575 235.272 151.015 238.396 148.28 241.136C145.896 241.946 142.648 241.49 140.576 242.631C138.48 243.783 137.328 246.75 135.016 247.488C134.559 247.634 134.062 247.633 133.616 247.446C132.694 247.06 132.126 246.277 131.686 245.423C131.024 245.282 130.448 245.701 129.875 245.99L128.965 245.936L129.012 245.842C128.992 245.506 128.99 245.173 128.992 244.836L129.537 244.517C129.588 244.466 129.64 244.416 129.688 244.364C131.304 242.628 131.904 238.272 134.695 238.012C134.996 237.983 135.041 238.01 135.301 238.068C135.565 238.705 135.468 238.989 135.214 239.643C134.624 241.169 133.565 242.624 132.88 244.143C133.225 244.849 133.458 245.523 134.196 245.899C134.541 245.871 134.812 245.833 135.111 245.644C136.818 244.558 137.625 242.065 139.471 241.17C141.833 240.024 145.005 241.014 147.214 239.603C147.468 239.441 147.705 239.24 147.922 239.032C149.001 238.007 149.03 237.127 149.045 235.738C149.514 235.496 149.981 235.25 150.446 234.999C150.589 235.394 150.465 235.216 150.87 235.49C151.881 235.025 152.736 233.81 153.48 232.979Z" fill="#752346"/>
<path d="M120.902 250.029C121.163 250.462 121.297 250.544 121.288 251.062C121.263 252.439 121.655 253.794 121.508 255.152L121.215 260.884C121.394 277.006 121.649 292.93 120.305 309.025C119.843 309.42 119.749 309.57 119.131 309.65L118.656 309.235C119.315 302.048 119.478 295.03 119.568 287.83C119.607 284.683 119.857 281.486 119.703 278.344C119.405 272.28 118.397 266.188 117.968 260.11C118.317 259.571 118.704 259.082 119.109 258.583C119.101 257.748 119.138 256.96 119.257 256.132C120.365 254.713 120.481 251.809 120.902 250.029Z" fill="url(#paint0_linear_2908_3314)"/>
<path d="M120.902 250.029C121.163 250.462 121.297 250.544 121.288 251.062C121.263 252.439 121.655 253.794 121.508 255.152L121.215 260.884C120.893 262.159 120.938 263.639 120.867 264.956C120.802 262.914 120.784 260.86 120.521 258.83C120.012 258.488 119.713 258.578 119.109 258.583C119.101 257.748 119.138 256.96 119.257 256.132C120.365 254.713 120.481 251.809 120.902 250.029Z" fill="#752346"/>
<path d="M149.933 318.434C149.961 318.504 149.993 318.571 150.017 318.641C150.209 319.186 150.283 319.779 150.37 320.349L150.656 320.076C150.972 319.777 151.292 319.549 151.654 319.311C150.56 321.653 147.875 324.228 145.555 325.362L145.033 323.718C146.736 322.335 149.406 320.672 149.933 318.434Z" fill="#752346"/>
<path d="M118.656 309.235L119.131 309.65C119.749 309.57 119.843 309.42 120.305 309.025C119.949 311.762 119.706 314.776 118.925 317.424C118.478 316.805 117.999 316.303 117.449 315.775C118.106 313.645 118.201 311.407 118.656 309.235Z" fill="#752346"/>
<path d="M126.625 242.438L126.514 242.327L126.613 242.077L127.29 242.254L127.299 242.425L127.612 242.587L128.35 242.186C128.466 242.913 128.446 243.709 129.032 244.23C129.164 244.348 129.377 244.44 129.537 244.517L128.992 244.836C128.99 245.173 128.992 245.506 129.012 245.842L128.965 245.936C128.718 245.871 128.622 245.852 128.364 245.747C126.602 245.019 127.342 244.177 126.75 242.726C126.711 242.629 126.667 242.534 126.625 242.438Z" fill="#752346"/>
<path d="M176.045 108.622C179.658 108.591 183.235 109.26 186.697 110.248L186.084 110.482C187.87 111.426 190.507 110.495 192.113 111.395C191.595 111.77 191.287 111.883 191.06 112.492C191.488 112.836 191.739 112.896 192.261 112.995L192.456 112.811C199.557 116.804 203.597 126.428 205.712 133.953C210.121 149.634 210.504 169.476 208.04 185.523C207.238 190.742 205.67 195.846 204.92 201.043C203.98 207.557 204.615 214.273 201.195 220.237C197.237 227.138 186.555 231.509 179.766 235.362C172.761 239.337 158.573 247.736 153.62 253.781C153.802 253.9 153.829 253.926 154.057 254.029C160.328 256.853 168.878 256.968 175.476 255.345C178.827 254.521 181.989 253.219 185.187 251.945C187.808 250.236 191.123 248.963 193.948 247.525C205.518 241.638 213.496 237.448 222.22 227.54C223.63 227.595 223.596 226.577 224.611 226.352C224.911 226.285 225.082 226.172 225.342 226.011C218.266 236.411 208.17 242.174 197.23 247.839C192.8 250.134 188.346 252.49 183.701 254.325C181.605 255.178 179.498 255.98 177.288 256.498C177.13 261.41 177.223 266.335 177.236 271.25C177.243 273.756 177.553 276.778 177.009 279.212C177.309 279.772 177.302 279.875 177.935 280.075C179.656 280.618 181.617 280.73 183.393 281.127C189.094 282.402 196.594 285.163 199.572 290.585C200.748 292.726 201.147 295.431 200.423 297.784C199.237 301.641 195.621 304.46 192.178 306.255C182.24 311.437 167.529 311.824 156.905 308.478C154.353 307.674 151.979 306.564 149.601 305.36C150.02 307.804 152.107 317.54 151.654 319.311C151.292 319.549 150.972 319.777 150.656 320.076L150.37 320.349C150.283 319.779 150.209 319.186 150.017 318.641C149.993 318.571 149.961 318.504 149.933 318.434C149.255 313.503 148.282 308.628 147.691 303.682C146.813 296.33 146.515 289.042 146.31 281.651C146.168 276.507 146.02 271.254 146.755 266.143C147.43 261.45 148.911 256.858 151.815 253.049C156.66 246.696 173.449 236.922 180.52 232.974C185.307 230.302 190.492 227.825 194.86 224.502C202.103 218.991 201.928 212.085 203.08 203.887C202.719 204.14 202.353 204.384 201.982 204.619C194.607 209.271 183.027 208.644 174.795 206.781L174.696 206.495C174.739 205.897 175.002 205.594 175.348 205.136L175.682 205.236C178.158 202.517 180.295 197.121 181.868 193.797C187.525 181.44 191.495 168.792 194.948 155.683L195.213 154.258C195.503 154.206 195.791 154.143 196.076 154.071C201.634 152.698 203.293 149.243 205.987 144.714C205.893 144.373 205.855 144.359 205.598 144.136C205.557 144.1 205.513 144.069 205.47 144.035C205.273 142.961 205.193 142.136 205.443 141.045C206.226 137.62 203.107 130.119 201.74 126.798C200.712 124.299 198.105 118.749 195.501 117.667C194.491 117.121 193.377 115.812 192.503 115.019C192.456 114.779 192.418 114.562 192.296 114.345C190.966 111.981 187.428 112.219 185.132 111.759L185.141 110.957L184.69 110.57C183.833 110.399 183.232 110.387 182.377 110.573C181.168 110.829 179.783 110.403 178.598 110.159C177.3 113.094 176.057 116.237 174.051 118.78C173.705 118.38 173.307 118.032 172.919 117.674C174.365 115.224 175.719 112.798 176.844 110.183L171.364 110.284C171.241 109.895 171.24 109.482 171.208 109.077C172.243 108.431 174.699 108.76 176.045 108.622Z" fill="#752346"/>
<path d="M195.213 154.258C195.503 154.206 195.791 154.143 196.076 154.071C201.634 152.698 203.293 149.243 205.987 144.714C209.226 159.493 208.097 178.564 204.902 193.294C204.322 195.97 203.84 199.325 202.334 201.648C200.706 204.161 197.004 205.334 194.207 205.843C188.285 206.923 181.547 206.489 175.682 205.236C178.158 202.517 180.295 197.121 181.868 193.797C187.525 181.44 191.495 168.792 194.948 155.683L195.213 154.258Z" fill="#F8C457"/>
<path d="M152.429 255.031C156.057 256.884 160.527 257.778 164.533 258.292C164.498 264.744 164.504 271.196 164.552 277.648L164.521 280.297C158.628 281.206 153.295 282.836 148.256 286.112C147.676 278.165 147.646 270.042 149.308 262.223C150.184 259.714 151.157 257.373 152.429 255.031Z" fill="#FEFEFE"/>
<path d="M166.322 258.284C169.363 258.063 172.57 257.959 175.511 257.092C175.512 264.563 175.271 272.115 175.538 279.575C175.446 282.75 176.799 289.887 174.713 292.258C174.051 293.01 173.158 293.288 172.181 293.337C169.635 293.463 168.115 292.611 166.298 290.936C166.068 287.107 166.255 283.165 166.21 279.326C166.24 272.321 166.031 265.28 166.322 258.284Z" fill="#F9F871"/>
<path d="M222.22 227.54C223.63 227.595 223.596 226.578 224.611 226.352C224.911 226.285 225.082 226.173 225.342 226.011C218.266 236.411 208.17 242.174 197.23 247.839C192.8 250.134 188.346 252.49 183.701 254.325C181.605 255.178 179.498 255.98 177.288 256.498C177.13 261.41 177.223 266.335 177.236 271.25C177.243 273.756 177.553 276.778 177.009 279.212C176.804 278.889 176.678 278.668 176.649 278.277C176.448 275.594 176.718 272.791 176.74 270.093C176.774 265.779 176.672 261.454 176.628 257.139C175.344 262.468 175.986 268.781 176.034 274.249C176.045 275.631 176.245 277.216 176.08 278.579C176.022 279.062 175.84 279.208 175.538 279.575C175.271 272.115 175.512 264.563 175.511 257.092C172.57 257.959 169.363 258.063 166.322 258.284C166.031 265.28 166.24 272.321 166.21 279.326C164.638 276.857 166.649 263.432 165.538 259.47L165.372 259.416C165.428 264.405 164.892 269.403 165.024 274.397C165.044 275.147 165.348 276.283 165.167 276.988C165.052 277.431 164.929 277.471 164.552 277.648C164.504 271.196 164.498 264.744 164.533 258.292C160.527 257.778 156.057 256.884 152.429 255.031C151.157 257.373 150.184 259.714 149.308 262.222C149.293 262.195 149.274 262.17 149.264 262.14C148.716 260.595 151.372 255.847 152.058 254.19C152.515 254.161 152.958 254.154 153.368 253.928C153.453 253.881 153.536 253.83 153.62 253.782C153.802 253.9 153.829 253.926 154.057 254.029C160.328 256.853 168.878 256.968 175.476 255.345C178.827 254.521 181.989 253.219 185.187 251.945C187.808 250.236 191.123 248.963 193.948 247.525C205.518 241.638 213.496 237.448 222.22 227.54Z" fill="#752346"/>
<path d="M186.697 110.248C190.709 110.972 194.764 110.431 198.813 110.355C211.67 110.114 227.888 110.719 235.982 122.328C238.91 126.528 240.269 131.543 241.008 136.546C243.09 150.619 240.53 173.946 237.873 188.083C236.339 196.241 233.847 208.143 230.641 215.652C229.47 219.331 227.488 222.817 225.342 226.011C225.082 226.172 224.911 226.285 224.611 226.352C223.596 226.577 223.63 227.595 222.22 227.54C223.724 225.558 224.924 223.369 226.323 221.315C235.129 202.225 238.716 176.935 239.657 156.063C239.975 149.031 240.249 141.91 238.949 134.949C237.683 128.172 234.812 121.828 228.958 117.857C220.545 112.152 208.355 111.703 198.493 112.009C196.622 112.067 194.401 111.936 192.58 112.283L192.456 112.811L192.261 112.995C191.739 112.896 191.488 112.836 191.06 112.492C191.287 111.883 191.595 111.77 192.113 111.395C190.507 110.495 187.87 111.426 186.084 110.482L186.697 110.248Z" fill="#752346"/>
<path d="M226.323 221.315L227.044 220.79C227.404 220.924 227.418 221.017 227.647 221.308C228.293 220.035 229.55 216.134 230.641 215.652C229.47 219.331 227.488 222.817 225.342 226.011C225.082 226.173 224.911 226.285 224.611 226.352C223.596 226.578 223.63 227.595 222.22 227.54C223.724 225.558 224.924 223.37 226.323 221.315Z" fill="#752346"/>
<path d="M75.6899 0.835409C82.0759 -0.998805 94.0879 1.74444 99.8209 4.88608C103.922 7.13337 106.546 10.4444 107.807 14.9315C109.032 19.2912 109.659 28.8124 107.373 32.9456C107.262 33.1462 107.142 33.3245 107.009 33.5108C106.974 33.6282 106.937 33.745 106.903 33.8629C106.312 35.9425 106.537 38.439 106.129 40.6137C104.194 50.9472 100.022 62.0547 90.5619 67.6803C89.7869 68.1413 88.6679 68.5035 88.2999 69.3668C87.8539 72.4563 87.2639 75.5179 86.5299 78.5516C85.9869 80.7391 84.0099 85.7287 84.0319 87.5421C83.5859 86.9556 83.2519 86.7202 82.5579 86.5067C82.2289 86.9905 81.7739 87.4993 81.7079 88.0948C80.8509 89.7426 81.8779 91.9551 81.7029 93.8065C81.5409 95.2928 81.8759 97.4783 80.6429 98.5247C80.5729 98.5845 80.4959 98.6344 80.4219 98.6893C79.5529 99.3416 78.2939 102.079 78.1939 103.238C78.1879 103.303 78.1939 103.368 78.1949 103.432C77.8679 103.909 77.5659 104.388 77.1399 104.784C72.4846 99.9335 68.0792 94.8665 63.9239 89.583L65.1819 88.4948L65.4549 88.7421L65.8329 88.7202C65.8769 88.6105 65.9489 88.4449 65.9749 88.3212C66.2449 87.0274 65.8309 85.0564 65.6709 83.7077C64.6389 74.9905 61.5819 67.5971 56.5819 60.4119C57.0009 60.0117 57.5479 59.7443 58.0529 59.4618L59.3909 57.6127C58.6839 57.3795 58.5429 57.1693 58.0469 56.6368C58.8059 55.423 60.0039 54.4037 61.0189 53.3961C59.1639 53.9188 57.3619 54.5059 55.4119 54.2404C53.3079 53.9537 51.6479 52.5819 50.4079 50.9407C49.3549 49.5475 48.6209 47.8678 48.9509 46.0913C49.5279 42.9829 52.2339 41.2018 54.6939 39.6078C55.4059 37.7131 55.1269 35.5392 55.6329 33.5776C56.8379 28.9063 60.2329 24.8113 59.8029 19.8432C60.1719 19.0304 60.2549 17.7395 60.5029 16.8465C61.6719 12.6342 63.0979 7.76469 66.5529 4.82863C68.8319 2.45376 72.4699 1.13965 75.6899 0.835409Z" fill="#752346"/>
<path d="M75.69 0.835409C82.076 -0.998805 94.088 1.74444 99.821 4.88608C103.922 7.13337 106.546 10.4444 107.807 14.9315C109.032 19.2912 109.659 28.8124 107.373 32.9456C107.262 33.1462 107.142 33.3245 107.009 33.5108C106.502 32.7567 106.008 32.6165 105.166 32.3269C104.987 32.3641 104.808 32.3995 104.629 32.4331C94.071 34.437 73.803 31.8445 65.033 25.7633C63.244 24.5223 62.08 23.249 61.692 21.065L61.343 20.0142L60.667 20.4147L59.803 19.8432C60.172 19.0304 60.255 17.7395 60.503 16.8465C61.672 12.6342 63.098 7.76469 66.553 4.82863C68.832 2.45376 72.47 1.13965 75.69 0.835409Z" fill="#FEFEFE"/>
<path d="M75.69 0.835409C82.076 -0.998805 94.088 1.74444 99.821 4.88608C103.922 7.13337 106.546 10.4444 107.807 14.9315C109.032 19.2912 109.659 28.8124 107.373 32.9456C107.262 33.1462 107.142 33.3245 107.009 33.5108C106.502 32.7567 106.008 32.6165 105.166 32.3269C105.523 32.2121 105.849 32.0718 106.084 31.7644C107.661 29.7016 107.006 20.3122 106.556 17.7259C105.824 13.5268 104.249 9.88548 100.645 7.41586C93.669 2.63621 82.398 1.24828 74.208 2.7207C73.071 3.11082 71.937 3.52568 70.779 3.85137C65.675 7.11451 63.38 11.8875 62.075 17.6982C61.825 18.8122 61.684 19.9223 61.692 21.065L61.343 20.0142L60.667 20.4147L59.803 19.8432C60.172 19.0304 60.255 17.7395 60.503 16.8465C61.672 12.6342 63.098 7.76469 66.553 4.82863C68.832 2.45376 72.47 1.13965 75.69 0.835409Z" fill="#752346"/>
<path d="M93.438 21.295C93.573 20.0515 93.61 18.7349 94.09 17.5704L94.489 17.4355C96.064 18.3427 94.56 20.271 95.483 21.5554L97.621 21.8397C96.124 21.9592 94.68 22.0655 93.551 23.1832L93.304 22.9938C91.814 22.7873 90.055 22.7495 89.001 21.5355L89.221 21.2752C90.59 20.8186 92.038 21.1221 93.438 21.295Z" fill="#752346"/>
<path d="M97.6209 21.8396C98.3089 21.8525 98.6139 21.767 99.1869 22.1689L99.1749 22.8559C97.8119 23.9232 96.1239 22.5629 94.8479 23.3519C94.8373 24.0328 94.7969 24.7118 94.7269 25.3891C94.6419 26.2423 94.4639 27.0555 93.7849 27.6138C93.7249 27.5585 93.6549 27.5112 93.6029 27.4479C92.7449 26.4011 93.1919 24.263 93.3039 22.9936L93.5509 23.183C94.6799 22.0653 96.1239 21.9591 97.6209 21.8396Z" fill="#752346"/>
<path d="M71.7179 45.188L71.7329 45.7532L72.2839 45.8107L72.2809 45.6344C74.1439 46.1884 74.6659 46.846 75.8689 48.3108L75.8889 48.63C79.7209 52.9252 87.6899 55.2201 93.2499 55.5343C95.1619 55.6425 97.0859 55.6327 98.9999 55.6448C96.7349 60.5361 92.5009 65.2686 87.3419 67.1286C86.5709 67.4066 85.7779 67.6343 84.9909 67.86C83.5219 67.9097 82.0449 67.955 80.5819 67.7839C75.0539 67.1374 71.3029 64.2375 67.9609 59.9663C66.3029 57.6619 64.9489 54.6142 64.6509 51.7764L65.0019 51.5532L65.3829 51.3694L65.8959 50.7823C66.6649 50.536 67.2079 50.414 67.7049 49.7529C68.5509 49.3599 69.2349 48.8789 69.9719 48.32C70.6379 47.3242 71.1649 46.2487 71.7179 45.188Z" fill="#F9F871"/>
<path d="M71.7179 45.188L71.7329 45.7532L72.2839 45.8107L72.2809 45.6344C74.1439 46.1884 74.6659 46.846 75.8689 48.3108L75.8889 48.63C74.8499 48.1137 74.0249 47.1997 73.2249 46.3756C72.5419 47.5703 71.8399 48.6552 70.9739 49.7259C70.4059 49.434 70.2329 48.8675 69.9719 48.32C70.6379 47.3242 71.1649 46.2487 71.7179 45.188Z" fill="#752346"/>
<path d="M69.9721 48.3201C70.2331 48.8676 70.4061 49.4341 70.9741 49.7261C69.1911 51.1996 67.8541 51.569 65.5251 51.3843C65.4781 51.3805 65.4311 51.3744 65.3831 51.3695L65.8961 50.7824C66.6651 50.5361 67.2081 50.4141 67.7051 49.753C68.5511 49.36 69.2351 48.879 69.9721 48.3201Z" fill="#752346"/>
<path d="M73.259 67.0061C77.157 69.3296 82.016 70.3232 86.5 69.2967C86.684 68.9004 86.952 68.9088 87.342 68.7427L88.3 69.3668C87.854 72.4563 87.264 75.5179 86.53 78.5516C85.987 80.7392 84.01 85.7287 84.032 87.5422C83.586 86.9556 83.252 86.7202 82.558 86.5068L82.283 86.5317C79.698 84.7701 78.782 77.7886 77.374 74.821C76.619 72.1357 74.776 69.3513 73.259 67.0061Z" fill="#FEFEFE"/>
<path d="M87.3419 68.7427L88.3 69.3668C87.854 72.4563 87.264 75.5179 86.53 78.5516C85.987 80.7392 84.01 85.7287 84.032 87.5422C83.586 86.9556 83.252 86.7202 82.558 86.5068L82.283 86.5317C84.001 83.624 86.25 72.6753 86.5 69.2967C86.684 68.9004 86.9519 68.9088 87.3419 68.7427Z" fill="#752346"/>
<path d="M59.391 57.6127C60.654 56.2755 61.686 54.9561 62.687 53.4219C63.547 56.7979 64.477 60.1234 65.466 63.4642C66.042 65.4126 64.459 66.4025 65.376 67.2597L65.653 67.1676C65.968 67.0652 66.282 66.9783 66.603 66.8953C67.336 67.5121 72.984 77.3517 73.21 78.3342C73.234 78.4389 73.22 78.5497 73.225 78.6564C72.131 79.6988 70.415 79.8245 68.955 79.7916C68.3757 79.7729 67.7976 79.7377 67.221 79.6858C64.668 71.8374 63.019 66.2822 58.053 59.4619L59.391 57.6127Z" fill="#FEFEFE"/>
<path d="M67.961 59.9663C71.303 64.2374 75.054 67.1374 80.582 67.7839C82.045 67.9549 83.522 67.9096 84.991 67.86L84.751 68.2389L83.51 68.2819L83.573 68.4029C84.831 68.4962 86.0873 68.6094 87.342 68.7426C86.952 68.9087 86.684 68.9003 86.5 69.2966C82.016 70.3231 77.157 69.3295 73.259 67.006C74.776 69.3512 76.619 72.1356 77.374 74.8209C77.078 75.7087 77.563 76.0727 77.142 76.9496C76.87 77.0164 76.744 76.9865 76.559 77.2149C75.151 73.7635 71.603 65.7067 68.39 63.9771L68.167 63.9306C68.277 63.5006 68.199 63.6606 68.444 63.2833C68.502 63.1943 68.564 63.1081 68.624 63.0204L68.391 62.683L67.309 62.8959C67.044 62.712 67.004 62.7833 66.974 62.5348C66.859 61.5718 67.439 60.7129 67.961 59.9663Z" fill="#752346"/>
<path d="M68.3901 63.9771C71.6031 65.7066 75.1511 73.7635 76.5591 77.2149C76.8351 78.0807 77.1941 78.9495 77.1621 79.8672C75.2681 77.8014 73.5781 75.2248 72.0901 72.8448C70.7341 70.6762 67.7971 66.5161 68.3901 63.9771Z" fill="#F9F871"/>
<path d="M68.4741 40.4866C69.5941 42.0293 70.7271 43.5576 71.7181 45.188C71.1651 46.2488 70.6381 47.3243 69.9721 48.32C69.2351 48.8789 68.5511 49.3599 67.7051 49.7529C66.7991 49.7656 65.8921 49.7407 64.9861 49.73C66.7371 46.7971 67.7081 43.789 68.4741 40.4866Z" fill="#FEFEFE"/>
<path d="M73.985 31.5891C77.439 32.4875 80.908 33.3364 84.433 33.9118C88.038 34.5002 92.666 34.1502 95.963 35.6462C99.397 37.2042 101.677 41.0404 102.95 44.4144C102.605 47.6865 101.3 50.9532 99.7599 53.845C97.2719 53.8864 94.769 53.812 92.279 53.7939C91.531 51.4406 90.977 48.8146 90.071 46.5479L89.703 46.3872L89.728 45.4149C89.415 45.54 89.3919 45.4698 89.2769 45.7575C88.4449 47.8426 91.617 52.161 90.117 53.3646C89.857 53.3586 89.853 53.3651 89.55 53.3191C80.773 51.988 74.124 45.453 69.45 38.4237C70.822 36.0663 72.437 33.8329 73.985 31.5891Z" fill="#FEFEFE"/>
<path d="M90.1171 53.3646C89.4681 51.1795 88.2331 48.2857 88.5161 45.989C88.6931 44.5515 89.8451 42.7697 91.0661 41.9396C91.5951 41.58 91.9151 41.5404 92.5291 41.6343C93.0461 42.8997 90.3461 44.9856 90.0711 46.548L89.7031 46.3873L89.7281 45.415C89.4151 45.5401 89.3921 45.4699 89.2771 45.7576C88.4451 47.8426 91.6171 52.161 90.1171 53.3646Z" fill="#752346"/>
<path d="M95.2831 45.6987C95.5291 45.6991 95.8781 45.6765 96.1251 45.739C96.6551 45.8737 97.0841 46.2901 97.3391 46.7634C97.7831 47.5846 97.6671 48.522 97.4061 49.3779C97.0391 50.5808 96.5141 50.9084 95.4371 51.5116C95.0161 51.4219 94.6881 51.2958 94.3531 51.0139C93.8861 50.6201 93.5471 50.0132 93.5131 49.3994C93.4271 47.857 94.2781 46.74 95.2831 45.6987Z" fill="#752346"/>
<path d="M78.7819 40.2407C79.5129 40.3831 80.1279 40.4991 80.5799 41.1412C81.0359 41.7883 81.1629 42.5752 81.0249 43.345C80.8119 44.527 80.2929 45.2088 79.3249 45.8856C78.6849 45.8708 78.0919 45.8926 77.5659 45.4675C77.1319 45.117 76.9139 44.5194 76.8949 43.9786C76.8399 42.463 77.7689 41.2473 78.7819 40.2407Z" fill="#752346"/>
<path d="M78.5269 36.4004C80.1009 36.5571 82.4999 36.629 83.6499 37.8597C84.0069 38.241 83.9609 38.3751 83.9309 38.8562C83.3899 39.1102 83.2559 38.9874 82.6919 38.8409C80.8589 38.4307 77.4749 38.9195 76.1379 37.7406L76.2089 37.2614C76.7959 36.6414 77.7209 36.5761 78.5269 36.4004Z" fill="#752346"/>
<path d="M95.7389 41.2463C95.8679 41.2649 95.9979 41.2809 96.1269 41.302C97.8139 41.5785 99.7069 42.6996 100.642 44.1432C101.263 45.1025 101.508 45.9817 101.265 47.0979C100.752 46.911 95.8419 42.7096 95.6209 42.2794C95.4419 41.9333 95.6379 41.6084 95.7389 41.2463Z" fill="#752346"/>
<path d="M60.735 38.75C60.468 39.1221 60.507 39.1313 60.059 39.2053L59.797 38.6774C59.789 36.6971 60.4119 33.6724 61.9129 32.2681C62.6019 31.6235 63.468 31.0753 64.435 31.1437C65.075 31.4353 65.402 31.6994 65.7 32.351C66.504 34.1119 66.447 36.665 65.819 38.4693L65.457 38.6381L64.988 38.0456C64.59 38.5588 64.3669 38.8489 63.7209 39.0631C64.0879 40.2241 64.427 41.4053 64.835 42.5522C63.916 42.3695 62.751 42.2978 62.032 41.6683L61.8549 40.8712C61.6599 40.0986 61.245 39.3621 60.735 38.75Z" fill="#FEFEFE"/>
<path d="M61.855 40.8712C61.946 40.2235 62.039 39.7229 62.333 39.1353C62.961 38.8368 63.062 38.9253 63.721 39.0631C64.088 40.2241 64.427 41.4052 64.835 42.5521C63.916 42.3694 62.751 42.2978 62.032 41.6683L61.855 40.8712Z" fill="#FEFEFE"/>
<path d="M60.7351 38.7501C60.8358 38.4978 60.9654 38.2612 61.1241 38.0402C61.4481 37.5824 61.9271 37.3323 62.4771 37.2455C63.4651 37.0893 64.2221 37.4688 64.9881 38.0457C64.5901 38.5589 64.3671 38.849 63.7211 39.0633C63.0621 38.9255 62.9611 38.837 62.3331 39.1355C62.0391 39.7231 61.9461 40.2237 61.8551 40.8713C61.6601 40.0988 61.2451 39.3622 60.7351 38.7501Z" fill="#752346"/>
<path d="M146.615 48.0544C147.233 45.7944 147.855 42.2634 150.136 41.0299C150.448 40.861 150.74 40.8421 151.088 40.8206C151.981 41.2357 152.326 41.7318 152.674 42.6659C153.292 44.3281 153.304 45.9512 153.337 47.7004C154.075 46.167 155.292 42.8349 156.953 42.2031C157.48 42.0022 157.671 42.1414 158.173 42.322C159.832 43.9672 159.983 46.9174 160.387 49.107C160.756 47.4917 161.635 44.2206 163.038 43.2582C163.336 43.0539 163.502 43.1831 163.829 43.2498C165.684 45.1726 165.633 48.2756 166.477 50.6656C166.825 49.0543 167.42 46.6296 168.91 45.6925C169.335 45.4246 169.632 45.4603 170.117 45.4204C171.24 45.8141 171.88 46.5704 172.401 47.6229C173.383 49.6079 173.54 51.8589 173.596 54.0332C174.231 52.4646 175.36 49.6139 177.104 48.9623C177.517 48.8083 177.618 48.9087 178.024 49.0152C179.604 50.4452 179.674 53.084 179.773 55.0725C180.262 64.9742 178.903 74.3191 177.329 84.0608C175.971 89.9839 173.48 95.5131 168.754 99.557L167.087 100.926C168.614 103.332 170.019 105.808 171.302 108.352C172.845 108.421 174.527 108.361 176.045 108.622C174.699 108.76 172.243 108.431 171.208 109.077C171.24 109.482 171.241 109.895 171.364 110.284L176.844 110.183C175.719 112.798 174.365 115.224 172.919 117.674C170.957 120.054 169.009 121.706 166.32 123.211C165.379 123.538 164.373 123.821 163.387 123.975C161.059 124.338 159.225 123.541 157.418 122.175C156.974 121.67 156.575 121.158 156.246 120.568C155.249 118.783 155.415 117.29 155.912 115.411L155.708 115.209L156.014 114.011C155.474 114.14 155.457 114.284 155.113 114.73L154.405 114.27C155.366 113.644 156.537 113.246 157.4 112.488C157.81 112.129 157.701 111.925 157.73 111.414C157.484 111.062 157.559 111.21 157.404 110.848C157.143 110.239 156.957 109.8 156.502 109.315C155.096 109.838 153.467 110.606 151.963 110.658C148.274 111.765 143.279 110.857 139.912 109.125C139.843 109.102 139.773 109.082 139.705 109.055C135.127 107.22 131.995 102.563 130.071 98.2722C128.732 98.1625 127.096 97.155 126.211 96.1685C125.198 95.0393 124.718 93.4593 124.879 91.957C125.119 89.7226 126.498 88.3151 128.177 87.0124C128.25 79.5101 128.967 68.9305 132.744 62.3041C132.749 62.1894 132.758 62.0747 132.76 61.9598C132.778 60.6552 131.85 58.9293 131.649 57.5214C131.033 53.2086 133.512 46.1655 136.402 42.9658C136.786 42.5412 137.142 42.3344 137.665 42.117C138.284 42.2176 138.546 42.2891 138.924 42.8195C139.976 44.2964 140.242 46.5838 140.445 48.3317C141.217 46.0647 142.019 43.1025 144.047 41.6406C144.557 41.5663 144.733 41.4551 145.166 41.7967C146.56 42.898 146.493 46.3949 146.615 48.0544Z" fill="#FEFEFE"/>
<path d="M146.615 48.0544C147.233 45.7944 147.855 42.2634 150.136 41.0299C150.448 40.861 150.74 40.8421 151.088 40.8206C151.981 41.2357 152.326 41.7318 152.674 42.6659C153.292 44.3281 153.304 45.9512 153.337 47.7004C154.075 46.167 155.292 42.8349 156.953 42.2031C157.48 42.0022 157.671 42.1414 158.173 42.322C159.832 43.9672 159.983 46.9174 160.387 49.107C160.756 47.4917 161.635 44.2206 163.038 43.2582C163.336 43.0539 163.502 43.1831 163.829 43.2498C165.684 45.1726 165.633 48.2756 166.477 50.6656C166.825 49.0543 167.42 46.6296 168.91 45.6925C169.335 45.4246 169.632 45.4603 170.117 45.4204C171.24 45.8141 171.88 46.5704 172.401 47.6229C173.383 49.6079 173.54 51.8589 173.596 54.0332C174.231 52.4646 175.36 49.6139 177.104 48.9623C177.517 48.8083 177.618 48.9087 178.024 49.0152C179.604 50.4452 179.674 53.084 179.773 55.0725C180.262 64.9742 178.903 74.3191 177.329 84.0608C175.971 89.9839 173.48 95.5131 168.754 99.557L167.542 99.3406C170.24 97.2717 170.922 95.7675 171.618 92.5086C170.94 90.5555 169.91 88.9625 168.814 87.2268L168.675 87.3515C167.477 87.0862 166.383 86.3819 165.209 85.9939L165.265 80.1785L166.724 77.973C166.834 73.553 166.601 69.4834 165.852 65.1242C157.994 65.6004 150.408 65.6098 142.564 64.7429C141.255 64.5982 134.653 62.9214 134.204 63.0491C133.678 62.6976 133.563 62.7866 132.953 62.8469L132.744 62.3041C132.749 62.1894 132.758 62.0747 132.76 61.9598C132.778 60.6552 131.85 58.9293 131.649 57.5214C131.033 53.2086 133.512 46.1655 136.402 42.9658C136.786 42.5412 137.142 42.3344 137.665 42.117C138.284 42.2176 138.546 42.2891 138.924 42.8195C139.976 44.2964 140.242 46.5838 140.445 48.3317C141.217 46.0647 142.019 43.1025 144.047 41.6406C144.557 41.5663 144.733 41.4551 145.166 41.7967C146.56 42.898 146.493 46.3949 146.615 48.0544Z" fill="#752346"/>
<path d="M168.814 87.227C169.107 85.7477 169.483 83.8714 170.16 82.5288C170.775 81.3088 171.797 79.7537 173.213 79.4265C173.729 79.3078 174.267 79.4086 174.676 79.7557C175.666 80.5946 176.193 82.4171 176.303 83.661L177.329 84.061C175.971 89.9842 173.48 95.5133 168.754 99.5572L167.542 99.3408C170.24 97.2719 170.922 95.7677 171.618 92.5088C170.94 90.5557 169.91 88.9627 168.814 87.227Z" fill="#FEFEFE"/>
<path d="M176.303 83.6609L177.329 84.0609C175.971 89.9841 173.48 95.5133 168.754 99.5571L167.542 99.3407C170.24 97.2719 170.922 95.7676 171.618 92.5088C171.674 92.4699 171.731 92.434 171.786 92.3931C174.84 90.1157 175.81 87.2898 176.303 83.6609Z" fill="#752346"/>
<path d="M167.542 99.3406L168.754 99.557L167.087 100.926C168.614 103.332 170.019 105.808 171.302 108.352C172.845 108.421 174.527 108.361 176.045 108.622C174.699 108.76 172.243 108.431 171.208 109.077C171.24 109.482 171.241 109.895 171.364 110.284L176.844 110.183C175.719 112.798 174.365 115.224 172.919 117.674C170.957 120.054 169.009 121.706 166.32 123.211C165.379 123.538 164.373 123.821 163.387 123.975C161.059 124.338 159.225 123.541 157.418 122.175C156.974 121.67 156.575 121.158 156.246 120.569C155.249 118.783 155.415 117.29 155.912 115.411C157.697 114.081 158.321 114.726 160.278 114.405L160.447 113.987C160.209 112.97 159.772 112.05 159.348 111.098L158.189 108.371C157.535 108.588 156.971 108.806 156.38 109.159L156.492 108.696C156.334 108.248 156.094 108.121 155.746 107.815C156.708 107.346 157.609 106.785 158.522 106.229C160.795 104.492 162.654 102.372 164.537 100.237C165.47 99.7545 166.534 99.6289 167.542 99.3406Z" fill="#FEFEFE"/>
<path d="M167.542 99.3406L168.754 99.557L167.087 100.926C166.629 101.608 166.57 101.91 165.772 102.175C163.24 104.086 161.612 106.506 158.725 108.066L158.189 108.371C157.535 108.588 156.971 108.806 156.38 109.159L156.492 108.696C156.334 108.248 156.094 108.121 155.746 107.815C156.708 107.346 157.609 106.785 158.522 106.229C160.795 104.492 162.654 102.372 164.537 100.237C165.47 99.7545 166.534 99.6289 167.542 99.3406Z" fill="#752346"/>
<path d="M165.772 102.176C166.57 101.91 166.629 101.608 167.087 100.926C168.614 103.332 170.019 105.808 171.302 108.352C172.845 108.421 174.527 108.361 176.045 108.623C174.699 108.76 172.243 108.431 171.208 109.077C171.24 109.482 171.241 109.895 171.364 110.284C171.134 110.267 170.953 110.265 170.726 110.2C169.658 109.888 166.592 103.477 165.772 102.176Z" fill="#752346"/>
<path d="M165.209 85.9939C166.383 86.3819 167.477 87.0862 168.675 87.3515L168.814 87.2268C169.91 88.9625 170.94 90.5555 171.618 92.5086C170.922 95.7675 170.24 97.2717 167.542 99.3405C166.534 99.6288 165.47 99.7545 164.537 100.237C163.37 99.8562 162.097 99.549 161.017 98.9595C160.823 98.8537 160.635 98.7387 160.453 98.6144C160.271 98.49 160.096 98.3567 159.928 98.2144C159.759 98.072 159.599 97.9214 159.446 97.7625C159.293 97.6042 159.148 97.4383 159.012 97.2647C158.876 97.0918 158.749 96.9123 158.631 96.7261C158.513 96.5399 158.405 96.348 158.307 96.1505C158.209 95.9537 158.121 95.7522 158.043 95.546C157.965 95.3399 157.898 95.1304 157.842 94.9176C157.78 94.6888 157.73 94.4577 157.691 94.2243C157.653 93.9902 157.627 93.7552 157.612 93.5191C157.598 93.2823 157.596 93.0459 157.605 92.8099C157.615 92.5731 157.637 92.3374 157.671 92.1026C157.705 91.8685 157.751 91.6365 157.809 91.4064C157.867 91.1769 157.937 90.9508 158.018 90.7281C158.099 90.5053 158.191 90.2875 158.294 90.0747C158.397 89.8612 158.511 89.6537 158.636 89.4523C160.271 86.767 162.175 86.766 164.847 86.0887L165.209 85.9939Z" fill="#F9F871"/>
<path d="M129.803 86.4797C132.027 86.8937 133.935 87.17 135.348 89.1371C135.858 89.8473 136.222 90.7301 136.594 91.5201C136.376 92.4169 136.149 93.0393 136.544 93.9221C135.142 95.8264 133.996 97.3715 131.782 98.3511C131.213 98.1685 130.662 98.2483 130.071 98.2723C128.732 98.1625 127.096 97.155 126.211 96.1685C125.198 95.0393 124.718 93.4593 124.879 91.957C125.119 89.7226 126.498 88.3151 128.177 87.0124C128.859 87.0094 129.218 86.8149 129.803 86.4797Z" fill="#F9F871"/>
<path d="M130.071 98.2724C130.662 98.2485 131.213 98.1687 131.782 98.3512C134.013 102.884 136.4 105.913 141.022 108.182C143.064 108.919 145.041 109.293 147.199 109.496C150.248 109.461 152.894 108.882 155.746 107.816C156.094 108.121 156.334 108.248 156.492 108.696L156.38 109.159C156.971 108.806 157.535 108.589 158.189 108.371L159.348 111.098C159.772 112.05 160.209 112.97 160.447 113.987L160.278 114.405C158.321 114.726 157.697 114.081 155.912 115.412L155.708 115.209L156.014 114.011C155.474 114.14 155.457 114.284 155.113 114.73L154.405 114.27C155.366 113.644 156.537 113.246 157.4 112.488C157.81 112.129 157.701 111.925 157.73 111.415C157.484 111.062 157.559 111.21 157.404 110.848C157.143 110.239 156.957 109.801 156.502 109.315C155.096 109.838 153.467 110.607 151.963 110.658C148.274 111.766 143.279 110.857 139.912 109.125C139.843 109.102 139.773 109.082 139.705 109.055C135.127 107.22 131.995 102.564 130.071 98.2724Z" fill="#752346"/>
<path d="M132.744 62.3042L132.953 62.8469C133.563 62.7867 133.678 62.6976 134.204 63.0491C131.224 70.5376 129.549 78.383 129.803 86.4798C129.218 86.8149 128.859 87.0094 128.177 87.0124C128.25 79.5102 128.967 68.9305 132.744 62.3042Z" fill="#752346"/>
<path d="M142.269 85.1661C142.31 85.0993 142.352 85.0334 142.392 84.9656C143.724 82.7222 141.26 80.6264 142.253 78.4878C142.829 78.6304 143.109 78.8499 143.421 79.3706C144.185 80.6424 145.083 82.7252 144.656 84.1746C144.501 84.7003 144.229 85.199 143.976 85.6828C141.671 88.6324 138.993 91.1212 136.544 93.9222C136.149 93.0394 136.376 92.417 136.594 91.5202C138.501 89.4354 140.255 87.1372 142.269 85.1661Z" fill="#752346"/>
<path d="M151.256 99.5183C151.604 99.4166 151.526 99.4116 151.814 99.4026C152.391 99.3836 152.372 99.3826 152.764 99.7657C152.724 100.128 152.779 100.245 152.515 100.526C150.879 102.262 145.494 101.737 143.238 101.654C143.039 101.611 142.69 101.564 142.502 101.46C141.994 101.181 141.932 100.966 141.718 100.461L142.073 99.8395C143.102 99.4854 144.588 100.032 145.742 100.047C147.6 100.072 149.427 99.8066 151.256 99.5183Z" fill="#752346"/>
<path d="M136.2 81.3457C136.643 81.5392 137.02 81.9223 137.304 82.3083C137.896 83.1103 138.126 84.022 137.959 85.0026C137.757 86.1946 137.208 86.6365 136.231 87.2829C135.76 87.1372 135.222 86.9307 134.846 86.5996C134.364 86.1746 134.116 85.4664 134.145 84.835C134.213 83.3427 135.176 82.3043 136.2 81.3457Z" fill="#752346"/>
<path d="M154.576 82.1057C155.207 82.1845 155.651 82.2932 156.09 82.785C156.643 83.4045 156.864 84.2075 156.806 85.0234C156.717 86.2783 156.274 86.9626 155.351 87.7805C154.86 87.6658 154.28 87.4863 153.852 87.2139C153.36 86.8997 153.043 86.3002 152.991 85.7296C152.864 84.3511 153.758 83.1232 154.576 82.1057Z" fill="#752346"/>
<path d="M153.273 78.3562C153.829 78.3183 154.407 78.2904 154.963 78.3293C156.244 78.4191 157.928 78.9996 158.726 80.036C159.22 80.6774 159.178 81.1832 159.072 81.9243C158.819 81.8535 158.58 81.7777 158.345 81.656C156.677 80.7931 154.804 80.4181 153.201 79.5442C153.031 78.9577 153.056 78.9328 153.273 78.3562Z" fill="#752346"/>
<defs>
<linearGradient id="paint0_linear_2908_3314" x1="123.519" y1="283.439" x2="115.844" y2="284.418" gradientUnits="userSpaceOnUse">
<stop stop-color="#540900"/>
<stop offset="1" stop-color="#1E0006"/>
</linearGradient>
</defs>
</svg>
