<svg width="90" height="42" viewBox="0 0 90 42" fill="none" xmlns="http://www.w3.org/2000/svg">
<path d="M67.7672 2.13281C62.3391 2.74312 57.1922 5.1975 51.4758 9.90281C50.0836 11.0447 49.1273 11.8912 46.8563 13.9978C45.2391 15.5006 45 15.6909 44.8805 15.6319C44.8031 15.5925 44.1773 15.0216 43.4813 14.3587C35.4375 6.67406 30.2203 3.43875 24.1805 2.40187C20.243 1.72593 16.1578 2.1525 12.4453 3.6225C6.22266 6.09 1.66641 11.2809 0.39375 17.3578C0.105469 18.7162 0.0351562 19.4447 0.0351562 21.0656C0.0351562 23.6381 0.414844 25.7841 1.27266 28.0547C3.64922 34.3809 9.32344 38.7319 16.4883 39.7294C20.9461 40.3528 25.8891 39.5587 30.2484 37.5309C31.957 36.7369 33.3984 35.8903 35.1914 34.6369C37.4484 33.0684 39.1008 31.6837 42.6516 28.4025C43.8891 27.2541 44.9508 26.3156 45 26.3156C45.0563 26.3156 45.5414 26.7487 46.0828 27.2737C47.2922 28.4484 50.2453 31.1062 51.4969 32.1497C57.2625 36.9469 61.6359 39.0731 67.1484 39.7819C67.5563 39.8344 68.5125 39.8606 69.6094 39.8606C71.107 39.8606 71.5711 39.8344 72.4219 39.7097C76.9922 39.0534 80.8945 37.2225 84.0867 34.2497C87.3 31.2506 89.3039 27.3919 89.8734 23.1C90.007 22.0828 89.9859 19.4053 89.8313 18.375C89.2828 14.6934 87.8977 11.3728 85.8375 8.81343C85.1695 7.97343 83.7703 6.63468 82.8492 5.95875C80.2899 4.05562 76.9641 2.76937 73.1602 2.21812C71.9508 2.0475 68.9836 1.995 67.7672 2.13281ZM23.2523 10.0012C25.6148 10.4672 28.0055 11.5303 30.3539 13.1578C31.1906 13.7353 32.4422 14.6934 33.2578 15.3825C34.2844 16.2553 39.4453 20.9606 39.4453 21.0262C39.4453 21.1312 34.9453 25.2853 33.8555 26.1975C30.3961 29.0719 27.1969 30.8897 24.1875 31.7034C22.7672 32.0841 21.9305 32.1891 20.2148 32.1891C18.8789 32.1891 18.5625 32.1694 17.8664 32.0381C13.718 31.2572 10.6805 28.7306 9.35859 24.9703C8.23359 21.7612 8.44453 18.7162 9.99141 15.8812C11.7633 12.6262 14.9555 10.4737 18.893 9.87656C19.3359 9.81093 19.9195 9.79124 20.9531 9.81093C22.1625 9.83062 22.5352 9.86343 23.2523 10.0012ZM71.5078 9.87656C73.807 10.1784 75.7617 10.9987 77.4211 12.3572C80.5078 14.8772 81.9844 19.3331 81.0563 23.3625C80.1141 27.4641 76.732 30.7847 72.4149 31.8609C71.3742 32.1169 70.4531 32.2219 69.2227 32.2219C67.043 32.2219 65.2922 31.815 63.1055 30.8109C60.8063 29.7609 58.5914 28.245 55.8141 25.8169C54.0703 24.2944 50.5898 21.0984 50.5688 21C50.5477 20.895 53.8453 17.7516 55.2656 16.5309C60.0609 12.3966 63.8508 10.4081 67.9219 9.87656C68.8359 9.75843 70.6078 9.75843 71.5078 9.87656Z" fill="#1E96FC"/>
</svg>
