<svg width="94" height="43" viewBox="0 0 94 43" fill="none" xmlns="http://www.w3.org/2000/svg">
<path d="M64.7235 7.01777C60.4981 7.48566 56.4918 9.36728 52.042 12.9746C50.9583 13.85 50.214 14.499 48.4461 16.114C47.1873 17.2661 47.0012 17.412 46.9082 17.3667C46.848 17.3365 46.3608 16.8988 45.819 16.3907C39.5576 10.4993 35.4965 8.01895 30.795 7.22404C27.73 6.70584 24.5501 7.03286 21.6602 8.15982C16.8164 10.0515 13.2698 14.0311 12.2791 18.6899C12.0547 19.7313 12 20.2898 12 21.5324C12 23.5046 12.2956 25.1498 12.9633 26.8905C14.8132 31.7405 19.2301 35.0761 24.8073 35.8408C28.2773 36.3188 32.125 35.71 35.5184 34.1554C36.8484 33.5466 37.9704 32.8976 39.3661 31.9367C41.123 30.7343 42.4092 29.6727 45.1732 27.1572C46.1364 26.2767 46.9629 25.5573 47.0012 25.5573C47.045 25.5573 47.4226 25.8893 47.8441 26.2918C48.7855 27.1924 51.0842 29.23 52.0585 30.0299C56.5465 33.7076 59.9508 35.3377 64.2418 35.8811C64.5593 35.9213 65.3036 35.9414 66.1575 35.9414C67.3232 35.9414 67.6845 35.9213 68.3467 35.8257C71.9043 35.3226 74.942 33.9189 77.4268 31.6399C79.9281 29.3407 81.4879 26.3824 81.9313 23.0921C82.0352 22.3122 82.0188 20.2596 81.8984 19.4697C81.4715 16.6472 80.3933 14.1015 78.7896 12.1394C78.2697 11.4954 77.1805 10.4691 76.4635 9.95089C74.4713 8.49187 71.8824 7.50578 68.9214 7.08317C67.98 6.95236 65.6703 6.91212 64.7235 7.01777ZM30.0726 13.05C31.9116 13.4072 33.7724 14.2223 35.6005 15.47C36.2518 15.9127 37.226 16.6472 37.8609 17.1755C38.66 17.8446 42.6774 21.4519 42.6774 21.5022C42.6774 21.5827 39.1745 24.7674 38.3262 25.4667C35.6333 27.6703 33.143 29.0639 30.8005 29.6878C29.6949 29.9796 29.0436 30.0601 27.7081 30.0601C26.6682 30.0601 26.4219 30.045 25.8801 29.9444C22.6509 29.3457 20.2864 27.4087 19.2575 24.5259C18.3818 22.0657 18.546 19.7313 19.7501 17.5579C21.1293 15.0625 23.6142 13.4123 26.6792 12.9544C27.024 12.9041 27.4782 12.889 28.2828 12.9041C29.2242 12.9192 29.5143 12.9444 30.0726 13.05ZM67.6352 12.9544C69.425 13.1859 70.9465 13.8148 72.2382 14.8562C74.6409 16.7881 75.7903 20.2042 75.0678 23.2933C74.3344 26.4377 71.7018 28.9835 68.3413 29.8085C67.5312 30.0048 66.8142 30.0853 65.8564 30.0853C64.1597 30.0853 62.7969 29.7733 61.0947 29.0036C59.305 28.1986 57.5809 27.0364 55.419 25.1749C54.0616 24.0077 51.3524 21.5576 51.336 21.4821C51.3196 21.4016 53.8865 18.9917 54.9921 18.056C58.7248 14.8864 61.6749 13.362 64.8439 12.9544C65.5554 12.8639 66.9347 12.8639 67.6352 12.9544Z" fill="#1E96FC"/>
</svg>
