<svg width="69" height="46" viewBox="0 0 69 46" fill="none" xmlns="http://www.w3.org/2000/svg">
<path d="M67.446 45.7949H1.18524C0.531805 45.7949 0.00195312 45.2651 0.00195312 44.6116V2.01535C0.00195312 1.36188 0.531805 0.832031 1.18524 0.832031H67.4461C68.0996 0.832031 68.6294 1.36188 68.6294 2.01535V44.6116C68.6293 45.2652 68.0995 45.7949 67.446 45.7949Z" fill="#F5F5F5"/>
<path d="M40.8842 13.4663C35.4473 9.84178 28.1037 11.3236 24.4816 16.7511C22.6646 19.4601 23.4032 23.1412 26.1215 24.9535C28.8378 26.7659 32.507 26.0298 34.3193 23.3113C36.1316 20.5928 39.8033 19.8659 42.5195 21.6688C45.2403 23.4811 45.972 27.1621 44.1571 29.8712C47.7817 24.4346 46.3165 17.091 40.8842 13.4663Z" fill="#FF4B55"/>
<path d="M24.4817 16.751C22.6649 19.46 23.4033 23.141 26.1217 24.9535C28.8379 26.7658 32.5072 26.0297 34.3196 23.3112C36.1319 20.5927 39.8036 19.8658 42.5198 21.6687C45.2404 23.481 45.9722 27.162 44.1572 29.8712C40.5374 35.3173 33.1963 36.7806 27.7594 33.156C22.3274 29.5316 20.8573 22.1879 24.4817 16.751Z" fill="#41479B"/>
<path d="M46.9062 8.99738L49.0555 12.228C49.2359 12.4994 49.1629 12.8658 48.8921 13.0472L48.3471 13.4122C48.0752 13.5942 47.7071 13.521 47.5256 13.2487L45.3736 10.0188C45.1926 9.7472 45.266 9.38005 45.5375 9.19873L46.0851 8.83309C46.3573 8.65136 46.725 8.72507 46.9062 8.99738Z" fill="#464655"/>
<path d="M50.2233 13.978L52.3795 17.2065C52.5615 17.4792 52.4872 17.848 52.2137 18.0288L51.6664 18.3905C51.3947 18.5701 51.0291 18.4963 50.8483 18.2256L48.6932 15.0004C48.5117 14.7289 48.5846 14.3615 48.8563 14.1799L49.4023 13.8147C49.6741 13.6331 50.0417 13.7061 50.2233 13.978Z" fill="#464655"/>
<path d="M49.2078 7.46091L54.6805 15.6737C54.8616 15.9456 54.7881 16.3129 54.5162 16.4941L53.9663 16.8605C53.6946 17.0419 53.3271 16.9683 53.146 16.6964L47.6714 8.48414C47.4901 8.2121 47.5638 7.84454 47.836 7.6635L48.3875 7.29634C48.6594 7.11557 49.0265 7.18901 49.2078 7.46091Z" fill="#464655"/>
<path d="M51.5032 5.92818L53.6572 9.16507C53.8387 9.43765 53.7642 9.80577 53.4909 9.98626L52.9431 10.3482C52.6713 10.5277 52.3055 10.4539 52.1248 10.1828L49.9692 6.95018C49.7879 6.67828 49.8614 6.31099 50.1333 6.12967L50.6828 5.76348C50.9544 5.58216 51.322 5.65573 51.5032 5.92818Z" fill="#464655"/>
<path d="M54.8215 10.9192L56.9721 14.1494C57.153 14.4208 57.0797 14.7876 56.8087 14.969L56.2624 15.3341C55.9905 15.516 55.6224 15.4426 55.4412 15.1701L53.2905 11.94C53.1096 11.6685 53.1829 11.3017 53.454 11.1204L54.0003 10.7552C54.2721 10.5733 54.6402 10.6466 54.8215 10.9192Z" fill="#464655"/>
<path d="M17.7935 28.405L23.2655 36.609C23.4468 36.8808 23.3735 37.2481 23.1017 37.4294L22.5538 37.7953C22.2819 37.9767 21.9146 37.9035 21.733 37.6316L16.2611 29.4274C16.0799 29.1558 16.1531 28.7885 16.425 28.6072L16.9729 28.2413C17.2447 28.0597 17.6122 28.1332 17.7935 28.405Z" fill="#464655"/>
<path d="M15.4969 29.9393L17.6454 33.1617C17.8264 33.4332 17.7534 33.7998 17.4822 33.9814L16.9371 34.3462C16.6655 34.5282 16.2977 34.4551 16.1161 34.1832L13.9652 30.9615C13.7837 30.6899 13.8569 30.3225 14.1288 30.141L14.6764 29.7754C14.948 29.5939 15.3156 29.6674 15.4969 29.9393Z" fill="#464655"/>
<path d="M18.8165 34.9221L20.9673 38.1527C21.1482 38.4242 21.0749 38.791 20.8035 38.9722L20.2568 39.3376C19.9849 39.5194 19.6172 39.446 19.4358 39.174L17.2836 35.9441C17.1026 35.6723 17.176 35.3053 17.4475 35.1239L17.9954 34.7579C18.2675 34.5762 18.6352 34.6498 18.8165 34.9221Z" fill="#464655"/>
<path d="M13.1993 31.4735L18.6678 39.6779C18.8489 39.9495 18.7756 40.3164 18.5044 40.498L17.958 40.8634C17.6861 41.0451 17.3185 40.972 17.1369 40.6998L11.6653 32.4965C11.4839 32.2246 11.5575 31.8573 11.8293 31.6758L12.3791 31.3093C12.6507 31.1282 13.0181 31.2016 13.1993 31.4735Z" fill="#464655"/>
<path d="M16.2626 17.2067L21.7337 8.99602C21.9152 8.72398 22.2826 8.65055 22.5546 8.832L23.1024 9.19779C23.3741 9.3791 23.4473 9.7464 23.2662 10.0182L17.7929 18.2242C17.612 18.4954 17.2459 18.5691 16.9743 18.3893L16.4285 18.0281C16.1554 17.8473 16.0811 17.4792 16.2626 17.2067Z" fill="#464655"/>
<path d="M13.9642 15.6751L19.4363 7.46275C19.6176 7.19071 19.9854 7.11728 20.2573 7.29901L20.8039 7.66438C21.0751 7.84569 21.1484 8.21244 20.9674 8.4842L15.4968 16.697C15.3155 16.969 14.9479 17.0426 14.6759 16.861L14.128 16.4952C13.8565 16.3139 13.7832 15.9469 13.9642 15.6751Z" fill="#464655"/>
<path d="M11.6642 14.1483L17.1368 5.92788C17.3182 5.6557 17.6861 5.582 17.958 5.76386L18.5046 6.12923C18.7758 6.31055 18.849 6.67702 18.6683 6.94864L13.199 15.1705C13.018 15.4427 12.6503 15.5164 12.3783 15.3351L11.8285 14.9686C11.5568 14.7874 11.4834 14.4203 11.6642 14.1483Z" fill="#464655"/>
<path d="M45.3747 36.6087L47.5255 33.3872C47.7072 33.1152 48.0749 33.0422 48.3467 33.224L48.8917 33.589C49.1628 33.7706 49.2357 34.1373 49.0548 34.4088L46.9065 37.6312C46.725 37.9031 46.3576 37.9765 46.0857 37.795L45.538 37.4294C45.2663 37.2479 45.1931 36.8807 45.3747 36.6087Z" fill="#464655"/>
<path d="M48.6926 31.643L50.8469 28.4054C51.0281 28.1334 51.3957 28.0597 51.6676 28.241L52.2166 28.6069C52.4886 28.7882 52.5621 29.1559 52.3806 29.4277L50.2216 32.6602C50.0405 32.9314 49.6745 33.0048 49.4027 32.8246L48.8584 32.4638C48.5855 32.283 48.5113 31.9152 48.6926 31.643Z" fill="#464655"/>
<path d="M47.6714 38.151L49.8236 34.9208C50.0049 34.6489 50.3722 34.5754 50.6442 34.7567L51.1943 35.1236C51.466 35.3047 51.5394 35.6717 51.3585 35.9438L49.2076 39.1741C49.0265 39.446 48.6594 39.5197 48.3872 39.3386L47.8357 38.9715C47.5638 38.7905 47.4901 38.4229 47.6714 38.151Z" fill="#464655"/>
<path d="M50.993 33.1604L53.1465 29.9378C53.328 29.6663 53.695 29.5931 53.9666 29.7743L54.5165 30.1408C54.7884 30.3221 54.862 30.6898 54.6801 30.9615L52.5268 34.184C52.3455 34.4555 51.9784 34.5287 51.7067 34.3476L51.1568 33.9812C50.8846 33.8001 50.8113 33.4323 50.993 33.1604Z" fill="#464655"/>
<path d="M49.9696 39.6768L52.1242 36.4524C52.3052 36.1818 52.6708 36.108 52.9423 36.2876L53.49 36.6494C53.7633 36.8301 53.8378 37.1985 53.6561 37.4713L51.503 40.6999C51.3218 40.9717 50.9544 41.0451 50.6826 40.8639L50.1332 40.4977C49.8612 40.3163 49.7879 39.9486 49.9696 39.6768Z" fill="#464655"/>
<path d="M53.2911 34.703L55.4404 31.4747C55.6217 31.2025 55.9897 31.1289 56.2617 31.3108L56.8075 31.6756C57.079 31.8571 57.152 32.2242 56.9708 32.4958L54.8196 35.7198C54.6387 35.991 54.2722 36.0647 54.0006 35.8845L53.4564 35.524C53.1839 35.3433 53.1098 34.9754 53.2911 34.703Z" fill="#464655"/>
</svg>
