<svg width="107" height="57" viewBox="0 0 107 57" fill="none" xmlns="http://www.w3.org/2000/svg">
<mask id="mask0_154_6" style="mask-type:luminance" maskUnits="userSpaceOnUse" x="0" y="0" width="107" height="57">
<path d="M106.36 0H0V56.39H106.36V0Z" fill="white"/>
</mask>
<g mask="url(#mask0_154_6)">
<path d="M80.33 54.68H80.02V51.5H80.33V54.68ZM82.47 54.68H82.03L80.69 53.43C80.55 53.31 80.49 53.18 80.49 53.04C80.49 52.92 80.57 52.78 80.74 52.63L81.95 51.5H82.37L80.96 52.84C80.87 52.92 80.83 52.98 80.83 53.04C80.83 53.09 80.87 53.16 80.96 53.24L82.48 54.67L82.47 54.68Z" fill="#FFE3F3"/>
<path d="M82.74 54.6797L83.93 51.7197C84 51.5497 84.1 51.4697 84.24 51.4697C84.38 51.4697 84.48 51.5497 84.55 51.7197L85.74 54.6797H85.39L84.3 51.8997C84.27 51.8397 84.25 51.7997 84.24 51.7997C84.23 51.7997 84.21 51.8297 84.18 51.8997L83.09 54.6797H82.74Z" fill="#FFE3F3"/>
<path d="M88.96 54.68H88.65V51.91C88.65 51.91 88.65 51.84 88.62 51.84C88.61 51.84 88.59 51.86 88.55 51.91L86.93 54.48C86.88 54.56 86.83 54.62 86.78 54.66C86.73 54.69 86.67 54.71 86.59 54.71C86.4 54.71 86.3 54.6 86.3 54.38V51.49H86.61V54.26C86.61 54.31 86.62 54.34 86.65 54.34C86.67 54.34 86.69 54.31 86.72 54.26L88.36 51.65C88.44 51.52 88.55 51.46 88.69 51.46C88.87 51.46 88.97 51.58 88.97 51.83V54.68H88.96Z" fill="#FFE3F3"/>
<path d="M92.3601 54.68H92.0501V53.18H90.1401V54.68H89.8301V51.5H90.1401V52.9H92.0501V51.5H92.3601V54.68Z" fill="#FFE3F3"/>
<path d="M95.89 54.68H95.58V51.91C95.58 51.91 95.58 51.84 95.55 51.84C95.54 51.84 95.52 51.86 95.48 51.91L93.86 54.48C93.81 54.56 93.76 54.62 93.71 54.66C93.66 54.69 93.6 54.71 93.52 54.71C93.33 54.71 93.23 54.6 93.23 54.38V51.49H93.54V54.26C93.54 54.31 93.55 54.34 93.58 54.34C93.6 54.34 93.62 54.31 93.65 54.26L95.29 51.65C95.37 51.52 95.48 51.46 95.62 51.46C95.8 51.46 95.9 51.58 95.9 51.83V54.68H95.89Z" fill="#FFE3F3"/>
<path d="M97.07 54.68H96.76V51.5H97.07V54.68ZM99.21 54.68H98.77L97.43 53.43C97.29 53.31 97.23 53.18 97.23 53.04C97.23 52.92 97.31 52.78 97.48 52.63L98.69 51.5H99.11L97.7 52.84C97.61 52.92 97.57 52.98 97.57 53.04C97.57 53.09 97.61 53.16 97.7 53.24L99.22 54.67L99.21 54.68Z" fill="#FFE3F3"/>
<path d="M99.83 51.5H101.37C101.88 51.5 102.13 51.77 102.13 52.3V54.26C102.13 54.41 102.1 54.52 102.04 54.58C101.98 54.64 101.86 54.68 101.67 54.68H100.45C100.14 54.68 99.92 54.6 99.79 54.45C99.66 54.3 99.59 54.05 99.59 53.72C99.59 53.39 99.66 53.15 99.79 53C99.92 52.85 100.14 52.78 100.45 52.78H101.82V52.25C101.82 52.12 101.78 52.01 101.71 51.92C101.64 51.83 101.52 51.79 101.37 51.79H99.83V51.51V51.5ZM101.82 53.06H100.36C100.18 53.06 100.07 53.11 100 53.23C99.94 53.34 99.91 53.51 99.91 53.73C99.91 53.95 99.94 54.12 100 54.23C100.06 54.35 100.18 54.4 100.36 54.4H101.67C101.77 54.4 101.82 54.35 101.82 54.26V53.07V53.06Z" fill="#FFE3F3"/>
<path d="M48.59 49.4505H47.44C46.93 49.4505 46.58 49.3205 46.38 49.0605C46.18 48.8005 46.09 48.4005 46.09 47.8605C46.09 47.3205 46.19 46.9405 46.38 46.6705C46.57 46.4005 46.92 46.2705 47.43 46.2705H48.5V46.5505H47.43C47.03 46.5505 46.76 46.6605 46.62 46.8705C46.48 47.0805 46.41 47.4105 46.41 47.8605C46.41 48.3405 46.48 48.6705 46.62 48.8705C46.76 49.0705 47.03 49.1705 47.43 49.1705H48.58V49.4505H48.59Z" fill="#FFE3F3"/>
<path d="M50.5 49.4505H50.19V46.5505H48.99V46.2705H51.7V46.5505H50.5V49.4505Z" fill="#FFE3F3"/>
<path d="M52.38 46.6105C52.62 46.3605 53.02 46.2305 53.59 46.2305C54.16 46.2305 54.56 46.3605 54.8 46.6105C55.04 46.8605 55.16 47.2805 55.16 47.8505C55.16 48.4205 55.04 48.8405 54.8 49.1005C54.56 49.3605 54.15 49.4805 53.59 49.4805C53.03 49.4805 52.62 49.3505 52.38 49.1005C52.14 48.8505 52.02 48.4305 52.02 47.8505C52.02 47.2705 52.14 46.8605 52.38 46.6105ZM52.62 46.8105C52.43 47.0005 52.34 47.3505 52.34 47.8605C52.34 48.3705 52.43 48.7105 52.62 48.9105C52.81 49.1105 53.13 49.2105 53.59 49.2105C54.05 49.2105 54.37 49.1105 54.56 48.9105C54.75 48.7105 54.84 48.3605 54.84 47.8605C54.84 47.3605 54.75 47.0105 54.56 46.8105C54.37 46.6205 54.05 46.5205 53.59 46.5205C53.13 46.5205 52.81 46.6205 52.62 46.8105Z" fill="#FFE3F3"/>
<path d="M59.0199 46.6705L57.9499 49.2605C57.8899 49.4105 57.7899 49.4905 57.6599 49.4905C57.5299 49.4905 57.4299 49.4105 57.3699 49.2605L56.2999 46.6705C56.2999 46.6705 56.2699 46.6205 56.2599 46.6205C56.2399 46.6205 56.2399 46.6305 56.2399 46.6605V49.4505H55.9299V46.5605C55.9299 46.3405 56.0299 46.2305 56.2299 46.2305C56.3699 46.2305 56.4799 46.3005 56.5399 46.4505L57.5999 49.0105C57.6299 49.0805 57.6499 49.1205 57.6699 49.1205C57.6799 49.1205 57.6999 49.0805 57.7399 49.0105L58.7999 46.4505C58.8599 46.3105 58.9599 46.2305 59.1099 46.2305C59.3099 46.2305 59.4099 46.3405 59.4099 46.5605V49.4505H59.0999V46.6605C59.0999 46.6605 59.0999 46.6205 59.0799 46.6205C59.0599 46.6205 59.0499 46.6405 59.0399 46.6705H59.0199Z" fill="#FFE3F3"/>
<path d="M60.3999 46.2705H61.9399C62.4499 46.2705 62.6999 46.5405 62.6999 47.0705V49.0305C62.6999 49.1805 62.6699 49.2905 62.6099 49.3505C62.5499 49.4105 62.4299 49.4505 62.2399 49.4505H61.0199C60.7099 49.4505 60.4899 49.3705 60.3599 49.2205C60.2299 49.0705 60.1599 48.8205 60.1599 48.4905C60.1599 48.1605 60.2299 47.9205 60.3599 47.7705C60.4899 47.6205 60.7099 47.5505 61.0199 47.5505H62.3899V47.0205C62.3899 46.8905 62.3499 46.7805 62.2799 46.6905C62.2099 46.6005 62.0899 46.5605 61.9399 46.5605H60.3999V46.2805V46.2705ZM62.3899 47.8305H60.9299C60.7499 47.8305 60.6399 47.8805 60.5699 48.0005C60.5099 48.1105 60.4799 48.2805 60.4799 48.5005C60.4799 48.7205 60.5099 48.8905 60.5699 49.0005C60.6299 49.1205 60.7499 49.1705 60.9299 49.1705H62.2399C62.3399 49.1705 62.3899 49.1205 62.3899 49.0305V47.8405V47.8305Z" fill="#FFE3F3"/>
<path d="M64.76 49.4505H64.45V46.5505H63.25V46.2705H65.96V46.5505H64.76V49.4505Z" fill="#FFE3F3"/>
<path d="M66.6399 46.6105C66.8799 46.3605 67.2799 46.2305 67.8499 46.2305C68.4199 46.2305 68.8199 46.3605 69.0599 46.6105C69.2999 46.8605 69.4199 47.2805 69.4199 47.8505C69.4199 48.4205 69.2999 48.8405 69.0599 49.1005C68.8199 49.3605 68.4099 49.4805 67.8499 49.4805C67.2899 49.4805 66.8799 49.3505 66.6399 49.1005C66.3999 48.8505 66.2799 48.4305 66.2799 47.8505C66.2799 47.2705 66.3999 46.8605 66.6399 46.6105ZM66.8799 46.8105C66.6899 47.0005 66.5999 47.3505 66.5999 47.8605C66.5999 48.3705 66.6899 48.7105 66.8799 48.9105C67.0699 49.1105 67.3899 49.2105 67.8499 49.2105C68.3099 49.2105 68.6299 49.1105 68.8199 48.9105C69.0099 48.7105 69.0999 48.3605 69.0999 47.8605C69.0999 47.3605 69.0099 47.0105 68.8199 46.8105C68.6299 46.6205 68.3099 46.5205 67.8499 46.5205C67.3899 46.5205 67.0699 46.6205 66.8799 46.8105Z" fill="#FFE3F3"/>
<path d="M69.7999 49.4502L70.9899 46.4902C71.0599 46.3202 71.1599 46.2402 71.2999 46.2402C71.4399 46.2402 71.5399 46.3202 71.6099 46.4902L72.7999 49.4502H72.4499L71.3599 46.6702C71.3299 46.6102 71.3099 46.5702 71.2999 46.5702C71.2899 46.5702 71.2699 46.6002 71.2399 46.6702L70.1499 49.4502H69.7999Z" fill="#FFE3F3"/>
<path d="M73.5499 46.6105C73.7899 46.3605 74.1899 46.2305 74.7599 46.2305C75.3299 46.2305 75.7299 46.3605 75.9699 46.6105C76.2099 46.8605 76.3299 47.2805 76.3299 47.8505C76.3299 48.4205 76.2099 48.8405 75.9699 49.1005C75.7299 49.3605 75.3199 49.4805 74.7599 49.4805C74.1999 49.4805 73.7899 49.3505 73.5499 49.1005C73.3099 48.8505 73.1899 48.4305 73.1899 47.8505C73.1899 47.2705 73.3099 46.8605 73.5499 46.6105ZM73.7899 46.8105C73.5999 47.0005 73.5099 47.3505 73.5099 47.8605C73.5099 48.3705 73.5999 48.7105 73.7899 48.9105C73.9799 49.1105 74.2999 49.2105 74.7599 49.2105C75.2199 49.2105 75.5399 49.1105 75.7299 48.9105C75.9199 48.7105 76.0099 48.3605 76.0099 47.8605C76.0099 47.3605 75.9199 47.0105 75.7299 46.8105C75.5399 46.6205 75.2199 46.5205 74.7599 46.5205C74.2999 46.5205 73.9799 46.6205 73.7899 46.8105Z" fill="#FFE3F3"/>
<path d="M77.1 49.4507V46.7707C77.1 46.6107 77.13 46.4807 77.2 46.3907C77.26 46.3007 77.38 46.2607 77.54 46.2607H79.5V46.5407H77.62C77.55 46.5407 77.5 46.5507 77.47 46.5807C77.44 46.6107 77.43 46.6707 77.43 46.7707V49.4407H77.12L77.1 49.4507Z" fill="#FFE3F3"/>
<path d="M82.6899 49.4505H82.3799V46.6805C82.3799 46.6805 82.3799 46.6105 82.3499 46.6105C82.3399 46.6105 82.3199 46.6305 82.2799 46.6805L80.6599 49.2505C80.6099 49.3305 80.5599 49.3905 80.5099 49.4305C80.4599 49.4605 80.3999 49.4805 80.3199 49.4805C80.1299 49.4805 80.0299 49.3705 80.0299 49.1505V46.2605H80.3399V49.0305C80.3399 49.0805 80.3499 49.1105 80.3799 49.1105C80.3999 49.1105 80.4199 49.0805 80.4499 49.0305L82.0899 46.4205C82.1699 46.2905 82.2799 46.2305 82.4199 46.2305C82.5999 46.2305 82.6999 46.3505 82.6999 46.6005V49.4505H82.6899Z" fill="#FFE3F3"/>
<path d="M85.99 49.4505H85.68V47.9605H84.28C83.98 47.9605 83.77 47.9005 83.65 47.7905C83.53 47.6805 83.47 47.4705 83.47 47.1805V46.2705H83.78V47.1805C83.78 47.3705 83.81 47.5005 83.88 47.5705C83.94 47.6405 84.08 47.6805 84.28 47.6805H85.68V46.2805H85.99V49.4605V49.4505Z" fill="#FFE3F3"/>
<path d="M89.41 49.4505H87.85C87.44 49.4505 87.16 49.3105 86.99 49.0405C86.83 48.7705 86.75 48.3805 86.75 47.8805C86.75 47.3105 86.85 46.9005 87.05 46.6305C87.25 46.3605 87.6 46.2305 88.12 46.2305C89.03 46.2305 89.49 46.6305 89.49 47.4405C89.49 47.6305 89.46 47.7605 89.39 47.8405C89.33 47.9205 89.21 47.9605 89.03 47.9605H87.08C87.08 48.1205 87.08 48.2605 87.11 48.3905C87.13 48.5105 87.16 48.6405 87.21 48.7705C87.26 48.9005 87.34 48.9905 87.45 49.0605C87.56 49.1305 87.7 49.1605 87.86 49.1605H89.42V49.4405L89.41 49.4505ZM87.08 47.6905H89.03C89.12 47.6905 89.16 47.6405 89.16 47.5505V47.5105C89.16 47.1405 89.08 46.8805 88.91 46.7405C88.74 46.6005 88.48 46.5305 88.13 46.5305C87.78 46.5305 87.5 46.6105 87.33 46.7805C87.16 46.9505 87.08 47.2505 87.08 47.7005V47.6905Z" fill="#FFE3F3"/>
<path d="M92.63 49.4505H91.48C90.97 49.4505 90.62 49.3205 90.42 49.0605C90.22 48.8005 90.13 48.4005 90.13 47.8605C90.13 47.3205 90.23 46.9405 90.42 46.6705C90.61 46.4005 90.96 46.2705 91.47 46.2705H92.54V46.5505H91.47C91.07 46.5505 90.8 46.6605 90.66 46.8705C90.52 47.0805 90.45 47.4105 90.45 47.8605C90.45 48.3405 90.52 48.6705 90.66 48.8705C90.8 49.0705 91.07 49.1705 91.47 49.1705H92.62V49.4505H92.63Z" fill="#FFE3F3"/>
<path d="M93.6099 49.4505H93.2999V46.2705H93.6099V49.4505ZM95.7499 49.4505H95.3099L93.9699 48.2005C93.8299 48.0805 93.7699 47.9505 93.7699 47.8105C93.7699 47.6905 93.8499 47.5505 94.0199 47.4005L95.2299 46.2705H95.6499L94.2399 47.6105C94.1499 47.6905 94.1099 47.7505 94.1099 47.8105C94.1099 47.8605 94.1499 47.9305 94.2399 48.0105L95.7599 49.4405L95.7499 49.4505Z" fill="#FFE3F3"/>
<path d="M96.36 46.2705H97.9C98.41 46.2705 98.66 46.5405 98.66 47.0705V49.0305C98.66 49.1805 98.63 49.2905 98.57 49.3505C98.51 49.4105 98.39 49.4505 98.2 49.4505H96.98C96.67 49.4505 96.45 49.3705 96.32 49.2205C96.19 49.0705 96.12 48.8205 96.12 48.4905C96.12 48.1605 96.19 47.9205 96.32 47.7705C96.45 47.6205 96.67 47.5505 96.98 47.5505H98.35V47.0205C98.35 46.8905 98.31 46.7805 98.24 46.6905C98.17 46.6005 98.05 46.5605 97.9 46.5605H96.36V46.2805V46.2705ZM98.35 47.8305H96.89C96.71 47.8305 96.6 47.8805 96.53 48.0005C96.47 48.1105 96.44 48.2805 96.44 48.5005C96.44 48.7205 96.47 48.8905 96.53 49.0005C96.59 49.1205 96.71 49.1705 96.89 49.1705H98.2C98.3 49.1705 98.35 49.1205 98.35 49.0305V47.8405V47.8305Z" fill="#FFE3F3"/>
<path d="M99.33 49.4505L100.53 48.3105C100.53 48.3105 100.58 48.2505 100.58 48.2305C100.58 48.2105 100.56 48.2005 100.53 48.2005H100.19C99.67 48.2005 99.42 47.8805 99.42 47.2305C99.42 46.5805 99.68 46.2705 100.19 46.2705H101.54C101.7 46.2705 101.81 46.3105 101.88 46.4005C101.94 46.4905 101.98 46.6105 101.98 46.7805V49.4605H101.67V46.7905C101.67 46.6905 101.66 46.6305 101.63 46.6005C101.6 46.5705 101.55 46.5605 101.48 46.5605H100.2C100.1 46.5605 100.02 46.5805 99.95 46.6205C99.89 46.6605 99.84 46.7205 99.81 46.7905C99.78 46.8605 99.76 46.9305 99.76 47.0005C99.76 47.0705 99.75 47.1505 99.75 47.2405C99.75 47.3305 99.75 47.4105 99.76 47.4805C99.76 47.5505 99.79 47.6205 99.81 47.7005C99.84 47.7805 99.88 47.8405 99.95 47.8805C100.01 47.9205 100.1 47.9405 100.2 47.9405H100.81C100.97 47.9405 101.05 48.0005 101.05 48.1205C101.05 48.2005 101.02 48.2705 100.97 48.3205L99.76 49.4705H99.34L99.33 49.4505Z" fill="#FFE3F3"/>
<path d="M34.07 35.8096H26.74C21.76 35.8096 19.28 32.7796 19.28 26.7096C19.28 25.3796 19.39 24.1996 19.62 23.1696C19.85 22.1496 20.23 21.1996 20.79 20.3196C21.34 19.4396 22.14 18.7696 23.18 18.2996C24.22 17.8296 25.49 17.5996 27 17.5996H33.79V18.8496H27C24.75 18.8496 23.15 19.5096 22.2 20.8296C21.26 22.1496 20.78 24.1096 20.78 26.7096C20.78 29.3096 21.23 31.2896 22.13 32.5996C23.03 33.9096 24.57 34.5596 26.76 34.5596H34.07V35.8096Z" fill="#FFE3F3"/>
<path d="M47.1001 35.8091H40.3401C38.5701 35.8091 37.3401 35.2191 36.6301 34.0391C35.9301 32.8591 35.5801 31.1891 35.5801 29.0191C35.5801 26.5591 36.0101 24.7491 36.8701 23.5991C37.7301 22.4491 39.2701 21.8691 41.4801 21.8691C45.4301 21.8691 47.4101 23.6191 47.4101 27.1191C47.4101 27.9291 47.2701 28.5191 46.9901 28.8591C46.7101 29.2091 46.1901 29.3791 45.4301 29.3791H36.9801C36.9801 30.0691 37.0201 30.6891 37.1001 31.2291C37.1801 31.7691 37.3301 32.3091 37.5401 32.8491C37.7501 33.3891 38.1001 33.8191 38.5801 34.1191C39.0601 34.4191 39.6401 34.5791 40.3301 34.5791H47.0901V35.7991L47.1001 35.8091ZM36.9901 28.1691H45.4401C45.8201 28.1691 46.0101 27.9591 46.0101 27.5491V27.3691C46.0101 25.7591 45.6401 24.6391 44.9101 24.0291C44.1701 23.4091 43.0401 23.1091 41.5201 23.1091C40.0001 23.1091 38.7701 23.4791 38.0601 24.2091C37.3501 24.9391 36.9901 26.2691 36.9901 28.1691Z" fill="#FFE3F3"/>
<path d="M51.4201 35.8093V40.2293H50.0701V24.0093C50.0701 22.6893 50.8001 22.0293 52.2501 22.0293H55.7601C57.8801 22.0293 59.3401 22.5893 60.1701 23.7093C61.0001 24.8293 61.4101 26.5593 61.4101 28.8993C61.4101 31.2393 61.0001 32.9793 60.1701 34.1093C59.3501 35.2493 57.8801 35.8093 55.7601 35.8093H51.4201ZM51.4201 24.1893V34.5893H55.7601C57.4401 34.5893 58.5701 34.1193 59.1401 33.1693C59.7101 32.2193 60.0001 30.7993 60.0001 28.8893C60.0001 26.9793 59.7101 25.5693 59.1401 24.6393C58.5701 23.7093 57.4401 23.2493 55.7601 23.2493H52.2501C51.9601 23.2493 51.7401 23.3093 51.6101 23.4493C51.4801 23.5793 51.4101 23.8293 51.4101 24.1893H51.4201Z" fill="#FFE3F3"/>
<path d="M73.4 28.5795V28.6795C74.06 28.8195 74.54 29.1195 74.84 29.5895C75.14 30.0595 75.3 30.8095 75.3 31.8495C75.3 34.4795 74.32 35.7995 72.36 35.7995H65.76C64.77 35.7995 64.28 35.2495 64.28 34.1595V23.6595C64.28 23.1895 64.43 22.7995 64.74 22.4895C65.04 22.1795 65.43 22.0195 65.9 22.0195H72.06C73.19 22.0195 74 22.3095 74.49 22.8995C74.98 23.4895 75.23 24.3695 75.23 25.5495C75.23 26.5195 75.1 27.2295 74.85 27.6795C74.6 28.1295 74.12 28.4195 73.41 28.5595L73.4 28.5795ZM65.63 28.0095H71.84C72.53 28.0095 73.04 27.8195 73.35 27.4395C73.66 27.0595 73.82 26.4395 73.82 25.5695C73.82 24.7695 73.67 24.1895 73.38 23.8195C73.09 23.4495 72.57 23.2595 71.82 23.2595H66.18C65.82 23.2595 65.63 23.4295 65.63 23.7495V28.0095ZM65.63 29.2295V33.7295C65.63 33.9395 65.63 34.0895 65.66 34.1895C65.68 34.2895 65.75 34.3795 65.88 34.4595C66.01 34.5395 66.21 34.5895 66.46 34.5895H71.58C72.45 34.5895 73.05 34.4095 73.39 34.0395C73.73 33.6795 73.9 32.9495 73.9 31.8595C73.9 30.1095 73.21 29.2295 71.82 29.2295H65.63Z" fill="#FFE3F3"/>
<path d="M89.8301 35.8091H88.4801V23.8191C88.4801 23.6091 88.4401 23.5091 88.3501 23.5091C88.3001 23.5091 88.2001 23.6091 88.0601 23.8191L81.0401 34.9691C80.8101 35.3291 80.6001 35.5891 80.3901 35.7391C80.1801 35.8891 79.9001 35.9591 79.5601 35.9591C78.7301 35.9591 78.3101 35.4791 78.3101 34.5291V22.0191H79.6601V34.0091C79.6601 34.2391 79.7101 34.3491 79.8201 34.3491C79.8901 34.3491 79.9801 34.2391 80.1101 34.0091L87.2101 22.6991C87.5601 22.1491 88.0301 21.8691 88.6401 21.8691C89.4401 21.8691 89.8401 22.3991 89.8401 23.4591V35.8091H89.8301Z" fill="#FFE3F3"/>
<path d="M102.48 35.8093H97.5101C95.2901 35.8093 93.7701 35.2493 92.9301 34.1293C92.0901 33.0093 91.6801 31.2693 91.6801 28.9193C91.6801 26.5693 92.1001 24.9293 92.9401 23.7693C93.7801 22.6093 95.3001 22.0293 97.5001 22.0293H102.15V23.2493H97.5001C95.7801 23.2493 94.6201 23.7093 94.0001 24.6193C93.3801 25.5293 93.0801 26.9593 93.0801 28.9193C93.0801 30.9793 93.3801 32.4393 93.9801 33.2993C94.5801 34.1593 95.7501 34.5893 97.5001 34.5893H102.47V35.8093H102.48Z" fill="#FFE3F3"/>
<path d="M40.27 13.3404L43.69 4.1204C43.78 3.8704 43.59 3.6104 43.32 3.6204C42.97 3.6404 42.62 3.6504 42.28 3.6704C42.13 3.6704 42 3.7804 41.95 3.9104C40.1 8.7804 38.85 12.4004 38.52 13.5104C38.15 14.7504 37.97 15.9104 37.97 15.9104C37.92 16.2504 37.89 16.5304 37.87 16.7204C38.8 16.7304 39.72 16.7504 40.65 16.7604C40.9 16.2904 40.86 16.0804 40.78 15.9804C40.66 15.8204 40.41 15.9104 40.17 15.6904C40.01 15.5404 39.95 15.3504 39.92 15.2304C39.86 15.0004 39.87 14.8004 39.92 14.5504C39.97 14.2604 40.07 13.8504 40.27 13.3604V13.3404Z" fill="#FFE3F3"/>
<path d="M44.68 43.3002C44.44 43.3602 43.78 43.5402 42.89 44.2402C41.9 45.0202 41.35 45.8702 40.77 46.7902C40.57 47.1102 40.25 47.7002 39.62 48.8802C39.03 49.9802 38.75 50.5502 38.62 50.8202C38.51 51.0502 38.52 51.0302 37.98 52.1802C37.34 53.5502 37.18 53.8902 36.83 54.3302C36.36 54.9202 36.04 55.1102 35.77 55.2102C35.5 55.3102 35.25 55.3302 34.95 55.3602C34.53 55.4002 33.58 55.0502 33.34 54.7802C32.99 54.4002 32.8 54.0302 32.73 53.9002C32.36 53.1702 32.24 52.5902 32.06 51.9602C32.03 51.8602 31.84 51.2602 31.45 50.0802C31.14 49.1302 30.61 47.5602 29.63 45.8702C29.26 45.2302 28.58 44.1402 27.42 43.2302C26.85 42.7902 26.35 42.5302 25.75 42.5002C25.52 42.4902 25.13 42.5002 24.51 42.7702C23.38 43.2602 22.67 44.0702 22.3 44.5302C21.41 45.6202 20.58 46.6302 19.87 48.3502C19.05 50.3502 19.36 50.9602 18.32 53.0202C17.68 54.2902 17.21 54.7602 16.65 55.0502C15.55 55.6202 14.5 55.3802 14.13 55.2902C13.18 55.0602 12.55 54.5102 12.16 54.1402C9.69002 51.7902 8.61002 49.1402 8.61002 49.1402C6.66002 44.3402 5.68002 41.9402 4.73002 38.1302C3.75002 34.2402 2.95002 31.0302 2.64002 26.5202C2.42002 23.3502 2.24002 20.3602 3.03002 16.4802C4.00002 11.7602 5.79002 8.83017 6.37002 7.93017C8.11002 5.23017 9.73002 3.99017 10.28 3.59017C11.96 2.38017 13.48 1.88017 13.92 1.74017C15.79 1.16017 17.32 1.18017 18.13 1.19017C19.1 1.21017 20.21 1.23017 21.53 1.68017C24.04 2.52017 25.68 4.32017 26.11 4.80017C26.96 5.76017 28.01 6.55017 28.75 7.59017C28.89 7.78017 29.29 8.39017 29.84 8.38017C30.15 8.38017 30.38 8.22017 30.48 8.14017C31.82 6.94017 32.99 5.83017 34 4.84017C34.99 3.86017 35.15 3.65017 35.67 3.26017C37.52 1.86017 39.34 1.44017 40.19 1.26017C41.13 1.06017 42.73 0.730173 44.74 1.14017C45.1 1.21017 46.38 1.50017 47.86 2.35017C49.33 3.20017 51.45 4.42017 52.13 6.87017C52.83 9.36017 51.58 11.5402 51.25 12.1202C50.08 14.1602 48.33 15.0202 47.73 15.3002C46.69 15.7902 45.36 16.4202 43.97 15.8802C43.67 15.7602 42.51 15.2502 42.15 14.1502C41.66 12.6302 43.07 11.1502 42.51 10.6602C42.3 10.4702 41.82 10.4602 41.6 10.6602C41.47 10.7802 41.46 10.9402 41.45 11.0202C41.26 12.7902 41.12 12.5602 41.18 13.5102C41.23 14.3902 41.26 14.8302 41.42 15.1802C41.91 16.2302 42.97 16.6602 43.3 16.7902C43.62 16.9202 44.45 17.2002 46.03 16.9402C48.39 16.5602 50.06 15.3602 50.64 14.9102C51.81 14.0002 53.42 12.7502 54.01 10.4802C54.71 7.76017 53.46 5.50017 53.16 4.96017C51.77 2.46017 49.47 1.49017 48.13 0.930173C45.48 -0.169827 43.16 -0.0298275 42.01 0.0501725C41.11 0.110173 39.13 0.270173 36.95 1.37017C36.07 1.81017 34.73 2.48017 33.49 3.83017C32.58 4.82017 31.42 5.57017 30.58 6.62017C30.49 6.73017 30.22 7.08017 29.85 7.07017C29.55 7.07017 29.31 6.83017 29.18 6.68017C28.84 6.09017 28.34 5.33017 27.63 4.53017C26.13 2.82017 24.56 1.91017 23.96 1.59017C20.09 -0.489827 16.32 0.0901725 15.21 0.280173C13.36 0.590173 12.03 1.20017 11.21 1.58017C10.59 1.87017 8.09002 3.08017 5.66002 5.61017C1.92002 9.53017 0.840017 14.0102 0.510017 15.5002C-0.359983 19.3502 0.0400165 22.4302 0.600017 26.6302C0.860017 28.5902 1.30002 30.5602 2.18002 34.5102C2.87002 37.6102 3.23002 39.2002 3.94002 41.3902C4.89002 44.3202 5.84002 46.3902 6.43002 47.6702C6.63002 48.1002 7.44002 49.8302 8.73002 51.9402C9.58002 53.3302 10.23 54.1902 11.22 54.9702C11.7 55.3502 12.31 55.8202 13.25 56.1202C14.81 56.6102 16.13 56.2602 16.4 56.1802C17.72 55.8002 18.51 55.0202 18.7 54.8202C19.33 54.1702 19.6 53.5202 19.97 52.6402C20.21 52.0702 20.23 51.9102 20.73 50.1802C21.43 47.7702 22.25 46.3902 22.91 45.4802C23.72 44.3802 23.92 43.9702 24.52 43.6602C24.96 43.4302 25.35 43.4002 25.46 43.3902C25.63 43.3802 25.98 43.3502 26.37 43.5102C26.54 43.5802 26.75 43.6902 27.25 44.2102C27.56 44.5302 27.8 44.7702 28.1 45.1802C28.52 45.7602 28.88 46.4102 29.25 47.3902C29.4 47.7702 29.53 48.1602 29.98 49.7902C30.65 52.2202 30.64 52.4302 30.98 53.1302C31.39 53.9502 31.77 54.4302 32.31 55.1302C32.65 55.5702 32.88 55.8002 33.22 55.9802C33.65 56.2002 34.05 56.2202 34.58 56.2502C34.99 56.2702 35.47 56.3002 36.07 56.1302C36.24 56.0802 36.74 55.9302 37.4 55.4302C38.05 54.9502 38.55 54.3802 39.13 53.4902C39.57 52.8202 39.7 52.5102 40.62 50.7002C41.43 49.1002 41.74 48.5102 42.11 47.8802C42.86 46.5702 44.09 44.9802 44.69 44.7002C44.92 44.5902 45.12 44.5402 45.27 44.5202C45.41 44.5002 45.55 44.4802 45.69 44.4602C64.62 44.4102 83.55 44.3602 102.48 44.3102V43.2502C69.83 43.3102 45.34 43.1602 44.69 43.3102L44.68 43.3002Z" fill="#FFE3F3"/>
<path d="M81.62 6.45982C82.72 6.37982 84.61 6.23982 86.69 5.76982C87.38 5.60982 88.51 5.31982 89.7 4.94982C89.97 4.86982 90.23 4.78982 90.49 4.69982C90.75 4.50982 91.02 4.31982 91.28 4.12982L90.06 3.47982C89.9 3.38982 89.7 3.39982 89.54 3.47982C88 4.33982 86.64 4.80982 85.65 5.08982C84.27 5.46982 83.17 5.58982 81.65 5.75982C79.95 5.93982 78.52 5.99982 77.47 6.00982C77.45 6.17982 77.44 6.35982 77.42 6.52982C79.08 6.58982 80.51 6.52982 81.62 6.45982Z" fill="#FFE3F3"/>
<path d="M56.03 16.6504C56.95 17.1404 57.89 16.9704 58.56 16.8504C59.19 16.7404 59.62 16.5504 60.16 16.3104C60.58 16.1304 61.47 15.7004 62.44 14.9404C63.26 14.2804 63.81 13.6704 63.81 13.6704C64.23 13.2204 64.44 12.9004 64.52 12.9504C64.64 13.0104 64.4 13.8504 64.06 14.5604C64.02 14.6404 63.69 15.3204 63.44 16.1604C63.41 16.2804 63.36 16.4404 63.44 16.5704C63.61 16.8604 64.24 16.8204 64.65 16.6904C64.78 16.6404 64.88 16.5904 64.95 16.5604C65.6 14.7004 66.71 11.4004 66.9 11.2704C67.04 11.1804 68.15 11.3904 69.05 11.3604C69.84 11.3404 70 11.3004 70.12 11.2704C70.49 11.1704 70.76 11.0004 70.94 10.8804C70.71 11.3604 69.3 14.7204 69.29 15.1304C69.28 15.3004 69.25 16.0104 69.7 16.4304C70.27 16.9804 71.26 16.7004 71.7 16.5804C72.73 16.3004 73.41 15.6204 73.83 15.2104C74.14 14.8904 74.22 14.7504 75.11 13.7904C75.73 13.1304 75.91 12.9604 75.99 13.0104C76.14 13.1004 75.84 13.9404 75.58 14.5004C75.38 14.9204 75.2 15.1804 75 15.7504C74.86 16.1504 74.79 16.3504 74.87 16.5104C75.1 16.9604 76.22 17.0404 76.8 16.5304C76.93 16.4104 77 16.2904 77.04 16.2104C77.16 15.9604 77.29 15.7004 77.41 15.4504C77.75 14.7904 78.04 14.2304 78.27 13.8104C78.86 12.7004 79.17 12.1304 79.59 11.4604C80.18 10.5204 80.13 10.7504 80.59 9.98042C80.77 9.70042 81.02 9.27042 81.49 8.81042C81.74 8.57042 81.92 8.45042 82.14 8.38042C82.21 8.36042 82.77 8.20042 83.07 8.48042C83.39 8.77042 83.23 9.40042 83.05 10.0604C82.87 10.7404 82.67 11.1104 82.42 11.6804C81.73 13.2304 80.89 15.3904 80.76 16.2804C80.74 16.4304 80.73 16.5604 80.72 16.6404C80.95 16.7404 81.78 17.0804 82.6 16.7104C82.76 16.6404 82.89 16.5504 83.01 16.4504C83.49 15.4404 84.11 14.1704 84.86 12.7004C85.83 10.7604 85.86 11.0904 86.51 9.92042C86.55 9.85042 87.01 9.03042 87.8 8.52042C87.98 8.41042 88.25 8.25042 88.58 8.30042C88.7 8.32042 88.97 8.36042 89.12 8.60042C89.22 8.76042 89.2 8.94042 89.19 9.01042C89.08 9.33042 88.91 9.80042 88.71 10.3704C87.87 12.7304 88.05 12.3504 87.93 12.5904C87.93 12.5904 87.46 13.7404 87.07 15.3404C87.01 15.5904 86.91 16.0304 87.15 16.4004C87.3 16.6404 87.55 16.7504 87.7 16.8104C87.9 16.8204 88.17 16.8304 88.49 16.7904C88.56 16.7804 88.89 16.7304 89.29 16.5804C90.03 16.3004 90.62 15.8104 90.87 15.6004C92.09 14.5604 92.97 13.6204 93.19 13.3904C93.68 12.8704 94.13 12.3604 94.54 11.8604C94.66 11.5704 94.54 11.2804 94.34 11.1904C94.15 11.1204 93.95 11.2604 93.93 11.2704C93.43 11.7804 93.05 12.2204 92.8 12.5304C92.3 13.1404 91.93 13.6504 91.34 14.2104C91.07 14.4704 90.83 14.6704 90.65 14.8004C90.27 15.1104 90.12 15.1904 90.04 15.2304C89.86 15.3204 89.36 15.5704 89.13 15.3804C89 15.2704 89.01 15.0604 89.04 14.7904C89.14 13.7004 89.3 13.1904 89.3 13.1904C89.43 12.7504 89.47 12.6804 89.91 11.4904C90.27 10.5104 90.18 10.7304 90.3 10.4104C90.67 9.46042 90.81 9.29042 90.82 8.85042C90.82 8.64042 90.84 8.15042 90.51 7.81042C90.38 7.67042 90.19 7.57042 89.85 7.49042C88.72 7.24042 87.65 7.77042 87.61 7.79042C87.3 7.95042 86.86 8.24042 86.03 9.35042C85.37 10.2304 85.03 10.8804 83.97 12.7704C83.04 14.4404 82.76 14.9604 82.71 14.9604C82.66 14.9304 83.05 14.1304 83.71 12.3804C83.97 11.6904 83.85 11.9904 84.16 11.1704C84.53 10.1904 84.68 9.83042 84.77 9.22042C84.85 8.69042 84.89 8.38042 84.72 8.05042C84.45 7.56042 83.91 7.40042 83.69 7.34042C82.97 7.14042 82.35 7.40042 82.13 7.49042C81.79 7.64042 81.54 7.83042 81.07 8.31042C80.47 8.92042 80.02 9.38042 79.43 10.2604C78.95 10.9804 79.01 11.0404 78.17 12.5504C77.62 13.5504 77.02 14.5304 76.89 14.6804C76.92 14.6104 77.05 14.3804 77.22 14.0004C77.61 13.1404 77.69 12.7704 78.17 11.4904C78.27 11.2304 78.39 10.9204 78.56 10.5104C79.05 9.32042 79.35 8.81042 79.36 8.00042C79.36 7.79042 79.34 7.61042 79.32 7.50042C78.17 7.50042 77 7.53042 75.85 7.54042C75.69 7.71042 75.65 7.93042 75.74 8.08042C75.79 8.17042 75.87 8.21042 75.92 8.23042C76.38 8.21042 76.84 8.20042 77.3 8.19042C77.32 8.87042 77.21 9.42042 77.11 9.77042C76.87 10.6404 76.46 11.2204 76.17 11.6404C75.81 12.1404 75.46 12.5004 75.22 12.7404C74.83 13.1304 74.69 13.2104 74.17 13.7304C73.69 14.2104 73.74 14.2104 73.37 14.5604C72.67 15.2504 72.14 15.7504 71.66 15.6204C71.65 15.6204 71.38 15.5504 71.25 15.3104C71.2 15.2204 71.16 15.0704 71.23 14.6404C71.32 14.1804 73.07 9.80042 73.48 8.55042C73.62 8.12042 73.73 7.75042 73.79 7.51042C73.19 7.52042 72.58 7.52042 71.96 7.53042C71.95 7.97042 71.86 9.55042 70.73 10.3504C70.61 10.4404 70.47 10.5204 70.3 10.5904C69.31 10.6004 68.49 10.5904 67.93 10.5904C67.79 10.5904 67.52 10.5904 67.35 10.4004C67.31 10.3504 67.2 10.2104 67.22 9.83042C67.26 9.34042 67.47 9.06042 67.73 8.56042C67.85 8.33042 68.01 7.97042 68.17 7.52042C66.96 7.53042 65.74 7.53042 64.53 7.54042C64.49 7.58042 64.33 7.79042 64.37 8.06042C64.38 8.15042 64.41 8.23042 64.44 8.28042C64.93 8.28042 65.42 8.27042 65.91 8.26042C65.8 9.84042 65.27 10.8404 64.91 11.3604C64.7 11.6704 64.38 12.0004 63.75 12.6704C63.01 13.4504 62.57 13.9104 61.84 14.4104C61.73 14.4804 61.25 14.8104 60.56 15.1304C60.19 15.3104 59.84 15.4704 59.39 15.6004C58.63 15.8104 57.77 16.0504 57.13 15.6004C56.73 15.3204 56.58 14.8804 56.47 14.5604C56.41 14.3604 56.25 13.8104 56.4 13.1404C56.45 12.9304 56.51 12.7604 56.57 12.6404C57.18 12.8304 58.56 13.1404 60 12.5504C61.63 11.8704 63.16 10.1104 62.82 8.76042C62.77 8.55042 62.57 7.97042 62.04 7.64042C61.5 7.31042 60.87 7.40042 60.35 7.47042C60.14 7.50042 59.75 7.58042 59.25 7.79042C58.47 8.12042 58.01 8.56042 57.32 9.20042C56.93 9.58042 56.39 10.1404 55.85 10.9204C55.7 11.1304 55.54 11.3604 55.39 11.6404C55.1 12.1704 54.1 13.9804 54.88 15.4904C55.26 16.2204 55.9 16.5604 56.07 16.6604L56.03 16.6504ZM58.49 9.38042C59.35 8.42042 59.83 8.25042 60.15 8.19042C60.35 8.15042 60.84 8.07042 61.11 8.34042C61.55 8.77042 61.13 9.77042 60.99 10.1204C60.87 10.4104 60.57 11.1104 59.8 11.6004C59.61 11.7204 59.05 12.0704 58.32 12.0404C58.08 12.0404 57.74 12.0104 57.46 11.7704C57.27 11.6104 57.18 11.4204 57.14 11.3004C57.62 10.4304 58.12 9.79042 58.5 9.37042L58.49 9.38042Z" fill="#FFE3F3"/>
</g>
</svg>
