<svg width="107" height="57" viewBox="0 0 107 57" fill="none" xmlns="http://www.w3.org/2000/svg">
<g clip-path="url(#clip0_154_45)">
<path d="M80.33 54.68H80.02V51.5H80.33V54.68ZM82.47 54.68H82.03L80.69 53.43C80.55 53.31 80.49 53.18 80.49 53.04C80.49 52.92 80.57 52.78 80.74 52.63L81.95 51.5H82.37L80.96 52.84C80.87 52.92 80.83 52.98 80.83 53.04C80.83 53.09 80.87 53.16 80.96 53.24L82.48 54.67L82.47 54.68Z" fill="#5967B2"/>
<path d="M82.74 54.68L83.93 51.72C84 51.55 84.1 51.47 84.24 51.47C84.38 51.47 84.48 51.55 84.55 51.72L85.74 54.68H85.39L84.3 51.9C84.27 51.84 84.25 51.8 84.24 51.8C84.23 51.8 84.21 51.83 84.18 51.9L83.09 54.68H82.74Z" fill="#5967B2"/>
<path d="M88.96 54.68H88.65V51.91C88.65 51.91 88.65 51.84 88.62 51.84C88.61 51.84 88.59 51.86 88.55 51.91L86.93 54.48C86.88 54.56 86.83 54.62 86.78 54.66C86.73 54.69 86.67 54.71 86.59 54.71C86.4 54.71 86.3 54.6 86.3 54.38V51.49H86.61V54.26C86.61 54.31 86.62 54.34 86.65 54.34C86.67 54.34 86.69 54.31 86.72 54.26L88.36 51.65C88.44 51.52 88.55 51.46 88.69 51.46C88.87 51.46 88.97 51.58 88.97 51.83V54.68H88.96Z" fill="#5967B2"/>
<path d="M92.3601 54.68H92.0501V53.18H90.1401V54.68H89.8301V51.5H90.1401V52.9H92.0501V51.5H92.3601V54.68Z" fill="#5967B2"/>
<path d="M95.89 54.68H95.58V51.91C95.58 51.91 95.58 51.84 95.55 51.84C95.54 51.84 95.52 51.86 95.48 51.91L93.86 54.48C93.81 54.56 93.76 54.62 93.71 54.66C93.66 54.69 93.6 54.71 93.52 54.71C93.33 54.71 93.23 54.6 93.23 54.38V51.49H93.54V54.26C93.54 54.31 93.55 54.34 93.58 54.34C93.6 54.34 93.62 54.31 93.65 54.26L95.29 51.65C95.37 51.52 95.48 51.46 95.62 51.46C95.8 51.46 95.9 51.58 95.9 51.83V54.68H95.89Z" fill="#5967B2"/>
<path d="M97.07 54.68H96.76V51.5H97.07V54.68ZM99.21 54.68H98.77L97.43 53.43C97.29 53.31 97.23 53.18 97.23 53.04C97.23 52.92 97.31 52.78 97.48 52.63L98.69 51.5H99.11L97.7 52.84C97.61 52.92 97.57 52.98 97.57 53.04C97.57 53.09 97.61 53.16 97.7 53.24L99.22 54.67L99.21 54.68Z" fill="#5967B2"/>
<path d="M99.83 51.5H101.37C101.88 51.5 102.13 51.77 102.13 52.3V54.26C102.13 54.41 102.1 54.52 102.04 54.58C101.98 54.64 101.86 54.68 101.67 54.68H100.45C100.14 54.68 99.92 54.6 99.79 54.45C99.66 54.3 99.59 54.05 99.59 53.72C99.59 53.39 99.66 53.15 99.79 53C99.92 52.85 100.14 52.78 100.45 52.78H101.82V52.25C101.82 52.12 101.78 52.01 101.71 51.92C101.64 51.83 101.52 51.79 101.37 51.79H99.83V51.51V51.5ZM101.82 53.06H100.36C100.18 53.06 100.07 53.11 100 53.23C99.94 53.34 99.91 53.51 99.91 53.73C99.91 53.95 99.94 54.12 100 54.23C100.06 54.35 100.18 54.4 100.36 54.4H101.67C101.77 54.4 101.82 54.35 101.82 54.26V53.07V53.06Z" fill="#5967B2"/>
<path d="M48.59 49.45H47.44C46.93 49.45 46.58 49.32 46.38 49.06C46.18 48.8 46.09 48.4 46.09 47.86C46.09 47.32 46.19 46.94 46.38 46.67C46.57 46.4 46.92 46.27 47.43 46.27H48.5V46.55H47.43C47.03 46.55 46.76 46.66 46.62 46.87C46.48 47.08 46.41 47.41 46.41 47.86C46.41 48.34 46.48 48.67 46.62 48.87C46.76 49.07 47.03 49.17 47.43 49.17H48.58V49.45H48.59Z" fill="#5967B2"/>
<path d="M50.5 49.45H50.19V46.55H48.99V46.27H51.7V46.55H50.5V49.45Z" fill="#5967B2"/>
<path d="M52.38 46.61C52.62 46.36 53.02 46.23 53.59 46.23C54.16 46.23 54.56 46.36 54.8 46.61C55.04 46.86 55.16 47.28 55.16 47.85C55.16 48.42 55.04 48.84 54.8 49.1C54.56 49.36 54.15 49.48 53.59 49.48C53.03 49.48 52.62 49.35 52.38 49.1C52.14 48.85 52.02 48.43 52.02 47.85C52.02 47.27 52.14 46.86 52.38 46.61ZM52.62 46.81C52.43 47 52.34 47.35 52.34 47.86C52.34 48.37 52.43 48.71 52.62 48.91C52.81 49.11 53.13 49.21 53.59 49.21C54.05 49.21 54.37 49.11 54.56 48.91C54.75 48.71 54.84 48.36 54.84 47.86C54.84 47.36 54.75 47.01 54.56 46.81C54.37 46.62 54.05 46.52 53.59 46.52C53.13 46.52 52.81 46.62 52.62 46.81Z" fill="#5967B2"/>
<path d="M59.0199 46.67L57.9499 49.26C57.8899 49.41 57.7899 49.49 57.6599 49.49C57.5299 49.49 57.4299 49.41 57.3699 49.26L56.2999 46.67C56.2999 46.67 56.2699 46.62 56.2599 46.62C56.2399 46.62 56.2399 46.63 56.2399 46.66V49.45H55.9299V46.56C55.9299 46.34 56.0299 46.23 56.2299 46.23C56.3699 46.23 56.4799 46.3 56.5399 46.45L57.5999 49.01C57.6299 49.08 57.6499 49.12 57.6699 49.12C57.6799 49.12 57.6999 49.08 57.7399 49.01L58.7999 46.45C58.8599 46.31 58.9599 46.23 59.1099 46.23C59.3099 46.23 59.4099 46.34 59.4099 46.56V49.45H59.0999V46.66C59.0999 46.66 59.0999 46.62 59.0799 46.62C59.0599 46.62 59.0499 46.64 59.0399 46.67H59.0199Z" fill="#5967B2"/>
<path d="M60.3999 46.27H61.9399C62.4499 46.27 62.6999 46.54 62.6999 47.07V49.03C62.6999 49.18 62.6699 49.29 62.6099 49.35C62.5499 49.41 62.4299 49.45 62.2399 49.45H61.0199C60.7099 49.45 60.4899 49.37 60.3599 49.22C60.2299 49.07 60.1599 48.82 60.1599 48.49C60.1599 48.16 60.2299 47.92 60.3599 47.77C60.4899 47.62 60.7099 47.55 61.0199 47.55H62.3899V47.02C62.3899 46.89 62.3499 46.78 62.2799 46.69C62.2099 46.6 62.0899 46.56 61.9399 46.56H60.3999V46.28V46.27ZM62.3899 47.83H60.9299C60.7499 47.83 60.6399 47.88 60.5699 48C60.5099 48.11 60.4799 48.28 60.4799 48.5C60.4799 48.72 60.5099 48.89 60.5699 49C60.6299 49.12 60.7499 49.17 60.9299 49.17H62.2399C62.3399 49.17 62.3899 49.12 62.3899 49.03V47.84V47.83Z" fill="#5967B2"/>
<path d="M64.76 49.45H64.45V46.55H63.25V46.27H65.96V46.55H64.76V49.45Z" fill="#5967B2"/>
<path d="M66.6399 46.61C66.8799 46.36 67.2799 46.23 67.8499 46.23C68.4199 46.23 68.8199 46.36 69.0599 46.61C69.2999 46.86 69.4199 47.28 69.4199 47.85C69.4199 48.42 69.2999 48.84 69.0599 49.1C68.8199 49.36 68.4099 49.48 67.8499 49.48C67.2899 49.48 66.8799 49.35 66.6399 49.1C66.3999 48.85 66.2799 48.43 66.2799 47.85C66.2799 47.27 66.3999 46.86 66.6399 46.61ZM66.8799 46.81C66.6899 47 66.5999 47.35 66.5999 47.86C66.5999 48.37 66.6899 48.71 66.8799 48.91C67.0699 49.11 67.3899 49.21 67.8499 49.21C68.3099 49.21 68.6299 49.11 68.8199 48.91C69.0099 48.71 69.0999 48.36 69.0999 47.86C69.0999 47.36 69.0099 47.01 68.8199 46.81C68.6299 46.62 68.3099 46.52 67.8499 46.52C67.3899 46.52 67.0699 46.62 66.8799 46.81Z" fill="#5967B2"/>
<path d="M69.7999 49.45L70.9899 46.49C71.0599 46.32 71.1599 46.24 71.2999 46.24C71.4399 46.24 71.5399 46.32 71.6099 46.49L72.7999 49.45H72.4499L71.3599 46.67C71.3299 46.61 71.3099 46.57 71.2999 46.57C71.2899 46.57 71.2699 46.6 71.2399 46.67L70.1499 49.45H69.7999Z" fill="#5967B2"/>
<path d="M73.5499 46.61C73.7899 46.36 74.1899 46.23 74.7599 46.23C75.3299 46.23 75.7299 46.36 75.9699 46.61C76.2099 46.86 76.3299 47.28 76.3299 47.85C76.3299 48.42 76.2099 48.84 75.9699 49.1C75.7299 49.36 75.3199 49.48 74.7599 49.48C74.1999 49.48 73.7899 49.35 73.5499 49.1C73.3099 48.85 73.1899 48.43 73.1899 47.85C73.1899 47.27 73.3099 46.86 73.5499 46.61ZM73.7899 46.81C73.5999 47 73.5099 47.35 73.5099 47.86C73.5099 48.37 73.5999 48.71 73.7899 48.91C73.9799 49.11 74.2999 49.21 74.7599 49.21C75.2199 49.21 75.5399 49.11 75.7299 48.91C75.9199 48.71 76.0099 48.36 76.0099 47.86C76.0099 47.36 75.9199 47.01 75.7299 46.81C75.5399 46.62 75.2199 46.52 74.7599 46.52C74.2999 46.52 73.9799 46.62 73.7899 46.81Z" fill="#5967B2"/>
<path d="M77.1 49.45V46.77C77.1 46.61 77.13 46.48 77.2 46.39C77.26 46.3 77.38 46.26 77.54 46.26H79.5V46.54H77.62C77.55 46.54 77.5 46.55 77.47 46.58C77.44 46.61 77.43 46.67 77.43 46.77V49.44H77.12L77.1 49.45Z" fill="#5967B2"/>
<path d="M82.6899 49.45H82.3799V46.68C82.3799 46.68 82.3799 46.61 82.3499 46.61C82.3399 46.61 82.3199 46.63 82.2799 46.68L80.6599 49.25C80.6099 49.33 80.5599 49.39 80.5099 49.43C80.4599 49.46 80.3999 49.48 80.3199 49.48C80.1299 49.48 80.0299 49.37 80.0299 49.15V46.26H80.3399V49.03C80.3399 49.08 80.3499 49.11 80.3799 49.11C80.3999 49.11 80.4199 49.08 80.4499 49.03L82.0899 46.42C82.1699 46.29 82.2799 46.23 82.4199 46.23C82.5999 46.23 82.6999 46.35 82.6999 46.6V49.45H82.6899Z" fill="#5967B2"/>
<path d="M85.99 49.45H85.68V47.96H84.28C83.98 47.96 83.77 47.9 83.65 47.79C83.53 47.68 83.47 47.47 83.47 47.18V46.27H83.78V47.18C83.78 47.37 83.81 47.5 83.88 47.57C83.94 47.64 84.08 47.68 84.28 47.68H85.68V46.28H85.99V49.46V49.45Z" fill="#5967B2"/>
<path d="M89.41 49.45H87.85C87.44 49.45 87.16 49.31 86.99 49.04C86.83 48.77 86.75 48.38 86.75 47.88C86.75 47.31 86.85 46.9 87.05 46.63C87.25 46.36 87.6 46.23 88.12 46.23C89.03 46.23 89.49 46.63 89.49 47.44C89.49 47.63 89.46 47.76 89.39 47.84C89.33 47.92 89.21 47.96 89.03 47.96H87.08C87.08 48.12 87.08 48.26 87.11 48.39C87.13 48.51 87.16 48.64 87.21 48.77C87.26 48.9 87.34 48.99 87.45 49.06C87.56 49.13 87.7 49.16 87.86 49.16H89.42V49.44L89.41 49.45ZM87.08 47.69H89.03C89.12 47.69 89.16 47.64 89.16 47.55V47.51C89.16 47.14 89.08 46.88 88.91 46.74C88.74 46.6 88.48 46.53 88.13 46.53C87.78 46.53 87.5 46.61 87.33 46.78C87.16 46.95 87.08 47.25 87.08 47.7V47.69Z" fill="#5967B2"/>
<path d="M92.63 49.45H91.48C90.97 49.45 90.62 49.32 90.42 49.06C90.22 48.8 90.13 48.4 90.13 47.86C90.13 47.32 90.23 46.94 90.42 46.67C90.61 46.4 90.96 46.27 91.47 46.27H92.54V46.55H91.47C91.07 46.55 90.8 46.66 90.66 46.87C90.52 47.08 90.45 47.41 90.45 47.86C90.45 48.34 90.52 48.67 90.66 48.87C90.8 49.07 91.07 49.17 91.47 49.17H92.62V49.45H92.63Z" fill="#5967B2"/>
<path d="M93.6099 49.45H93.2999V46.27H93.6099V49.45ZM95.7499 49.45H95.3099L93.9699 48.2C93.8299 48.08 93.7699 47.95 93.7699 47.81C93.7699 47.69 93.8499 47.55 94.0199 47.4L95.2299 46.27H95.6499L94.2399 47.61C94.1499 47.69 94.1099 47.75 94.1099 47.81C94.1099 47.86 94.1499 47.93 94.2399 48.01L95.7599 49.44L95.7499 49.45Z" fill="#5967B2"/>
<path d="M96.36 46.27H97.9C98.41 46.27 98.66 46.54 98.66 47.07V49.03C98.66 49.18 98.63 49.29 98.57 49.35C98.51 49.41 98.39 49.45 98.2 49.45H96.98C96.67 49.45 96.45 49.37 96.32 49.22C96.19 49.07 96.12 48.82 96.12 48.49C96.12 48.16 96.19 47.92 96.32 47.77C96.45 47.62 96.67 47.55 96.98 47.55H98.35V47.02C98.35 46.89 98.31 46.78 98.24 46.69C98.17 46.6 98.05 46.56 97.9 46.56H96.36V46.28V46.27ZM98.35 47.83H96.89C96.71 47.83 96.6 47.88 96.53 48C96.47 48.11 96.44 48.28 96.44 48.5C96.44 48.72 96.47 48.89 96.53 49C96.59 49.12 96.71 49.17 96.89 49.17H98.2C98.3 49.17 98.35 49.12 98.35 49.03V47.84V47.83Z" fill="#5967B2"/>
<path d="M99.33 49.45L100.53 48.31C100.53 48.31 100.58 48.25 100.58 48.23C100.58 48.21 100.56 48.2 100.53 48.2H100.19C99.67 48.2 99.42 47.88 99.42 47.23C99.42 46.58 99.68 46.27 100.19 46.27H101.54C101.7 46.27 101.81 46.31 101.88 46.4C101.94 46.49 101.98 46.61 101.98 46.78V49.46H101.67V46.79C101.67 46.69 101.66 46.63 101.63 46.6C101.6 46.57 101.55 46.56 101.48 46.56H100.2C100.1 46.56 100.02 46.58 99.95 46.62C99.89 46.66 99.84 46.72 99.81 46.79C99.78 46.86 99.76 46.93 99.76 47C99.76 47.07 99.75 47.15 99.75 47.24C99.75 47.33 99.75 47.41 99.76 47.48C99.76 47.55 99.79 47.62 99.81 47.7C99.84 47.78 99.88 47.84 99.95 47.88C100.01 47.92 100.1 47.94 100.2 47.94H100.81C100.97 47.94 101.05 48 101.05 48.12C101.05 48.2 101.02 48.27 100.97 48.32L99.76 49.47H99.34L99.33 49.45Z" fill="#5967B2"/>
<path d="M34.07 35.81H26.74C21.76 35.81 19.28 32.78 19.28 26.71C19.28 25.38 19.39 24.2 19.62 23.17C19.85 22.15 20.23 21.2 20.79 20.32C21.34 19.44 22.14 18.77 23.18 18.3C24.22 17.83 25.49 17.6 27 17.6H33.79V18.85H27C24.75 18.85 23.15 19.51 22.2 20.83C21.26 22.15 20.78 24.11 20.78 26.71C20.78 29.31 21.23 31.29 22.13 32.6C23.03 33.91 24.57 34.56 26.76 34.56H34.07V35.81Z" fill="#5967B2"/>
<path d="M47.1001 35.81H40.3401C38.5701 35.81 37.3401 35.22 36.6301 34.04C35.9301 32.86 35.5801 31.19 35.5801 29.02C35.5801 26.56 36.0101 24.75 36.8701 23.6C37.7301 22.45 39.2701 21.87 41.4801 21.87C45.4301 21.87 47.4101 23.62 47.4101 27.12C47.4101 27.93 47.2701 28.52 46.9901 28.86C46.7101 29.21 46.1901 29.38 45.4301 29.38H36.9801C36.9801 30.07 37.0201 30.69 37.1001 31.23C37.1801 31.77 37.3301 32.31 37.5401 32.85C37.7501 33.39 38.1001 33.82 38.5801 34.12C39.0601 34.42 39.6401 34.58 40.3301 34.58H47.0901V35.8L47.1001 35.81ZM36.9901 28.17H45.4401C45.8201 28.17 46.0101 27.96 46.0101 27.55V27.37C46.0101 25.76 45.6401 24.64 44.9101 24.03C44.1701 23.41 43.0401 23.11 41.5201 23.11C40.0001 23.11 38.7701 23.48 38.0601 24.21C37.3501 24.94 36.9901 26.27 36.9901 28.17Z" fill="#5967B2"/>
<path d="M51.4201 35.81V40.23H50.0701V24.01C50.0701 22.69 50.8001 22.03 52.2501 22.03H55.7601C57.8801 22.03 59.3401 22.59 60.1701 23.71C61.0001 24.83 61.4101 26.56 61.4101 28.9C61.4101 31.24 61.0001 32.98 60.1701 34.11C59.3501 35.25 57.8801 35.81 55.7601 35.81H51.4201ZM51.4201 24.19V34.59H55.7601C57.4401 34.59 58.5701 34.12 59.1401 33.17C59.7101 32.22 60.0001 30.8 60.0001 28.89C60.0001 26.98 59.7101 25.57 59.1401 24.64C58.5701 23.71 57.4401 23.25 55.7601 23.25H52.2501C51.9601 23.25 51.7401 23.31 51.6101 23.45C51.4801 23.58 51.4101 23.83 51.4101 24.19H51.4201Z" fill="#5967B2"/>
<path d="M73.4 28.58V28.68C74.06 28.82 74.54 29.12 74.84 29.59C75.14 30.06 75.3 30.81 75.3 31.85C75.3 34.48 74.32 35.8 72.36 35.8H65.76C64.77 35.8 64.28 35.25 64.28 34.16V23.66C64.28 23.19 64.43 22.8 64.74 22.49C65.04 22.18 65.43 22.02 65.9 22.02H72.06C73.19 22.02 74 22.31 74.49 22.9C74.98 23.49 75.23 24.37 75.23 25.55C75.23 26.52 75.1 27.23 74.85 27.68C74.6 28.13 74.12 28.42 73.41 28.56L73.4 28.58ZM65.63 28.01H71.84C72.53 28.01 73.04 27.82 73.35 27.44C73.66 27.06 73.82 26.44 73.82 25.57C73.82 24.77 73.67 24.19 73.38 23.82C73.09 23.45 72.57 23.26 71.82 23.26H66.18C65.82 23.26 65.63 23.43 65.63 23.75V28.01ZM65.63 29.23V33.73C65.63 33.94 65.63 34.09 65.66 34.19C65.68 34.29 65.75 34.38 65.88 34.46C66.01 34.54 66.21 34.59 66.46 34.59H71.58C72.45 34.59 73.05 34.41 73.39 34.04C73.73 33.68 73.9 32.95 73.9 31.86C73.9 30.11 73.21 29.23 71.82 29.23H65.63Z" fill="#5967B2"/>
<path d="M89.8301 35.81H88.4801V23.82C88.4801 23.61 88.4401 23.51 88.3501 23.51C88.3001 23.51 88.2001 23.61 88.0601 23.82L81.0401 34.97C80.8101 35.33 80.6001 35.59 80.3901 35.74C80.1801 35.89 79.9001 35.96 79.5601 35.96C78.7301 35.96 78.3101 35.48 78.3101 34.53V22.02H79.6601V34.01C79.6601 34.24 79.7101 34.35 79.8201 34.35C79.8901 34.35 79.9801 34.24 80.1101 34.01L87.2101 22.7C87.5601 22.15 88.0301 21.87 88.6401 21.87C89.4401 21.87 89.8401 22.4 89.8401 23.46V35.81H89.8301Z" fill="#5967B2"/>
<path d="M102.48 35.81H97.5101C95.2901 35.81 93.7701 35.25 92.9301 34.13C92.0901 33.01 91.6801 31.27 91.6801 28.92C91.6801 26.57 92.1001 24.93 92.9401 23.77C93.7801 22.61 95.3001 22.03 97.5001 22.03H102.15V23.25H97.5001C95.7801 23.25 94.6201 23.71 94.0001 24.62C93.3801 25.53 93.0801 26.96 93.0801 28.92C93.0801 30.98 93.3801 32.44 93.9801 33.3C94.5801 34.16 95.7501 34.59 97.5001 34.59H102.47V35.81H102.48Z" fill="#5967B2"/>
<path d="M40.27 13.34L43.69 4.11997C43.78 3.86997 43.59 3.60997 43.32 3.61997C42.97 3.63997 42.62 3.64997 42.28 3.66997C42.13 3.66997 42 3.77997 41.95 3.90997C40.1 8.77997 38.85 12.4 38.52 13.51C38.15 14.75 37.97 15.91 37.97 15.91C37.92 16.25 37.89 16.53 37.87 16.72C38.8 16.73 39.72 16.75 40.65 16.76C40.9 16.29 40.86 16.08 40.78 15.98C40.66 15.82 40.41 15.91 40.17 15.69C40.01 15.54 39.95 15.35 39.92 15.23C39.86 15 39.87 14.8 39.92 14.55C39.97 14.26 40.07 13.85 40.27 13.36V13.34Z" fill="#5967B2"/>
<path d="M44.68 43.3C44.44 43.36 43.78 43.54 42.89 44.24C41.9 45.02 41.35 45.87 40.77 46.79C40.57 47.11 40.25 47.7 39.62 48.88C39.03 49.98 38.75 50.55 38.62 50.82C38.51 51.05 38.52 51.03 37.98 52.18C37.34 53.55 37.18 53.89 36.83 54.33C36.36 54.92 36.04 55.11 35.77 55.21C35.5 55.31 35.25 55.33 34.95 55.36C34.53 55.4 33.58 55.05 33.34 54.78C32.99 54.4 32.8 54.03 32.73 53.9C32.36 53.17 32.24 52.59 32.06 51.96C32.03 51.86 31.84 51.26 31.45 50.08C31.14 49.13 30.61 47.56 29.63 45.87C29.26 45.23 28.58 44.14 27.42 43.23C26.85 42.79 26.35 42.53 25.75 42.5C25.52 42.49 25.13 42.5 24.51 42.77C23.38 43.26 22.67 44.07 22.3 44.53C21.41 45.62 20.58 46.63 19.87 48.35C19.05 50.35 19.36 50.96 18.32 53.02C17.68 54.29 17.21 54.76 16.65 55.05C15.55 55.62 14.5 55.38 14.13 55.29C13.18 55.06 12.55 54.51 12.16 54.14C9.69002 51.79 8.61002 49.14 8.61002 49.14C6.66002 44.34 5.68002 41.94 4.73002 38.13C3.75002 34.24 2.95002 31.03 2.64002 26.52C2.42002 23.35 2.24002 20.36 3.03002 16.48C4.00002 11.76 5.79002 8.82999 6.37002 7.92999C8.11002 5.22999 9.73002 3.98999 10.28 3.58999C11.96 2.37999 13.48 1.87999 13.92 1.73999C15.79 1.15999 17.32 1.17999 18.13 1.18999C19.1 1.20999 20.21 1.22999 21.53 1.67999C24.04 2.51999 25.68 4.31999 26.11 4.79999C26.96 5.75999 28.01 6.54999 28.75 7.58999C28.89 7.77999 29.29 8.38999 29.84 8.37999C30.15 8.37999 30.38 8.21999 30.48 8.13999C31.82 6.93999 32.99 5.82999 34 4.83999C34.99 3.85999 35.15 3.64999 35.67 3.25999C37.52 1.85999 39.34 1.43999 40.19 1.25999C41.13 1.05999 42.73 0.729989 44.74 1.13999C45.1 1.20999 46.38 1.49999 47.86 2.34999C49.33 3.19999 51.45 4.41999 52.13 6.86999C52.83 9.35999 51.58 11.54 51.25 12.12C50.08 14.16 48.33 15.02 47.73 15.3C46.69 15.79 45.36 16.42 43.97 15.88C43.67 15.76 42.51 15.25 42.15 14.15C41.66 12.63 43.07 11.15 42.51 10.66C42.3 10.47 41.82 10.46 41.6 10.66C41.47 10.78 41.46 10.94 41.45 11.02C41.26 12.79 41.12 12.56 41.18 13.51C41.23 14.39 41.26 14.83 41.42 15.18C41.91 16.23 42.97 16.66 43.3 16.79C43.62 16.92 44.45 17.2 46.03 16.94C48.39 16.56 50.06 15.36 50.64 14.91C51.81 14 53.42 12.75 54.01 10.48C54.71 7.75999 53.46 5.49999 53.16 4.95999C51.77 2.45999 49.47 1.48999 48.13 0.92999C45.48 -0.170011 43.16 -0.0300105 42.01 0.0499895C41.11 0.109989 39.13 0.269989 36.95 1.36999C36.07 1.80999 34.73 2.47999 33.49 3.82999C32.58 4.81999 31.42 5.56999 30.58 6.61999C30.49 6.72999 30.22 7.07999 29.85 7.06999C29.55 7.06999 29.31 6.82999 29.18 6.67999C28.84 6.08999 28.34 5.32999 27.63 4.52999C26.13 2.81999 24.56 1.90999 23.96 1.58999C20.09 -0.49001 16.32 0.0899895 15.21 0.279989C13.36 0.589989 12.03 1.19999 11.21 1.57999C10.59 1.86999 8.09002 3.07999 5.66002 5.60999C1.92002 9.52999 0.840017 14.01 0.510017 15.5C-0.359983 19.35 0.0400167 22.43 0.600017 26.63C0.860017 28.59 1.30002 30.56 2.18002 34.51C2.87002 37.61 3.23002 39.2 3.94002 41.39C4.89002 44.32 5.84002 46.39 6.43002 47.67C6.63002 48.1 7.44002 49.83 8.73002 51.94C9.58002 53.33 10.23 54.19 11.22 54.97C11.7 55.35 12.31 55.82 13.25 56.12C14.81 56.61 16.13 56.26 16.4 56.18C17.72 55.8 18.51 55.02 18.7 54.82C19.33 54.17 19.6 53.52 19.97 52.64C20.21 52.07 20.23 51.91 20.73 50.18C21.43 47.77 22.25 46.39 22.91 45.48C23.72 44.38 23.92 43.97 24.52 43.66C24.96 43.43 25.35 43.4 25.46 43.39C25.63 43.38 25.98 43.35 26.37 43.51C26.54 43.58 26.75 43.69 27.25 44.21C27.56 44.53 27.8 44.77 28.1 45.18C28.52 45.76 28.88 46.41 29.25 47.39C29.4 47.77 29.53 48.16 29.98 49.79C30.65 52.22 30.64 52.43 30.98 53.13C31.39 53.95 31.77 54.43 32.31 55.13C32.65 55.57 32.88 55.8 33.22 55.98C33.65 56.2 34.05 56.22 34.58 56.25C34.99 56.27 35.47 56.3 36.07 56.13C36.24 56.08 36.74 55.93 37.4 55.43C38.05 54.95 38.55 54.38 39.13 53.49C39.57 52.82 39.7 52.51 40.62 50.7C41.43 49.1 41.74 48.51 42.11 47.88C42.86 46.57 44.09 44.98 44.69 44.7C44.92 44.59 45.12 44.54 45.27 44.52C45.41 44.5 45.55 44.48 45.69 44.46C64.62 44.41 83.55 44.36 102.48 44.31V43.25C69.83 43.31 45.34 43.16 44.69 43.31L44.68 43.3Z" fill="#5967B2"/>
<path d="M81.62 6.46C82.72 6.38 84.61 6.24 86.69 5.77C87.38 5.61 88.51 5.32 89.7 4.95C89.97 4.87 90.23 4.79 90.49 4.7C90.75 4.51 91.02 4.32 91.28 4.13L90.06 3.48C89.9 3.39 89.7 3.4 89.54 3.48C88 4.34 86.64 4.81 85.65 5.09C84.27 5.47 83.17 5.59 81.65 5.76C79.95 5.94 78.52 6 77.47 6.01C77.45 6.18 77.44 6.36 77.42 6.53C79.08 6.59 80.51 6.53 81.62 6.46Z" fill="#5967B2"/>
<path d="M56.03 16.65C56.95 17.14 57.89 16.97 58.56 16.85C59.19 16.74 59.62 16.55 60.16 16.31C60.58 16.13 61.47 15.7 62.44 14.94C63.26 14.28 63.81 13.67 63.81 13.67C64.23 13.22 64.44 12.9 64.52 12.95C64.64 13.01 64.4 13.85 64.06 14.56C64.02 14.64 63.69 15.32 63.44 16.16C63.41 16.28 63.36 16.44 63.44 16.57C63.61 16.86 64.24 16.82 64.65 16.69C64.78 16.64 64.88 16.59 64.95 16.56C65.6 14.7 66.71 11.4 66.9 11.27C67.04 11.18 68.15 11.39 69.05 11.36C69.84 11.34 70 11.3 70.12 11.27C70.49 11.17 70.76 11 70.94 10.88C70.71 11.36 69.3 14.72 69.29 15.13C69.28 15.3 69.25 16.01 69.7 16.43C70.27 16.98 71.26 16.7 71.7 16.58C72.73 16.3 73.41 15.62 73.83 15.21C74.14 14.89 74.22 14.75 75.11 13.79C75.73 13.13 75.91 12.96 75.99 13.01C76.14 13.1 75.84 13.94 75.58 14.5C75.38 14.92 75.2 15.18 75 15.75C74.86 16.15 74.79 16.35 74.87 16.51C75.1 16.96 76.22 17.04 76.8 16.53C76.93 16.41 77 16.29 77.04 16.21C77.16 15.96 77.29 15.7 77.41 15.45C77.75 14.79 78.04 14.23 78.27 13.81C78.86 12.7 79.17 12.13 79.59 11.46C80.18 10.52 80.13 10.75 80.59 9.97999C80.77 9.69999 81.02 9.26999 81.49 8.80999C81.74 8.56999 81.92 8.44999 82.14 8.37999C82.21 8.35999 82.77 8.19999 83.07 8.47999C83.39 8.76999 83.23 9.39999 83.05 10.06C82.87 10.74 82.67 11.11 82.42 11.68C81.73 13.23 80.89 15.39 80.76 16.28C80.74 16.43 80.73 16.56 80.72 16.64C80.95 16.74 81.78 17.08 82.6 16.71C82.76 16.64 82.89 16.55 83.01 16.45C83.49 15.44 84.11 14.17 84.86 12.7C85.83 10.76 85.86 11.09 86.51 9.91999C86.55 9.84999 87.01 9.02999 87.8 8.51999C87.98 8.40999 88.25 8.24999 88.58 8.29999C88.7 8.31999 88.97 8.35999 89.12 8.59999C89.22 8.75999 89.2 8.93999 89.19 9.00999C89.08 9.32999 88.91 9.79999 88.71 10.37C87.87 12.73 88.05 12.35 87.93 12.59C87.93 12.59 87.46 13.74 87.07 15.34C87.01 15.59 86.91 16.03 87.15 16.4C87.3 16.64 87.55 16.75 87.7 16.81C87.9 16.82 88.17 16.83 88.49 16.79C88.56 16.78 88.89 16.73 89.29 16.58C90.03 16.3 90.62 15.81 90.87 15.6C92.09 14.56 92.97 13.62 93.19 13.39C93.68 12.87 94.13 12.36 94.54 11.86C94.66 11.57 94.54 11.28 94.34 11.19C94.15 11.12 93.95 11.26 93.93 11.27C93.43 11.78 93.05 12.22 92.8 12.53C92.3 13.14 91.93 13.65 91.34 14.21C91.07 14.47 90.83 14.67 90.65 14.8C90.27 15.11 90.12 15.19 90.04 15.23C89.86 15.32 89.36 15.57 89.13 15.38C89 15.27 89.01 15.06 89.04 14.79C89.14 13.7 89.3 13.19 89.3 13.19C89.43 12.75 89.47 12.68 89.91 11.49C90.27 10.51 90.18 10.73 90.3 10.41C90.67 9.45999 90.81 9.28999 90.82 8.84999C90.82 8.63999 90.84 8.14999 90.51 7.80999C90.38 7.66999 90.19 7.56999 89.85 7.48999C88.72 7.23999 87.65 7.76999 87.61 7.78999C87.3 7.94999 86.86 8.23999 86.03 9.34999C85.37 10.23 85.03 10.88 83.97 12.77C83.04 14.44 82.76 14.96 82.71 14.96C82.66 14.93 83.05 14.13 83.71 12.38C83.97 11.69 83.85 11.99 84.16 11.17C84.53 10.19 84.68 9.82999 84.77 9.21999C84.85 8.68999 84.89 8.37999 84.72 8.04999C84.45 7.55999 83.91 7.39999 83.69 7.33999C82.97 7.13999 82.35 7.39999 82.13 7.48999C81.79 7.63999 81.54 7.82999 81.07 8.30999C80.47 8.91999 80.02 9.37999 79.43 10.26C78.95 10.98 79.01 11.04 78.17 12.55C77.62 13.55 77.02 14.53 76.89 14.68C76.92 14.61 77.05 14.38 77.22 14C77.61 13.14 77.69 12.77 78.17 11.49C78.27 11.23 78.39 10.92 78.56 10.51C79.05 9.31999 79.35 8.80999 79.36 7.99999C79.36 7.78999 79.34 7.60999 79.32 7.49999C78.17 7.49999 77 7.52999 75.85 7.53999C75.69 7.70999 75.65 7.92999 75.74 8.07999C75.79 8.16999 75.87 8.20999 75.92 8.22999C76.38 8.20999 76.84 8.19999 77.3 8.18999C77.32 8.86999 77.21 9.41999 77.11 9.76999C76.87 10.64 76.46 11.22 76.17 11.64C75.81 12.14 75.46 12.5 75.22 12.74C74.83 13.13 74.69 13.21 74.17 13.73C73.69 14.21 73.74 14.21 73.37 14.56C72.67 15.25 72.14 15.75 71.66 15.62C71.65 15.62 71.38 15.55 71.25 15.31C71.2 15.22 71.16 15.07 71.23 14.64C71.32 14.18 73.07 9.79999 73.48 8.54999C73.62 8.11999 73.73 7.74999 73.79 7.50999C73.19 7.51999 72.58 7.51999 71.96 7.52999C71.95 7.96999 71.86 9.54999 70.73 10.35C70.61 10.44 70.47 10.52 70.3 10.59C69.31 10.6 68.49 10.59 67.93 10.59C67.79 10.59 67.52 10.59 67.35 10.4C67.31 10.35 67.2 10.21 67.22 9.82999C67.26 9.33999 67.47 9.05999 67.73 8.55999C67.85 8.32999 68.01 7.96999 68.17 7.51999C66.96 7.52999 65.74 7.52999 64.53 7.53999C64.49 7.57999 64.33 7.78999 64.37 8.05999C64.38 8.14999 64.41 8.22999 64.44 8.27999C64.93 8.27999 65.42 8.26999 65.91 8.25999C65.8 9.83999 65.27 10.84 64.91 11.36C64.7 11.67 64.38 12 63.75 12.67C63.01 13.45 62.57 13.91 61.84 14.41C61.73 14.48 61.25 14.81 60.56 15.13C60.19 15.31 59.84 15.47 59.39 15.6C58.63 15.81 57.77 16.05 57.13 15.6C56.73 15.32 56.58 14.88 56.47 14.56C56.41 14.36 56.25 13.81 56.4 13.14C56.45 12.93 56.51 12.76 56.57 12.64C57.18 12.83 58.56 13.14 60 12.55C61.63 11.87 63.16 10.11 62.82 8.75999C62.77 8.54999 62.57 7.96999 62.04 7.63999C61.5 7.30999 60.87 7.39999 60.35 7.46999C60.14 7.49999 59.75 7.57999 59.25 7.78999C58.47 8.11999 58.01 8.55999 57.32 9.19999C56.93 9.57999 56.39 10.14 55.85 10.92C55.7 11.13 55.54 11.36 55.39 11.64C55.1 12.17 54.1 13.98 54.88 15.49C55.26 16.22 55.9 16.56 56.07 16.66L56.03 16.65ZM58.49 9.37999C59.35 8.41999 59.83 8.24999 60.15 8.18999C60.35 8.14999 60.84 8.06999 61.11 8.33999C61.55 8.76999 61.13 9.76999 60.99 10.12C60.87 10.41 60.57 11.11 59.8 11.6C59.61 11.72 59.05 12.07 58.32 12.04C58.08 12.04 57.74 12.01 57.46 11.77C57.27 11.61 57.18 11.42 57.14 11.3C57.62 10.43 58.12 9.78999 58.5 9.36999L58.49 9.37999Z" fill="#5967B2"/>
</g>
<defs>
<clipPath id="clip0_154_45">
<rect width="106.36" height="56.39" fill="white"/>
</clipPath>
</defs>
</svg>
