<?xml version="1.0" encoding="UTF-8"?>
<svg xmlns="http://www.w3.org/2000/svg" viewBox="0 0 106.36 56.39">
  <defs>
    <style>
      .cls-1 {
        stroke-width: 0px;
      }

      .cls-2 {
        font-size: 26px;
      }

      .cls-2, .cls-3 {
        font-family: Magistral-Light, Magistral;
        font-weight: 300;
      }

      .cls-3 {
        font-size: 6px;
      }
    </style>
  </defs>
  <g id="_клиника" data-name="клиника">
    <text class="cls-3" transform="translate(79.69 54.68)"><tspan x="0" y="0">клиника</tspan></text>
  </g>
  <g id="_стоматологическая" data-name="стоматологическая">
    <text class="cls-3" transform="translate(45.88 49.45)"><tspan x="0" y="0">стоматологическая </tspan></text>
  </g>
  <g id="_Сервис" data-name="Сервис">
    <text class="cls-2" transform="translate(17.98 35.81)"><tspan x="0" y="0">Сервис</tspan></text>
  </g>
  <g id="_Слой_6" data-name="Слой 6">
    <g>
      <path class="cls-1" d="m40.27,13.34l3.42-9.22c.09-.25-.1-.51-.37-.5-.35.02-.7.03-1.04.05-.15,0-.28.11-.33.24-1.85,4.87-3.1,8.49-3.43,9.6-.37,1.24-.55,2.4-.55,2.4-.05.34-.08.62-.1.81.93.01,1.85.03,2.78.04.25-.47.21-.68.13-.78-.12-.16-.37-.07-.61-.29-.16-.15-.22-.34-.25-.46-.06-.23-.05-.43,0-.68.05-.29.15-.7.35-1.19Z"/>
      <path class="cls-1" d="m44.68,43.3c-.24.06-.9.24-1.79.94-.99.78-1.54,1.63-2.12,2.55-.2.32-.52.91-1.15,2.09-.59,1.1-.87,1.67-1,1.94-.11.23-.1.21-.64,1.36-.64,1.37-.8,1.71-1.15,2.15-.47.59-.79.78-1.06.88-.27.1-.52.12-.82.15-.42.04-1.37-.31-1.61-.58-.35-.38-.54-.75-.61-.88-.37-.73-.49-1.31-.67-1.94-.03-.1-.22-.7-.61-1.88-.31-.95-.84-2.52-1.82-4.21-.37-.64-1.05-1.73-2.21-2.64-.57-.44-1.07-.7-1.67-.73-.23-.01-.62,0-1.24.27-1.13.49-1.84,1.3-2.21,1.76-.89,1.09-1.72,2.1-2.43,3.82-.82,2-.51,2.61-1.55,4.67-.64,1.27-1.11,1.74-1.67,2.03-1.1.57-2.15.33-2.52.24-.95-.23-1.58-.78-1.97-1.15-2.47-2.35-3.55-5-3.55-5-1.95-4.8-2.93-7.2-3.88-11.01-.98-3.89-1.78-7.1-2.09-11.61-.22-3.17-.4-6.16.39-10.04.97-4.72,2.76-7.65,3.34-8.55,1.74-2.7,3.36-3.94,3.91-4.34,1.68-1.21,3.2-1.71,3.64-1.85,1.87-.58,3.4-.56,4.21-.55.97.02,2.08.04,3.4.49,2.51.84,4.15,2.64,4.58,3.12.85.96,1.9,1.75,2.64,2.79.14.19.54.8,1.09.79.31,0,.54-.16.64-.24,1.34-1.2,2.51-2.31,3.52-3.3.99-.98,1.15-1.19,1.67-1.58,1.85-1.4,3.67-1.82,4.52-2,.94-.2,2.54-.53,4.55-.12.36.07,1.64.36,3.12,1.21,1.47.85,3.59,2.07,4.27,4.52.7,2.49-.55,4.67-.88,5.25-1.17,2.04-2.92,2.9-3.52,3.18-1.04.49-2.37,1.12-3.76.58-.3-.12-1.46-.63-1.82-1.73-.49-1.52.92-3,.36-3.49-.21-.19-.69-.2-.91,0-.13.12-.14.28-.15.36-.19,1.77-.33,1.54-.27,2.49.05.88.08,1.32.24,1.67.49,1.05,1.55,1.48,1.88,1.61.32.13,1.15.41,2.73.15,2.36-.38,4.03-1.58,4.61-2.03,1.17-.91,2.78-2.16,3.37-4.43.7-2.72-.55-4.98-.85-5.52-1.39-2.5-3.69-3.47-5.03-4.03C45.48-.17,43.16-.03,42.01.05c-.9.06-2.88.22-5.06,1.32-.88.44-2.22,1.11-3.46,2.46-.91.99-2.07,1.74-2.91,2.79-.09.11-.36.46-.73.45-.3,0-.54-.24-.67-.39-.34-.59-.84-1.35-1.55-2.15-1.5-1.71-3.07-2.62-3.67-2.94C20.09-.49,16.32.09,15.21.28c-1.85.31-3.18.92-4,1.3-.62.29-3.12,1.5-5.55,4.03C1.92,9.53.84,14.01.51,15.5c-.87,3.85-.47,6.93.09,11.13.26,1.96.7,3.93,1.58,7.88.69,3.1,1.05,4.69,1.76,6.88.95,2.93,1.9,5,2.49,6.28.2.43,1.01,2.16,2.3,4.27.85,1.39,1.5,2.25,2.49,3.03.48.38,1.09.85,2.03,1.15,1.56.49,2.88.14,3.15.06,1.32-.38,2.11-1.16,2.3-1.36.63-.65.9-1.3,1.27-2.18.24-.57.26-.73.76-2.46.7-2.41,1.52-3.79,2.18-4.7.81-1.1,1.01-1.51,1.61-1.82.44-.23.83-.26.94-.27.17-.01.52-.04.91.12.17.07.38.18.88.7.31.32.55.56.85.97.42.58.78,1.23,1.15,2.21.15.38.28.77.73,2.4.67,2.43.66,2.64,1,3.34.41.82.79,1.3,1.33,2,.34.44.57.67.91.85.43.22.83.24,1.36.27.41.02.89.05,1.49-.12.17-.05.67-.2,1.33-.7.65-.48,1.15-1.05,1.73-1.94.44-.67.57-.98,1.49-2.79.81-1.6,1.12-2.19,1.49-2.82.75-1.31,1.98-2.9,2.58-3.18.23-.11.43-.16.58-.18.14-.02.28-.04.42-.06,18.93-.05,37.86-.1,56.79-.15v-1.06c-32.65.06-57.14-.09-57.79.06Z"/>
      <path class="cls-1" d="m81.62,6.46c1.1-.08,2.99-.22,5.07-.69.69-.16,1.82-.45,3.01-.82.27-.08.53-.16.79-.25.26-.19.53-.38.79-.57l-1.22-.65c-.16-.09-.36-.08-.52,0-1.54.86-2.9,1.33-3.89,1.61-1.38.38-2.48.5-4,.67-1.7.18-3.13.24-4.18.25-.02.17-.03.35-.05.52,1.66.06,3.09,0,4.2-.07Z"/>
      <path class="cls-1" d="m56.03,16.65c.92.49,1.86.32,2.53.2.63-.11,1.06-.3,1.6-.54.42-.18,1.31-.61,2.28-1.37.82-.66,1.37-1.27,1.37-1.27.42-.45.63-.77.71-.72.12.06-.12.9-.46,1.61-.04.08-.37.76-.62,1.6-.03.12-.08.28,0,.41.17.29.8.25,1.21.12.13-.05.23-.1.3-.13.65-1.86,1.76-5.16,1.95-5.29.14-.09,1.25.12,2.15.09.79-.02.95-.06,1.07-.09.37-.1.64-.27.82-.39-.23.48-1.64,3.84-1.65,4.25-.01.17-.04.88.41,1.3.57.55,1.56.27,2,.15,1.03-.28,1.71-.96,2.13-1.37.31-.32.39-.46,1.28-1.42.62-.66.8-.83.88-.78.15.09-.15.93-.41,1.49-.2.42-.38.68-.58,1.25-.14.4-.21.6-.13.76.23.45,1.35.53,1.93.02.13-.12.2-.24.24-.32.12-.25.25-.51.37-.76.34-.66.63-1.22.86-1.64.59-1.11.9-1.68,1.32-2.35.59-.94.54-.71,1-1.48.18-.28.43-.71.9-1.17.25-.24.43-.36.65-.43.07-.02.63-.18.93.1.32.29.16.92-.02,1.58-.18.68-.38,1.05-.63,1.62-.69,1.55-1.53,3.71-1.66,4.6-.02.15-.03.28-.04.36.23.1,1.06.44,1.88.07.16-.07.29-.16.41-.26.48-1.01,1.1-2.28,1.85-3.75.97-1.94,1-1.61,1.65-2.78.04-.07.5-.89,1.29-1.4.18-.11.45-.27.78-.22.12.02.39.06.54.3.1.16.08.34.07.41-.11.32-.28.79-.48,1.36-.84,2.36-.66,1.98-.78,2.22,0,0-.47,1.15-.86,2.75-.06.25-.16.69.08,1.06.15.24.4.35.55.41.2.01.47.02.79-.02.07-.01.4-.06.8-.21.74-.28,1.33-.77,1.58-.98,1.22-1.04,2.1-1.98,2.32-2.21.49-.52.94-1.03,1.35-1.53.12-.29,0-.58-.2-.67-.19-.07-.39.07-.41.08-.5.51-.88.95-1.13,1.26-.5.61-.87,1.12-1.46,1.68-.27.26-.51.46-.69.59-.38.31-.53.39-.61.43-.18.09-.68.34-.91.15-.13-.11-.12-.32-.09-.59.1-1.09.26-1.6.26-1.6.13-.44.17-.51.61-1.7.36-.98.27-.76.39-1.08.37-.95.51-1.12.52-1.56,0-.21.02-.7-.31-1.04-.13-.14-.32-.24-.66-.32-1.13-.25-2.2.28-2.24.3-.31.16-.75.45-1.58,1.56-.66.88-1,1.53-2.06,3.42-.93,1.67-1.21,2.19-1.26,2.19-.05-.03.34-.83,1-2.58.26-.69.14-.39.45-1.21.37-.98.52-1.34.61-1.95.08-.53.12-.84-.05-1.17-.27-.49-.81-.65-1.03-.71-.72-.2-1.34.06-1.56.15-.34.15-.59.34-1.06.82-.6.61-1.05,1.07-1.64,1.95-.48.72-.42.78-1.26,2.29-.55,1-1.15,1.98-1.28,2.13.03-.07.16-.3.33-.68.39-.86.47-1.23.95-2.51.1-.26.22-.57.39-.98.49-1.19.79-1.7.8-2.51,0-.21-.02-.39-.04-.5-1.15,0-2.32.03-3.47.04-.16.17-.2.39-.11.54.05.09.13.13.18.15.46-.02.92-.03,1.38-.04.02.68-.09,1.23-.19,1.58-.24.87-.65,1.45-.94,1.87-.36.5-.71.86-.95,1.1-.39.39-.53.47-1.05.99-.48.48-.43.48-.8.83-.7.69-1.23,1.19-1.71,1.06-.01,0-.28-.07-.41-.31-.05-.09-.09-.24-.02-.67.09-.46,1.84-4.84,2.25-6.09.14-.43.25-.8.31-1.04-.6.01-1.21.01-1.83.02-.01.44-.1,2.02-1.23,2.82-.12.09-.26.17-.43.24-.99.01-1.81,0-2.37,0-.14,0-.41,0-.58-.19-.04-.05-.15-.19-.13-.57.04-.49.25-.77.51-1.27.12-.23.28-.59.44-1.04-1.21.01-2.43.01-3.64.02-.04.04-.2.25-.16.52.01.09.04.17.07.22.49,0,.98-.01,1.47-.02-.11,1.58-.64,2.58-1,3.1-.21.31-.53.64-1.16,1.31-.74.78-1.18,1.24-1.91,1.74-.11.07-.59.4-1.28.72-.37.18-.72.34-1.17.47-.76.21-1.62.45-2.26,0-.4-.28-.55-.72-.66-1.04-.06-.2-.22-.75-.07-1.42.05-.21.11-.38.17-.5.61.19,1.99.5,3.43-.09,1.63-.68,3.16-2.44,2.82-3.79-.05-.21-.25-.79-.78-1.12-.54-.33-1.17-.24-1.69-.17-.21.03-.6.11-1.1.32-.78.33-1.24.77-1.93,1.41-.39.38-.93.94-1.47,1.72-.15.21-.31.44-.46.72-.29.53-1.29,2.34-.51,3.85.38.73,1.02,1.07,1.19,1.17Zm2.46-7.27c.86-.96,1.34-1.13,1.66-1.19.2-.04.69-.12.96.15.44.43.02,1.43-.12,1.78-.12.29-.42.99-1.19,1.48-.19.12-.75.47-1.48.44-.24,0-.58-.03-.86-.27-.19-.16-.28-.35-.32-.47.48-.87.98-1.51,1.36-1.93Z"/>
    </g>
  </g>
</svg>