<svg width="116" height="116" viewBox="0 0 116 116" fill="none" xmlns="http://www.w3.org/2000/svg">
<path d="M99.3901 0L93.0498 5.4379H99.3901V0Z" fill="#005A94"/>
<path d="M42.5688 25.3768H72.5191L99.3898 0H70.5099C69.4745 0 68.4794 0.401502 67.7339 1.12007L42.5688 25.3768Z" fill="#106CA6"/>
<path d="M16.0605 0L22.4008 5.4379H16.0605V0Z" fill="#0A649E"/>
<path d="M78.0744 38.91H35.564V22.3001C35.564 21.1955 36.4594 20.3001 37.564 20.3001H76.0742C77.1787 20.3001 78.0741 21.1955 78.0742 22.3001L78.0744 38.91ZM40.3947 34.0763H73.2434V25.134H40.3947V34.0763Z" fill="#F8B64C"/>
<path d="M72.5192 25.3768H42.5689L16 0H44.9814C45.7579 0 46.5042 0.301123 47.0633 0.840045L72.5192 25.3768Z" fill="url(#paint0_linear)"/>
<path d="M58 112C34.804 112 16 93.196 16 70C16 46.804 34.804 28 58 28C81.196 28 100 46.804 100 70C100 93.196 81.196 112 58 112Z" fill="url(#paint1_linear)"/>
<path d="M36 105.559C42.1803 109.61 49.7807 112 58 112C66.2193 112 73.8195 109.61 80 105.559V42.656C73.8195 38.6056 66.2193 36.2152 58 36.2152C49.7807 36.2152 42.1805 38.6056 36 42.656V105.559Z" fill="url(#paint2_linear)"/>
<path d="M58 33C78.4345 33 95 49.5655 95 70C95 90.4345 78.4345 107 58 107C37.5655 107 21 90.4345 21 70C21 49.5655 37.5655 33 58 33Z" fill="url(#paint3_linear)"/>
<mask id="mask0" mask-type="alpha" maskUnits="userSpaceOnUse" x="21" y="33" width="74" height="74">
<path d="M58 33C78.4345 33 95 49.5655 95 70C95 90.4345 78.4345 107 58 107C37.5655 107 21 90.4345 21 70C21 49.5655 37.5655 33 58 33Z" fill="url(#paint4_linear)"/>
</mask>
<g mask="url(#mask0)">
<path d="M56.7298 92.7415H62.4408V91.1735H59.5345V91.1311L60.232 90.566C61.9286 89.1923 62.3609 88.4789 62.3609 87.6419C62.3609 86.2929 61.2238 85.41 59.44 85.41C57.7071 85.41 56.5808 86.3459 56.5845 87.868H58.5027C58.4991 87.2605 58.8805 86.9215 59.44 86.9215C59.9958 86.9215 60.3918 87.257 60.3918 87.8115C60.3918 88.3235 60.054 88.6555 59.5054 89.0969L56.7298 91.3288V92.7415Z" fill="url(#paint5_linear)"/>
<path d="M66.5842 92.9392C68.6078 92.9427 69.8648 91.5337 69.8684 89.1393C69.8721 86.7591 68.6078 85.41 66.5842 85.41C64.557 85.41 63.3073 86.752 63.3 89.1393C63.2928 91.5231 64.557 92.9357 66.5842 92.9392ZM66.5842 91.343C65.8867 91.343 65.3853 90.6614 65.3926 89.1393C65.3999 87.6525 65.8867 86.9922 66.5842 86.9922C67.2818 86.9922 67.7722 87.6525 67.7758 89.1393C67.7795 90.6614 67.2818 91.343 66.5842 91.343Z" fill="url(#paint6_linear)"/>
<path d="M70.8166 92.7415H76.5277V91.1735H73.6213V91.1311L74.3188 90.566C76.0154 89.1923 76.4477 88.4789 76.4477 87.6419C76.4477 86.2929 75.3106 85.41 73.5268 85.41C71.7939 85.41 70.6677 86.3459 70.6713 87.868H72.5895C72.5859 87.2605 72.9673 86.9215 73.5268 86.9215C74.0827 86.9215 74.4787 87.257 74.4787 87.8115C74.4787 88.3235 74.1408 88.6555 73.5922 89.0969L70.8166 91.3288V92.7415Z" fill="url(#paint7_linear)"/>
<path d="M80.671 92.9392C82.6946 92.9427 83.9516 91.5337 83.9553 89.1393C83.9589 86.7591 82.6946 85.41 80.671 85.41C78.6439 85.41 77.3941 86.752 77.3868 89.1393C77.3796 91.5231 78.6439 92.9357 80.671 92.9392ZM80.671 91.343C79.9735 91.343 79.4722 90.6614 79.4794 89.1393C79.4867 87.6525 79.9735 86.9922 80.671 86.9922C81.3686 86.9922 81.859 87.6525 81.8627 89.1393C81.8663 90.6614 81.3686 91.343 80.671 91.343Z" fill="url(#paint8_linear)"/>
<path d="M89.4652 57.5643C89.8004 56.95 90.0961 56.2278 89.7489 55.5297C89.3516 54.7322 88.4418 54.5931 87.5615 54.4594C85.4477 54.1373 83.449 53.5682 81.2714 52.6686C80.7357 52.4472 80.1212 52.7008 79.8993 53.2352C79.6773 53.7694 79.9315 54.3824 80.4676 54.6035C82.8054 55.5695 84.9589 56.1816 87.2445 56.53C87.326 56.5423 87.4641 56.5634 87.6068 56.5882C86.7726 58.1115 85.7023 59.0461 84.3353 59.4448C82.1294 60.088 79.0526 59.335 75.1902 57.2063C74.6826 56.9266 74.0435 57.1102 73.763 57.6165C73.4857 58.1169 73.6624 58.7451 74.1568 59.0297C74.1626 59.0331 74.1684 59.0364 74.1743 59.0397C76.3377 60.2319 78.2824 61.0292 80.0329 61.4393C79.3465 62.6839 78.4751 63.4887 77.3891 63.8812C76.657 64.1459 75.8088 64.2258 74.8498 64.1233C74.8407 64.1225 74.8316 64.1211 74.8226 64.1206C73.1602 63.9374 71.1648 63.2074 68.8554 61.9335C68.3478 61.6535 67.7089 61.8369 67.4281 62.3431C67.1505 62.8435 67.3271 63.472 67.8217 63.7567C67.8274 63.7599 67.8331 63.7632 67.8388 63.7664C69.8013 64.849 71.5707 65.5769 73.1663 65.9562C72.5986 66.7883 71.8271 67.4069 70.8597 67.8002C68.7432 68.6608 66.0487 68.2906 64.2182 67.5244C64.2323 67.0246 64.2162 66.5159 64.1685 66.002C63.9568 63.6823 62.9788 61.2402 61.5513 59.4681C59.9893 57.535 58.2306 56.7245 56.7249 57.2442C55.3238 57.7312 54.4207 59.3781 53.9954 60.9478C53.3039 60.3883 52.6103 59.8037 51.9184 59.1988L56.0052 52.1404C59.1173 53.2709 62.4445 53.1428 65.4717 51.7562L65.5387 51.7256C69.6759 49.8683 72.5062 50.9074 76.0529 52.5783C76.5773 52.8254 77.2032 52.6016 77.451 52.0787C77.6987 51.5557 77.4763 50.9314 76.95 50.6845C73.1567 48.8974 69.6149 47.5986 64.6766 49.8157L64.5948 49.8528C62.1933 50.9529 59.5627 51.0991 57.075 50.2923L58.4982 47.8343C60.4773 47.7103 62.3615 46.6335 63.4256 44.7955C65.112 41.8824 64.1075 38.1443 61.1864 36.4625C58.2634 34.7797 54.5131 35.7805 52.8265 38.6934C51.7627 40.5307 51.7697 42.6955 52.6516 44.4669L51.2277 46.9261C49.2916 45.1867 48.1036 42.8448 47.8506 40.2204L47.8411 40.1242C47.248 34.2558 43.9206 31.9853 40.0678 29.3562C37.6403 27.6997 34.8889 25.822 32.369 22.6843C31.812 21.9906 31.236 21.2731 30.3429 21.3292C29.5618 21.3784 29.0827 21.9944 28.7178 22.5891C27.5098 24.5524 27.1363 26.5265 27.6081 28.4567C27.8143 29.3002 28.1777 30.1269 28.6993 30.9412C27.3776 32.8143 26.8725 34.6971 27.2027 36.5472C27.3561 37.4066 27.6829 38.2469 28.1867 39.0727C27.1888 40.5859 26.7969 42.3107 27.0507 44.105C27.4439 46.8854 29.2642 49.2544 30.9509 50.673C29.6034 51.8935 28.6516 53.363 28.2535 54.9132C27.6196 57.3815 28.2881 59.964 30.2401 62.5882L33.782 67.3546C31.8803 67.2872 30.1695 67.4214 28.6776 67.7589C28.112 67.8868 27.7573 68.4478 27.8857 69.0118C27.9532 69.3083 28.1404 69.5464 28.3851 69.6873C28.606 69.8145 28.8738 69.8622 29.1423 69.8015C30.8832 69.4077 32.9942 69.3275 35.422 69.5616L37.4181 72.2477L34.8812 71.9582C30.9715 71.5098 28.6664 72.1023 27.8344 73.7698C27.022 75.3977 27.8937 77.6181 30.3551 80.1908L31.8866 81.7927C31.8899 81.7962 31.8935 81.7999 31.8968 81.8034L39.4472 89.7009C41.8988 92.2627 42.6782 95.0675 41.5856 97.3961C40.7345 99.2096 38.8804 100.343 36.9715 100.217C35.0676 100.09 34.1163 99.5287 33.9158 99.2861C33.9964 99.1663 34.2938 98.8284 35.2644 98.3913C37.3817 97.4423 38.5487 96.2837 38.832 94.8494C39.1016 93.4845 38.5115 92.0289 37.0782 90.5232L27.9199 80.8939C27.7341 80.6984 27.3339 80.2475 27.3055 80.2186C24.4588 76.9472 23.6979 73.8688 25.2862 71.8812C25.6477 71.4287 25.573 70.7699 25.1194 70.4095C24.6629 70.0485 24.0049 70.1237 23.6435 70.5759C21.7653 72.9263 21.9764 76.115 24.1171 79.4654C20.783 79.21 17.9644 80.3365 16.3409 82.6547C14.6995 84.9986 14.6328 88.1169 16.1752 90.4139C16.8864 91.4731 17.8238 92.5034 18.8108 93.0716C19.5368 93.4894 20.2898 93.6577 20.9995 93.4036C21.8056 93.115 22.7114 92.2211 22.449 89.5986C22.2906 88.0428 22.4874 87.0126 23.0335 86.5369C23.6671 85.9849 24.8871 86.1296 25.7994 86.3483L28.0859 86.8951L24.1025 93.7751C23.1712 95.3835 23.7259 97.4475 25.3389 98.3762C26.9499 99.3037 29.0182 98.7497 29.9495 97.1413L33.9335 90.2602L35.5546 91.9647C36.1994 92.642 36.9339 93.622 36.7712 94.4445C36.6311 95.1543 35.8344 95.8395 34.4018 96.4818C31.9948 97.5657 31.6712 98.795 31.8236 99.6354C31.9578 100.375 32.4801 100.941 33.2062 101.359C34.1933 101.928 35.5568 102.222 36.8322 102.307C39.5982 102.49 42.273 100.874 43.4881 98.284C44.6926 95.7169 44.2568 92.7113 42.3566 89.9546C45.747 90.0718 48.3632 88.9939 49.7238 86.8509C51.467 84.1054 50.8911 80.0849 48.1814 75.5878L53.9692 76.2496C57.2231 76.6224 59.7988 75.9081 61.6251 74.1268C62.7736 73.0063 63.5744 71.4473 63.9602 69.6714C66.0572 70.4153 69.0488 70.7983 71.6524 69.7398C73.3178 69.0626 74.6059 67.869 75.415 66.2639C76.3859 66.2864 77.2805 66.1482 78.1048 65.8503C79.8762 65.2098 81.2577 63.8322 82.2219 61.7549C83.1898 61.7983 84.0894 61.6986 84.9248 61.455C86.8371 60.8973 88.3649 59.5879 89.4652 57.5643V57.5643ZM26.2899 84.3121C24.2633 83.8263 22.7028 84.0441 21.6517 84.9598C20.5478 85.9214 20.1251 87.5082 20.3594 89.8086C20.4651 90.867 20.3203 91.2928 20.2568 91.4225C19.946 91.3707 18.9824 90.8299 17.9208 89.2489C16.8565 87.6638 16.9138 85.4958 18.0633 83.8542C19.5394 81.7463 22.365 81.0169 25.8206 81.8542L25.9879 81.8939C26.1207 82.041 28.8608 84.9268 28.8608 84.9268L26.2899 84.3121ZM28.1304 96.0943C27.7783 96.7026 26.9971 96.9126 26.3891 96.5626C25.7791 96.2114 25.5693 95.4309 25.9215 94.8226L30.2163 87.4049L31.5123 87.7149L32.4258 88.6756L28.1304 96.0943ZM53.7381 63.4205C53.8323 64.3354 54.1908 65.4958 55.2033 66.6427C56.2337 67.8099 56.3399 68.4367 56.252 68.6052C56.0435 69.0047 54.5408 69.4332 51.8525 69.1355L46.507 68.5442L50.8465 61.0493C51.8113 61.8835 52.7793 62.6762 53.7381 63.4205V63.4205ZM60.1361 38.2764C62.0542 39.3807 62.7138 41.8354 61.6063 43.7482C60.4978 45.6628 58.0354 46.3221 56.1172 45.2178C54.1971 44.1124 53.537 41.6553 54.6455 39.7407C55.753 37.8279 58.2161 37.171 60.1361 38.2764V38.2764ZM55.067 47.0315C55.4451 47.2492 55.8372 47.421 56.2368 47.5504L54.6431 50.3031L54.6411 50.3066L49.673 58.8872L49.6695 58.8932L44.2276 68.2922L42.8431 68.1391L42.0185 67.0209L47.4614 57.6201C47.4624 57.6183 47.4635 57.6165 47.4645 57.6146L52.4322 49.0348C52.4329 49.0336 52.4335 49.0326 52.4342 49.0313L54.0283 46.2781C54.3414 46.5595 54.6877 46.8132 55.067 47.0315V47.0315ZM41.4945 56.3714C42.633 56.8325 43.8053 57.2728 44.9991 57.6839L40.6598 65.1784L37.4739 60.8578C35.8729 58.6856 35.4946 57.1737 35.7374 56.794C35.8397 56.6341 36.4366 56.4123 37.9623 56.7173C39.463 57.0194 40.6502 56.7489 41.4945 56.3714V56.3714ZM29.1307 43.8126C28.9827 42.7663 29.1341 41.7785 29.5785 40.8618C30.7056 42.0504 32.2226 43.2145 34.1441 44.3681C34.1497 44.3715 34.1554 44.3748 34.1611 44.3781C34.6557 44.6628 35.2899 44.5009 35.5856 44.0112C35.8847 43.5155 35.7245 42.872 35.2276 42.5737C31.6487 40.4252 29.6445 38.2743 29.2709 36.1807C29.0686 35.0462 29.3314 33.8907 30.0687 32.6746C31.3 33.981 32.9648 35.2614 35.0814 36.5334C35.0871 36.5369 35.093 36.5402 35.0988 36.5436C35.5932 36.8282 36.2272 36.6665 36.523 36.177C36.8224 35.6815 36.6623 35.0379 36.1657 34.7394C32.3857 32.4683 30.1933 30.1879 29.6491 27.9612C29.3118 26.5813 29.5884 25.1896 30.495 23.7066C30.589 23.8183 30.6776 23.9288 30.7297 23.9936C33.4446 27.3746 36.3331 29.3456 38.8815 31.0846C42.5822 33.6099 45.2559 35.4344 45.7517 40.3395L45.7598 40.4209C46.0785 43.7267 47.6304 46.6591 50.1577 48.7742L46.0705 55.8334C45.2061 55.5412 44.3521 55.2344 43.5136 54.9141C44.6635 53.7628 45.643 52.1591 45.3652 50.7053C45.0678 49.1448 43.485 48.0314 41.0229 47.6504C38.7702 47.3023 36.1587 47.678 34.0373 48.6555C33.5666 48.8715 33.1161 49.1125 32.6886 49.3749C31.1169 48.2021 29.4512 46.0793 29.1307 43.8126V43.8126ZM39.9582 75.6661L36.1732 82.2032L34.8826 81.8913L33.9645 80.9312L37.7494 74.3941L39.1298 74.5516L39.9582 75.6661ZM41.8205 78.1725C43.7421 80.7562 44.055 82.2358 43.7072 82.7589C43.3458 83.3024 41.7861 83.5613 39.1159 82.9145L38.3009 82.7175L41.3214 77.5006L41.8205 78.1725ZM29.7148 74.7033C29.9953 74.1413 31.4367 73.6718 34.6418 74.0395L35.4744 74.1344L32.454 79.3511L31.8751 78.7457C29.9785 76.7633 29.4236 75.287 29.7148 74.7033V74.7033ZM47.949 85.7308C46.7685 87.5898 44.0218 88.28 40.3838 87.6423L37.5646 84.6946L38.6207 84.9499C42.086 85.7892 44.4502 85.4317 45.4579 83.9163C46.4899 82.3639 45.8521 80.0769 43.508 76.9253L31.9275 61.341C30.3707 59.248 29.8191 57.2602 30.2883 55.433C30.79 53.4796 32.5204 51.6569 34.917 50.5574C34.9176 50.5572 34.9181 50.5569 34.9187 50.5568C36.6794 49.7454 38.8411 49.4326 40.7013 49.7201C42.1201 49.9397 43.1895 50.5055 43.302 51.0967C43.447 51.8558 42.2294 53.5243 40.9793 54.2821C40.4641 54.5916 39.5946 54.909 38.3768 54.6639C36.1598 54.2202 34.6758 54.5582 33.9664 55.668C32.844 57.4239 34.334 60.1339 35.7817 62.0981L44.9542 74.5375C48.3535 79.1459 49.4731 83.3302 47.949 85.7308V85.7308ZM60.1563 72.6296C58.8044 73.9483 56.8035 74.4661 54.2087 74.1689L46.6521 73.305C46.6502 73.3023 46.6482 73.2995 46.6462 73.2968L44.5349 70.4334L51.6207 71.2171C54.0513 71.4863 57.1511 71.4195 58.1152 69.5718C58.7246 68.4038 58.2752 66.9528 56.7797 65.2586C55.9584 64.3284 55.7993 63.4195 55.8103 62.8252C55.8437 61.3622 56.6838 59.4764 57.4135 59.2229C57.994 59.0226 58.9994 59.6492 59.9143 60.7811C61.0922 62.2433 61.9004 64.2662 62.0764 66.1936C62.3197 68.8134 61.602 71.2193 60.1563 72.6296Z" fill="#EE9F25"/>
</g>
<defs>
<linearGradient id="paint0_linear" x1="44.2596" y1="0" x2="44.2596" y2="25.3768" gradientUnits="userSpaceOnUse">
<stop stop-color="#117DC1"/>
<stop offset="1" stop-color="#1599EC"/>
</linearGradient>
<linearGradient id="paint1_linear" x1="16" y1="70" x2="99.9997" y2="70" gradientUnits="userSpaceOnUse">
<stop stop-color="#FFDA45"/>
<stop offset="1" stop-color="#FFA425"/>
</linearGradient>
<linearGradient id="paint2_linear" x1="56.8461" y1="85.6947" x2="56.6807" y2="128.713" gradientUnits="userSpaceOnUse">
<stop stop-color="#FFDA45"/>
<stop offset="0.779184" stop-color="#DF7E3B"/>
</linearGradient>
<linearGradient id="paint3_linear" x1="114.638" y1="101.425" x2="1.44498" y2="34.0031" gradientUnits="userSpaceOnUse">
<stop offset="0.0416667" stop-color="#FFDA45"/>
<stop offset="0.520833" stop-color="#FFCE51"/>
<stop offset="0.890625" stop-color="#FFA425"/>
</linearGradient>
<linearGradient id="paint4_linear" x1="106.574" y1="87.0096" x2="2.29785" y2="44.2359" gradientUnits="userSpaceOnUse">
<stop offset="0.255208" stop-color="#FFDA45"/>
<stop offset="1" stop-color="#FFA425"/>
</linearGradient>
<linearGradient id="paint5_linear" x1="64.5" y1="80.8499" x2="83.9659" y2="93.8641" gradientUnits="userSpaceOnUse">
<stop stop-color="#C08325"/>
<stop offset="1" stop-color="#E89B25"/>
</linearGradient>
<linearGradient id="paint6_linear" x1="64.5" y1="80.8499" x2="83.9659" y2="93.8641" gradientUnits="userSpaceOnUse">
<stop stop-color="#C08325"/>
<stop offset="1" stop-color="#E89B25"/>
</linearGradient>
<linearGradient id="paint7_linear" x1="64.5" y1="80.8499" x2="83.9659" y2="93.8641" gradientUnits="userSpaceOnUse">
<stop stop-color="#C08325"/>
<stop offset="1" stop-color="#E89B25"/>
</linearGradient>
<linearGradient id="paint8_linear" x1="64.5" y1="80.8499" x2="83.9659" y2="93.8641" gradientUnits="userSpaceOnUse">
<stop stop-color="#C08325"/>
<stop offset="1" stop-color="#E89B25"/>
</linearGradient>
</defs>
</svg>
