<svg width="172" height="154" viewBox="0 0 172 154" fill="none" xmlns="http://www.w3.org/2000/svg">
<g clip-path="url(#clip0_127_186)">
<g clip-path="url(#clip1_127_186)">
<path d="M46.68 148.658C45.87 148.658 45.11 148.317 44.43 147.647C40.81 144.077 39.97 131.717 40.14 126.627C40.26 123.187 39.34 120.987 38.29 118.447C37.57 116.717 36.83 114.937 36.33 112.577C34.19 102.377 39.84 97.0575 43.9 96.1075C46.73 95.4475 48.91 96.3275 51.02 97.1875C52.65 97.8475 54.34 98.5375 56.36 98.4975C57.86 98.4675 59.47 97.9075 61.03 97.3675C63.38 96.5475 65.82 95.6975 68.13 96.5475C71.01 97.6075 74.4 100.917 74.86 104.397C75.3 107.727 74.56 111.087 73.7 114.207C73.42 115.217 73.07 116.247 72.73 117.237C72.03 119.307 71.3 121.447 71.16 123.597C71.06 125.167 71.14 126.787 71.22 128.357C71.32 130.257 71.42 132.217 71.19 134.157C70.31 141.707 68.95 146.247 67.15 147.647C66.66 148.027 66.13 148.197 65.57 148.127C62.22 148.097 61.71 143.997 61.46 142.017C60.87 137.207 60.04 132.087 58.46 130.567C57.46 129.617 56.17 129.267 55.16 129.677C51.25 131.297 50.51 138.437 50.15 141.867C50.08 142.597 50.02 143.167 49.95 143.567C49.66 145.177 49.07 148.537 46.82 148.647C46.77 148.647 46.72 148.647 46.68 148.647V148.658ZM45.87 96.8575C45.31 96.8575 44.74 96.9175 44.12 97.0675C40.42 97.9375 35.29 102.857 37.29 112.377C37.77 114.647 38.49 116.387 39.19 118.067C40.25 120.607 41.24 122.997 41.12 126.657C40.94 131.997 41.95 143.827 45.11 146.947C45.64 147.467 46.18 147.707 46.77 147.677C48.23 147.607 48.78 144.557 48.98 143.407C49.04 143.047 49.1 142.457 49.17 141.787C49.57 137.887 50.32 130.627 54.78 128.787C56.14 128.227 57.85 128.647 59.13 129.877C60.59 131.267 61.54 134.757 62.43 141.917C62.77 144.647 63.38 147.167 65.59 147.167C65.61 147.167 65.63 147.167 65.65 147.167C65.95 147.207 66.23 147.117 66.53 146.887C67.43 146.187 69.09 143.597 70.2 134.057C70.42 132.197 70.32 130.277 70.22 128.417C70.14 126.827 70.05 125.177 70.16 123.547C70.31 121.267 71.06 119.067 71.78 116.937C72.11 115.957 72.46 114.947 72.73 113.967C73.57 110.937 74.29 107.707 73.87 104.547C73.47 101.517 70.39 98.4575 67.77 97.4875C65.79 96.7575 63.62 97.5075 61.33 98.3075C59.7 98.8775 58.02 99.4675 56.36 99.4975C54.15 99.5375 52.36 98.8175 50.64 98.1175C49.08 97.4875 47.59 96.8775 45.86 96.8775L45.87 96.8575Z" fill="white" fill-opacity="0.25"/>
<path d="M57.69 102.297C56.79 102.297 55.92 102.197 55.15 102.107C53.57 101.927 52.17 101.697 51.01 100.837C50.94 100.787 50.92 100.677 50.98 100.607C51.03 100.537 51.14 100.517 51.21 100.577C52.3 101.387 53.65 101.597 55.19 101.777C56.62 101.947 58.41 102.147 60 101.657C60.96 101.357 61.85 100.817 62.72 100.287C62.8 100.237 62.9 100.267 62.95 100.337C63 100.417 62.97 100.517 62.9 100.567C62.02 101.107 61.11 101.657 60.11 101.967C59.33 102.207 58.51 102.287 57.71 102.287L57.69 102.297Z" fill="white" fill-opacity="0.25"/>
<path d="M65.39 101.427C63.92 101.427 62.45 101.167 61.1 100.887C59.35 100.527 57.59 100.108 55.89 99.7075C52.04 98.7975 48.07 97.8575 44.09 97.5275C42.82 97.4175 41.48 97.3875 40.3 97.7975C39.33 98.1375 38.49 98.7675 37.59 99.4375C36.69 100.108 35.76 100.808 34.67 101.198C34.51 101.258 34.33 101.228 34.2 101.118C34.07 101.008 34 100.847 34.02 100.677C34.46 97.0575 35.7 93.5175 36.68 91.7575C39.05 87.4475 43.94 84.6075 48.81 84.6975C51.77 84.7475 54.6 85.7775 57.33 86.7775C60.08 87.7775 62.92 88.8275 65.82 88.7875C69.64 88.7575 73.4 86.7875 75.62 83.6375C75.73 83.4775 75.93 83.3975 76.12 83.4375C76.31 83.4775 76.46 83.6275 76.5 83.8175C77.66 89.1675 75.85 95.0275 71.87 98.7675C70.86 99.7175 69.87 100.388 68.86 100.798C67.74 101.258 66.56 101.427 65.39 101.427ZM42.63 96.4775C43.15 96.4775 43.66 96.5075 44.17 96.5475C48.23 96.8875 52.24 97.8275 56.12 98.7475C57.82 99.1475 59.57 99.5675 61.31 99.9175C63.6 100.387 66.23 100.817 68.5 99.8875C69.4 99.5175 70.29 98.9175 71.21 98.0475C74.68 94.7875 76.39 89.8075 75.74 85.0875C73.29 87.9675 69.59 89.7375 65.83 89.7675C65.8 89.7675 65.76 89.7675 65.73 89.7675C62.69 89.7675 59.8 88.7175 57 87.6975C54.35 86.7275 51.6 85.7275 48.8 85.6775C44.27 85.6075 39.74 88.2275 37.53 92.2375C36.68 93.7775 35.61 96.7575 35.11 99.9275C35.76 99.5775 36.37 99.1275 37 98.6475C37.91 97.9675 38.85 97.2575 39.97 96.8675C40.83 96.5675 41.74 96.4675 42.63 96.4675V96.4775Z" fill="white" fill-opacity="0.25"/>
</g>
<g clip-path="url(#clip2_127_186)">
<path d="M146.76 63.4797C144.966 63.4797 143.173 63.2933 141.432 63.0654C140.341 62.9203 139.229 62.7132 138.149 62.506C135.894 62.0812 133.566 61.6358 131.321 61.7912C129.674 61.9051 128.007 62.2263 126.392 62.5267C124.43 62.8996 122.406 63.2829 120.361 63.3244C112.39 63.5005 107.482 62.7442 105.762 61.0971C105.29 60.6413 105.048 60.1233 105.038 59.5535C104.577 56.1039 108.772 55.0058 110.796 54.4671C115.704 53.1722 120.906 51.5975 122.259 49.7639C123.109 48.6037 123.287 47.2259 122.71 46.2521C120.466 42.4709 112.946 42.7195 109.328 42.8439C108.562 42.8749 107.964 42.8956 107.534 42.8749C105.814 42.8128 102.238 42.6781 101.808 40.3887C101.64 39.5081 101.881 38.6276 102.51 37.7885C105.699 33.5618 118.421 30.9513 123.728 30.4022C127.325 30.0293 129.465 28.7862 131.961 27.3359C133.649 26.3517 135.401 25.3365 137.771 24.4974C148.071 20.8405 154.395 25.8855 155.968 29.9257C157.059 32.7331 156.461 35.1054 155.874 37.3845C155.423 39.1559 154.951 40.9895 155.286 43.051C155.528 44.5842 156.346 46.1589 157.132 47.6817C158.328 49.9815 159.555 52.3538 158.999 54.8504C158.307 57.9478 155.37 61.9051 151.804 62.8789C150.158 63.3347 148.459 63.4901 146.77 63.4901L146.76 63.4797ZM132.296 60.7449C134.331 60.7449 136.366 61.1282 138.348 61.5115C139.407 61.7187 140.509 61.9258 141.568 62.0605C144.83 62.4852 148.301 62.7649 151.521 61.8844C154.605 61.0453 157.352 57.4506 157.982 54.6225C158.454 52.4884 157.363 50.3751 156.199 48.1375C155.37 46.5422 154.521 44.9054 154.248 43.2064C153.891 40.9377 154.384 39.0109 154.856 37.1358C155.423 34.9086 155.968 32.7953 154.982 30.2883C153.545 26.6107 147.703 22.0526 138.096 25.4608C135.81 26.2688 134.111 27.2633 132.454 28.2164C129.968 29.6564 127.619 31.0238 123.812 31.4175C118.232 31.9872 106.097 34.7117 103.307 38.3997C102.846 39.0109 102.678 39.6014 102.794 40.2022C103.077 41.694 106.328 41.8183 107.545 41.8597C107.933 41.8701 108.551 41.8597 109.265 41.8286C113.376 41.6836 121.022 41.4246 123.581 45.7341C124.367 47.0498 124.168 48.8627 123.077 50.3544C121.84 52.0533 118.358 53.5244 111.048 55.4512C108.268 56.1867 105.73 57.1709 106.055 59.4396C106.055 59.4603 106.055 59.481 106.055 59.5017C106.055 59.8125 106.192 60.0922 106.475 60.3616C107.324 61.18 110.261 62.5267 120.33 62.2988C122.291 62.2573 124.273 61.8844 126.192 61.5218C127.839 61.211 129.538 60.8899 131.248 60.7656C131.594 60.7449 131.95 60.7345 132.296 60.7345V60.7449Z" fill="white" fill-opacity="0.25"/>
<path d="M118.179 63.3554C111.488 63.3554 107.314 62.5992 105.762 61.097C105.29 60.6412 105.048 60.1233 105.038 59.5535C104.576 56.1038 108.772 55.0057 110.796 54.467C115.704 53.1721 120.906 51.5975 122.259 49.7639C123.109 48.6036 123.287 47.2258 122.71 46.2521C120.466 42.4605 112.946 42.7195 109.327 42.8438C108.562 42.8749 107.964 42.8956 107.534 42.8749C105.814 42.8127 102.238 42.6781 101.808 40.3886C101.64 39.5081 101.881 38.6275 102.51 37.7884C105.699 33.5618 118.421 30.9512 123.728 30.4022C125.049 30.2675 126.266 29.9982 127.44 29.5838C127.619 29.5216 127.818 29.5631 127.954 29.677C128.091 29.8014 128.154 29.9878 128.122 30.1639C127.472 33.1371 127.419 36.2138 127.975 39.0626C128.258 40.5026 128.667 41.8804 129.192 43.1546C129.59 44.1284 130.073 45.0918 130.534 46.0345C130.786 46.5421 131.038 47.0497 131.279 47.5573C132.076 49.2563 132.58 50.7169 132.842 52.1258C133.135 53.659 133.24 55.2854 133.167 56.9533C133.104 58.3 132.947 59.7296 132.663 61.325C132.621 61.5632 132.412 61.7497 132.16 61.7497C131.845 61.7497 131.583 61.76 131.352 61.7808C129.706 61.8947 128.038 62.2159 126.423 62.5163C124.462 62.8892 122.438 63.2725 120.392 63.314C119.637 63.3347 118.914 63.3347 118.211 63.3347L118.179 63.3554ZM112.117 41.7664C116.26 41.7664 121.546 42.2948 123.591 45.7341C124.378 47.0497 124.179 48.8626 123.088 50.3544C121.85 52.0533 118.368 53.5243 111.058 55.4512C108.279 56.1867 105.741 57.1708 106.066 59.4395C106.066 59.4603 106.066 59.481 106.066 59.5121C106.066 59.8228 106.202 60.1025 106.485 60.3719C107.335 61.1903 110.271 62.537 120.34 62.3091C122.301 62.2677 124.283 61.8947 126.203 61.5321C127.849 61.2214 129.548 60.9002 131.258 60.7759C131.394 60.7759 131.541 60.7552 131.699 60.7552C131.929 59.367 132.066 58.1135 132.118 56.9222C132.191 55.3372 132.087 53.7937 131.803 52.3226C131.552 50.9966 131.08 49.6188 130.314 47.9924C130.073 47.4848 129.832 46.9876 129.58 46.4903C129.108 45.5373 128.626 44.5531 128.216 43.5483C127.671 42.2119 127.241 40.7719 126.947 39.2595C126.413 36.5039 126.402 33.6654 126.926 30.8062C125.941 31.0963 124.913 31.2931 123.832 31.4071C118.253 31.9768 106.118 34.7013 103.328 38.3893C102.867 39.0005 102.699 39.591 102.814 40.1918C103.098 41.6836 106.349 41.8079 107.565 41.8493C107.954 41.8597 108.572 41.8493 109.286 41.8182C110.114 41.7872 111.079 41.7561 112.128 41.7561L112.117 41.7664Z" fill="white" fill-opacity="0.25"/>
<path d="M154.185 50.0954C154.185 50.0954 154.091 50.0747 154.049 50.0332C153.367 49.2045 152.654 48.355 152.192 47.3709C151.416 45.7341 151.374 43.8383 151.343 42.3155C151.301 40.6684 151.343 39.1973 152.066 37.892C152.108 37.8092 152.213 37.7781 152.297 37.8299C152.381 37.8713 152.412 37.9749 152.36 38.0578C151.678 39.2906 151.647 40.7098 151.678 42.3051C151.71 43.7969 151.752 45.6616 152.496 47.2258C152.947 48.1686 153.64 49.0077 154.311 49.8157C154.374 49.8882 154.363 49.9918 154.29 50.054C154.258 50.0747 154.216 50.0954 154.185 50.0954Z" fill="white" fill-opacity="0.25"/>
<path d="M115.348 35.4887C115.264 35.4887 115.19 35.4265 115.18 35.3437C115.159 35.2504 115.222 35.1676 115.316 35.1468C115.935 35.0432 116.564 34.9086 117.162 34.7946C117.76 34.6703 118.379 34.546 118.987 34.4424C120.843 34.1213 122.742 33.9555 124.63 33.9555C124.724 33.9555 124.808 34.028 124.808 34.1213C124.808 34.2145 124.734 34.287 124.64 34.287C122.773 34.287 120.896 34.4528 119.06 34.7635C118.452 34.8671 117.844 34.9914 117.246 35.1158C116.638 35.2401 116.008 35.3644 115.39 35.4783C115.39 35.4783 115.369 35.4783 115.358 35.4783L115.348 35.4887Z" fill="white" fill-opacity="0.25"/>
<path d="M121.987 36.8665C121.903 36.8665 121.829 36.8043 121.819 36.7111C121.808 36.6179 121.871 36.535 121.966 36.5246L124.556 36.2346C124.651 36.2346 124.734 36.2864 124.745 36.3796C124.745 36.4728 124.692 36.5557 124.598 36.5661L122.008 36.8561C122.008 36.8561 121.997 36.8561 121.987 36.8561V36.8665Z" fill="white" fill-opacity="0.25"/>
<path d="M124.304 59.9472C124.221 59.9472 124.147 59.885 124.137 59.8021C124.126 59.7089 124.189 59.626 124.283 59.6053L130.01 58.6833C130.104 58.673 130.188 58.7351 130.209 58.8283C130.22 58.9216 130.157 59.0045 130.062 59.0252L124.336 59.9472C124.336 59.9472 124.315 59.9472 124.304 59.9472Z" fill="white" fill-opacity="0.25"/>
<path d="M119.91 60.4652C119.816 60.4652 119.742 60.3926 119.742 60.3098C119.742 60.2165 119.805 60.1337 119.9 60.1233L121.913 59.9783C122.008 59.9783 122.092 60.0404 122.102 60.1337C122.102 60.2269 122.039 60.3098 121.945 60.3201L119.931 60.4652C119.931 60.4652 119.931 60.4652 119.92 60.4652H119.91Z" fill="white" fill-opacity="0.25"/>
</g>
<g clip-path="url(#clip3_127_186)">
<path d="M77.0049 29.7523C77.0419 29.8436 77.079 29.9349 77.1091 30.0333C77.3587 30.9127 76.9599 31.9173 76.15 32.4838C75.5215 32.9197 74.7958 33.0675 74.0911 33.2078L73.9855 33.2309C70.145 33.9877 66.4857 35.3635 63.1201 37.3279C63.0011 37.3937 62.86 37.4105 62.725 37.3776C62.597 37.3375 62.482 37.2406 62.4231 37.1144L50.8997 12.3969C50.8336 12.2638 50.8377 12.101 50.9061 11.9725C50.9744 11.8439 51.0998 11.7426 51.2407 11.7117C55.0308 10.9064 58.6705 9.23393 61.7604 6.89267C62.3881 6.41434 64.2922 4.97189 65.7438 6.21817C66.5558 6.91751 66.6466 8.00496 66.728 8.97236C66.8 9.80557 66.857 10.5966 67.3322 11.0546C67.4402 11.1587 67.5834 11.2551 67.7266 11.3515C67.8984 11.4615 68.0773 11.5784 68.2429 11.738C69.0419 12.4942 69.0966 13.5469 69.1437 14.5645C69.1783 15.2923 69.2121 15.9777 69.5051 16.5239C69.7469 16.9791 70.1778 17.339 70.6445 17.7193C71.3126 18.2799 72.0092 18.8541 72.1891 19.7914C72.29 20.2775 72.2068 20.7529 72.1439 21.1784C72.0744 21.6252 72.0107 22.0083 72.1373 22.3525C72.2782 22.7106 72.6156 22.9802 72.9887 23.2703C73.4623 23.6435 73.9864 24.0653 74.1758 24.7478C74.2975 25.2123 74.2276 25.645 74.157 26.0353C74.1057 26.3191 74.0613 26.5957 74.1081 26.8353C74.2106 27.4063 74.7616 27.7568 75.3918 28.1837C75.9932 28.5828 76.6733 29.03 76.9908 29.7526L77.0049 29.7523ZM63.0926 36.2181C66.4245 34.3462 70.0281 33.0139 73.7981 32.2726L73.9037 32.2494C74.5379 32.1246 75.13 32.0146 75.5837 31.688C75.9816 31.4049 76.3108 30.8472 76.1595 30.3125C76.0079 29.7636 75.4425 29.3992 74.8483 29.007C74.1324 28.5393 73.3232 27.9955 73.1356 27.023C73.0574 26.6142 73.128 26.224 73.1852 25.8764C73.2358 25.5501 73.2871 25.2663 73.2189 25.02C73.1201 24.647 72.7684 24.3635 72.3665 24.0456C71.9358 23.6999 71.4477 23.3129 71.2175 22.716C70.9875 22.1332 71.0827 21.5444 71.1651 21.0266C71.2291 20.6577 71.2791 20.3032 71.2168 19.9931C71.0997 19.3942 70.5898 18.9721 70.001 18.4879C69.4911 18.0659 68.9596 17.6231 68.6298 16.9997C68.2273 16.2645 68.1906 15.4236 68.1547 14.6251C68.1169 13.7276 68.0743 12.9505 67.5703 12.4647C67.4623 12.3606 67.3263 12.2712 67.1831 12.1748C67.0113 12.0648 66.818 11.934 66.6452 11.7674C65.9035 11.0527 65.8133 9.99347 65.7324 9.05435C65.6602 8.20701 65.6029 7.40183 65.0927 6.96568C64.5036 6.46732 63.6378 6.68837 62.3405 7.67409C59.2995 9.97909 55.7518 11.6569 52.0338 12.5316L63.0713 36.2114L63.0926 36.2181Z" fill="white" fill-opacity="0.25"/>
<path d="M66.5582 10.5031C66.5878 10.5733 66.568 10.6515 66.5123 10.6949C64.1491 12.556 61.5459 14.0609 58.7732 15.194C58.6889 15.2238 58.5891 15.1832 58.5593 15.0989C58.5294 15.0146 58.5631 14.9221 58.6544 14.885C61.399 13.7665 63.967 12.2694 66.3094 10.4299C66.379 10.3721 66.4855 10.3913 66.5361 10.454C66.5433 10.461 66.5577 10.4749 66.558 10.489L66.5582 10.5031Z" fill="white" fill-opacity="0.25"/>
<path d="M68.8704 15.8567C68.9 15.9269 68.8802 16.005 68.8175 16.0557C67.7778 16.8174 66.6802 17.5095 65.5458 18.1245C65.4617 18.1684 65.3692 18.1348 65.3183 18.0579C65.2743 17.9739 65.3079 17.8813 65.3848 17.8304C66.4981 17.2229 67.5887 16.538 68.6146 15.7907C68.6915 15.7397 68.7907 15.7521 68.8416 15.8289C68.8488 15.8359 68.856 15.8428 68.8632 15.8497L68.8704 15.8567Z" fill="white" fill-opacity="0.25"/>
<path d="M73.9494 27.4323C73.9792 27.5167 73.9456 27.6092 73.8615 27.6532C71.8826 28.4959 69.8539 29.3183 67.8385 30.098C67.7542 30.1278 67.6617 30.0942 67.6246 30.0029C67.5948 29.9186 67.6354 29.8188 67.7197 29.789C69.7279 29.0023 71.7497 28.1872 73.7285 27.3445C73.8128 27.3146 73.9054 27.3483 73.9422 27.4254L73.9494 27.4323Z" fill="white" fill-opacity="0.25"/>
<path d="M63.5523 18.9391C63.5891 19.0162 63.5555 19.1088 63.4783 19.1456L61.965 19.9231C61.881 19.9671 61.7884 19.9335 61.7445 19.8494C61.7077 19.7723 61.7341 19.6728 61.8182 19.6288L63.3315 18.8513C63.4155 18.8073 63.5081 18.8409 63.5521 18.925L63.5523 18.9391Z" fill="white" fill-opacity="0.25"/>
<path d="M122.709 138.983C124.045 141.978 123.06 143.821 121.786 144.51C120.623 145.125 119.679 145.312 118.896 145.072C117.872 144.751 117.373 143.785 116.97 143.007C116.171 141.473 112.802 133.685 108.12 122.908C100.941 106.364 91.1176 83.7013 84.1591 68.7585C82.8558 65.9606 78.1831 61.082 73.6688 56.356C69.3782 51.8734 65.3327 47.6409 64.221 45.2639C61.8796 40.2433 60.2075 36.2429 58.4324 32.0181C56.6868 27.8634 54.8821 23.5684 52.3852 18.1759C51.3396 15.932 50.4393 13.8976 49.9676 11.7068C49.8209 11.0377 49.7217 10.2616 50.1198 9.60357C50.3734 9.16749 50.8207 8.87636 51.3559 8.75335C52.0181 8.61385 52.7848 8.76946 53.3438 9.16936C54.2538 9.81032 54.7047 10.8699 55.0669 11.719C60.6763 24.8337 63.4082 30.7029 68.8644 42.406L69.2841 43.3106C70.2047 45.2951 74.3567 49.5469 78.3718 53.6668C83.3816 58.8009 88.5645 64.1157 89.3842 66.7668C91.4893 73.5457 114.382 121.541 121.908 137.308L122.606 138.773C122.643 138.85 122.68 138.927 122.71 138.997L122.709 138.983ZM116.55 139.783C117.17 141.172 117.612 142.125 117.831 142.546C118.235 143.323 118.6 143.939 119.176 144.119C119.688 144.279 120.406 144.111 121.31 143.62C121.646 143.444 123.239 142.382 121.709 139.171L121.01 137.706C113.477 121.918 90.569 73.8809 88.4343 67.0319C87.6753 64.6059 82.3554 59.1451 77.6555 54.3235C73.3953 49.9535 69.3729 45.8267 68.3718 43.6952L67.9521 42.7906C62.4957 31.0733 59.7566 25.1972 54.1399 12.0755C53.741 11.1493 53.3876 10.3921 52.7499 9.9441C52.413 9.70278 51.9374 9.60545 51.5359 9.69064C51.3456 9.72951 51.0929 9.83319 50.9418 10.0764C50.7224 10.4482 50.8029 10.9842 50.9038 11.4704C51.398 13.7244 52.422 15.9474 53.2541 17.7355C55.7653 23.142 57.5703 27.4511 59.3159 31.6057C61.0911 35.8305 62.7628 39.8168 65.0968 44.8163C66.1349 47.0391 70.3175 51.4176 74.363 55.6501C78.9349 60.4316 83.6583 65.373 85.0349 68.3109C92.0009 83.2748 101.832 105.944 109.011 122.488C112.239 129.947 114.979 136.254 116.557 139.79L116.55 139.783Z" fill="white" fill-opacity="0.25"/>
<g clip-path="url(#clip4_127_186)">
<path d="M121.34 99.1475C121.13 99.1475 120.94 98.9975 120.88 98.7975C120.81 98.5575 120.73 98.2675 120.65 97.9275C119.94 95.1375 118.45 89.3375 112.46 88.7975C112.22 88.7775 112.03 88.5775 112.01 88.3375C112 88.0975 112.17 87.8775 112.41 87.8275C117.65 86.7875 120.7 83.1775 120.76 77.9175C120.76 77.6575 120.97 77.4475 121.23 77.4275C121.5 77.4175 121.71 77.6075 121.74 77.8675C121.96 79.9575 122.18 82.1175 123.32 84.0175C124.42 85.8575 125.33 86.5375 129.66 87.8875C129.89 87.9575 130.03 88.1775 130 88.4175C129.97 88.6575 129.77 88.8375 129.54 88.8475C124.02 89.1275 122.96 93.9075 122.25 97.0775C122.1 97.7575 121.97 98.3475 121.81 98.8275C121.74 99.0275 121.55 99.1575 121.34 99.1575L121.34 99.1475ZM114.61 88.2275C118.99 89.6375 120.58 93.9875 121.33 96.6875C121.97 93.8275 123.03 89.4275 127.44 88.1875C124.61 87.1775 123.58 86.3475 122.48 84.5275C121.87 83.5075 121.5 82.4275 121.25 81.3375C120.29 84.5975 117.97 87.0175 114.61 88.2375L114.61 88.2275Z" fill="white" fill-opacity="0.25"/>
</g>
<g clip-path="url(#clip5_127_186)">
<path d="M65.52 79.6675C65.04 79.6675 64.58 79.5975 64.17 79.4675C62.91 79.0675 61.8 78.1375 60.86 76.7175C59.5 74.6475 56.13 67.0975 56 65.2475C55.89 63.4375 57.1 61.6075 58.95 60.7875C60.78 59.9775 63.34 60.3375 65.04 63.7675L65.1 63.8875C66.63 66.9675 68.21 70.1575 69.19 73.5475C69.57 74.8775 69.94 76.8275 68.71 78.2975C67.91 79.2575 66.67 79.6675 65.51 79.6675L65.52 79.6675ZM59.35 61.6875C57.87 62.3375 56.9 63.7775 56.99 65.1775C57.09 66.7275 60.31 74.0875 61.68 76.1675C62.5 77.4175 63.41 78.1875 64.47 78.5275C65.53 78.8675 67.12 78.6775 67.96 77.6675C68.67 76.8175 68.76 75.5975 68.25 73.8175C67.3 70.5175 65.74 67.3675 64.23 64.3275L64.17 64.2075C62.46 60.7675 60.23 61.2975 59.35 61.6875Z" fill="white" fill-opacity="0.25"/>
<path d="M60.77 71.2275C60.71 71.2275 60.66 71.1975 60.63 71.1475C60.58 71.0675 60.61 70.9675 60.69 70.9175C62.05 70.0975 63.48 69.3875 64.96 68.8075C65.04 68.7775 65.14 68.8075 65.17 68.8975C65.2 68.9775 65.17 69.0775 65.08 69.1075C63.62 69.6775 62.2 70.3875 60.86 71.1975C60.83 71.2175 60.8 71.2175 60.78 71.2175L60.77 71.2275Z" fill="white" fill-opacity="0.25"/>
</g>
</g>
<g clip-path="url(#clip6_127_186)">
<path d="M19.2351 120.322C19.0149 120.322 18.8156 120.166 18.7527 119.959C18.6793 119.71 18.5954 119.41 18.5115 119.058C17.7668 116.167 16.2041 110.159 9.92174 109.6C9.67003 109.579 9.47076 109.372 9.44978 109.123C9.43929 108.874 9.61759 108.647 9.8693 108.595C15.365 107.517 18.5639 103.778 18.6268 98.3286C18.6268 98.0593 18.8471 97.8417 19.1198 97.821C19.4029 97.8106 19.6232 98.0075 19.6547 98.2768C19.8854 100.442 20.1161 102.68 21.3118 104.648C22.4655 106.554 23.4199 107.258 27.9612 108.657C28.2024 108.729 28.3493 108.957 28.3178 109.206C28.2863 109.455 28.0766 109.641 27.8354 109.651C22.0459 109.941 20.9342 114.893 20.1896 118.177C20.0322 118.882 19.8959 119.493 19.7281 119.99C19.6547 120.197 19.4554 120.332 19.2351 120.332L19.2351 120.322ZM12.1767 109.009C16.7704 110.47 18.438 114.976 19.2247 117.773C19.8959 114.81 21.0076 110.252 25.6329 108.968C22.6647 107.921 21.5845 107.062 20.4308 105.176C19.791 104.12 19.4029 103.001 19.1407 101.872C18.1339 105.249 15.7007 107.756 12.1767 109.02L12.1767 109.009Z" fill="white" fill-opacity="0.25"/>
</g>
<g clip-path="url(#clip7_127_186)">
<path d="M94.7491 25.0153C94.5288 25.0153 94.3295 24.8599 94.2666 24.6527C94.1932 24.4041 94.1093 24.1036 94.0254 23.7514C93.2807 20.8611 91.718 14.8527 85.4357 14.2933C85.1839 14.2726 84.9847 14.0654 84.9637 13.8168C84.9532 13.5681 85.1315 13.3402 85.3832 13.2884C90.879 12.2111 94.0778 8.47132 94.1407 3.02228C94.1407 2.75294 94.361 2.53539 94.6337 2.51467C94.9169 2.50431 95.1371 2.70114 95.1686 2.97049C95.3993 5.1356 95.6301 7.37322 96.8257 9.34151C97.9794 11.2476 98.9338 11.9521 103.475 13.3506C103.716 13.4231 103.863 13.651 103.832 13.8996C103.8 14.1483 103.59 14.3347 103.349 14.3451C97.5599 14.6352 96.4481 19.5869 95.7035 22.8709C95.5461 23.5753 95.4098 24.1865 95.242 24.6838C95.1686 24.8909 94.9693 25.0256 94.7491 25.0256L94.7491 25.0153ZM87.6906 13.7028C92.2844 15.1635 93.952 19.6698 94.7386 22.4668C95.4098 19.5041 96.5215 14.9459 101.147 13.6614C98.1787 12.6151 97.0984 11.7552 95.9447 9.86983C95.3049 8.81318 94.9169 7.69436 94.6547 6.56519C93.6478 9.94235 91.2146 12.4493 87.6906 13.7132L87.6906 13.7028Z" fill="white" fill-opacity="0.25"/>
</g>
<g clip-path="url(#clip8_127_186)">
<path d="M30.57 76.2175C30.18 76.2175 29.8 76.1975 29.41 76.1675C28.68 76.0975 27.96 75.9675 27.26 75.8475C26.37 75.6875 25.52 75.5275 24.65 75.4975C23.73 75.4575 22.81 75.5575 21.84 75.6675C20.87 75.7775 19.87 75.8775 18.86 75.8375C14.44 75.6475 10.36 72.6875 6.37002 66.7875C3.67002 62.7675 0.500018 57.3875 0.0500181 51.3575C-0.409982 45.1975 2.50002 39.3175 7.29002 36.7375C12.2 34.0875 18.18 34.8575 23.9 36.0975C26.51 36.6575 29.49 36.2475 32.38 35.8475L33.29 35.7275C35.21 35.4675 37.19 35.1975 39.18 35.4675C44.57 36.1875 49.76 40.7775 50.99 45.9275C52 50.1775 51.4 55.0775 49.15 60.9075C47.33 65.6275 43.55 69.6475 41.46 71.6275C38.35 74.5675 34.36 76.2475 30.58 76.2475L30.57 76.2175ZM24.26 74.4975C24.41 74.4975 24.55 74.4975 24.7 74.4975C25.63 74.5375 26.55 74.6975 27.44 74.8575C28.12 74.9775 28.82 75.1075 29.5 75.1675C33.34 75.5175 37.55 73.9175 40.77 70.8675C42.8 68.9475 46.47 65.0475 48.22 60.5075C50.4 54.8675 50.99 50.1575 50.02 46.1175C48.9 41.4175 43.97 37.0575 39.04 36.4075C37.18 36.1575 35.26 36.4175 33.41 36.6675L32.5 36.7875C29.53 37.1975 26.46 37.6275 23.68 37.0275C18.14 35.8375 12.37 35.0775 7.74002 37.5775C2.61002 40.3775 0.670018 46.4675 1.03002 51.2775C1.46002 57.0775 4.56002 62.3175 7.20002 66.2275C11 71.8475 14.83 74.6675 18.92 74.8375C19.85 74.8775 20.78 74.7775 21.75 74.6675C22.57 74.5775 23.41 74.4875 24.26 74.4875V74.4975Z" fill="white" fill-opacity="0.25"/>
<path d="M26.86 37.1775C26.63 37.1775 26.43 37.0175 26.38 36.7875C25.62 33.2775 24.67 28.9175 21.8 25.9875C21.61 25.7975 21.61 25.4775 21.8 25.2875C21.99 25.0975 22.31 25.0975 22.5 25.2875C25.56 28.4175 26.55 32.9375 27.34 36.5675C27.4 36.8375 27.23 37.0975 26.96 37.1575C26.92 37.1575 26.89 37.1675 26.85 37.1675L26.86 37.1775Z" fill="white" fill-opacity="0.25"/>
<path d="M27.12 37.1175C27.02 37.1175 26.92 37.0875 26.83 37.0275C26.7 36.9375 26.63 36.7975 26.62 36.6375C26.52 32.6875 27.97 27.5775 32.34 25.0975C33.48 24.4475 34.75 24.0275 35.98 23.6275C37.64 23.0775 39.2 22.5675 40.44 21.5375C40.58 21.4275 40.77 21.3975 40.93 21.4575C41.1 21.5275 41.21 21.6775 41.24 21.8575C41.51 23.9775 41.7 26.0375 41.11 27.9975C40.37 30.4075 38.44 32.5675 35.67 34.0675C33.76 35.0975 31.69 35.7375 29.28 36.4675C28.63 36.6675 27.96 36.8675 27.25 37.0975C27.2 37.1175 27.15 37.1175 27.1 37.1175H27.12ZM40.38 22.8075C39.14 23.6175 37.7 24.0975 36.3 24.5575C35.12 24.9475 33.9 25.3575 32.84 25.9475C29.08 28.0775 27.68 32.3875 27.61 35.9475C28.09 35.7975 28.55 35.6575 29.01 35.5175C31.36 34.7975 33.39 34.1775 35.22 33.1975C37.76 31.8175 39.53 29.8675 40.19 27.7075C40.66 26.1675 40.59 24.5575 40.39 22.8075H40.38Z" fill="white" fill-opacity="0.25"/>
<path d="M27.14 36.8475C27.14 36.8475 27.09 36.8475 27.06 36.8275C26.98 36.7875 26.95 36.6875 27 36.6075C28.49 33.8975 30.63 31.4875 33.18 29.6275C33.25 29.5775 33.36 29.5875 33.41 29.6675C33.46 29.7375 33.45 29.8475 33.37 29.8975C30.86 31.7275 28.75 34.1075 27.28 36.7775C27.25 36.8275 27.19 36.8575 27.14 36.8575V36.8475Z" fill="white" fill-opacity="0.25"/>
<path d="M7.74001 43.4175C7.74001 43.4175 7.68001 43.4175 7.65001 43.3875C7.57001 43.3375 7.55001 43.2375 7.60001 43.1575C8.70001 41.4175 10.49 40.0675 12.53 39.4475C12.62 39.4175 12.71 39.4675 12.73 39.5575C12.76 39.6475 12.71 39.7375 12.62 39.7575C10.66 40.3475 8.93001 41.6475 7.87001 43.3275C7.84001 43.3775 7.79001 43.4075 7.73001 43.4075L7.74001 43.4175Z" fill="white" fill-opacity="0.25"/>
</g>
<g clip-path="url(#clip9_127_186)">
<path d="M152.2 145.96C151.99 145.96 151.78 145.96 151.57 145.95C142.92 145.63 136.56 141.86 133.65 135.33C130.56 128.41 131.9 119.39 136.9 113.41C141.25 108.21 148.26 105.85 154.35 107.54C161.59 109.56 166.86 114.76 168.43 121.46C169.99 128.12 168.5 135.25 164.52 140.09C161.39 143.89 157.03 145.96 152.19 145.96H152.2ZM150.3 107.98C145.64 107.98 140.88 110.18 137.65 114.04C132.89 119.75 131.61 128.33 134.54 134.93C137.29 141.1 143.34 144.66 151.6 144.97C156.37 145.15 160.7 143.19 163.76 139.47C167.54 134.87 168.97 128.06 167.47 121.69C165.98 115.35 160.97 110.42 154.08 108.5C152.85 108.16 151.57 107.99 150.29 107.99L150.3 107.98Z" fill="white" fill-opacity="0.25"/>
<path d="M144.74 120.63L141.69 123.75L150.68 135.32L159.37 120.62L156.15 117.65L150.08 127.58L144.74 120.63Z" fill="white" fill-opacity="0.25"/>
<path d="M150.68 135.81C150.53 135.81 150.39 135.74 150.29 135.62L141.3 124.06C141.15 123.87 141.16 123.59 141.34 123.41L144.38 120.28C144.48 120.18 144.62 120.13 144.76 120.13C144.9 120.13 145.03 120.21 145.12 120.32L150.03 126.7L155.72 117.38C155.8 117.25 155.93 117.17 156.07 117.15C156.22 117.13 156.36 117.18 156.47 117.28L159.69 120.25C159.86 120.41 159.9 120.66 159.78 120.86L151.09 135.56C151.01 135.7 150.86 135.79 150.7 135.8C150.69 135.8 150.68 135.8 150.67 135.8L150.68 135.81ZM142.34 123.79L150.62 134.44L158.74 120.71L156.25 118.41L150.5 127.83C150.42 127.97 150.27 128.06 150.11 128.06C149.94 128.06 149.79 128 149.69 127.87L144.69 121.37L142.34 123.78V123.79Z" fill="white" fill-opacity="0.25"/>
</g>
</g>
<defs>
<clipPath id="clip0_127_186">
<rect width="172" height="154" fill="white"/>
</clipPath>
<clipPath id="clip1_127_186">
<rect width="42.85" height="65.23" fill="white" transform="translate(34 83.4275)"/>
</clipPath>
<clipPath id="clip2_127_186">
<rect width="57.3907" height="40.2462" fill="white" transform="translate(101.734 23.2335)"/>
</clipPath>
<clipPath id="clip3_127_186">
<rect width="145.4" height="63.34" fill="white" transform="translate(120.04 146.508) rotate(-136.055)"/>
</clipPath>
<clipPath id="clip4_127_186">
<rect width="18.01" height="21.72" fill="white" transform="translate(112 77.4275)"/>
</clipPath>
<clipPath id="clip5_127_186">
<rect width="13.56" height="19.24" fill="white" transform="translate(56 60.4275)"/>
</clipPath>
<clipPath id="clip6_127_186">
<rect width="18.889" height="22.5006" fill="white" transform="translate(9.43927 97.821)"/>
</clipPath>
<clipPath id="clip7_127_186">
<rect width="18.889" height="22.5006" fill="white" transform="translate(84.9532 2.51471)"/>
</clipPath>
<clipPath id="clip8_127_186">
<rect width="51.47" height="54.79" fill="white" transform="translate(0 21.4275)"/>
</clipPath>
<clipPath id="clip9_127_186">
<rect width="37.04" height="38.96" fill="white" transform="translate(132 107)"/>
</clipPath>
</defs>
</svg>
