<svg width="50" height="50" viewBox="0 0 50 50" fill="none" xmlns="http://www.w3.org/2000/svg">
<path d="M19.1358 1.85185C19.1358 0.829101 19.9649 0 20.9877 0H29.0123C30.0351 0 30.8642 0.829102 30.8642 1.85185V48.1481C30.8642 49.1709 30.0351 50 29.0123 50H20.9877C19.9649 50 19.1358 49.1709 19.1358 48.1481V1.85185Z" fill="#1E96FC"/>
<path d="M1.85185 30.8642C0.829101 30.8642 0 30.0351 0 29.0123V20.9877C0 19.9649 0.829102 19.1358 1.85185 19.1358H48.1481C49.1709 19.1358 50 19.9649 50 20.9877V29.0123C50 30.0351 49.1709 30.8642 48.1481 30.8642H1.85185Z" fill="#1E96FC"/>
</svg>
