<svg width="273" height="55" viewBox="0 0 273 55" fill="none" xmlns="http://www.w3.org/2000/svg">
<rect x="2" y="2" width="269" height="51" rx="20" fill="#F4FFFF" stroke="url(#paint0_linear_541_190)" stroke-width="3"/>
<path d="M27.1702 19.7V21.695H19.4372C19.0572 21.695 18.8038 21.7583 18.6772 21.885C18.5505 22.0117 18.4872 22.265 18.4872 22.645V25.21H24.8142C25.9668 25.21 26.7585 25.5393 27.1892 26.198C27.6325 26.8567 27.8542 27.8193 27.8542 29.086C27.8542 30.3527 27.6388 31.3217 27.2082 31.993C26.7775 32.6643 25.9922 33 24.8522 33H17.9172C16.6252 33 15.9792 32.335 15.9792 31.005V21.695C15.9792 20.365 16.6252 19.7 17.9172 19.7H27.1702ZM23.5602 27.205H18.4872V30.055C18.4872 30.435 18.5505 30.6883 18.6772 30.815C18.8038 30.9417 19.0572 31.005 19.4372 31.005H23.5602C24.1808 31.005 24.6178 30.853 24.8712 30.549C25.1372 30.245 25.2702 29.7573 25.2702 29.086C25.2702 28.402 25.1435 27.9207 24.8902 27.642C24.6495 27.3507 24.2062 27.205 23.5602 27.205ZM38.5628 33H32.9768C32.1914 33 31.5391 32.8923 31.0198 32.677C30.5131 32.4617 30.1268 32.126 29.8608 31.67C29.5948 31.2013 29.4111 30.682 29.3098 30.112C29.2211 29.542 29.1768 28.82 29.1768 27.946C29.1768 25.9953 29.5441 24.6527 30.2788 23.918C31.0261 23.1833 32.2801 22.816 34.0408 22.816C35.6114 22.816 36.8084 23.1073 37.6318 23.69C38.4678 24.26 38.8858 25.2987 38.8858 26.806C38.8858 28.0727 38.3664 28.706 37.3278 28.706H31.4758C31.4758 29.58 31.6151 30.2323 31.8938 30.663C32.1851 31.081 32.7678 31.29 33.6418 31.29H38.5628V33ZM31.4758 26.996H36.0928C36.4221 26.996 36.5868 26.7997 36.5868 26.407C36.5868 25.7863 36.3398 25.3177 35.8458 25.001C35.3644 24.6843 34.7628 24.526 34.0408 24.526C33.1034 24.526 32.4384 24.7223 32.0458 25.115C31.6658 25.495 31.4758 26.122 31.4758 26.996ZM48.5622 24.64H44.8952C44.4392 24.64 44.0529 24.697 43.7362 24.811C43.4196 24.925 43.1662 25.0707 42.9762 25.248C42.7989 25.4253 42.6596 25.666 42.5582 25.97C42.4569 26.274 42.3936 26.5717 42.3682 26.863C42.3429 27.1543 42.3302 27.5153 42.3302 27.946C42.3302 28.4907 42.3556 28.9403 42.4062 29.295C42.4569 29.637 42.5646 29.979 42.7292 30.321C42.8939 30.6503 43.1536 30.8973 43.5082 31.062C43.8756 31.214 44.3379 31.29 44.8952 31.29H48.7902V33H44.3442C42.7356 33 41.6146 32.5757 40.9812 31.727C40.3479 30.8657 40.0312 29.6053 40.0312 27.946C40.0312 26.2993 40.3479 25.0517 40.9812 24.203C41.6146 23.3543 42.7356 22.93 44.3442 22.93H48.5622V24.64ZM50.1136 33V24.64C50.1136 23.5 50.6836 22.93 51.8236 22.93H57.6756C58.8156 22.93 59.3856 23.5 59.3856 24.64V33H57.1626V25.21C57.1626 24.83 56.9726 24.64 56.5926 24.64H52.9066C52.5266 24.64 52.3366 24.83 52.3366 25.21V33H50.1136ZM60.071 33L64.042 23.652C64.27 23.0947 64.802 22.816 65.638 22.816C66.474 22.816 67.006 23.0947 67.234 23.652L71.205 33H68.773L65.828 25.229C65.752 25.039 65.6887 24.944 65.638 24.944C65.5874 24.944 65.524 25.039 65.448 25.229L62.503 33H60.071ZM72.5193 22.93H78.2383C79.163 22.93 79.866 23.2023 80.3473 23.747C80.8286 24.2917 81.0693 25.0073 81.0693 25.894V31.29C81.0693 32.43 80.4993 33 79.3593 33H74.2863C72.6143 33 71.7783 31.955 71.7783 29.865C71.7783 28.8897 71.9873 28.1233 72.4053 27.566C72.8233 27.0087 73.4503 26.73 74.2863 26.73H78.8463V26.084C78.8463 25.1213 78.3776 24.64 77.4403 24.64H72.5193V22.93ZM78.8463 28.44H75.1413C74.432 28.44 74.0773 28.915 74.0773 29.865C74.0773 30.815 74.432 31.29 75.1413 31.29H78.2763C78.6563 31.29 78.8463 31.1 78.8463 30.72V28.44ZM87.9555 33H85.7325V24.64H81.9515V22.93H91.7365V24.64H87.9555V33ZM101.857 33H99.6338V28.668H94.8268V33H92.6038V22.93H94.8268V26.958H99.6338V22.93H101.857V33ZM104.044 22.93H109.763C110.687 22.93 111.39 23.2023 111.872 23.747C112.353 24.2917 112.594 25.0073 112.594 25.894V31.29C112.594 32.43 112.024 33 110.884 33H105.811C104.139 33 103.303 31.955 103.303 29.865C103.303 28.8897 103.512 28.1233 103.93 27.566C104.348 27.0087 104.975 26.73 105.811 26.73H110.371V26.084C110.371 25.1213 109.902 24.64 108.965 24.64H104.044V22.93ZM110.371 28.44H106.666C105.956 28.44 105.602 28.915 105.602 29.865C105.602 30.815 105.956 31.29 106.666 31.29H109.801C110.181 31.29 110.371 31.1 110.371 30.72V28.44ZM113.932 33L117.162 29.523C117.251 29.4217 117.295 29.3457 117.295 29.295C117.295 29.219 117.232 29.181 117.105 29.181H116.725C115.078 29.181 114.255 28.136 114.255 26.046C114.255 23.9687 115.078 22.93 116.725 22.93H121.874C123.014 22.93 123.584 23.5 123.584 24.64V33H121.361V25.21C121.361 24.83 121.171 24.64 120.791 24.64H117.656C117.263 24.64 116.978 24.754 116.801 24.982C116.636 25.1973 116.554 25.552 116.554 26.046C116.554 27.0467 116.921 27.547 117.656 27.547H119.081C119.727 27.547 120.05 27.832 120.05 28.402C120.05 28.8707 119.898 29.276 119.594 29.618L116.649 33H113.932ZM139.345 33H136.666L132.999 28.991C132.619 28.573 132.429 28.1803 132.429 27.813C132.429 27.471 132.663 27.034 133.132 26.502L136.343 22.93H138.984L135.165 26.996C134.848 27.3127 134.69 27.585 134.69 27.813C134.69 28.041 134.81 28.2753 135.051 28.516L139.345 33ZM131.992 33H129.769V22.93H131.992V33ZM140.553 23.937C141.402 23.1897 142.764 22.816 144.638 22.816C146.513 22.816 147.875 23.1897 148.723 23.937C149.572 24.6843 149.996 26.0207 149.996 27.946C149.996 29.8967 149.572 31.2457 148.723 31.993C147.887 32.7403 146.526 33.114 144.638 33.114C142.751 33.114 141.383 32.7403 140.534 31.993C139.698 31.2457 139.28 29.8967 139.28 27.946C139.28 26.0207 139.705 24.6843 140.553 23.937ZM141.579 27.946C141.579 29.2 141.807 30.093 142.263 30.625C142.719 31.1443 143.511 31.404 144.638 31.404C145.766 31.404 146.557 31.1443 147.013 30.625C147.469 30.093 147.697 29.2 147.697 27.946C147.697 26.7047 147.469 25.8243 147.013 25.305C146.557 24.7857 145.766 24.526 144.638 24.526C143.511 24.526 142.719 24.7857 142.263 25.305C141.807 25.8243 141.579 26.7047 141.579 27.946ZM160.694 33H158.471V28.668H153.664V33H151.441V22.93H153.664V26.958H158.471V22.93H160.694V33ZM170.671 24.64H167.004C166.548 24.64 166.161 24.697 165.845 24.811C165.528 24.925 165.275 25.0707 165.085 25.248C164.907 25.4253 164.768 25.666 164.667 25.97C164.565 26.274 164.502 26.5717 164.477 26.863C164.451 27.1543 164.439 27.5153 164.439 27.946C164.439 28.4907 164.464 28.9403 164.515 29.295C164.565 29.637 164.673 29.979 164.838 30.321C165.002 30.6503 165.262 30.8973 165.617 31.062C165.984 31.214 166.446 31.29 167.004 31.29H170.899V33H166.453C164.844 33 163.723 32.5757 163.09 31.727C162.456 30.8657 162.14 29.6053 162.14 27.946C162.14 26.2993 162.456 25.0517 163.09 24.203C163.723 23.3543 164.844 22.93 166.453 22.93H170.671V24.64ZM182.554 22.93L176.55 36.249H174.289L175.828 32.962L171.344 22.93H173.643L176.873 30.663L180.293 22.93H182.554ZM181.604 33L185.575 23.652C185.803 23.0947 186.335 22.816 187.171 22.816C188.007 22.816 188.539 23.0947 188.767 23.652L192.738 33H190.306L187.361 25.229C187.285 25.039 187.222 24.944 187.171 24.944C187.121 24.944 187.057 25.039 186.981 25.229L184.036 33H181.604ZM200.194 33H195.14C194 33 193.43 32.43 193.43 31.29V22.93H195.653V26.749H200.194C201.131 26.749 201.79 27.015 202.17 27.547C202.55 28.0663 202.74 28.839 202.74 29.865C202.74 30.891 202.55 31.67 202.17 32.202C201.79 32.734 201.131 33 200.194 33ZM195.653 28.459V30.72C195.653 31.1 195.843 31.29 196.223 31.29H199.263C199.719 31.29 200.029 31.1823 200.194 30.967C200.359 30.739 200.441 30.3717 200.441 29.865C200.441 29.3583 200.359 28.9973 200.194 28.782C200.029 28.5667 199.719 28.459 199.263 28.459H195.653ZM208.283 33H206.06V24.64H202.279V22.93H212.064V24.64H208.283V33ZM212.997 22.93H218.716C219.641 22.93 220.344 23.2023 220.825 23.747C221.306 24.2917 221.547 25.0073 221.547 25.894V31.29C221.547 32.43 220.977 33 219.837 33H214.764C213.092 33 212.256 31.955 212.256 29.865C212.256 28.8897 212.465 28.1233 212.883 27.566C213.301 27.0087 213.928 26.73 214.764 26.73H219.324V26.084C219.324 25.1213 218.855 24.64 217.918 24.64H212.997V22.93ZM219.324 28.44H215.619C214.91 28.44 214.555 28.915 214.555 29.865C214.555 30.815 214.91 31.29 215.619 31.29H218.754C219.134 31.29 219.324 31.1 219.324 30.72V28.44ZM223.303 31.29V22.93H225.526V30.72C225.526 31.1 225.716 31.29 226.096 31.29H230.314V22.93H232.537V31.29H233.05C234.19 31.29 234.76 31.86 234.76 33V35.375H232.537V33.57C232.537 33.2153 232.372 33.0253 232.043 33H225.013C223.873 33 223.303 32.43 223.303 31.29ZM245.225 33H243.002L243.078 25.837C243.078 25.6597 243.04 25.571 242.964 25.571C242.9 25.571 242.812 25.6597 242.698 25.837L238.271 32.316C238.081 32.6073 237.878 32.8163 237.663 32.943C237.46 33.057 237.181 33.114 236.827 33.114C235.851 33.114 235.364 32.639 235.364 31.689V22.93H237.587L237.492 30.093C237.492 30.2703 237.542 30.359 237.644 30.359C237.72 30.359 237.808 30.2703 237.91 30.093L242.394 23.5C242.698 23.044 243.154 22.816 243.762 22.816C243.888 22.816 244.009 22.8287 244.123 22.854C244.249 22.8793 244.408 22.9363 244.598 23.025C244.788 23.101 244.94 23.2593 245.054 23.5C245.168 23.728 245.225 24.013 245.225 24.355V33ZM246.561 33L249.791 29.523C249.879 29.4217 249.924 29.3457 249.924 29.295C249.924 29.219 249.86 29.181 249.734 29.181H249.354C247.707 29.181 246.884 28.136 246.884 26.046C246.884 23.9687 247.707 22.93 249.354 22.93H254.503C255.643 22.93 256.213 23.5 256.213 24.64V33H253.99V25.21C253.99 24.83 253.8 24.64 253.42 24.64H250.285C249.892 24.64 249.607 24.754 249.43 24.982C249.265 25.1973 249.183 25.552 249.183 26.046C249.183 27.0467 249.55 27.547 250.285 27.547H251.71C252.356 27.547 252.679 27.832 252.679 28.402C252.679 28.8707 252.527 29.276 252.223 29.618L249.278 33H246.561Z" fill="#181618"/>
<defs>
<linearGradient id="paint0_linear_541_190" x1="2" y1="27.5" x2="271" y2="27.5" gradientUnits="userSpaceOnUse">
<stop stop-color="#7EC4FF"/>
<stop offset="1" stop-color="#084C87"/>
</linearGradient>
</defs>
</svg>
