<svg width="392" height="83" viewBox="0 0 392 83" fill="none" xmlns="http://www.w3.org/2000/svg">
<rect x="2" y="1.7218" width="388" height="79.198" rx="39.599" fill="#F4FFFF" stroke="url(#paint0_linear_675_7)" stroke-width="3"/>
<path d="M47.8848 37.672C50.3168 37.8853 51.5328 39.6133 51.5328 42.856C51.5328 44.7973 51.1274 46.312 50.3168 47.4C49.5061 48.4667 48.0341 49 45.9008 49H33.0688V45.64H43.6928C44.9514 45.64 45.8474 45.4053 46.3808 44.936C46.9141 44.4667 47.1808 43.6773 47.1808 42.568C47.1808 41.4373 46.9248 40.6267 46.4128 40.136C45.9221 39.624 45.1114 39.368 43.9808 39.368H33.5168V36.008H43.9168C45.0048 36.008 45.7408 35.784 46.1248 35.336C46.5088 34.888 46.7008 34.088 46.7008 32.936C46.7008 31.912 46.4981 31.1653 46.0928 30.696C45.6874 30.2053 44.9514 29.96 43.8848 29.96H33.1968V26.6H45.9008C49.3354 26.6 51.0528 28.648 51.0528 32.744C51.0528 35.6453 49.9968 37.2453 47.8848 37.544V37.672ZM55.333 32.04H64.965C66.5223 32.04 67.7063 32.4987 68.517 33.416C69.3277 34.3333 69.733 35.5387 69.733 37.032V46.12C69.733 48.04 68.773 49 66.853 49H58.309C55.493 49 54.085 47.24 54.085 43.72C54.085 42.0773 54.437 40.7867 55.141 39.848C55.845 38.9093 56.901 38.44 58.309 38.44H65.989V37.352C65.989 35.7307 65.1997 34.92 63.621 34.92H55.333V32.04ZM65.989 41.32H59.749C58.5543 41.32 57.957 42.12 57.957 43.72C57.957 45.32 58.5543 46.12 59.749 46.12H65.029C65.669 46.12 65.989 45.8 65.989 45.16V41.32ZM72.6908 49V34.92C72.6908 33 73.6508 32.04 75.5708 32.04H85.4268C87.3468 32.04 88.3068 33 88.3068 34.92V49H84.5628V35.88C84.5628 35.24 84.2428 34.92 83.6028 34.92H77.3948C76.7548 34.92 76.4348 35.24 76.4348 35.88V49H72.6908ZM107.861 49H104.117L104.245 36.936C104.245 36.6373 104.181 36.488 104.053 36.488C103.947 36.488 103.797 36.6373 103.605 36.936L96.1493 47.848C95.8293 48.3387 95.4879 48.6907 95.1253 48.904C94.7839 49.096 94.3146 49.192 93.7173 49.192C92.0746 49.192 91.2533 48.392 91.2533 46.792V32.04H94.9973L94.8373 44.104C94.8373 44.4027 94.9226 44.552 95.0933 44.552C95.2213 44.552 95.3706 44.4027 95.5413 44.104L103.093 33C103.605 32.232 104.373 31.848 105.397 31.848C105.611 31.848 105.813 31.8693 106.005 31.912C106.219 31.9547 106.485 32.0507 106.805 32.2C107.125 32.328 107.381 32.5947 107.573 33C107.765 33.384 107.861 33.864 107.861 34.44V49ZM124.672 34.92H118.496C117.728 34.92 117.077 35.016 116.544 35.208C116.01 35.4 115.584 35.6453 115.264 35.944C114.965 36.2427 114.73 36.648 114.56 37.16C114.389 37.672 114.282 38.1733 114.24 38.664C114.197 39.1547 114.176 39.7627 114.176 40.488C114.176 41.4053 114.218 42.1627 114.304 42.76C114.389 43.336 114.57 43.912 114.848 44.488C115.125 45.0427 115.562 45.4587 116.16 45.736C116.778 45.992 117.557 46.12 118.496 46.12H125.056V49H117.568C114.858 49 112.97 48.2853 111.904 46.856C110.837 45.4053 110.304 43.2827 110.304 40.488C110.304 37.7147 110.837 35.6133 111.904 34.184C112.97 32.7547 114.858 32.04 117.568 32.04H124.672V34.92ZM128.021 32.04H137.653C139.21 32.04 140.394 32.4987 141.205 33.416C142.015 34.3333 142.421 35.5387 142.421 37.032V46.12C142.421 48.04 141.461 49 139.541 49H130.997C128.181 49 126.773 47.24 126.773 43.72C126.773 42.0773 127.125 40.7867 127.829 39.848C128.533 38.9093 129.589 38.44 130.997 38.44H138.677V37.352C138.677 35.7307 137.887 34.92 136.309 34.92H128.021V32.04ZM138.677 41.32H132.437C131.242 41.32 130.645 42.12 130.645 43.72C130.645 45.32 131.242 46.12 132.437 46.12H137.717C138.357 46.12 138.677 45.8 138.677 45.16V41.32ZM154.018 49H150.274V34.92H143.906V32.04H160.386V34.92H154.018V49ZM173.239 49H164.727C162.807 49 161.847 48.04 161.847 46.12V32.04H165.591V38.472H173.239C174.818 38.472 175.927 38.92 176.567 39.816C177.207 40.6907 177.527 41.992 177.527 43.72C177.527 45.448 177.207 46.76 176.567 47.656C175.927 48.552 174.818 49 173.239 49ZM165.591 41.352V45.16C165.591 45.8 165.911 46.12 166.551 46.12H171.671C172.439 46.12 172.962 45.9387 173.239 45.576C173.516 45.192 173.655 44.5733 173.655 43.72C173.655 42.8667 173.516 42.2587 173.239 41.896C172.962 41.5333 172.439 41.352 171.671 41.352H165.591ZM193.672 34.92H187.496C186.728 34.92 186.077 35.016 185.544 35.208C185.01 35.4 184.584 35.6453 184.264 35.944C183.965 36.2427 183.73 36.648 183.56 37.16C183.389 37.672 183.282 38.1733 183.24 38.664C183.197 39.1547 183.176 39.7627 183.176 40.488C183.176 41.4053 183.218 42.1627 183.304 42.76C183.389 43.336 183.57 43.912 183.848 44.488C184.125 45.0427 184.562 45.4587 185.16 45.736C185.778 45.992 186.557 46.12 187.496 46.12H194.056V49H186.568C183.858 49 181.97 48.2853 180.904 46.856C179.837 45.4053 179.304 43.2827 179.304 40.488C179.304 37.7147 179.837 35.6133 180.904 34.184C181.97 32.7547 183.858 32.04 186.568 32.04H193.672V34.92ZM195.581 49L201.021 43.144C201.17 42.9733 201.245 42.8453 201.245 42.76C201.245 42.632 201.138 42.568 200.925 42.568H200.285C197.511 42.568 196.125 40.808 196.125 37.288C196.125 33.7893 197.511 32.04 200.285 32.04H208.957C210.877 32.04 211.837 33 211.837 34.92V49H208.093V35.88C208.093 35.24 207.773 34.92 207.133 34.92H201.853C201.191 34.92 200.711 35.112 200.413 35.496C200.135 35.8587 199.997 36.456 199.997 37.288C199.997 38.9733 200.615 39.816 201.853 39.816H204.253C205.341 39.816 205.885 40.296 205.885 41.256C205.885 42.0453 205.629 42.728 205.117 43.304L200.157 49H195.581ZM237.837 49H234.093V41.704H225.997V49H222.253V32.04H225.997V38.824H234.093V32.04H237.837V49ZM241.521 32.04H251.153C252.71 32.04 253.894 32.4987 254.705 33.416C255.515 34.3333 255.921 35.5387 255.921 37.032V46.12C255.921 48.04 254.961 49 253.041 49H244.497C241.681 49 240.273 47.24 240.273 43.72C240.273 42.0773 240.625 40.7867 241.329 39.848C242.033 38.9093 243.089 38.44 244.497 38.44H252.177V37.352C252.177 35.7307 251.387 34.92 249.809 34.92H241.521V32.04ZM252.177 41.32H245.937C244.742 41.32 244.145 42.12 244.145 43.72C244.145 45.32 244.742 46.12 245.937 46.12H251.217C251.857 46.12 252.177 45.8 252.177 45.16V41.32ZM266.347 49V34.92C266.347 33 267.307 32.04 269.227 32.04H279.083C281.003 32.04 281.963 33 281.963 34.92V49H278.219V35.88C278.219 35.24 277.899 34.92 277.259 34.92H271.051C270.411 34.92 270.091 35.24 270.091 35.88V49H266.347ZM287.79 32.04H293.71C296.291 32.04 298.094 32.7547 299.118 34.184C300.142 35.6133 300.654 37.7147 300.654 40.488C300.654 43.2613 300.131 45.3733 299.086 46.824C298.062 48.2747 296.27 49 293.71 49H288.654V54.44H284.91V34.92C284.91 33 285.87 32.04 287.79 32.04ZM288.654 35.752V46.12H292.782C294.424 46.12 295.502 45.6507 296.014 44.712C296.526 43.7733 296.782 42.3653 296.782 40.488C296.782 39.5707 296.739 38.824 296.654 38.248C296.568 37.6507 296.398 37.0747 296.142 36.52C295.886 35.9653 295.48 35.56 294.926 35.304C294.371 35.048 293.656 34.92 292.782 34.92H289.614C288.974 34.92 288.654 35.1973 288.654 35.752ZM319.705 49H315.961L316.089 36.936C316.089 36.6373 316.025 36.488 315.897 36.488C315.79 36.488 315.641 36.6373 315.449 36.936L307.993 47.848C307.673 48.3387 307.332 48.6907 306.969 48.904C306.628 49.096 306.158 49.192 305.561 49.192C303.918 49.192 303.097 48.392 303.097 46.792V32.04H306.841L306.681 44.104C306.681 44.4027 306.766 44.552 306.937 44.552C307.065 44.552 307.214 44.4027 307.385 44.104L314.937 33C315.449 32.232 316.217 31.848 317.241 31.848C317.454 31.848 317.657 31.8693 317.849 31.912C318.062 31.9547 318.329 32.0507 318.649 32.2C318.969 32.328 319.225 32.5947 319.417 33C319.609 33.384 319.705 33.864 319.705 34.44V49ZM337.956 49H328.548C327.225 49 326.126 48.8187 325.252 48.456C324.398 48.0933 323.748 47.528 323.299 46.76C322.852 45.9707 322.542 45.096 322.372 44.136C322.222 43.176 322.148 41.96 322.148 40.488C322.148 37.2027 322.766 34.9413 324.004 33.704C325.262 32.4667 327.374 31.848 330.34 31.848C332.985 31.848 335.001 32.3387 336.388 33.32C337.796 34.28 338.5 36.0293 338.5 38.568C338.5 40.7013 337.625 41.768 335.876 41.768H326.02C326.02 43.24 326.254 44.3387 326.724 45.064C327.214 45.768 328.196 46.12 329.668 46.12H337.956V49ZM326.02 38.888H333.796C334.35 38.888 334.628 38.5573 334.628 37.896C334.628 36.8507 334.212 36.0613 333.38 35.528C332.569 34.9947 331.556 34.728 330.34 34.728C328.761 34.728 327.641 35.0587 326.98 35.72C326.34 36.36 326.02 37.416 326.02 38.888ZM332.036 29.8V26.344H335.492V29.8H332.036ZM328.58 29.8H325.124V26.344H328.58V29.8ZM357.997 36.776L353.677 47.784C353.314 48.7227 352.589 49.192 351.501 49.192C350.413 49.192 349.687 48.7227 349.325 47.784L344.973 36.776C344.887 36.5413 344.802 36.424 344.717 36.424C344.589 36.424 344.525 36.52 344.525 36.712L344.685 49H340.941V34.28C340.941 33.4907 341.218 32.8933 341.773 32.488C342.327 32.0613 343.021 31.848 343.853 31.848C345.282 31.848 346.242 32.456 346.733 33.672L351.021 44.456C351.298 44.904 351.458 45.128 351.501 45.128C351.543 45.128 351.703 44.904 351.981 44.456L356.269 33.672C356.759 32.456 357.719 31.848 359.149 31.848C359.981 31.848 360.674 32.0613 361.229 32.488C361.783 32.8933 362.061 33.4907 362.061 34.28V49H358.317L358.477 36.712C358.477 36.4987 358.413 36.392 358.285 36.392L357.997 36.776Z" fill="#181618"/>
<defs>
<linearGradient id="paint0_linear_675_7" x1="2" y1="41.3208" x2="390" y2="41.3208" gradientUnits="userSpaceOnUse">
<stop stop-color="#7EC4FF"/>
<stop offset="1" stop-color="#084C87"/>
</linearGradient>
</defs>
</svg>
