<svg width="142" height="130" viewBox="0 0 142 130" fill="none" xmlns="http://www.w3.org/2000/svg">
<g clip-path="url(#clip0_222_385)">
<path d="M122.5 8.38715H98.943C101.057 11.0165 102.326 14.2728 102.326 17.8164V22.142C102.326 28.4114 99.5259 34.3808 94.6347 38.6667C90.9516 41.8936 88.255 45.9697 86.8069 50.4798L82.7586 63.1045C82.6421 63.4674 82.4179 63.8133 82.0951 64.0439C78.9164 66.2958 75.4263 64.2264 75.4263 61.3936V38.7945C75.4263 38.1719 75.191 37.5448 74.6955 37.1297C70.8825 33.93 66.4598 36.4 66.4598 39.8388V62.2952C66.4598 62.7272 66.3097 63.1675 65.9936 63.4841C63.3127 66.1638 59.7216 64.9561 58.91 62.4274L54.7161 49.3477C53.5145 45.6028 51.2258 42.2731 48.2265 39.5516C42.6829 34.5214 39.5605 27.6063 39.5605 20.3913V17.8164C39.5605 14.2728 40.8292 11.0165 42.9431 8.38715H19.386V92.2581H122.5V8.38715Z" fill="#CB664E"/>
<path d="M129.225 16.7742H122.5V20.9678H129.225C132.932 20.9678 135.95 23.79 135.95 27.2581V96.4516H5.93586V27.2581C5.93586 23.79 8.95307 20.9678 12.6607 20.9678H19.3856V16.7742H12.6607C6.48058 16.7742 1.45264 21.4772 1.45264 27.2581V106.935C1.45264 112.716 6.48058 117.419 12.6607 117.419H39.5601V125.806H30.5936V130H111.292V125.806H102.325V117.419H129.225C135.405 117.419 140.433 112.716 140.433 106.935V27.2581C140.433 21.4772 135.405 16.7742 129.225 16.7742ZM97.8419 125.806H44.0432V117.419H97.8419V125.806ZM129.225 113.226H12.6607C8.95307 113.226 5.93586 110.404 5.93586 106.935V100.645H135.95V106.935C135.95 110.404 132.932 113.226 129.225 113.226Z" fill="#2D3358"/>
<path d="M88.8756 104.839H53.0098V109.032H88.8756V104.839Z" fill="#2D3358"/>
<path d="M83.3228 12.9161L80.8367 9.42709C74.1254 13.6122 67.757 13.6102 61.0501 9.42919L58.5642 12.9182C62.6685 15.4763 66.8311 16.7742 70.9424 16.7742C75.0535 16.7742 79.2183 15.4763 83.3228 12.9161Z" fill="#00CAC3"/>
<path d="M59.7344 71.2903H37.3184V75.4839H59.7344V71.2903Z" fill="#00CAC3"/>
<path d="M59.7344 79.6773H37.3184V83.8709H59.7344V79.6773Z" fill="#00CAC3"/>
<path d="M100.083 83.8709H113.533V71.2903H100.083V83.8709ZM104.566 75.4839H109.049V79.6775H104.566V75.4839Z" fill="#2D3358"/>
<path d="M82.1506 83.8709H95.6004V71.2903H82.1506V83.8709ZM86.6338 75.4839H91.1171V79.6775H86.6338V75.4839Z" fill="#2D3358"/>
<path d="M64.2183 83.8709H77.6679V71.2903H64.2183V83.8709ZM68.7014 75.4839H73.1847V79.6775H68.7014V75.4839Z" fill="#2D3358"/>
<path d="M52.9311 51.0816L56.762 63.0311C57.5422 65.4634 59.8891 67.0967 62.6037 67.0967C65.9662 67.0967 68.7009 64.5388 68.7009 61.3936V39.8388C68.7009 38.6834 69.7052 37.7419 70.9426 37.7419C72.1799 37.7419 73.1842 38.6834 73.1842 39.8388V61.3936C73.1842 64.5388 75.9189 67.0967 79.2814 67.0967C81.996 67.0967 84.3428 65.4634 85.123 63.0311L88.954 51.0816C90.2002 47.1942 92.4799 43.6234 95.5487 40.755C101.363 35.3159 104.567 28.0842 104.567 20.3911V17.8162C104.567 7.99291 96.0217 0 85.5197 0C81.9981 0 78.4833 0.951936 75.3585 2.75097C73.7199 3.69452 72.1934 4.19355 70.9426 4.19355C69.6917 4.19355 68.1652 3.69452 66.5266 2.75097C63.4017 0.951936 59.8869 0 56.3653 0C45.8634 0 37.3184 7.99291 37.3184 17.8162V20.3933C37.3184 28.0842 40.5216 35.3181 46.3342 40.757C49.4051 43.6255 51.6849 47.1984 52.9311 51.0816ZM41.8015 17.8162C41.8015 10.3056 48.3359 4.19355 56.3653 4.19355C59.0552 4.19355 61.7564 4.92952 64.1751 6.32388C68.934 9.06436 72.9489 9.06436 77.7077 6.32388C80.1287 4.92952 82.8299 4.19355 85.5197 4.19355C93.5492 4.19355 100.084 10.3056 100.084 17.8162V20.3933C100.084 26.9645 97.3465 33.1438 92.379 37.7922C88.7857 41.1512 86.1182 45.3302 84.659 49.8802L80.828 61.8277C80.6218 62.4692 80.0009 62.9033 79.2814 62.9033C78.3913 62.9033 77.6673 62.2259 77.6673 61.3936V39.8388C77.6673 36.3706 74.6502 33.5484 70.9426 33.5484C67.2349 33.5484 64.2177 36.3706 64.2177 39.8388V61.3936C64.2177 62.2259 63.4937 62.9033 62.6037 62.9033C61.8842 62.9033 61.2611 62.4692 61.057 61.8277L57.2261 49.8781C55.7691 45.3302 53.0971 41.1492 49.506 37.7902C44.5385 33.1416 41.8015 26.9623 41.8015 20.3911V17.8162Z" fill="#2D3358"/>
<path d="M32.8359 71.2903H28.3528V75.4839H32.8359V71.2903Z" fill="#79417F"/>
<path d="M32.8359 79.6773H28.3528V83.8709H32.8359V79.6773Z" fill="#79417F"/>
</g>
<defs>
<clipPath id="clip0_222_385">
<rect width="142" height="130" fill="white"/>
</clipPath>
</defs>
</svg>
