<svg width="331" height="331" viewBox="0 0 331 331" fill="none" xmlns="http://www.w3.org/2000/svg">
<g clip-path="url(#clip0_812_18)">
<path d="M288.289 53.3869H266.934C263.982 53.3869 261.596 51.0008 261.596 48.0484V32.0323H154.821V48.0484C154.821 51.0008 152.435 53.3869 149.483 53.3869H128.128C125.175 53.3869 122.789 51.0008 122.789 48.0484V26.6935C122.789 11.9747 134.764 0 149.483 0H266.934C281.653 0 293.628 11.9747 293.628 26.6935V48.0484C293.628 51.0008 291.242 53.3869 288.289 53.3869Z" fill="#FF5A5F"/>
<path d="M256.257 96.0966H160.16C157.207 96.0966 154.821 93.7105 154.821 90.7578V48.0483C154.821 45.096 157.207 42.7096 160.16 42.7096H256.257C259.209 42.7096 261.595 45.096 261.595 48.0483V90.7578C261.595 93.7105 259.209 96.0966 256.257 96.0966Z" fill="#1E96FC"/>
<path d="M149.484 256.258H138.806V266.935H149.484V256.258Z" fill="#494646"/>
<path d="M138.807 266.935H128.13V277.613H138.807V266.935Z" fill="#494646"/>
<path d="M149.484 277.613H138.806V288.29H149.484V277.613Z" fill="#494646"/>
<path d="M160.16 266.935H149.483V277.613H160.16V266.935Z" fill="#494646"/>
<path d="M304.306 42.7097H293.629V26.6935C293.629 11.9747 281.654 0 266.935 0H149.484C134.765 0 122.79 11.9747 122.79 26.6935V42.7097H112.113C97.3943 42.7097 85.4194 54.6846 85.4194 69.4034V121.675C83.4923 122.39 81.6874 122.79 80.0806 122.79C77.1016 122.79 73.4659 121.52 69.5635 119.117C62.1214 114.537 53.7554 112.113 45.363 112.113C20.3511 112.113 0 132.464 0 157.476V164.037C0 183.62 7.62902 202.038 21.4776 215.887C28.7863 223.195 34.2158 232.287 37.1788 242.185L46.308 272.605C48.1659 278.793 53.7554 282.951 60.2206 282.951C68.2288 282.951 74.7417 276.439 74.7417 268.43V213.549C74.7417 210.607 77.1391 208.21 80.0806 208.21C83.0221 208.21 85.4194 210.607 85.4194 213.549V266.935V268.43V304.306C85.4194 319.025 97.3943 331 112.113 331H304.306C319.025 331 331 319.025 331 304.306V69.4034C331 54.6846 319.025 42.7097 304.306 42.7097ZM133.468 26.6935C133.468 17.8633 140.654 10.6774 149.484 10.6774H266.935C275.766 10.6774 282.951 17.8633 282.951 26.6935V42.7097H272.274V21.3549H144.145V42.7097H133.468V26.6935ZM261.597 42.7097H154.823V32.0323H261.597V42.7097ZM80.0806 197.532C71.2502 197.532 64.0646 204.718 64.0646 213.549V268.43C64.0646 270.55 62.34 272.274 60.2206 272.274C58.512 272.274 57.0279 271.174 56.5421 269.53L47.4131 239.11C43.9376 227.53 37.5845 216.885 29.0319 208.332C17.196 196.502 10.6774 180.763 10.6774 164.032V157.471C10.6774 138.353 26.2398 122.79 45.363 122.79C51.7801 122.79 58.2078 124.664 63.9682 128.214C75.2971 135.192 84.8694 135.192 96.1983 128.214C101.953 124.664 108.386 122.79 114.798 122.79C133.922 122.79 149.484 138.353 149.484 157.476V164.037C149.484 180.769 142.965 196.507 131.135 208.338C122.582 216.89 116.229 227.53 112.754 239.115L103.624 269.541C103.133 271.174 101.654 272.274 99.9406 272.274C97.8212 272.274 96.0966 270.55 96.0966 268.43V266.935V213.549C96.0966 204.718 88.911 197.532 80.0806 197.532ZM320.322 304.306C320.322 313.137 313.137 320.322 304.306 320.322H112.113C103.283 320.322 96.0966 313.137 96.0966 304.306V282.37C97.3301 282.711 98.6005 282.951 99.9406 282.951C102.396 282.951 104.724 282.343 106.774 281.259V309.645H253.13L309.645 253.13V64.0646H261.597V74.7417H298.968V245.581H245.581V298.968H117.451V261.597H117.153L122.977 242.175C125.946 232.277 131.375 223.185 138.678 215.882C142.896 211.664 146.457 206.987 149.479 202.022V202.871H288.285V192.194H154.577C156.013 188.745 157.097 185.162 157.988 181.516H288.29V170.839H159.83C160.033 168.586 160.161 166.322 160.161 164.032V160.161H202.871V149.484H159.414C158.747 145.747 157.626 142.17 156.099 138.806H202.871V128.129H149.484V128.3C145.768 123.89 141.23 120.19 136.105 117.451H288.29V106.774H128.129V114.12C124.728 113.074 121.141 112.465 117.451 112.252V74.7417H154.823V64.0646H106.774V112.941C103.133 113.613 99.5405 114.665 96.0966 116.218V69.4034C96.0966 60.573 103.283 53.3869 112.113 53.3869H304.306C313.137 53.3869 320.322 60.573 320.322 69.4034V304.306ZM256.258 291.419V256.258H291.419L256.258 291.419Z" fill="#2A272A"/>
<path d="M32.0328 64.0646H21.3553V74.7422H32.0328V64.0646Z" fill="#494646"/>
<path d="M21.3539 74.7422H10.6765V85.4194H21.3539V74.7422Z" fill="#494646"/>
<path d="M32.0328 85.4194H21.3553V96.0966H32.0328V85.4194Z" fill="#494646"/>
<path d="M42.7093 74.7422H32.0319V85.4194H42.7093V74.7422Z" fill="#494646"/>
<path d="M266.934 213.549H149.483V224.226H266.934V213.549Z" fill="#494646"/>
<path d="M288.291 128.129H213.549V138.806H288.291V128.129Z" fill="#494646"/>
<path d="M288.291 149.484H213.549V160.161H288.291V149.484Z" fill="#494646"/>
<path d="M103.645 136.115C87.6605 146.772 72.4988 146.766 56.5198 136.121L50.5992 145.004C60.3745 151.518 70.2937 154.822 80.0797 154.822C89.8709 154.822 99.7902 151.518 109.565 144.999L103.645 136.115Z" fill="black"/>
<path d="M288.29 213.549H277.613V224.226H288.29V213.549Z" fill="black"/>
</g>
<defs>
<clipPath id="clip0_812_18">
<rect width="331" height="331" fill="white"/>
</clipPath>
</defs>
</svg>
