<svg width="81" height="88" viewBox="0 0 81 88" fill="none" xmlns="http://www.w3.org/2000/svg">
<path d="M40.463 11.1273C40.463 37.2003 40.463 76.3739 40.463 76.3739" stroke="#B1F3FF" stroke-width="1.01158"/>
<line x1="11.3802" y1="26.8745" x2="69.1995" y2="60.2565" stroke="#B1F3FF" stroke-width="1.01158"/>
<line x1="69.1995" y1="26.739" x2="11.3803" y2="60.121" stroke="#B1F3FF" stroke-width="1.01158"/>
<path d="M50.3889 22.0414C50.7297 21.4512 51.5989 20.5028 52.5518 19.7928C53.025 19.4402 53.4897 19.1687 53.891 19.0273C54.3067 18.8809 54.5533 18.9074 54.6852 18.9836C54.8171 19.0597 54.9634 19.26 55.0444 19.6933C55.1226 20.1115 55.1198 20.6497 55.0511 21.2357C54.9127 22.416 54.5259 23.6429 54.1852 24.2331C53.5461 25.34 52.1791 25.7131 51.1447 25.1159C50.1102 24.5187 49.7499 23.1483 50.3889 22.0414Z" stroke="#B1F3FF" stroke-width="1.01158"/>
<path d="M17.441 45.3523C16.7595 45.3523 15.5035 45.0738 14.4121 44.6035C13.8703 44.37 13.4028 44.1033 13.0797 43.8265C12.745 43.5397 12.6447 43.3129 12.6447 43.1605C12.6447 43.0082 12.745 42.7814 13.0797 42.4946C13.4028 42.2178 13.8703 41.9511 14.4121 41.7176C15.5035 41.2473 16.7595 40.9688 17.441 40.9688C18.7191 40.9688 19.7257 41.9661 19.7257 43.1605C19.7257 44.355 18.7191 45.3523 17.441 45.3523Z" stroke="#B1F3FF" stroke-width="1.01158"/>
<path d="M27.3669 25.2447C27.0261 24.6545 26.6394 23.4276 26.501 22.2473C26.4322 21.6612 26.4295 21.1231 26.5077 20.7048C26.5887 20.2716 26.7349 20.0713 26.8669 19.9951C26.9988 19.919 27.2454 19.8924 27.6611 20.0389C28.0624 20.1803 28.5271 20.4518 29.0002 20.8043C29.9532 21.5143 30.8223 22.4627 31.1631 23.0529C31.8022 24.1598 31.4418 25.5303 30.4074 26.1275C29.373 26.7247 28.006 26.3516 27.3669 25.2447Z" stroke="#B1F3FF" stroke-width="1.01158"/>
<path d="M30.1515 65.5558C29.8107 66.146 28.9416 67.0944 27.9886 67.8045C27.5154 68.157 27.0508 68.4285 26.6495 68.5699C26.2338 68.7163 25.9872 68.6898 25.8553 68.6136C25.7233 68.5375 25.5771 68.3372 25.4961 67.9039C25.4179 67.4857 25.4206 66.9476 25.4894 66.3615C25.6278 65.1812 26.0145 63.9543 26.3553 63.3641C26.9943 62.2572 28.3614 61.8841 29.3958 62.4813C30.4302 63.0785 30.7906 64.4489 30.1515 65.5558Z" stroke="#B1F3FF" stroke-width="1.01158"/>
<path d="M64.4966 40.9688C65.1781 40.9688 66.4341 41.2473 67.5254 41.7176C68.0673 41.9511 68.5348 42.2178 68.8579 42.4946C69.1926 42.7814 69.2929 43.0082 69.2929 43.1605C69.2929 43.3128 69.1926 43.5397 68.8579 43.8264C68.5348 44.1033 68.0673 44.37 67.5254 44.6035C66.4341 45.0738 65.1781 45.3523 64.4966 45.3523C63.2185 45.3523 62.2119 44.355 62.2119 43.1605C62.2119 41.9661 63.2185 40.9688 64.4966 40.9688Z" stroke="#B1F3FF" stroke-width="1.01158"/>
<path d="M54.9977 63.0254C55.4796 63.5073 56.1707 64.5923 56.6099 65.6966C56.8279 66.2448 56.9699 66.7639 57.0026 67.1882C57.0365 67.6276 56.947 67.8589 56.8393 67.9666C56.7316 68.0743 56.5003 68.1638 56.0609 68.1299C55.6366 68.0972 55.1175 67.9552 54.5692 67.7372C53.465 67.298 52.38 66.6069 51.8981 66.125C50.9943 65.2212 50.9877 63.8042 51.8323 62.9596C52.6769 62.115 54.0939 62.1216 54.9977 63.0254Z" stroke="#B1F3FF" stroke-width="1.01158"/>
<path d="M33.7503 10.681C33.2169 9.75711 32.6295 7.88073 32.4192 6.08784C32.3146 5.19551 32.3081 4.36028 32.4319 3.69826C32.5584 3.02125 32.7996 2.63045 33.0928 2.46118C33.386 2.29191 33.845 2.27846 34.4946 2.50734C35.1298 2.73116 35.8499 3.15439 36.5704 3.69118C38.0179 4.7697 39.3492 6.2166 39.8826 7.14046C40.907 8.91472 40.336 11.1281 38.6565 12.0977C36.9769 13.0674 34.7746 12.4552 33.7503 10.681Z" stroke="#B1F3FF" stroke-width="1.01158"/>
<path d="M47.1031 76.7113C47.6365 77.6352 48.2239 79.5116 48.4342 81.3045C48.5388 82.1968 48.5453 83.032 48.4215 83.694C48.295 84.3711 48.0538 84.7619 47.7606 84.9311C47.4674 85.1004 47.0084 85.1138 46.3588 84.885C45.7236 84.6611 45.0035 84.2379 44.283 83.7011C42.8355 82.6226 41.5042 81.1757 40.9708 80.2518C39.9464 78.4776 40.5174 76.2642 42.1969 75.2946C43.8765 74.3249 46.0788 74.9371 47.1031 76.7113Z" stroke="#B1F3FF" stroke-width="1.01158"/>
<path d="M66.2602 21.3025C66.7936 20.3786 68.1249 18.9317 69.5725 17.8532C70.2929 17.3164 71.013 16.8932 71.6482 16.6694C72.2978 16.4405 72.7568 16.454 73.05 16.6232C73.3432 16.7925 73.5844 17.1833 73.711 17.8603C73.8347 18.5223 73.8283 19.3576 73.7236 20.2499C73.5134 22.0428 72.926 23.9192 72.3926 24.843C71.3682 26.6173 69.1659 27.2294 67.4864 26.2598C65.8068 25.2901 65.2358 23.0768 66.2602 21.3025Z" stroke="#B1F3FF" stroke-width="1.01158"/>
<path d="M9.64572 33.0413C8.61528 33.3174 6.65081 33.3991 4.8646 33.1382C3.97559 33.0083 3.16714 32.7984 2.55971 32.5075C1.93854 32.21 1.62347 31.8759 1.53585 31.5489C1.44822 31.2219 1.55404 30.775 1.94325 30.2068C2.32384 29.6512 2.91902 29.0652 3.62399 28.5082C5.04042 27.3891 6.78258 26.4776 7.81302 26.2015C9.79194 25.6713 11.7821 26.7957 12.284 28.6689C12.786 30.5422 11.6246 32.511 9.64572 33.0413Z" stroke="#B1F3FF" stroke-width="1.01158"/>
<path d="M72.9366 54.1193C74.0034 54.1193 75.9221 54.5488 77.5799 55.2631C78.405 55.6187 79.1316 56.0307 79.643 56.4689C80.166 56.917 80.3839 57.3212 80.3839 57.6598C80.3839 57.9983 80.166 58.4026 79.643 58.8507C79.1316 59.2889 78.405 59.7009 77.5799 60.0565C75.9221 60.7708 74.0034 61.2003 72.9366 61.2003C70.8879 61.2003 69.2566 59.5991 69.2566 57.6598C69.2566 55.7204 70.8879 54.1193 72.9366 54.1193Z" stroke="#B1F3FF" stroke-width="1.01158"/>
<path d="M13.1017 67.0352C12.3473 67.7895 10.6869 68.8426 9.00954 69.5097C8.1747 69.8417 7.36961 70.0642 6.6981 70.1159C6.01141 70.1689 5.57151 70.0371 5.33212 69.7977C5.09273 69.5583 4.96094 69.1184 5.01389 68.4317C5.06568 67.7602 5.28811 66.9551 5.62014 66.1203C6.28726 64.4429 7.34029 62.7825 8.09463 62.0282C9.5433 60.5795 11.829 60.5582 13.2003 61.9295C14.5717 63.3008 14.5503 65.5865 13.1017 67.0352Z" stroke="#B1F3FF" stroke-width="1.01158"/>
<path d="M40.9708 7.14046C41.5042 6.21659 42.8355 4.7697 44.2831 3.69117C45.0035 3.15438 45.7236 2.73115 46.3588 2.50734C47.0084 2.27845 47.4674 2.2919 47.7606 2.46118C48.0538 2.63045 48.295 3.02125 48.4216 3.69825C48.5453 4.36028 48.5389 5.19551 48.4342 6.08784C48.224 7.88072 47.6366 9.7571 47.1032 10.681C46.0788 12.4552 43.8765 13.0674 42.197 12.0977C40.5174 11.1281 39.9464 8.91471 40.9708 7.14046Z" stroke="#B1F3FF" stroke-width="1.01158"/>
<path d="M39.8826 80.2518C39.3492 81.1757 38.0179 82.6226 36.5703 83.7011C35.8499 84.2379 35.1298 84.6612 34.4946 84.885C33.845 85.1138 33.3859 85.1004 33.0928 84.9311C32.7996 84.7619 32.5584 84.3711 32.4318 83.6941C32.3081 83.032 32.3145 82.1968 32.4192 81.3045C32.6294 79.5116 33.2168 77.6352 33.7502 76.7113C34.7746 74.9371 36.9769 74.3249 38.6564 75.2946C40.3359 76.2643 40.9069 78.4776 39.8826 80.2518Z" stroke="#B1F3FF" stroke-width="1.01158"/>
<path d="M72.9366 25.7854C74.0034 25.7854 75.9221 26.2149 77.5799 26.9293C78.405 27.2848 79.1316 27.6968 79.643 28.135C80.166 28.5831 80.3839 28.9874 80.3839 29.3259C80.3839 29.6645 80.166 30.0687 79.643 30.5168C79.1316 30.955 78.405 31.367 77.5799 31.7226C75.9221 32.4369 74.0034 32.8664 72.9366 32.8664C70.8879 32.8664 69.2566 31.2653 69.2566 29.3259C69.2566 27.3866 70.8879 25.7854 72.9366 25.7854Z" stroke="#B1F3FF" stroke-width="1.01158"/>
<path d="M8.09464 25.1504C7.34031 24.3961 6.28728 22.7357 5.62016 21.0583C5.28813 20.2234 5.0657 19.4183 5.01391 18.7468C4.96096 18.0601 5.09275 17.6202 5.33214 17.3809C5.57153 17.1415 6.01143 17.0097 6.69812 17.0626C7.36962 17.1144 8.17472 17.3368 9.00956 17.6689C10.6869 18.336 12.3474 19.389 13.1017 20.1434C14.5504 21.592 14.5717 23.8777 13.2003 25.2491C11.829 26.6204 9.54332 26.5991 8.09464 25.1504Z" stroke="#B1F3FF" stroke-width="1.01158"/>
<path d="M72.3925 62.1427C72.9259 63.0666 73.5133 64.943 73.7236 66.7359C73.8282 67.6282 73.8347 68.4634 73.7109 69.1254C73.5844 69.8024 73.3432 70.1932 73.05 70.3625C72.7568 70.5318 72.2978 70.5452 71.6482 70.3164C71.013 70.0925 70.2929 69.6693 69.5724 69.1325C68.1249 68.054 66.7936 66.6071 66.2602 65.6832C65.2358 63.909 65.8068 61.6956 67.4863 60.726C69.1659 59.7563 71.3682 60.3685 72.3925 62.1427Z" stroke="#B1F3FF" stroke-width="1.01158"/>
<path d="M7.81301 60.977C6.78257 60.7009 5.04041 59.7895 3.62398 58.6704C2.91902 58.1134 2.32383 57.5274 1.94324 56.9718C1.55403 56.4035 1.44822 55.9567 1.53584 55.6297C1.62346 55.3027 1.93853 54.9686 2.5597 54.6711C3.16713 54.3802 3.97558 54.1703 4.86459 54.0404C6.6508 53.7794 8.61528 53.8612 9.64572 54.1373C11.6246 54.6675 12.786 56.6364 12.284 58.5096C11.7821 60.3829 9.79193 61.5073 7.81301 60.977Z" stroke="#B1F3FF" stroke-width="1.01158"/>
<path d="M40.395 76.2487C40.395 76.2965 40.4049 76.3416 40.4049 76.3875" stroke="#B1F3FF" stroke-width="1.01158" stroke-linecap="round"/>
<path d="M40.463 17.0329L48.9337 28.4249L49.0641 28.6002L49.2812 28.6255L63.3823 30.2653L57.7519 43.2971L57.6652 43.4977L57.7519 43.6983L63.3823 56.7302L49.2812 58.37L49.0641 58.3953L48.9337 58.5706L40.463 69.9626L31.9923 58.5706L31.8619 58.3953L31.6449 58.37L17.5438 56.7302L23.1742 43.6983L23.2608 43.4977L23.1742 43.2971L17.5438 30.2653L31.6449 28.6255L31.8619 28.6002L31.9923 28.4249L40.463 17.0329Z" stroke="#B1F3FF" stroke-width="1.01158"/>
<path d="M40.9688 10.0134L51.3673 25.5462L51.5057 25.753L51.7541 25.7695L70.4051 27.0085L62.1526 43.7802L62.0427 44.0035L62.1526 44.2268L70.4051 60.9986L51.7541 62.2376L51.5057 62.2541L51.3673 62.4609L40.9688 77.9937L30.5703 62.4609L30.4319 62.2541L30.1835 62.2376L11.5325 60.9986L19.785 44.2268L19.8949 44.0035L19.785 43.7802L11.5325 27.0085L30.1835 25.7695L30.4319 25.753L30.5703 25.5462L40.9688 10.0134Z" stroke="#B1F3FF" stroke-width="1.01158"/>
<path d="M43.1589 38.1018L43.2861 38.6081L43.7881 38.465L54.4334 35.4319L46.484 43.1345L46.1091 43.4977L46.484 43.861L54.4334 51.5635L43.7881 48.5304L43.2861 48.3874L43.1589 48.8936L40.463 59.6294L37.7671 48.8936L37.64 48.3874L37.138 48.5304L26.4926 51.5635L34.4421 43.861L34.8169 43.4977L34.4421 43.1345L26.4926 35.4319L37.138 38.465L37.64 38.6081L37.7671 38.1018L40.463 27.3661L43.1589 38.1018Z" stroke="#B1F3FF" stroke-width="1.01158"/>
</svg>
