<svg width="70" height="46" viewBox="0 0 70 46" fill="none" xmlns="http://www.w3.org/2000/svg">
<path d="M68.1473 45.0346H1.88659C1.23316 45.0346 0.703308 44.5048 0.703308 43.8513V1.25505C0.703308 0.601622 1.23316 0.0717773 1.88659 0.0717773H68.1474C68.8009 0.0717773 69.3308 0.601622 69.3308 1.25505V43.8513C69.3307 44.5049 68.8007 45.0346 68.1473 45.0346Z" fill="#FF4B55"/>
<path d="M48.0322 17.8203H39.7497V9.53777C39.7497 8.8843 39.2197 8.35449 38.5664 8.35449H31.4669C30.8134 8.35449 30.2836 8.8843 30.2836 9.53777V17.8203H22.001C21.3476 17.8203 20.8177 18.3502 20.8177 19.0036V26.1031C20.8177 26.7565 21.3476 27.2863 22.001 27.2863H30.2836V35.569C30.2836 36.2223 30.8134 36.7523 31.4669 36.7523H38.5664C39.2197 36.7523 39.7497 36.2223 39.7497 35.569V27.2861H48.0322C48.6856 27.2861 49.2155 26.7563 49.2155 26.1028V19.0034C49.2155 18.3501 48.6856 17.8203 48.0322 17.8203Z" fill="#F5F5F5"/>
</svg>
