<svg width="67" height="44" viewBox="0 0 67 44" fill="none" xmlns="http://www.w3.org/2000/svg">
<mask id="mask0_715_77" style="mask-type:luminance" maskUnits="userSpaceOnUse" x="0" y="0" width="67" height="44">
<path d="M66.889 0H0V44H66.889V0Z" fill="white"/>
</mask>
<g mask="url(#mask0_715_77)">
<path d="M66.4825 44.8193H1.16833C0.524236 44.8193 0.00195312 44.2895 0.00195312 43.636V1.03976C0.00195312 0.386291 0.524236 -0.143555 1.16833 -0.143555H66.4826C67.1268 -0.143555 67.649 0.386291 67.649 1.03976V43.636C67.6489 44.2896 67.1266 44.8193 66.4825 44.8193Z" fill="#F5F5F5"/>
<path d="M40.3001 12.4907C34.9409 8.86619 27.7022 10.348 24.1318 15.7755C22.3408 18.4845 23.0688 22.1656 25.7483 23.978C28.4258 25.7903 32.0426 25.0542 33.829 22.3357C35.6154 19.6172 39.2347 18.8903 41.912 20.6932C44.594 22.5055 45.3152 26.1865 43.5262 28.8957C47.0991 23.459 45.6548 16.1154 40.3001 12.4907Z" fill="#FF4B55"/>
<path d="M24.1321 15.7754C22.3412 18.4844 23.069 22.1654 25.7485 23.9779C28.426 25.7902 32.0428 25.0541 33.8294 22.3356C35.6158 19.6172 39.2351 18.8903 41.9124 20.6931C44.5942 22.5054 45.3155 26.1864 43.5265 28.8956C39.9583 34.3417 32.7221 35.805 27.3629 32.1804C22.0085 28.556 20.5593 21.2123 24.1321 15.7754Z" fill="#41479B"/>
<path d="M46.2361 8.0218L48.3547 11.2524C48.5326 11.5239 48.4606 11.8902 48.1937 12.0716L47.6565 12.4366C47.3884 12.6186 47.0256 12.5454 46.8467 12.2731L44.7254 9.04325C44.547 8.77162 44.6194 8.40446 44.887 8.22315L45.4268 7.8575C45.6951 7.67578 46.0576 7.74948 46.2361 8.0218Z" fill="#464655"/>
<path d="M49.5058 13.0024L51.6313 16.2309C51.8107 16.5036 51.7374 16.8724 51.4679 17.0532L50.9283 17.4149C50.6606 17.5945 50.3001 17.5207 50.122 17.25L47.9976 14.0248C47.8187 13.7533 47.8906 13.3859 48.1584 13.2043L48.6966 12.8391C48.9645 12.6575 49.3268 12.7305 49.5058 13.0024Z" fill="#464655"/>
<path d="M48.5049 6.48532L53.8994 14.6981C54.0779 14.97 54.0054 15.3373 53.7374 15.5185L53.1954 15.885C52.9275 16.0663 52.5654 15.9927 52.3868 15.7208L46.9904 7.50856C46.8117 7.23652 46.8844 6.86895 47.1526 6.68791L47.6963 6.32075C47.9643 6.13999 48.3262 6.21342 48.5049 6.48532Z" fill="#464655"/>
<path d="M50.7674 4.9526L52.8907 8.18948C53.0696 8.46207 52.9961 8.83018 52.7267 9.01068L52.1868 9.37262C51.9189 9.55215 51.5583 9.4783 51.3802 9.20722L49.2554 5.9746C49.0766 5.7027 49.1492 5.3354 49.4172 5.15409L49.9588 4.78789C50.2265 4.60658 50.5888 4.68015 50.7674 4.9526Z" fill="#464655"/>
<path d="M54.0383 9.94361L56.1582 13.1738C56.3366 13.4453 56.2643 13.812 55.9971 13.9935L55.4586 14.3586C55.1906 14.5404 54.8277 14.467 54.6492 14.1945L52.5292 10.9644C52.3509 10.6929 52.4232 10.3261 52.6904 10.1448L53.2288 9.77959C53.4967 9.59773 53.8596 9.67102 54.0383 9.94361Z" fill="#464655"/>
<path d="M17.5393 27.4294L22.9331 35.6334C23.1118 35.9052 23.0396 36.2725 22.7717 36.4538L22.2316 36.8197C21.9636 37.0012 21.6015 36.9279 21.4225 36.656L16.0288 28.4518C15.8502 28.1802 15.9223 27.8129 16.1903 27.6316L16.7304 27.2657C16.9983 27.0841 17.3606 27.1577 17.5393 27.4294Z" fill="#464655"/>
<path d="M15.2756 28.9637L17.3934 32.1861C17.5718 32.4576 17.4998 32.8242 17.2325 33.0058L16.6953 33.3706C16.4275 33.5526 16.0649 33.4795 15.8859 33.2076L13.7657 29.9859C13.5869 29.7143 13.659 29.3469 13.927 29.1654L14.4668 28.7998C14.7346 28.6183 15.0969 28.6918 15.2756 28.9637Z" fill="#464655"/>
<path d="M18.5477 33.9465L20.6677 37.1771C20.8461 37.4486 20.7738 37.8154 20.5063 37.9966L19.9675 38.362C19.6994 38.5439 19.337 38.4704 19.1581 38.1984L17.0367 34.9685C16.8583 34.6967 16.9307 34.3297 17.1983 34.1483L17.7384 33.7823C18.0065 33.6006 18.369 33.6742 18.5477 33.9465Z" fill="#464655"/>
<path d="M13.0108 30.4979L18.4012 38.7023C18.5796 38.974 18.5074 39.3408 18.24 39.5224L17.7014 39.8878C17.4334 40.0695 17.0711 39.9964 16.8921 39.7242L11.4986 31.5209C11.3199 31.249 11.3924 30.8817 11.6603 30.7002L12.2023 30.3338C12.47 30.1526 12.8321 30.226 13.0108 30.4979Z" fill="#464655"/>
<path d="M16.0303 16.2312L21.4232 8.02044C21.6021 7.7484 21.9643 7.67497 22.2324 7.85642L22.7724 8.2222C23.0401 8.40352 23.1124 8.77081 22.9338 9.04257L17.5387 17.2486C17.3604 17.5198 16.9995 17.5936 16.7318 17.4138L16.1939 17.0525C15.9246 16.8717 15.8514 16.5036 16.0303 16.2312Z" fill="#464655"/>
<path d="M13.7647 14.6995L19.1586 6.48717C19.3374 6.21513 19.7 6.1417 19.968 6.32342L20.5067 6.68879C20.7741 6.87011 20.8463 7.23685 20.6678 7.50862L15.2754 15.7214C15.0967 15.9934 14.7344 16.067 14.4662 15.8854L13.9261 15.5196C13.6585 15.3383 13.5863 14.9713 13.7647 14.6995Z" fill="#464655"/>
<path d="M11.4976 13.1728L16.8921 4.9523C17.0708 4.68012 17.4335 4.60641 17.7016 4.78828L18.2403 5.15365C18.5076 5.33496 18.5797 5.70143 18.4017 5.97306L13.0105 14.1949C12.832 14.4671 12.4696 14.5408 12.2016 14.3595L11.6596 13.993C11.3918 13.8118 11.3194 13.4447 11.4976 13.1728Z" fill="#464655"/>
<path d="M44.7265 35.6332L46.8466 32.4117C47.0257 32.1396 47.3882 32.0666 47.6561 32.2485L48.1933 32.6134C48.4605 32.795 48.5324 33.1617 48.354 33.4332L46.2364 36.6556C46.0576 36.9275 45.6954 37.0009 45.4274 36.8195L44.8875 36.4538C44.6197 36.2724 44.5475 35.9051 44.7265 35.6332Z" fill="#464655"/>
<path d="M47.997 30.6674L50.1206 27.4298C50.2992 27.1578 50.6615 27.0841 50.9295 27.2654L51.4707 27.6313C51.7388 27.8126 51.8112 28.1803 51.6323 28.4521L49.5042 31.6846C49.3257 31.9558 48.9649 32.0293 48.697 31.849L48.1604 31.4882C47.8915 31.3074 47.8183 30.9396 47.997 30.6674Z" fill="#464655"/>
<path d="M46.9904 37.1754L49.1118 33.9452C49.2906 33.6733 49.6526 33.5998 49.9208 33.7811L50.463 34.148C50.7308 34.3291 50.8032 34.6962 50.6248 34.9682L48.5046 38.1985C48.3262 38.4704 47.9643 38.5441 47.696 38.3631L47.1524 37.9959C46.8844 37.8149 46.8117 37.4473 46.9904 37.1754Z" fill="#464655"/>
<path d="M50.2645 32.1848L52.3873 28.9622C52.5662 28.6907 52.9279 28.6175 53.1957 28.7987L53.7377 29.1652C54.0057 29.3465 54.0782 29.7142 53.8989 29.986L51.7764 33.2084C51.5977 33.4799 51.2358 33.5531 50.9681 33.372L50.4259 33.0056C50.1577 32.8245 50.0854 32.4567 50.2645 32.1848Z" fill="#464655"/>
<path d="M49.2558 38.7012L51.3796 35.4768C51.5581 35.2062 51.9183 35.1325 52.186 35.312L52.7259 35.6738C52.9953 35.8546 53.0687 36.223 52.8896 36.4957L50.7673 39.7243C50.5887 39.9961 50.2265 40.0695 49.9586 39.8883L49.417 39.5221C49.1489 39.3407 49.0766 38.973 49.2558 38.7012Z" fill="#464655"/>
<path d="M52.5299 33.7275L54.6485 30.4991C54.8272 30.2269 55.1899 30.1533 55.4581 30.3352L55.996 30.7C56.2636 30.8815 56.3356 31.2486 56.157 31.5203L54.0365 34.7442C53.8582 35.0154 53.497 35.0892 53.2292 34.9089L52.6928 34.5484C52.4242 34.3677 52.3512 33.9998 52.5299 33.7275Z" fill="#464655"/>
<mask id="mask1_715_77" style="mask-type:luminance" maskUnits="userSpaceOnUse" x="-1" y="-12" width="68" height="68">
<path d="M66.679 -11.7637H-0.00164795V55.8834H66.679V-11.7637Z" fill="white"/>
</mask>
<g mask="url(#mask1_715_77)">
<path d="M65.5311 44.2199H1.15002C0.515126 44.2199 0.000305176 43.6976 0.000305176 43.0535V1.06578C0.000305176 0.421689 0.515126 -0.100586 1.15002 -0.100586H65.5313C66.1662 -0.100586 66.681 0.421689 66.681 1.06578V43.0535C66.6808 43.6978 66.1661 44.2199 65.5311 44.2199Z" fill="#4173CD"/>
<path d="M66.6808 18.5605H27.5922V-0.100586H20.6944V18.5605H0.000305176V25.5586H20.6944V44.2197H27.5922V25.5586H66.6808V18.5605Z" fill="#FFE15A"/>
</g>
</g>
</svg>
