<svg width="400" height="400" viewBox="0 0 400 400" fill="none" xmlns="http://www.w3.org/2000/svg">
<circle cx="200" cy="200" r="200" fill="#CB664E"/>
<path d="M168.712 194.963C172.854 193.316 177.044 192.356 181.492 192.067C191.771 191.397 202.037 193.383 212.306 193.556C219.716 193.682 227.109 192.277 234.504 192.727C237.662 192.92 240.946 193.394 243.864 194.673C252.445 198.438 257.08 206.821 261.305 214.622C262.381 218.352 263.92 221.804 264.715 225.64C265.119 224.996 265.379 224.546 266.062 224.182L266.431 224.345L266.601 224.942C268.659 227.583 271.11 229.962 273.401 232.405C273.78 232.83 274.205 233.254 274.535 233.715L274.453 233.972C274.531 234.703 274.495 234.837 274.992 235.416C272.495 237.445 271.625 239.33 270.484 242.305L268.003 241.33C268.018 245.284 267.795 249.388 267.322 253.316C267.104 255.124 265.78 260.945 266.226 262.316L266.691 262.525C268.897 262.329 271.492 262.139 273.688 262.393C274.554 262.848 275.163 262.792 276.118 262.736C276.214 262.73 276.311 262.728 276.407 262.723L276.581 262.713L275.605 263.347C276.206 263.606 276.955 263.579 277.606 263.62C274.002 264.264 270.325 264.167 266.677 264.184L265.25 264.206C265.204 268.099 262.749 275.195 261.609 279.181C257.089 294.987 242.024 342.948 231.896 352.696C230.462 354.077 228.54 355.023 226.515 354.951C225.442 354.913 224.091 354.621 223.164 354.061C222.568 353.926 221.833 353.401 221.35 353.016C216.215 348.918 215.805 339.227 214.955 333.232L213.167 320.421C205.302 325.188 196.812 328.403 187.979 330.881C184.557 333.798 186.233 356.042 175.891 355.356C172.711 355.145 169.802 352.674 167.872 350.324C164.36 346.048 162.462 336.08 161.5 335.028C157.85 335.327 154.098 335.188 150.436 335.182C133.763 335.157 112.039 333.817 97.7226 324.596C90.9883 320.258 85.6038 314.295 79.4674 309.219C68.9772 300.54 55.4249 293.301 41.3691 295.979C37.826 296.654 32.2586 299.546 29.8328 299.772C29.5985 299.311 29.5715 299.199 29.7218 298.67C30.9562 294.331 41.1884 281.397 44.4893 277.726C45.5908 276.513 46.7193 275.325 47.8746 274.163C49.0299 273 50.211 271.865 51.4177 270.756C52.6244 269.647 53.8557 268.566 55.1114 267.512C56.3671 266.458 57.6461 265.433 58.9482 264.438C60.2503 263.442 61.5743 262.476 62.9202 261.539C64.2661 260.603 65.6325 259.697 67.0194 258.823C68.4063 257.949 69.8123 257.106 71.2374 256.294C72.6625 255.483 74.1052 254.704 75.5655 253.958C77.0258 253.211 78.5023 252.498 79.995 251.819C81.4877 251.139 82.9949 250.493 84.5168 249.881C86.0387 249.27 87.5736 248.692 89.1217 248.15C90.6697 247.607 92.2292 247.1 93.8003 246.627C95.3713 246.155 96.9522 245.718 98.543 245.317C100.134 244.916 101.732 244.551 103.34 244.221C104.947 243.892 106.561 243.6 108.182 243.344C109.802 243.087 111.428 242.867 113.059 242.684C121.981 241.661 132.286 241.702 140.418 237.443C141.721 236.761 142.873 236.186 143.301 234.694C143.323 234.619 143.342 234.541 143.362 234.464C143.417 231.948 143.946 229.284 144.501 226.832C147.13 215.223 153.918 201.935 164.23 195.457L164.46 195.861C165.136 196.1 165.943 195.42 166.607 195.136C167.493 194.756 167.81 194.599 168.712 194.963Z" fill="#752346"/>
<path d="M168.712 194.963C172.854 193.316 177.044 192.356 181.492 192.067C191.771 191.397 202.037 193.383 212.306 193.556C219.716 193.682 227.109 192.277 234.504 192.727C237.662 192.92 240.946 193.394 243.864 194.673C252.445 198.438 257.08 206.821 261.305 214.622C262.381 218.352 263.92 221.804 264.715 225.64C267.641 240.473 266.011 253.062 262.915 267.643C262.255 269.906 261.71 272.199 261.059 274.463C259.262 274.4 257.464 274.371 255.665 274.374L254.06 274.357C248.879 274.124 243.653 274.276 238.465 274.252L214.081 274.01C192.632 273.795 171.196 273.252 149.74 273.251C149.257 271.808 148.49 269.602 148.635 268.104C148.374 267.637 148.01 267.24 147.672 266.826L147.359 267.011C145.339 268.189 142.404 268.582 140.676 269.971C140.356 272.272 144.175 278.147 145.609 280.02C146.831 281.618 148.158 282.926 149.723 284.185C152.544 286.452 157.973 289.134 157.492 293.4C157.412 294.104 157.08 294.675 156.652 295.227C156.11 294.809 155.795 294.49 155.603 293.815C155.398 293.101 155.125 292.471 154.823 291.794L154.324 291.613C153.71 291.708 153.669 291.685 153.246 292.129C152.404 294.632 153.591 297.829 154.306 300.26L153.828 300.287L154.329 300.38L154.297 300.775L153.844 301.039C153.278 300.928 152.737 300.803 152.234 300.509C147.226 297.573 149.6 293.023 148.602 288.71L148.192 288.529C147.348 288.977 146.967 289.906 146.508 290.709C144.023 290.089 141.495 289.537 139.055 288.755C131.722 286.406 122.048 282.135 118.457 274.964C116.84 271.736 116.728 268.233 117.903 264.843C121.54 254.344 135.319 244.775 144.933 240.032L145.291 239.477C145.091 238.873 145.11 238.597 145.232 237.971L144.853 237.705C144.067 234.518 145.69 226.774 146.654 223.439C146.998 222.251 148.867 218.292 148.706 217.466L148.58 217.491C145.43 220.732 144.84 230.96 143.897 235.562L143.362 234.464C143.417 231.948 143.946 229.284 144.501 226.832C147.13 215.223 153.918 201.935 164.23 195.457L164.46 195.861C165.136 196.1 165.943 195.42 166.607 195.136C167.493 194.756 167.81 194.599 168.712 194.963Z" fill="#FEFEFE"/>
<path d="M254.06 274.357C256.154 264.466 257.89 254.65 259.006 244.597C259.542 239.775 260.211 234.888 259.616 230.042C259.38 228.113 256.803 225.019 257.37 223.249C258.66 223.785 259.954 226.012 260.472 227.281C263.502 234.691 258.163 265.9 255.665 274.374L254.06 274.357Z" fill="#F8C457"/>
<path d="M164.23 195.457L164.46 195.861C165.136 196.1 165.943 195.42 166.607 195.136C167.493 194.756 167.81 194.598 168.712 194.963C158.003 200.344 151.482 210.656 147.793 221.744C146.02 227.071 145.514 232.173 144.853 237.705C144.067 234.518 145.69 226.774 146.654 223.439C146.998 222.251 148.867 218.292 148.706 217.466L148.58 217.491C145.43 220.732 144.84 230.96 143.897 235.562L143.362 234.464C143.417 231.948 143.946 229.284 144.501 226.832C147.13 215.223 153.918 201.935 164.23 195.457Z" fill="#752346"/>
<path d="M147.672 266.826C149.472 265.478 151.081 264.031 152.479 262.262C153.454 261.028 154.224 258.767 155.449 257.939L155.798 258.046C156.133 259.438 155.323 261.042 154.608 262.218C153.378 264.243 150.94 267.284 148.635 268.104C148.374 267.637 148.01 267.24 147.672 266.826Z" fill="#752346"/>
<path d="M145.232 237.971C147.118 237.164 148.567 236.554 150.639 236.549L150.927 236.76C149.764 238.424 146.77 239.286 144.933 240.032L145.291 239.477C145.091 238.873 145.11 238.596 145.232 237.971Z" fill="#752346"/>
<path d="M175.478 194.536C175.646 194.585 175.855 194.634 175.999 194.734C176.472 195.061 176.518 195.256 176.567 195.775C175.53 196.476 174.338 196.71 173.285 197.329C172.692 197.677 172.573 198.014 172.382 198.643C172.574 199.927 173.288 200.98 174.204 201.881C175.416 203.072 177.197 203.432 178.839 203.542C187.01 204.089 197.867 200.035 207.004 199.89C216.09 199.747 224.874 202.834 233.989 202.494C236.356 202.417 238.673 202.039 240.941 201.358C242.21 200.976 243.603 200.104 244.92 200.08C245.301 200.571 245.237 200.597 245.192 201.228L245.015 201.312C231.768 207.532 218.868 200.833 205.244 201.439C197.607 201.78 182.372 206.932 175.994 204.575C174.086 203.869 172.237 202.433 171.438 200.525C171.001 199.479 170.931 198.295 171.397 197.247C172.11 195.641 173.972 195.12 175.478 194.536Z" fill="#F8C457"/>
<path d="M136.205 266.986C139.161 265.975 141.889 264.875 144.411 262.992C145.972 261.827 149.465 257.431 151.098 257.351C151.249 258.024 150.961 258.504 150.593 259.086C148.174 262.919 142.701 266.32 138.539 267.789C137.453 268.211 136.524 268.516 135.356 268.646C135.381 268.698 135.404 268.751 135.43 268.803C136.098 270.135 137.362 271.243 138.3 272.405C140.127 274.67 144.131 280.278 144.231 283.236C144.02 283.729 144.044 283.737 143.565 283.969C142.638 283.431 140.008 277.504 138.999 276.001C137.429 273.662 135.342 271.164 133.159 269.357C132.885 268.727 132.783 268.669 132.974 267.982C133.854 267.285 135.124 267.196 136.205 266.986Z" fill="#F8C457"/>
<path d="M198.614 213.621C199.184 214.017 199.279 214.007 199.48 214.701C199.183 216.794 197.412 218.718 195.919 220.103C192.679 223.109 188.464 224.774 184.027 224.605C179.459 224.431 175.561 222.425 172.464 219.135C172.412 219.078 172.357 219.025 172.31 218.965C171.971 218.527 171.856 218.139 171.915 217.589L172.297 217.413C174.07 217.901 176.041 219.923 177.628 220.959C180.512 222.84 184.34 223.327 187.692 222.595C192.936 221.45 195.866 217.91 198.614 213.621Z" fill="#752346"/>
<path d="M244.822 210.566L245.513 210.804C245.816 211.201 245.917 211.287 245.864 211.816C245.65 213.958 242.558 217.047 240.933 218.305C237.964 220.602 234.062 221.889 230.298 221.395C226.385 220.882 223.578 218.747 221.223 215.71C221.093 215.488 220.907 215.214 220.838 214.959C220.684 214.393 220.838 214.128 221.157 213.683C222.79 213.775 224.464 217.138 226.036 218.048C228.822 219.658 231.761 220.323 234.922 219.465C239.627 218.187 242.52 214.609 244.822 210.566Z" fill="#752346"/>
<path d="M199.162 228.361C197.896 228.669 196.834 229.346 195.561 228.741L195.446 228.204C196.373 226.979 198.274 227.044 199.508 226.261C200.665 225.528 201.509 224.011 202.709 223.407C203.114 223.204 203.27 223.319 203.672 223.449L203.788 223.973C203.237 225.627 202.04 226.475 200.753 227.56C201.311 230.6 202.396 233.326 205.025 235.163C207.022 236.56 209.594 237.069 211.991 236.656C213.007 236.481 214.005 236.148 214.958 235.762C215.089 236.371 215.054 236.34 214.728 236.881C213.971 237.257 213.189 237.574 212.668 238.268C212.598 238.295 212.531 238.328 212.458 238.347C209.516 239.127 206.009 238.1 203.656 236.308C201.009 234.292 199.622 231.602 199.162 228.361Z" fill="#752346"/>
<path d="M214.958 235.762L216.213 234.792C218.258 233.212 219.65 230.972 219.951 228.379C220.076 227.303 219.864 226.255 220.345 225.251C220.927 225.112 220.924 225.151 221.464 225.424C222.245 226.762 221.771 228.696 221.402 230.12C221.31 230.473 221.201 230.822 221.075 231.166C220.949 231.509 220.807 231.846 220.648 232.176C220.489 232.505 220.315 232.826 220.124 233.138C219.934 233.451 219.729 233.754 219.509 234.047C219.29 234.339 219.056 234.621 218.809 234.891C218.562 235.161 218.302 235.418 218.029 235.663C217.757 235.908 217.473 236.138 217.178 236.355C216.883 236.573 216.579 236.775 216.264 236.963C215.201 237.596 213.895 238.107 212.668 238.268C213.189 237.574 213.971 237.257 214.728 236.881C215.054 236.34 215.089 236.371 214.958 235.762Z" fill="#752346"/>
<path d="M264.715 225.64C265.119 224.995 265.379 224.546 266.062 224.182L266.431 224.345L266.601 224.942C268.659 227.583 271.11 229.962 273.401 232.405C273.78 232.83 274.205 233.254 274.535 233.715L274.453 233.972C274.531 234.703 274.495 234.837 274.992 235.415C272.495 237.445 271.625 239.33 270.484 242.305L268.003 241.33C268.018 245.284 267.795 249.388 267.322 253.316C267.104 255.124 265.78 260.945 266.226 262.316L266.691 262.525C268.897 262.329 271.492 262.139 273.688 262.393C274.554 262.848 275.163 262.792 276.118 262.736C276.214 262.73 276.311 262.728 276.407 262.723L276.581 262.713L275.605 263.347C276.206 263.606 276.955 263.579 277.606 263.62C274.002 264.264 270.325 264.167 266.677 264.184L265.25 264.205C265.204 268.099 262.749 275.195 261.609 279.181C257.089 294.986 242.024 342.948 231.896 352.696C230.462 354.077 228.54 355.023 226.515 354.951C225.442 354.913 224.091 354.62 223.164 354.061C222.568 353.926 221.833 353.4 221.35 353.015C216.215 348.918 215.805 339.227 214.955 333.232L213.167 320.421C205.302 325.188 196.812 328.403 187.979 330.881C187.353 330.475 186.981 330.543 186.245 330.512L186.055 329.958C188.349 321.332 191.238 312.91 194.724 304.691C195.337 303.219 199.028 296.464 198.827 295.396L198.142 295.144C199.709 293.845 200.681 294.655 202.19 293.911C204.354 293.831 206.325 293.502 208.411 292.916C219.1 290.185 229.722 287.108 240.361 284.185C246.896 282.39 253.681 280.893 260.084 278.71C260.118 277.901 260.611 277.029 260.921 276.277C257.236 275.821 253.353 276.513 249.718 275.839C251.679 275.582 253.654 276.01 255.618 275.731L255.699 275.532L254.642 275.554L254.94 275.144L254.524 274.921L254.655 274.726L254.06 274.357L255.665 274.374C257.464 274.371 259.262 274.4 261.059 274.463C261.71 272.198 262.255 269.906 262.915 267.643C266.011 253.062 267.641 240.473 264.715 225.64Z" fill="#FEFEFE"/>
<path d="M260.084 278.71L260.406 279.051C260.25 279.58 260.108 280.135 259.631 280.477C259.472 280.591 259.325 280.63 259.147 280.693L253.685 282.296L252.007 282.702L222.55 290.794C219.55 291.618 213.043 293.9 210.266 293.974L209.509 294.346C209.319 295.544 210.706 297.066 211.098 298.314C211.942 301 212.407 303.769 212.874 306.538C214.114 314.023 215.231 321.526 216.226 329.048C216.857 333.735 217.301 338.591 218.295 343.213C218.827 345.688 219.644 348.185 221.149 350.252C222.056 351.496 223.066 352.225 224.466 352.848L224.397 353.298C225.941 353.846 229.508 352.955 229.749 353.075C228.903 353.915 226.651 353.908 225.494 353.914C225.089 353.917 224.69 353.855 224.287 353.824C223.845 353.791 223.566 353.895 223.164 354.061C222.568 353.926 221.833 353.4 221.35 353.015C216.215 348.918 215.805 339.227 214.955 333.232L213.167 320.421C205.302 325.188 196.812 328.403 187.979 330.881C187.353 330.475 186.981 330.543 186.245 330.512L186.055 329.958C188.349 321.332 191.238 312.91 194.724 304.691C195.337 303.219 199.028 296.464 198.827 295.396L198.142 295.144C199.709 293.845 200.681 294.655 202.19 293.911C204.354 293.831 206.325 293.502 208.411 292.916C219.1 290.185 229.722 287.108 240.361 284.185C246.896 282.39 253.681 280.893 260.084 278.71Z" fill="#752346"/>
<path d="M264.715 225.64C265.119 224.995 265.379 224.546 266.062 224.182L266.431 224.345L266.601 224.942C268.659 227.583 271.11 229.962 273.401 232.405C273.78 232.83 274.205 233.254 274.535 233.715L274.453 233.972C274.531 234.703 274.495 234.837 274.992 235.415C272.495 237.445 271.625 239.33 270.484 242.305L268.003 241.33C268.018 245.284 267.795 249.388 267.322 253.316C267.104 255.124 265.78 260.945 266.226 262.316L266.691 262.525C268.897 262.329 271.492 262.139 273.688 262.393C274.554 262.848 275.163 262.792 276.118 262.736C276.214 262.73 276.311 262.728 276.407 262.723L276.581 262.713L275.605 263.347C276.206 263.606 276.955 263.579 277.606 263.62C274.002 264.264 270.325 264.167 266.677 264.184L265.25 264.205C265.204 268.099 262.749 275.195 261.609 279.181C257.089 294.986 242.024 342.948 231.896 352.696C230.462 354.077 228.54 355.023 226.515 354.951C225.442 354.913 224.091 354.62 223.164 354.061C223.566 353.895 223.845 353.791 224.287 353.824C224.69 353.855 225.089 353.917 225.494 353.914C226.651 353.908 228.903 353.915 229.749 353.075C229.508 352.955 225.941 353.846 224.397 353.298L224.466 352.848C224.77 352.932 225.066 353.01 225.377 353.064C227.152 353.368 228.656 353.073 230.102 351.969C232.345 350.255 233.777 347.325 235.135 344.916C243.416 330.231 248.581 313.923 253.902 298.001C255.642 292.794 258.311 285.992 259.147 280.693C259.325 280.63 259.472 280.59 259.631 280.477C260.108 280.135 260.25 279.58 260.406 279.051L260.084 278.71C260.118 277.901 260.611 277.029 260.921 276.277C257.236 275.821 253.353 276.513 249.718 275.839C251.679 275.582 253.654 276.01 255.618 275.731L255.699 275.532L254.642 275.554L254.94 275.144L254.524 274.921L254.655 274.726L254.06 274.357L255.665 274.374C257.464 274.371 259.262 274.4 261.059 274.463C261.71 272.198 262.255 269.906 262.915 267.643C266.011 253.062 267.641 240.473 264.715 225.64Z" fill="#752346"/>
<path d="M274.453 233.972C270.901 235.365 271.381 238.008 269.219 239.73C268.952 239.943 268.769 239.801 268.462 239.735C268.129 239.243 268.02 238.822 267.936 238.234C267.674 236.397 267.818 234.487 267.619 232.631C267.351 230.13 266.517 227.428 266.601 224.942C268.659 227.583 271.11 229.962 273.401 232.405C273.78 232.83 274.205 233.254 274.535 233.715L274.453 233.972Z" fill="#FEFEFE"/>
<path d="M252.007 282.702L253.685 282.296C252.534 286.805 251.252 291.276 249.837 295.71C248.422 300.143 246.878 304.531 245.205 308.874C243.532 313.217 241.733 317.507 239.807 321.745C237.88 325.982 235.831 330.159 233.659 334.276C232.564 336.397 231.169 340.223 229.313 341.648L228.941 341.444C228.881 338.694 235.149 328.01 236.646 324.74C241.153 315.056 245.043 305.13 248.315 294.965C249.637 290.974 251.118 286.809 252.007 282.702Z" fill="#F8C457"/>
<path d="M152.221 284.149C151.895 282.918 151.393 281.536 151.424 280.263L151.906 280.039L181.927 289.93C187.31 291.705 192.672 293.647 198.142 295.144L198.827 295.397C199.028 296.464 195.337 303.219 194.724 304.691C191.238 312.91 188.349 321.332 186.055 329.958L186.245 330.512C186.981 330.543 187.353 330.475 187.979 330.881C184.557 333.798 186.233 356.042 175.891 355.356C172.711 355.145 169.802 352.674 167.872 350.324C164.36 346.048 162.462 336.08 161.5 335.028C162.144 334.692 162.716 334.485 163.426 334.329C162.195 329.118 161.393 323.843 160.349 318.595C159.622 314.937 158.699 311.316 157.828 307.691C157.552 306.544 155.323 297.552 155.341 297.146C155.348 296.982 155.477 296.846 155.544 296.695C155.89 296.802 156.263 296.852 156.619 296.922C157.448 296.715 158.072 296.482 158.552 295.734C159.375 294.451 159.27 292.539 158.927 291.103C158.04 287.401 155.228 285.973 152.221 284.149Z" fill="#FEFEFE"/>
<path d="M176.077 353.69C176.839 353.444 177.678 353.213 178.378 352.822C179.735 352.065 180.819 350.381 181.431 348.978C183.472 344.302 184.392 335.437 186.055 329.958L186.245 330.512C186.981 330.543 187.353 330.475 187.979 330.881C184.557 333.797 186.233 356.042 175.891 355.356C172.711 355.145 169.802 352.674 167.872 350.324C164.36 346.048 162.462 336.08 161.5 335.028C162.144 334.692 162.716 334.485 163.426 334.329C164.127 338.397 165.666 343.068 167.623 346.689C169.624 350.392 172.032 352.484 176.077 353.69Z" fill="#752346"/>
<path d="M190.539 299.881L191.118 300.373C191.148 300.469 191.183 300.563 191.209 300.66C191.627 302.252 187.627 310.544 186.772 312.785C184.755 318.075 182.843 323.43 181.446 328.921C180.546 332.46 179.993 336.085 179.074 339.618C178.064 343.506 176.7 346.444 173.132 348.535C172.818 348.301 172.666 348.094 172.463 347.762C173.604 345.712 175.675 344.459 176.597 342.184C178.135 338.386 178.513 333.906 179.486 329.915C180.86 324.282 187.378 304.186 190.539 299.881Z" fill="#F8C457"/>
<path d="M150.452 274.769C158.703 275.133 167.022 275.055 175.282 275.095L199.018 275.366C215.9 275.528 232.838 276.173 249.718 275.839C253.353 276.513 257.236 275.821 260.921 276.277C260.611 277.029 260.118 277.901 260.084 278.71C253.681 280.893 246.896 282.39 240.361 284.186C229.722 287.108 219.1 290.185 208.411 292.916C206.325 293.502 204.354 293.831 202.19 293.911C200.681 294.655 199.709 293.845 198.142 295.144C192.672 293.647 187.31 291.705 181.927 289.93L151.906 280.039C152.043 279.457 152.287 278.921 152.518 278.371C151.999 278.245 151.156 278.082 150.831 277.622C150.224 276.761 150.259 275.767 150.452 274.769Z" fill="#F8C457"/>
<path d="M152.518 278.371C163.211 282.124 174.11 285.516 184.891 289.012C189.085 290.371 197.031 293.655 201.129 293.859C201.483 293.877 201.835 293.9 202.19 293.911C200.681 294.655 199.709 293.845 198.142 295.144C192.672 293.647 187.31 291.705 181.927 289.93L151.906 280.039C152.043 279.457 152.287 278.921 152.518 278.371Z" fill="#752346"/>
<path d="M141.327 48.3359C141.595 47.8691 141.862 47.3134 142.255 46.9403C143.153 46.0871 145.535 46.8454 146.786 46.9011C149.56 47.0451 153.326 46.8025 155.844 48.0311C158.831 49.4882 167.358 57.0946 170.358 59.5691C177.355 65.3417 184.321 71.1503 191.257 76.995C194.925 80.0805 198.807 83.0874 202.27 86.3876C203.208 87.2099 204.122 88.0419 205.009 88.9187C198.681 95.3858 191.236 100.785 184.834 107.217C184.579 110.198 183.858 112.192 181.748 114.365C189.7 121.199 197.283 128.507 205.01 135.594C214.158 143.985 223.437 152.347 232.314 161.019C247.617 176.11 262.289 191.789 276.33 208.056C276.954 207.924 277.285 207.687 277.774 207.309C279.729 206.223 281.635 206.063 283.752 206.69C286.172 207.407 288.059 209.008 289.253 211.218C291.016 214.482 290.264 218.213 291.865 221.44C293.214 223.977 294.443 226.973 296.139 229.276C298.486 232.461 301.425 235.296 304.132 238.178L315.965 250.829L352.209 289.775C356.994 294.933 364.216 301.604 367.794 307.355C369.87 310.692 371.472 314.924 370.277 318.855C369.557 321.22 367.89 322.951 365.765 324.148C361.427 325.909 356.881 325.329 352.908 322.864C347.573 319.554 337.82 306.539 333.388 301.213C329.482 296.519 296.372 256.875 294.6 256.51C294.199 256.427 293.837 256.795 293.501 257.007C290.928 260.32 282.089 263.152 278.047 263.594C277.814 263.62 277.805 263.616 277.606 263.62C276.955 263.579 276.206 263.606 275.605 263.347L276.581 262.713L276.407 262.723C276.311 262.728 276.214 262.73 276.118 262.736C275.163 262.792 274.554 262.848 273.688 262.393C271.492 262.139 268.897 262.329 266.691 262.525L266.226 262.316C265.78 260.945 267.104 255.124 267.322 253.316C267.795 249.388 268.018 245.284 268.003 241.33L270.484 242.305C271.625 239.33 272.495 237.445 274.992 235.415C274.495 234.837 274.531 234.703 274.453 233.972L274.535 233.715C274.205 233.254 273.78 232.83 273.401 232.405C271.11 229.962 268.659 227.583 266.601 224.942L266.431 224.345L266.062 224.182C265.379 224.546 265.119 224.995 264.715 225.64C263.92 221.803 262.381 218.352 261.305 214.622C257.08 206.821 252.445 198.438 243.864 194.673C240.946 193.393 237.662 192.92 234.504 192.727C227.109 192.277 219.716 193.682 212.306 193.556C202.037 193.383 191.771 191.396 181.492 192.067C177.044 192.356 172.854 193.316 168.712 194.963C167.81 194.598 167.493 194.756 166.607 195.136C165.943 195.42 165.136 196.1 164.46 195.861L164.23 195.457C179.148 186.447 196.872 191.769 213.129 191.869C220.262 191.914 227.447 190.364 234.56 191.079C225.036 181.751 215.935 172.024 206.437 162.669C188.624 145.177 170.565 127.94 152.261 110.96C145.967 105.044 139.577 99.2331 133.09 93.5279C130.202 90.9936 127.011 88.6929 124.261 86.0203C123.316 85.1025 122.382 84.0484 121.767 82.8759C121.511 82.3896 121.333 81.9502 121.256 81.4046C120.993 79.5596 121.413 77.4907 122.16 75.7968C124.444 70.6155 130.737 63.1539 134.225 58.4155C136.661 55.1074 138.826 51.5912 141.327 48.3359Z" fill="#E8934F"/>
<path d="M141.327 48.3359C141.595 47.8691 141.862 47.3134 142.255 46.9403C143.153 46.0871 145.535 46.8454 146.786 46.9011C149.56 47.0451 153.326 46.8025 155.844 48.0311C158.831 49.4882 167.358 57.0946 170.358 59.5691C177.355 65.3417 184.321 71.1503 191.257 76.995C194.925 80.0805 198.807 83.0874 202.27 86.3876C203.208 87.2099 204.122 88.0419 205.009 88.9187C198.681 95.3858 191.236 100.785 184.834 107.217C184.579 110.198 183.858 112.192 181.748 114.365C189.7 121.199 197.283 128.507 205.01 135.594C214.158 143.985 223.437 152.347 232.314 161.019C247.618 176.11 262.29 191.789 276.33 208.056C276.954 207.924 277.285 207.687 277.774 207.309C279.729 206.223 281.635 206.063 283.752 206.69C286.172 207.407 288.059 209.008 289.253 211.218C291.016 214.482 290.264 218.213 291.865 221.44C293.214 223.977 294.443 226.973 296.139 229.276C298.486 232.461 301.425 235.296 304.132 238.178L315.965 250.829L352.209 289.775C356.994 294.933 364.216 301.604 367.794 307.355C369.87 310.692 371.472 314.924 370.277 318.855C369.557 321.22 367.89 322.951 365.765 324.148C361.427 325.909 356.881 325.329 352.908 322.864C347.573 319.554 337.82 306.539 333.388 301.213C329.482 296.519 296.372 256.875 294.6 256.51C294.199 256.427 293.837 256.795 293.501 257.007C290.928 260.32 282.089 263.152 278.047 263.594C277.814 263.62 277.805 263.616 277.606 263.62C276.955 263.579 276.206 263.606 275.605 263.347L276.581 262.713L276.407 262.723C276.311 262.728 276.214 262.73 276.118 262.736C275.163 262.792 274.554 262.848 273.688 262.393C271.492 262.139 268.897 262.329 266.691 262.525L266.226 262.316C265.78 260.945 267.104 255.124 267.322 253.316C267.795 249.388 268.018 245.284 268.003 241.33L270.484 242.305C271.625 239.33 272.495 237.445 274.992 235.415C274.495 234.837 274.531 234.703 274.453 233.972L274.535 233.715C274.205 233.254 273.78 232.83 273.401 232.405C273.409 231.451 273.768 231.409 273.572 230.27C274.701 231.44 275.972 232.595 276.978 233.867C279.269 235.897 281.254 238.382 283.279 240.675L293.13 251.812C306.818 267.088 320.212 282.614 333.314 298.391L343.592 310.75C346.01 313.668 348.364 316.866 351.216 319.372C353.77 321.615 357.331 323.753 360.869 323.536C362.897 323.411 364.062 322.617 365.885 322.105C366.008 321.978 366.13 321.851 366.25 321.723C367.963 319.888 369.029 317.967 368.915 315.395C368.741 311.424 366.064 307.606 363.661 304.612C361.214 301.564 358.327 298.813 355.648 295.966L342.192 281.539L303.105 239.577C292.525 228.282 282.063 216.88 271.718 205.371C260.385 192.735 249.131 179.935 237.118 167.936C232.271 163.094 227.189 158.608 222.214 153.914C207.998 140.462 193.583 127.225 178.971 114.202C180.957 112.642 182.213 111.137 183.284 108.856C179.439 110.772 173.543 112.543 169.237 112.695C164.97 112.847 160.91 109.967 157.908 107.19C154.275 105.06 148.549 99.1318 145.508 96.0635C144.074 95.2409 133.894 85.9543 132.181 84.1755L129.009 81.4031C128.254 80.8044 127.573 80.2148 126.921 79.4987C125.79 78.493 125.182 77.4411 124.575 76.0881C124.894 75.7767 125.33 75.5399 125.702 75.2908C125.747 73.8833 126.174 72.7832 126.839 71.5644C128.954 67.689 131.97 64.2482 134.627 60.7378C137.555 56.8089 140.369 52.8001 143.067 48.7114L141.327 48.3359Z" fill="#752346"/>
<path d="M143.067 48.7114C143.798 48.8066 143.908 49.0241 144.436 49.5136C145.85 51.4816 147.747 53.1728 149.328 55.017C154.096 60.2623 158.8 65.4519 164.088 70.1919C166.539 72.3676 169.06 74.4587 171.652 76.4653C173.176 77.6616 175.885 79.1766 176.999 80.6937C176.976 81.0588 176.943 81.247 176.747 81.5585C173.315 85.7615 170.235 90.1932 166.617 94.2608C164.713 96.4022 158.759 101.695 157.649 103.487L158.851 104.575L157.994 105.194L157.846 105.838L157.667 105.871C157.595 106.413 157.758 106.47 157.893 106.94C157.916 107.02 157.903 107.107 157.908 107.19C154.275 105.06 148.549 99.1319 145.508 96.0635C144.074 95.2409 133.894 85.9543 132.181 84.1756L129.009 81.4031C128.254 80.8044 127.573 80.2149 126.921 79.4988C125.79 78.4931 125.182 77.4411 124.575 76.0882C124.894 75.7768 125.33 75.54 125.702 75.2909C125.747 73.8833 126.174 72.7832 126.839 71.5644C128.954 67.689 131.97 64.2482 134.627 60.7379C137.555 56.809 140.369 52.8001 143.067 48.7114Z" fill="#FEFEFE"/>
<path d="M125.702 75.2909C126.132 75.9178 126.541 76.6189 127.036 77.1934L127.9 76.6265C128.28 77.0358 128.515 77.3007 128.719 77.8329L128.526 78.5491C129.002 79.3666 129.696 79.8207 130.243 80.5504C130.839 80.4621 131.263 79.9644 131.698 79.5807C132.016 80.277 132.147 80.8112 132.183 81.5755L132.012 81.9323C132.257 82.2001 132.499 82.4606 132.757 82.7154C136.666 85.7912 140.59 89.2263 144.155 92.6915C148.055 89.3247 151.892 86.238 155.253 82.3014C156.288 81.0884 158.138 78.0536 159.876 77.9421C159.968 77.9362 160.059 77.9566 160.151 77.9639L160.273 78.1105C159.361 81.9872 148.788 91.3321 145.302 93.7674C145.976 94.3367 146.785 94.9041 147.295 95.6261C150.54 98.3037 153.329 101.488 156.607 104.135C157.135 104.023 157.258 103.844 157.649 103.487L158.851 104.575L157.994 105.194L157.846 105.838L157.667 105.871C157.595 106.413 157.758 106.47 157.893 106.94C157.916 107.02 157.903 107.107 157.908 107.19C154.275 105.06 148.549 99.1319 145.508 96.0636C144.074 95.2409 133.894 85.9543 132.181 84.1756L129.009 81.4031C128.254 80.8044 127.573 80.2149 126.921 79.4988C125.79 78.4931 125.182 77.4411 124.575 76.0882C124.894 75.7768 125.33 75.54 125.702 75.2909Z" fill="#752346"/>
<path d="M132.643 70.5997C134.418 67.9729 136.44 65.515 138.233 62.9001C139.574 60.9451 140.701 58.818 142.135 56.9304C142.603 56.3139 143.047 55.7516 143.718 55.3453L143.981 55.5169C144.029 56.4854 143.745 57.5067 143.305 58.3736C141.513 61.9076 134.267 71.7572 131.484 74.7194C131.364 74.8468 131.241 74.9708 131.114 75.0916C130.487 76.0033 129.644 77.211 128.719 77.8329C128.515 77.3006 128.28 77.0358 127.9 76.6264C128.326 75.2176 131.548 71.9401 132.643 70.5997Z" fill="#752346"/>
<path d="M131.698 79.5806C133.174 77.5443 137.126 72.9635 139.139 71.7059L139.706 71.6381C139.946 71.9308 140.036 71.8997 139.98 72.3102C139.718 74.2349 133.689 79.6237 132.183 81.5754C132.147 80.8111 132.016 80.277 131.698 79.5806Z" fill="#752346"/>
<path d="M145.944 48.6368C148.537 48.7275 152.497 48.3866 154.852 49.4809C158.135 51.0059 165.333 57.6492 168.496 60.2586C179.258 69.1379 190.297 77.9208 200.632 87.291L201.235 87.9696C200.924 88.3674 200.62 88.2888 200.138 88.3555C197.475 87.7532 194.419 88.3248 191.713 88.4675C187.744 85.872 183.216 83.3447 179.75 80.1096C179.886 79.5565 179.973 79.2919 179.778 78.7337C179.098 78.6191 178.811 78.9031 178.21 79.213C173.316 75.2405 168.26 71.6287 163.586 67.3573C158.889 63.0638 154.775 58.2381 150.442 53.5929C149.106 52.2362 146.744 50.3032 145.944 48.6368Z" fill="#F8C457"/>
<path d="M274.992 235.416C276.468 235.462 277.112 236.518 278.078 237.543C281.314 240.979 284.403 244.569 287.542 248.094C289.561 250.36 291.735 252.58 293.64 254.939C287.309 259.673 281.497 261.641 273.688 262.393C271.492 262.139 268.897 262.329 266.691 262.525L266.226 262.316C265.78 260.945 267.104 255.124 267.322 253.316C267.795 249.388 268.018 245.284 268.003 241.33L270.484 242.305C271.625 239.33 272.495 237.445 274.992 235.416Z" fill="#FEFEFE"/>
<path d="M176.747 81.5585L176.903 82.2819C177.249 82.3792 177.57 82.4626 177.927 82.5003C178.274 82.261 178.368 82.0615 178.806 82.1314C179.916 82.3086 180.829 83.1613 181.604 83.91C181.668 84.2114 181.73 84.4709 181.73 84.7805L182.17 85.3181C182.58 85.3368 182.987 85.3593 183.398 85.3559C184.82 85.6319 188.619 88.3671 189.867 89.4165C187.222 91.903 184.956 94.9243 182.6 97.6836C179.796 100.916 176.905 104.07 173.926 107.144C172.079 108.732 170.085 110.661 167.481 110.696C164.259 110.74 160.199 107.336 157.994 105.194L158.851 104.575L157.649 103.487C158.759 101.695 164.713 96.4022 166.617 94.2607C170.235 90.1932 173.315 85.7615 176.747 81.5585Z" fill="#FEFEFE"/>
<path d="M176.747 81.5585L176.903 82.2819C177.249 82.3792 177.57 82.4626 177.927 82.5003C175.844 87.1117 167.571 95.9348 163.806 99.7176C162.201 101.332 160.323 102.853 158.851 104.575L157.649 103.487C158.759 101.695 164.713 96.4022 166.617 94.2607C170.235 90.1932 173.315 85.7615 176.747 81.5585Z" fill="#752346"/>
<path d="M170.691 98.3137C173.214 95.5812 175.618 92.7486 177.904 89.8158C179.184 88.1677 180.322 86.3129 181.73 84.7805L182.17 85.3181C182.58 85.3368 182.987 85.3593 183.398 85.3559C179.753 90.4284 176.023 95.131 171.725 99.6709C170.283 101.155 168.533 103.243 166.48 103.787L166.247 103.521C166.804 101.437 169.153 99.7252 170.691 98.3137Z" fill="#752346"/>
<path d="M141.327 48.3359C141.595 47.8691 141.862 47.3134 142.255 46.9403C143.153 46.0871 145.535 46.8454 146.786 46.9011C146.767 47.3007 147.094 48.0089 146.959 48.1381C146.661 48.422 146.324 48.503 145.944 48.6368C145.134 48.7185 145.019 48.9727 144.436 49.5136C143.908 49.0241 143.798 48.8066 143.067 48.7114L141.327 48.3359Z" fill="#752346"/>
<path d="M273.572 230.27C274.701 231.44 275.972 232.595 276.978 233.867L276.471 234.152C275.901 233.9 275.738 233.43 275.408 232.914L275.308 232.994L275.404 234.376L275.146 234.46L274.535 233.715C274.205 233.254 273.78 232.83 273.401 232.405C273.409 231.451 273.768 231.409 273.572 230.27Z" fill="#752346"/>
<path d="M178.21 79.213C178.811 78.9031 179.098 78.6191 179.778 78.7337C179.973 79.2919 179.886 79.5566 179.75 80.1096C179.24 80.6289 178.623 81.2798 177.846 81.2975C177.396 81.3078 177.425 81.2089 177.116 80.9252C177.075 80.4659 177.047 80.1982 177.266 79.7784C177.5 79.3284 177.753 79.3638 178.21 79.213Z" fill="#752346"/>
<path d="M200.246 89.7319L200.888 89.9582C200.872 90.0846 200.885 90.2185 200.839 90.3372C200.82 90.3858 184.067 105.647 182.598 106.788C180.261 108.605 176.935 109.807 173.999 110.074L173.515 109.869C173.671 109.272 174.111 108.968 174.554 108.575C178.08 105.402 181.353 101.869 184.426 98.2647C186.522 95.8059 188.571 92.9969 190.978 90.8502C191.468 90.4128 191.906 90.2078 192.544 90.0689C194.802 90.4768 197.925 89.8855 200.246 89.7319Z" fill="#F8C457"/>
<path d="M277.755 209.418C279.164 208.365 280.816 207.642 282.629 207.886C284.457 208.132 286.019 209.68 287.022 211.141C289.175 214.278 288.658 220.896 290.556 222.498C290.766 222.978 291.136 223.452 290.952 223.953C290.856 223.886 290.758 223.821 290.664 223.754C289.5 222.911 284.419 216.923 284.239 215.678C284.71 215.258 284.996 214.912 285.33 214.377C285.269 213.8 285.257 213.836 284.814 213.451C283.87 213.474 283.699 214.268 282.728 214.483C281.771 214.275 281.165 213.485 280.497 212.814C280.987 212.035 281.573 211.265 281.652 210.328L281.358 210.037C280.485 210.175 279.631 210.34 278.771 210.546C278.084 210.237 278.091 210.067 277.755 209.418Z" fill="#FEFEFE"/>
<path d="M141.327 48.3359L143.067 48.7114C140.368 52.8001 137.555 56.8089 134.627 60.7378C131.97 64.2482 128.954 67.689 126.839 71.5644C126.174 72.7832 125.747 73.8833 125.702 75.2909C125.33 75.5399 124.894 75.7767 124.575 76.0882L124.215 75.9464C123.401 76.6749 122.92 78.2619 122.844 79.3141C122.707 81.2263 123.761 82.9427 125.023 84.286C127.824 87.2669 131.435 89.7428 134.531 92.4486C140.991 98.1751 147.382 103.977 153.705 109.854C174.746 129.296 195.367 149.17 215.57 169.477C222.676 176.572 229.87 183.623 236.787 190.901C239.532 191.736 242.378 192.121 245.036 193.25C251.522 196.005 257.082 203.037 260.395 209.142C260.826 209.936 261.311 210.789 261.617 211.639C263.453 215.07 264.268 219.236 266.489 222.413C268.469 225.244 271.786 227.338 273.572 230.27C273.768 231.409 273.409 231.451 273.401 232.405C271.11 229.962 268.659 227.583 266.601 224.942L266.431 224.345L266.062 224.182C265.379 224.546 265.119 224.995 264.715 225.64C263.92 221.803 262.381 218.352 261.305 214.622C257.08 206.821 252.445 198.438 243.864 194.673C240.946 193.393 237.662 192.92 234.504 192.727C227.109 192.277 219.716 193.682 212.306 193.556C202.037 193.383 191.771 191.396 181.492 192.067C177.044 192.356 172.854 193.316 168.712 194.963C167.81 194.598 167.493 194.756 166.607 195.136C165.943 195.42 165.136 196.1 164.46 195.861L164.23 195.457C179.148 186.447 196.872 191.769 213.129 191.869C220.262 191.914 227.447 190.364 234.56 191.079C225.036 181.751 215.935 172.024 206.437 162.669C188.624 145.177 170.565 127.94 152.261 110.96C145.967 105.044 139.577 99.2331 133.09 93.5279C130.202 90.9936 127.011 88.6929 124.261 86.0203C123.316 85.1025 122.382 84.0485 121.767 82.8759C121.511 82.3896 121.333 81.9502 121.256 81.4046C120.993 79.5596 121.413 77.4907 122.16 75.7968C124.444 70.6155 130.737 63.1539 134.225 58.4155C136.661 55.1074 138.826 51.5912 141.327 48.3359Z" fill="#752346"/>
<path d="M156.115 123.489C156.483 123.622 156.759 123.784 157.093 123.984C158.68 127.247 160.871 141.901 161.861 146.557L165.258 161.802C165.863 164.504 166.764 167.427 166.895 170.186L165.751 170.047C165.546 169.887 165.515 169.887 165.355 169.631C164.161 167.713 156.517 129.628 156.004 125.188C155.936 124.595 155.966 124.07 156.115 123.489Z" fill="#F9F871"/>
<path d="M121.77 181.995C119.098 178.887 116.451 175.74 113.675 172.724C111.294 170.138 102.232 161.922 101.323 159.501L101.693 159.469C106.463 161.429 119.355 176.71 123.183 181.269C124.131 182.383 128.972 187.993 128.986 189.034C128.99 189.291 128.937 189.412 128.867 189.64C128.424 189.728 128.503 189.805 128.082 189.515C125.726 187.897 123.543 184.283 121.77 181.995Z" fill="#F9F871"/>
<path d="M281.214 142.955C281.787 143.199 281.758 143.192 282.022 143.758C281.916 144.675 281.546 145.505 281.157 146.333C279.829 149.158 278.165 151.859 276.751 154.651C274.508 159.081 267.553 174.014 265.006 176.931C264.658 176.839 264.445 176.707 264.14 176.523C264.033 175.093 279.2 146.181 281.214 142.955Z" fill="#F9F871"/>
<path d="M89.0571 219.504C90.8163 219.248 109.29 222.215 111.225 222.992C111.935 223.278 111.924 223.674 112.176 224.335C110.052 224.587 92.0263 221.656 89.8748 220.657C89.2345 220.361 89.2669 220.115 89.0571 219.504Z" fill="#F9F871"/>
<path d="M298.235 179.719C298.668 179.809 298.73 179.873 299.051 180.153C299.041 180.691 298.997 180.873 298.605 181.258C296.786 183.048 294.597 184.594 292.688 186.305C290.065 188.658 287.635 191.24 285.169 193.756L284.494 193.442L284.35 192.971C285.48 189.839 295.163 181.974 298.235 179.719Z" fill="#F9F871"/>
<path d="M360.524 132.266C357.836 130.966 352.052 128.717 349.135 129.568C346.21 131.389 343.528 133.574 341.153 136.069C342.518 133.132 343.426 130.003 343.847 126.792C344.023 122.108 342.001 119.765 337.955 115.079C347.433 120.752 351.658 116.533 357.525 112.141C356.283 114.747 355.266 117.455 354.485 120.235C354.194 121.699 354.474 123.22 355.265 124.484C356.64 127.314 358.411 129.934 360.524 132.266Z" fill="#F9F871"/>
<path d="M340.305 135.669C341.631 132.817 342.513 129.778 342.921 126.66C343.077 122.424 341.249 120.309 337.249 115.665C337.144 115.541 337.073 115.391 337.044 115.231C337.016 115.071 337.03 114.906 337.085 114.752C337.141 114.599 337.236 114.464 337.36 114.359C337.485 114.254 337.635 114.185 337.796 114.157C338.011 114.121 338.232 114.162 338.419 114.273C346.679 119.212 350.466 116.336 355.712 112.338L356.966 111.386C357.131 111.262 357.333 111.197 357.539 111.201C357.745 111.205 357.944 111.278 358.104 111.409C358.264 111.54 358.375 111.72 358.42 111.921C358.465 112.123 358.441 112.333 358.352 112.52C357.132 115.079 356.133 117.739 355.367 120.469C355.14 121.689 355.383 122.949 356.05 123.998C357.406 126.775 359.144 129.348 361.212 131.644C361.351 131.805 361.43 132.009 361.437 132.221C361.443 132.433 361.376 132.641 361.247 132.81C361.118 132.978 360.934 133.097 360.727 133.146C360.521 133.195 360.303 133.171 360.112 133.078C357.284 131.713 351.878 129.709 349.384 130.437C346.624 132.226 344.079 134.327 341.8 136.698C341.648 136.852 341.446 136.947 341.231 136.967C341.016 136.987 340.801 136.931 340.623 136.808C340.445 136.685 340.315 136.504 340.257 136.296C340.199 136.088 340.216 135.866 340.305 135.669ZM341.451 117.817C344.959 122.291 345.714 125.55 343.473 132.611C345.028 131.061 346.803 129.749 348.742 128.718C351.715 128.373 354.727 128.802 357.486 129.962C356.289 128.37 355.26 126.658 354.416 124.854C353.539 123.415 353.238 121.698 353.573 120.046C354.053 118.33 354.621 116.639 355.274 114.98C351.309 117.913 347.461 120.06 341.45 117.822L341.451 117.817Z" fill="#752346"/>
<path d="M314.799 106.543C311.829 106.853 305.728 107.986 303.696 110.246C302.168 113.334 301.038 116.604 300.332 119.976C299.946 116.76 299.071 113.622 297.739 110.67C295.422 106.595 292.469 105.668 286.562 103.814C297.607 103.647 298.977 97.8358 301.653 91.0122C301.969 93.8822 302.53 96.7198 303.33 99.4941C303.853 100.892 304.893 102.038 306.23 102.697C308.89 104.379 311.775 105.674 314.799 106.543Z" fill="#F9F871"/>
<path d="M299.401 120.082C299.026 116.959 298.176 113.911 296.882 111.045C294.784 107.362 292.116 106.527 286.271 104.684C286.116 104.634 285.977 104.544 285.868 104.423C285.759 104.302 285.684 104.154 285.651 103.994C285.617 103.835 285.627 103.67 285.678 103.515C285.729 103.36 285.82 103.222 285.941 103.114C286.105 102.97 286.315 102.888 286.533 102.884C296.155 102.735 297.86 98.2955 300.216 92.1344L300.78 90.6647C300.855 90.4725 300.993 90.3109 301.17 90.2059C301.348 90.1008 301.555 90.0584 301.76 90.0853C301.965 90.1123 302.154 90.2071 302.298 90.3546C302.443 90.502 302.533 90.6937 302.556 90.8988C302.866 93.7174 303.417 96.5043 304.203 99.2291C304.652 100.386 305.522 101.33 306.642 101.87C309.257 103.516 312.089 104.79 315.056 105.653C315.259 105.716 315.434 105.847 315.551 106.024C315.668 106.202 315.721 106.414 315.7 106.625C315.679 106.836 315.585 107.034 315.435 107.184C315.285 107.335 315.087 107.429 314.876 107.45C311.753 107.779 306.102 108.922 304.365 110.853C302.96 113.828 301.903 116.954 301.214 120.17C301.165 120.38 301.044 120.567 300.871 120.697C300.699 120.828 300.486 120.893 300.27 120.883C300.055 120.872 299.849 120.786 299.69 120.64C299.531 120.494 299.429 120.296 299.401 120.082ZM290.976 104.301C296.314 106.258 298.672 108.631 300.484 115.814C300.99 113.678 301.809 111.628 302.914 109.73C305.26 107.872 308.046 106.65 311.003 106.184C309.147 105.461 307.371 104.548 305.704 103.458C304.2 102.696 303.04 101.395 302.455 99.8142C301.96 98.102 301.552 96.3655 301.234 94.6116C299.407 99.1926 297.267 103.044 290.977 104.306L290.976 104.301Z" fill="#752346"/>
<path d="M43.9003 197.192C40.9744 197.787 35.0113 199.504 33.2071 201.95C31.9848 205.171 31.1758 208.534 30.7992 211.959C30.1041 208.795 28.9304 205.756 27.3187 202.947C24.6198 199.115 21.5907 198.478 15.5324 197.203C26.5098 195.969 27.3122 190.053 29.3167 183.003C29.9083 185.829 30.7406 188.599 31.8047 191.283C32.4603 192.624 33.6055 193.664 35.0008 194.191C37.8099 195.608 40.8065 196.619 43.9003 197.192Z" fill="#F9F871"/>
<path d="M29.8824 212.154C29.2074 209.082 28.0675 206.131 26.502 203.403C24.0582 199.94 21.3226 199.366 15.3261 198.097C15.1671 198.062 15.0202 197.985 14.9001 197.875C14.7801 197.765 14.6912 197.626 14.6426 197.47C14.5939 197.315 14.5872 197.149 14.6231 196.99C14.6589 196.832 14.7361 196.685 14.8468 196.566C14.9959 196.406 15.1966 196.305 15.4132 196.28C24.9764 195.202 26.2443 190.619 27.994 184.259L28.4142 182.741C28.4702 182.543 28.5912 182.369 28.7578 182.247C28.9244 182.125 29.127 182.063 29.3332 182.07C29.5395 182.077 29.7373 182.153 29.8952 182.286C30.0531 182.419 30.1618 182.601 30.2041 182.803C30.7853 185.578 31.6028 188.299 32.6476 190.935C33.2067 192.043 34.1641 192.898 35.3304 193.328C38.0922 194.714 41.0342 195.708 44.071 196.28C44.2788 196.324 44.4652 196.438 44.599 196.603C44.7327 196.768 44.8055 196.974 44.8052 197.186C44.8046 197.399 44.7306 197.604 44.5957 197.769C44.4609 197.933 44.2735 198.045 44.0652 198.087C40.988 198.716 35.4744 200.399 33.9316 202.49C32.8209 205.585 32.0704 208.799 31.6949 212.067C31.6668 212.281 31.5643 212.479 31.4053 212.625C31.2464 212.771 31.041 212.857 30.8251 212.868C30.6093 212.878 30.3966 212.812 30.2243 212.682C30.052 212.551 29.931 212.365 29.8824 212.154ZM19.9729 197.261C25.4744 198.694 28.0505 200.827 30.5483 207.802C30.8456 205.627 31.4625 203.507 32.3791 201.512C34.5348 199.436 37.1899 197.951 40.0875 197.201C38.1703 196.661 36.3145 195.923 34.5499 194.999C32.98 194.386 31.6995 193.203 30.9648 191.686C30.3062 190.03 29.7329 188.341 29.2469 186.626C27.8709 191.362 26.1124 195.402 19.9743 197.266L19.9729 197.261Z" fill="#752346"/>
<path d="M83.8713 53.2823C84.997 56.914 86.6661 60.3495 88.8193 63.4669C89.6069 65.1828 90.9136 66.598 92.5461 67.5033C93.8712 67.9336 95.238 68.2069 96.6217 68.3163C100.068 68.565 103.774 68.9431 107.168 68.9954C102.847 70.5543 98.8122 72.8309 95.2256 75.7335C90.2764 80.2408 90.1415 84.8694 89.5561 93.8902C85.4745 78.389 77.2645 78.2103 66.9066 76.9269C70.7367 75.53 74.4424 73.8053 77.9843 71.771C78.8912 71.2241 79.6678 70.4795 80.259 69.5903C80.8502 68.701 81.2415 67.6888 81.4052 66.6254C82.7412 62.2958 83.569 57.8169 83.8713 53.2823Z" fill="#F9F871"/>
<path d="M88.5379 94.0637C84.907 80.2894 78.6567 79.4044 66.8202 77.9525C66.5898 77.9234 66.3751 77.8168 66.2103 77.6495C66.0455 77.4822 65.9402 77.2639 65.911 77.0294C65.8818 76.7948 65.9305 76.5576 66.0493 76.3553C66.1681 76.1531 66.3502 75.9975 66.5665 75.9133C70.3186 74.505 73.9606 72.8083 77.4573 70.8341C78.2195 70.3656 78.8743 69.737 79.3782 68.9898C79.8821 68.2427 80.2237 67.3941 80.3802 66.5004C81.7048 62.1911 82.5296 57.7362 82.8377 53.2262C82.8625 52.9845 82.9682 52.7593 83.1373 52.5885C83.3063 52.4177 83.5283 52.3117 83.7659 52.2883C84.0035 52.2649 84.2422 52.3255 84.4419 52.46C84.6416 52.5945 84.7902 52.7946 84.8625 53.0268C85.951 56.542 87.5699 59.8662 89.6609 62.8798C90.3651 64.4565 91.5542 65.7591 93.0476 66.5896C97.6986 67.4517 102.412 67.8994 107.135 67.9277C107.38 67.932 107.616 68.0238 107.802 68.187C107.988 68.3502 108.113 68.5745 108.153 68.8207C108.194 69.0665 108.148 69.3185 108.024 69.5322C107.899 69.7459 107.704 69.9076 107.474 69.9886C103.273 71.5034 99.3509 73.7147 95.865 76.5336C90.9775 80.9798 91.0905 86.1662 90.59 93.8708C90.582 94.1277 90.4825 94.3723 90.3099 94.559C90.1374 94.7457 89.9036 94.8617 89.6523 94.8854C89.401 94.909 89.1493 94.8386 88.9442 94.6875C88.7391 94.5363 88.5947 94.3145 88.5379 94.0637ZM71.1045 76.347C78.4851 77.3177 84.8871 78.9828 88.8716 88.5006C89.5934 80.1512 91.2646 75.3703 102.395 69.8524C98.96 69.8677 95.5354 69.4182 92.2114 68.5155C90.3083 67.5133 88.7807 65.9002 87.8667 63.9275C86.5148 61.996 85.3582 59.9309 84.4148 57.7638C84.0508 60.9004 83.372 63.9889 82.3888 66.981C82.1817 68.1534 81.7302 69.2658 81.0648 70.2432C80.3993 71.2207 79.5352 72.0406 78.5305 72.648C76.1273 74.0252 73.6498 75.2612 71.1045 76.347Z" fill="#752346"/>
<path d="M130.412 127.293C130.262 130.054 130.532 132.818 131.212 135.487C131.316 136.856 131.849 138.151 132.733 139.18C133.528 139.809 134.391 140.34 135.306 140.764C137.593 141.805 140.024 142.999 142.325 143.892C138.985 143.863 135.659 144.396 132.481 145.469C127.968 147.291 126.706 150.413 124.028 156.415C125.162 144.815 119.61 142.619 112.872 139.127C115.836 139.143 118.798 138.903 121.727 138.411C122.484 138.267 123.201 137.956 123.829 137.499C124.457 137.042 124.979 136.451 125.359 135.767C127.364 133.153 129.06 130.309 130.412 127.293Z" fill="#F9F871"/>
<path d="M123.29 156.276C124.295 145.968 120.257 143.785 112.554 139.805C112.404 139.727 112.285 139.6 112.215 139.444C112.145 139.288 112.128 139.113 112.167 138.946C112.207 138.778 112.3 138.629 112.432 138.521C112.564 138.413 112.728 138.353 112.896 138.35C115.81 138.338 118.722 138.102 121.605 137.639C122.243 137.512 122.848 137.249 123.38 136.867C123.912 136.485 124.36 135.993 124.692 135.423C126.684 132.82 128.372 129.991 129.721 126.994C129.799 126.836 129.928 126.709 130.087 126.635C130.245 126.561 130.423 126.545 130.591 126.589C130.759 126.633 130.906 126.735 131.009 126.877C131.111 127.019 131.161 127.193 131.152 127.37C131.006 130.041 131.27 132.717 131.934 135.299C132.016 136.552 132.497 137.741 133.306 138.684C136.259 140.447 139.359 141.943 142.572 143.156C142.738 143.22 142.876 143.343 142.961 143.501C143.047 143.659 143.075 143.844 143.041 144.022C143.006 144.2 142.911 144.36 142.772 144.474C142.634 144.588 142.46 144.649 142.282 144.646C139.036 144.618 135.803 145.134 132.714 146.176C128.259 147.972 127.026 151.536 124.738 156.663C124.667 156.836 124.538 156.978 124.373 157.061C124.208 157.145 124.019 157.165 123.842 157.118C123.665 157.07 123.511 156.959 123.409 156.804C123.308 156.649 123.265 156.461 123.29 156.276ZM115.881 139.793C120.667 142.319 124.611 145.072 124.923 152.567C127.525 147.057 129.872 144.22 138.854 143.27C136.508 142.413 134.287 141.241 132.249 139.786C131.205 138.622 130.571 137.136 130.446 135.56C130.013 133.902 129.746 132.202 129.65 130.486C128.609 132.533 127.366 134.467 125.94 136.258C125.503 137.005 124.914 137.649 124.213 138.148C123.513 138.646 122.716 138.987 121.878 139.147C119.892 139.479 117.89 139.695 115.881 139.793Z" fill="#752346"/>
</svg>
