<svg width="68" height="46" viewBox="0 0 68 46" fill="none" xmlns="http://www.w3.org/2000/svg">
<path d="M66.8274 45.2764H1.17247C0.525007 45.2764 0 44.7513 0 44.1039V1.89708C0 1.24962 0.525007 0.724609 1.17247 0.724609H66.8275C67.475 0.724609 68 1.24962 68 1.89708V44.1039C67.9999 44.7515 67.4749 45.2764 66.8274 45.2764Z" fill="#F5F5F5"/>
<path d="M67.9999 4.15183H0V1.89707C0 1.24962 0.525007 0.724609 1.17247 0.724609H66.8275C67.475 0.724609 68 1.24962 68 1.89707L67.9999 4.15183Z" fill="#FF4B55"/>
<path d="M67.9999 14.4326H0V17.8597H67.9999V14.4326Z" fill="#FF4B55"/>
<path d="M67.9999 7.57812H0V11.0052H67.9999V7.57812Z" fill="#FF4B55"/>
<path d="M67.9999 24.7143H1.17247C0.525007 24.7143 0 24.1893 0 23.5419V21.2871H67.9999V24.7143Z" fill="#FF4B55"/>
<path d="M67.9999 34.9961H0V38.4232H67.9999V34.9961Z" fill="#FF4B55"/>
<path d="M66.8274 45.2767H1.17247C0.525007 45.2767 0 44.7517 0 44.1042V41.8496H67.9999V44.1044C67.9999 44.7518 67.4749 45.2767 66.8274 45.2767Z" fill="#FF4B55"/>
<path d="M67.9999 28.1416H0V31.5687H67.9999V28.1416Z" fill="#FF4B55"/>
<path d="M30.4827 0.724609H1.17247C0.525007 0.724609 0 1.24948 0 1.89694V23.5414C0 24.1888 0.525007 24.7138 1.17247 24.7138H30.4828C31.1303 24.7138 31.6553 24.1888 31.6553 23.5414V1.89694C31.6551 1.24948 31.1301 0.724609 30.4827 0.724609Z" fill="#41479B"/>
<path d="M3.29309 3.41543L3.55261 4.19371L4.37299 4.19995C4.47924 4.20088 4.5232 4.33635 4.4378 4.39944L3.77786 4.88686L4.02542 5.66899C4.05756 5.77019 3.94215 5.85413 3.85569 5.79224L3.18831 5.31531L2.52092 5.79237C2.43446 5.85413 2.31932 5.77032 2.35119 5.66912L2.59875 4.88699L1.93881 4.39957C1.85341 4.33635 1.89737 4.20101 2.00362 4.20008L2.824 4.19384L3.08352 3.41556C3.11699 3.31463 3.25936 3.31463 3.29309 3.41543Z" fill="#F5F5F5"/>
<path d="M3.29273 7.48662L3.55224 8.2649L4.37262 8.27114C4.47887 8.27207 4.52284 8.40754 4.43744 8.47063L3.77749 8.95805L4.02506 9.74018C4.0572 9.84138 3.94178 9.92532 3.85532 9.86343L3.18794 9.3865L2.52056 9.86356C2.4341 9.92532 2.31895 9.84151 2.35082 9.74031L2.59839 8.95818L1.93844 8.47076C1.85304 8.40754 1.89701 8.27221 2.00325 8.27128L2.82364 8.26503L3.08315 7.48675C3.11662 7.38595 3.25899 7.38595 3.29273 7.48662Z" fill="#F5F5F5"/>
<path d="M3.29273 11.5579L3.55224 12.3362L4.37262 12.3424C4.47887 12.3434 4.52284 12.4788 4.43744 12.5419L3.77749 13.0293L4.02506 13.8115C4.0572 13.9127 3.94178 13.9966 3.85532 13.9347L3.18794 13.4578L2.52056 13.9348C2.4341 13.9966 2.31895 13.9128 2.35082 13.8116L2.59839 13.0295L1.93844 12.542C1.85304 12.4788 1.89701 12.3435 2.00325 12.3426L2.82364 12.3363L3.08315 11.558C3.11662 11.4572 3.25899 11.4572 3.29273 11.5579Z" fill="#F5F5F5"/>
<path d="M3.29273 15.6293L3.55224 16.4076L4.37262 16.4138C4.47887 16.4147 4.52284 16.5502 4.43744 16.6133L3.77749 17.1007L4.02506 17.8829C4.0572 17.9841 3.94178 18.068 3.85532 18.0061L3.18794 17.5292L2.52056 18.0062C2.4341 18.068 2.31895 17.9842 2.35082 17.883L2.59839 17.1009L1.93844 16.6134C1.85304 16.5502 1.89701 16.4149 2.00325 16.414L2.82364 16.4077L3.08315 15.6294C3.11662 15.5285 3.25899 15.5285 3.29273 15.6293Z" fill="#F5F5F5"/>
<path d="M3.29273 19.7007L3.55224 20.479L4.37262 20.4852C4.47887 20.4861 4.52284 20.6216 4.43744 20.6847L3.77749 21.1721L4.02506 21.9542C4.0572 22.0554 3.94178 22.1394 3.85532 22.0775L3.18794 21.6006L2.52056 22.0776C2.4341 22.1394 2.31895 22.0556 2.35082 21.9544L2.59839 21.1722L1.93844 20.6848C1.85304 20.6216 1.89701 20.4863 2.00325 20.4853L2.82364 20.4791L3.08315 19.7008C3.11662 19.5997 3.25899 19.5997 3.29273 19.7007Z" fill="#F5F5F5"/>
<path d="M6.45264 5.41144L6.71216 6.18972L7.53254 6.19596C7.63879 6.19689 7.68275 6.33236 7.59735 6.39545L6.9374 6.88287L7.18497 7.665C7.21711 7.7662 7.10169 7.85014 7.01523 7.78825L6.34785 7.31119L5.68047 7.78825C5.59401 7.85001 5.47886 7.7662 5.51074 7.665L5.7583 6.88287L5.09835 6.39545C5.01296 6.33223 5.05692 6.19689 5.16317 6.19596L5.98355 6.18972L6.24306 5.41144C6.2764 5.31077 6.41904 5.31077 6.45264 5.41144Z" fill="#F5F5F5"/>
<path d="M6.45264 9.48283L6.71216 10.2611L7.53254 10.2674C7.63879 10.2683 7.68275 10.4037 7.59735 10.4668L6.9374 10.9543L7.18497 11.7364C7.21711 11.8376 7.10169 11.9215 7.01523 11.8596L6.34785 11.3826L5.68047 11.8596C5.59401 11.9214 5.47886 11.8377 5.51074 11.7364L5.7583 10.9543L5.09835 10.4668C5.01296 10.4036 5.05692 10.2683 5.16317 10.2674L5.98355 10.2611L6.24306 9.48283C6.2764 9.38203 6.41904 9.38203 6.45264 9.48283Z" fill="#F5F5F5"/>
<path d="M6.45264 13.5541L6.71216 14.3324L7.53254 14.3386C7.63879 14.3396 7.68275 14.475 7.59735 14.5381L6.9374 15.0255L7.18497 15.8077C7.21711 15.9089 7.10169 15.9928 7.01523 15.9309L6.34785 15.4539L5.68047 15.9309C5.59401 15.9927 5.47886 15.9089 5.51074 15.8077L5.7583 15.0255L5.09835 14.5381C5.01296 14.4749 5.05692 14.3396 5.16317 14.3386L5.98355 14.3324L6.24306 13.5541C6.2764 13.4533 6.41904 13.4533 6.45264 13.5541Z" fill="#F5F5F5"/>
<path d="M6.45264 17.6253L6.71216 18.4036L7.53254 18.4098C7.63879 18.4108 7.68275 18.5462 7.59735 18.6093L6.9374 19.0967L7.18497 19.8789C7.21711 19.9801 7.10169 20.064 7.01523 20.0021L6.34785 19.5251L5.68047 20.0021C5.59401 20.0639 5.47886 19.9801 5.51074 19.8789L5.7583 19.0967L5.09835 18.6093C5.01296 18.5461 5.05692 18.4108 5.16317 18.4098L5.98355 18.4036L6.24306 17.6253C6.2764 17.5246 6.41904 17.5246 6.45264 17.6253Z" fill="#F5F5F5"/>
<path d="M9.61274 3.41545L9.87225 4.19373L10.6926 4.19997C10.7989 4.2009 10.8428 4.33637 10.7574 4.39945L10.0975 4.88687L10.3451 5.669C10.3772 5.77021 10.2618 5.85414 10.1753 5.79225L9.50795 5.31519L8.84057 5.79225C8.7541 5.85401 8.63896 5.77021 8.67083 5.669L8.91839 4.88687L8.25845 4.39945C8.17305 4.33623 8.21701 4.2009 8.32326 4.19997L9.14364 4.19373L9.40316 3.41545C9.43663 3.31464 9.57913 3.31464 9.61274 3.41545Z" fill="#F5F5F5"/>
<path d="M9.61274 7.48664L9.87225 8.26492L10.6926 8.27116C10.7989 8.27209 10.8428 8.40756 10.7574 8.47064L10.0975 8.95806L10.3451 9.74019C10.3772 9.8414 10.2618 9.92533 10.1753 9.86344L9.50795 9.38638L8.84057 9.86344C8.7541 9.9252 8.63896 9.8414 8.67083 9.74019L8.91839 8.95806L8.25845 8.47064C8.17305 8.40742 8.21701 8.27209 8.32326 8.27116L9.14364 8.26492L9.40316 7.48664C9.43663 7.38596 9.57913 7.38596 9.61274 7.48664Z" fill="#F5F5F5"/>
<path d="M9.61274 11.5579L9.87225 12.3362L10.6926 12.3425C10.7989 12.3434 10.8428 12.4788 10.7574 12.5419L10.0975 13.0294L10.3451 13.8115C10.3772 13.9127 10.2618 13.9966 10.1753 13.9347L9.50795 13.4577L8.84057 13.9347C8.7541 13.9965 8.63896 13.9127 8.67083 13.8115L8.91839 13.0294L8.25845 12.5419C8.17305 12.4787 8.21701 12.3434 8.32326 12.3425L9.14364 12.3362L9.40316 11.5579C9.43663 11.4573 9.57913 11.4573 9.61274 11.5579Z" fill="#F5F5F5"/>
<path d="M9.61274 15.6293L9.87225 16.4076L10.6926 16.4138C10.7989 16.4148 10.8428 16.5502 10.7574 16.6133L10.0975 17.1007L10.3451 17.8829C10.3772 17.9841 10.2618 18.068 10.1753 18.0061L9.50795 17.5291L8.84057 18.0061C8.7541 18.0679 8.63896 17.9841 8.67083 17.8829L8.91839 17.1007L8.25845 16.6133C8.17305 16.5501 8.21701 16.4148 8.32326 16.4138L9.14364 16.4076L9.40316 15.6293C9.43663 15.5285 9.57913 15.5285 9.61274 15.6293Z" fill="#F5F5F5"/>
<path d="M9.61274 19.7007L9.87225 20.479L10.6926 20.4852C10.7989 20.4862 10.8428 20.6216 10.7574 20.6847L10.0975 21.1721L10.3451 21.9543C10.3772 22.0555 10.2618 22.1394 10.1753 22.0775L9.50795 21.6004L8.84057 22.0775C8.7541 22.1393 8.63896 22.0555 8.67083 21.9543L8.91839 21.1721L8.25845 20.6847C8.17305 20.6215 8.21701 20.4862 8.32326 20.4852L9.14364 20.479L9.40316 19.7007C9.43663 19.5998 9.57913 19.5998 9.61274 19.7007Z" fill="#F5F5F5"/>
<path d="M12.773 5.41144L13.0325 6.18972L13.8529 6.19596C13.9592 6.19689 14.0031 6.33236 13.9177 6.39545L13.2578 6.88287L13.5053 7.665C13.5375 7.7662 13.4221 7.85014 13.3356 7.78825L12.6682 7.31119L12.0008 7.78825C11.9144 7.85001 11.7992 7.7662 11.8311 7.665L12.0787 6.88287L11.4187 6.39545C11.3333 6.33223 11.3773 6.19689 11.4835 6.19596L12.3039 6.18972L12.5634 5.41144C12.5968 5.31077 12.7394 5.31077 12.773 5.41144Z" fill="#F5F5F5"/>
<path d="M12.773 9.48283L13.0325 10.2611L13.8529 10.2674C13.9592 10.2683 14.0031 10.4037 13.9177 10.4668L13.2578 10.9543L13.5053 11.7364C13.5375 11.8376 13.4221 11.9215 13.3356 11.8596L12.6682 11.3826L12.0008 11.8596C11.9144 11.9214 11.7992 11.8377 11.8311 11.7364L12.0787 10.9543L11.4187 10.4668C11.3333 10.4036 11.3773 10.2683 11.4835 10.2674L12.3039 10.2611L12.5634 9.48283C12.5968 9.38203 12.7394 9.38203 12.773 9.48283Z" fill="#F5F5F5"/>
<path d="M12.773 13.5541L13.0325 14.3324L13.8529 14.3386C13.9592 14.3396 14.0031 14.475 13.9177 14.5381L13.2578 15.0255L13.5053 15.8077C13.5375 15.9089 13.4221 15.9928 13.3356 15.9309L12.6682 15.4539L12.0008 15.9309C11.9144 15.9927 11.7992 15.9089 11.8311 15.8077L12.0787 15.0255L11.4187 14.5381C11.3333 14.4749 11.3773 14.3396 11.4835 14.3386L12.3039 14.3324L12.5634 13.5541C12.5968 13.4533 12.7394 13.4533 12.773 13.5541Z" fill="#F5F5F5"/>
<path d="M12.773 17.6253L13.0325 18.4036L13.8529 18.4098C13.9592 18.4108 14.0031 18.5462 13.9177 18.6093L13.2578 19.0967L13.5053 19.8789C13.5375 19.9801 13.4221 20.064 13.3356 20.0021L12.6682 19.5251L12.0008 20.0021C11.9144 20.0639 11.7992 19.9801 11.8311 19.8789L12.0787 19.0967L11.4187 18.6093C11.3333 18.5461 11.3773 18.4108 11.4835 18.4098L12.3039 18.4036L12.5634 17.6253C12.5968 17.5246 12.7394 17.5246 12.773 17.6253Z" fill="#F5F5F5"/>
<path d="M15.9329 3.41545L16.1924 4.19373L17.0128 4.19997C17.119 4.2009 17.163 4.33637 17.0776 4.39945L16.4176 4.88687L16.6652 5.669C16.6973 5.77021 16.5819 5.85414 16.4955 5.79225L15.828 5.31519L15.1606 5.79225C15.0741 5.85401 14.959 5.77021 14.9908 5.669L15.2384 4.88687L14.5785 4.39945C14.4931 4.33623 14.537 4.2009 14.6433 4.19997L15.4637 4.19373L15.7232 3.41545C15.7568 3.31464 15.8993 3.31464 15.9329 3.41545Z" fill="#F5F5F5"/>
<path d="M15.9329 7.48664L16.1924 8.26492L17.0128 8.27116C17.119 8.27209 17.163 8.40756 17.0776 8.47064L16.4176 8.95806L16.6652 9.74019C16.6973 9.8414 16.5819 9.92533 16.4955 9.86344L15.828 9.38638L15.1606 9.86344C15.0741 9.9252 14.959 9.8414 14.9908 9.74019L15.2384 8.95806L14.5785 8.47064C14.4931 8.40742 14.537 8.27209 14.6433 8.27116L15.4637 8.26492L15.7232 7.48664C15.7568 7.38596 15.8993 7.38596 15.9329 7.48664Z" fill="#F5F5F5"/>
<path d="M15.9329 11.5579L16.1924 12.3362L17.0128 12.3425C17.119 12.3434 17.163 12.4788 17.0776 12.5419L16.4176 13.0294L16.6652 13.8115C16.6973 13.9127 16.5819 13.9966 16.4955 13.9347L15.828 13.4577L15.1606 13.9347C15.0741 13.9965 14.959 13.9127 14.9908 13.8115L15.2384 13.0294L14.5785 12.5419C14.4931 12.4787 14.537 12.3434 14.6433 12.3425L15.4637 12.3362L15.7232 11.5579C15.7568 11.4573 15.8993 11.4573 15.9329 11.5579Z" fill="#F5F5F5"/>
<path d="M15.9329 15.6293L16.1924 16.4076L17.0128 16.4138C17.119 16.4148 17.163 16.5502 17.0776 16.6133L16.4176 17.1007L16.6652 17.8829C16.6973 17.9841 16.5819 18.068 16.4955 18.0061L15.828 17.5291L15.1606 18.0061C15.0741 18.0679 14.959 17.9841 14.9908 17.8829L15.2384 17.1007L14.5785 16.6133C14.4931 16.5501 14.537 16.4148 14.6433 16.4138L15.4637 16.4076L15.7232 15.6293C15.7568 15.5285 15.8993 15.5285 15.9329 15.6293Z" fill="#F5F5F5"/>
<path d="M15.9329 19.7007L16.1924 20.479L17.0128 20.4852C17.119 20.4862 17.163 20.6216 17.0776 20.6847L16.4176 21.1721L16.6652 21.9543C16.6973 22.0555 16.5819 22.1394 16.4955 22.0775L15.828 21.6004L15.1606 22.0775C15.0741 22.1393 14.959 22.0555 14.9908 21.9543L15.2384 21.1721L14.5785 20.6847C14.4931 20.6215 14.537 20.4862 14.6433 20.4852L15.4637 20.479L15.7232 19.7007C15.7568 19.5998 15.8993 19.5998 15.9329 19.7007Z" fill="#F5F5F5"/>
<path d="M19.093 5.41144L19.3525 6.18972L20.1729 6.19596C20.2792 6.19689 20.3231 6.33236 20.2377 6.39545L19.5778 6.88287L19.8253 7.665C19.8575 7.7662 19.7421 7.85014 19.6556 7.78825L18.9882 7.31119L18.3209 7.78825C18.2344 7.85001 18.1192 7.7662 18.1511 7.665L18.3987 6.88287L17.7387 6.39545C17.6533 6.33223 17.6973 6.19689 17.8035 6.19596L18.6239 6.18972L18.8834 5.41144C18.917 5.31077 19.0594 5.31077 19.093 5.41144Z" fill="#F5F5F5"/>
<path d="M19.093 9.48283L19.3525 10.2611L20.1729 10.2674C20.2792 10.2683 20.3231 10.4037 20.2377 10.4668L19.5778 10.9543L19.8253 11.7364C19.8575 11.8376 19.7421 11.9215 19.6556 11.8596L18.9882 11.3826L18.3209 11.8596C18.2344 11.9214 18.1192 11.8377 18.1511 11.7364L18.3987 10.9543L17.7387 10.4668C17.6533 10.4036 17.6973 10.2683 17.8035 10.2674L18.6239 10.2611L18.8834 9.48283C18.917 9.38203 19.0594 9.38203 19.093 9.48283Z" fill="#F5F5F5"/>
<path d="M19.093 13.5541L19.3525 14.3324L20.1729 14.3386C20.2792 14.3396 20.3231 14.475 20.2377 14.5381L19.5778 15.0255L19.8253 15.8077C19.8575 15.9089 19.7421 15.9928 19.6556 15.9309L18.9882 15.4539L18.3209 15.9309C18.2344 15.9927 18.1192 15.9089 18.1511 15.8077L18.3987 15.0255L17.7387 14.5381C17.6533 14.4749 17.6973 14.3396 17.8035 14.3386L18.6239 14.3324L18.8834 13.5541C18.917 13.4533 19.0594 13.4533 19.093 13.5541Z" fill="#F5F5F5"/>
<path d="M19.093 17.6253L19.3525 18.4036L20.1729 18.4098C20.2792 18.4108 20.3231 18.5462 20.2377 18.6093L19.5778 19.0967L19.8253 19.8789C19.8575 19.9801 19.7421 20.064 19.6556 20.0021L18.9882 19.5251L18.3209 20.0021C18.2344 20.0639 18.1192 19.9801 18.1511 19.8789L18.3987 19.0967L17.7387 18.6093C17.6533 18.5461 17.6973 18.4108 17.8035 18.4098L18.6239 18.4036L18.8834 17.6253C18.917 17.5246 19.0594 17.5246 19.093 17.6253Z" fill="#F5F5F5"/>
<path d="M22.2531 3.41545L22.5126 4.19373L23.333 4.19997C23.4393 4.2009 23.4832 4.33637 23.3978 4.39945L22.7379 4.88687L22.9854 5.669C23.0176 5.77021 22.9022 5.85414 22.8157 5.79225L22.1483 5.31519L21.4809 5.79225C21.3945 5.85401 21.2793 5.77021 21.3112 5.669L21.5588 4.88687L20.8988 4.39945C20.8134 4.33623 20.8574 4.2009 20.9636 4.19997L21.784 4.19373L22.0435 3.41545C22.0769 3.31464 22.2195 3.31464 22.2531 3.41545Z" fill="#F5F5F5"/>
<path d="M22.2531 7.48664L22.5126 8.26492L23.333 8.27116C23.4393 8.27209 23.4832 8.40756 23.3978 8.47064L22.7379 8.95806L22.9854 9.74019C23.0176 9.8414 22.9022 9.92533 22.8157 9.86344L22.1483 9.38638L21.4809 9.86344C21.3945 9.9252 21.2793 9.8414 21.3112 9.74019L21.5588 8.95806L20.8988 8.47064C20.8134 8.40742 20.8574 8.27209 20.9636 8.27116L21.784 8.26492L22.0435 7.48664C22.0769 7.38596 22.2195 7.38596 22.2531 7.48664Z" fill="#F5F5F5"/>
<path d="M22.2531 11.5579L22.5126 12.3362L23.333 12.3425C23.4393 12.3434 23.4832 12.4788 23.3978 12.5419L22.7379 13.0294L22.9854 13.8115C23.0176 13.9127 22.9022 13.9966 22.8157 13.9347L22.1483 13.4577L21.4809 13.9347C21.3945 13.9965 21.2793 13.9127 21.3112 13.8115L21.5588 13.0294L20.8988 12.5419C20.8134 12.4787 20.8574 12.3434 20.9636 12.3425L21.784 12.3362L22.0435 11.5579C22.0769 11.4573 22.2195 11.4573 22.2531 11.5579Z" fill="#F5F5F5"/>
<path d="M22.2531 15.6293L22.5126 16.4076L23.333 16.4138C23.4393 16.4148 23.4832 16.5502 23.3978 16.6133L22.7379 17.1007L22.9854 17.8829C23.0176 17.9841 22.9022 18.068 22.8157 18.0061L22.1483 17.5291L21.4809 18.0061C21.3945 18.0679 21.2793 17.9841 21.3112 17.8829L21.5588 17.1007L20.8988 16.6133C20.8134 16.5501 20.8574 16.4148 20.9636 16.4138L21.784 16.4076L22.0435 15.6293C22.0769 15.5285 22.2195 15.5285 22.2531 15.6293Z" fill="#F5F5F5"/>
<path d="M22.2531 19.7007L22.5126 20.479L23.333 20.4852C23.4393 20.4862 23.4832 20.6216 23.3978 20.6847L22.7379 21.1721L22.9854 21.9543C23.0176 22.0555 22.9022 22.1394 22.8157 22.0775L22.1483 21.6004L21.4809 22.0775C21.3945 22.1393 21.2793 22.0555 21.3112 21.9543L21.5588 21.1721L20.8988 20.6847C20.8134 20.6215 20.8574 20.4862 20.9636 20.4852L21.784 20.479L22.0435 19.7007C22.0769 19.5998 22.2195 19.5998 22.2531 19.7007Z" fill="#F5F5F5"/>
<path d="M25.413 5.41144L25.6725 6.18972L26.4929 6.19596C26.5992 6.19689 26.6431 6.33236 26.5577 6.39545L25.8978 6.88287L26.1454 7.665C26.1775 7.7662 26.0621 7.85014 25.9756 7.78825L25.3082 7.31119L24.6409 7.78825C24.5544 7.85001 24.4392 7.7662 24.4711 7.665L24.7187 6.88287L24.0587 6.39545C23.9733 6.33223 24.0173 6.19689 24.1236 6.19596L24.9439 6.18972L25.2035 5.41144C25.2369 5.31077 25.3796 5.31077 25.413 5.41144Z" fill="#F5F5F5"/>
<path d="M25.413 9.48283L25.6725 10.2611L26.4929 10.2674C26.5992 10.2683 26.6431 10.4037 26.5577 10.4668L25.8978 10.9543L26.1454 11.7364C26.1775 11.8376 26.0621 11.9215 25.9756 11.8596L25.3082 11.3826L24.6409 11.8596C24.5544 11.9214 24.4392 11.8377 24.4711 11.7364L24.7187 10.9543L24.0587 10.4668C23.9733 10.4036 24.0173 10.2683 24.1236 10.2674L24.9439 10.2611L25.2035 9.48283C25.2369 9.38203 25.3796 9.38203 25.413 9.48283Z" fill="#F5F5F5"/>
<path d="M25.413 13.5541L25.6725 14.3324L26.4929 14.3386C26.5992 14.3396 26.6431 14.475 26.5577 14.5381L25.8978 15.0255L26.1454 15.8077C26.1775 15.9089 26.0621 15.9928 25.9756 15.9309L25.3082 15.4539L24.6409 15.9309C24.5544 15.9927 24.4392 15.9089 24.4711 15.8077L24.7187 15.0255L24.0587 14.5381C23.9733 14.4749 24.0173 14.3396 24.1236 14.3386L24.9439 14.3324L25.2035 13.5541C25.2369 13.4533 25.3796 13.4533 25.413 13.5541Z" fill="#F5F5F5"/>
<path d="M25.413 17.6253L25.6725 18.4036L26.4929 18.4098C26.5992 18.4108 26.6431 18.5462 26.5577 18.6093L25.8978 19.0967L26.1454 19.8789C26.1775 19.9801 26.0621 20.064 25.9756 20.0021L25.3082 19.5251L24.6409 20.0021C24.5544 20.0639 24.4392 19.9801 24.4711 19.8789L24.7187 19.0967L24.0587 18.6093C23.9733 18.5461 24.0173 18.4108 24.1236 18.4098L24.9439 18.4036L25.2035 17.6253C25.2369 17.5246 25.3796 17.5246 25.413 17.6253Z" fill="#F5F5F5"/>
<path d="M28.5731 3.41545L28.8326 4.19373L29.653 4.19997C29.7593 4.2009 29.8032 4.33637 29.7178 4.39945L29.0579 4.88687L29.3055 5.669C29.3376 5.77021 29.2222 5.85414 29.1357 5.79225L28.4683 5.31519L27.801 5.79225C27.7145 5.85401 27.5993 5.77021 27.6312 5.669L27.8788 4.88687L27.2188 4.39945C27.1334 4.33623 27.1774 4.2009 27.2837 4.19997L28.104 4.19373L28.3635 3.41545C28.397 3.31464 28.5394 3.31464 28.5731 3.41545Z" fill="#F5F5F5"/>
<path d="M28.5731 7.48664L28.8326 8.26492L29.653 8.27116C29.7593 8.27209 29.8032 8.40756 29.7178 8.47064L29.0579 8.95806L29.3055 9.74019C29.3376 9.8414 29.2222 9.92533 29.1357 9.86344L28.4683 9.38638L27.801 9.86344C27.7145 9.9252 27.5993 9.8414 27.6312 9.74019L27.8788 8.95806L27.2188 8.47064C27.1334 8.40742 27.1774 8.27209 27.2837 8.27116L28.104 8.26492L28.3635 7.48664C28.397 7.38596 28.5394 7.38596 28.5731 7.48664Z" fill="#F5F5F5"/>
<path d="M28.5731 11.5579L28.8326 12.3362L29.653 12.3425C29.7593 12.3434 29.8032 12.4788 29.7178 12.5419L29.0579 13.0294L29.3055 13.8115C29.3376 13.9127 29.2222 13.9966 29.1357 13.9347L28.4683 13.4577L27.801 13.9347C27.7145 13.9965 27.5993 13.9127 27.6312 13.8115L27.8788 13.0294L27.2188 12.5419C27.1334 12.4787 27.1774 12.3434 27.2837 12.3425L28.104 12.3362L28.3635 11.5579C28.397 11.4573 28.5394 11.4573 28.5731 11.5579Z" fill="#F5F5F5"/>
<path d="M28.5731 15.6293L28.8326 16.4076L29.653 16.4138C29.7593 16.4148 29.8032 16.5502 29.7178 16.6133L29.0579 17.1007L29.3055 17.8829C29.3376 17.9841 29.2222 18.068 29.1357 18.0061L28.4683 17.5291L27.801 18.0061C27.7145 18.0679 27.5993 17.9841 27.6312 17.8829L27.8788 17.1007L27.2188 16.6133C27.1334 16.5501 27.1774 16.4148 27.2837 16.4138L28.104 16.4076L28.3635 15.6293C28.397 15.5285 28.5394 15.5285 28.5731 15.6293Z" fill="#F5F5F5"/>
<path d="M28.5731 19.7007L28.8326 20.479L29.653 20.4852C29.7593 20.4862 29.8032 20.6216 29.7178 20.6847L29.0579 21.1721L29.3055 21.9543C29.3376 22.0555 29.2222 22.1394 29.1357 22.0775L28.4683 21.6004L27.801 22.0775C27.7145 22.1393 27.5993 22.0555 27.6312 21.9543L27.8788 21.1721L27.2188 20.6847C27.1334 20.6215 27.1774 20.4862 27.2837 20.4852L28.104 20.479L28.3635 19.7007C28.397 19.5998 28.5394 19.5998 28.5731 19.7007Z" fill="#F5F5F5"/>
</svg>
