<svg width="60" height="60" viewBox="0 0 60 60" fill="none" xmlns="http://www.w3.org/2000/svg">
<path d="M5.09998 30C5.09998 16.1925 16.29 5 30.1 5C43.905 5 55.1 16.1925 55.1 30C55.1 43.8075 43.905 55 30.1 55C16.29 55 5.09998 43.8075 5.09998 30Z" fill="#FC3F1D"/>
<path d="M33.3 19.1654H30.99C26.755 19.1654 24.5275 21.3104 24.5275 24.4729C24.5275 28.0479 26.0675 29.7229 29.23 31.8704L31.8425 33.6304L24.335 44.8479H18.725L25.4625 34.8129C21.5875 32.0354 19.4125 29.3379 19.4125 24.7754C19.4125 19.0554 23.4 15.1504 30.9625 15.1504H38.47V44.8204H33.3V19.1654Z" fill="white"/>
</svg>
