<svg width="201" height="44" viewBox="0 0 201 44" fill="none" xmlns="http://www.w3.org/2000/svg">
<rect x="2" y="2" width="197" height="40" rx="20" fill="#F4FFFF" stroke="url(#paint0_linear_419_32)" stroke-width="3"/>
<path d="M28.859 20.352C29.467 20.4373 29.9096 20.688 30.187 21.104C30.475 21.5093 30.619 22.1227 30.619 22.944C30.619 23.8827 30.427 24.6293 30.043 25.184C29.6696 25.728 28.987 26 27.995 26H21.819V24.784H27.259C27.9416 24.784 28.411 24.64 28.667 24.352C28.9336 24.0533 29.067 23.5627 29.067 22.88C29.067 22.2507 28.9496 21.776 28.715 21.456C28.4803 21.1253 28.0643 20.96 27.467 20.96H22.043V19.744H27.259C27.8563 19.744 28.267 19.6 28.491 19.312C28.7256 19.0133 28.843 18.5173 28.843 17.824C28.843 17.1947 28.7363 16.736 28.523 16.448C28.3203 16.16 27.931 16.016 27.355 16.016H21.883V14.8H27.915C28.7896 14.8 29.419 15.0453 29.803 15.536C30.1976 16.016 30.395 16.7573 30.395 17.76C30.395 18.4427 30.283 19.008 30.059 19.456C29.8456 19.8933 29.4456 20.1707 28.859 20.288V20.352ZM32.5795 17.52H37.0435C37.7688 17.52 38.3181 17.728 38.6915 18.144C39.0648 18.56 39.2515 19.1253 39.2515 19.84V24.72C39.2515 25.168 39.1501 25.4933 38.9475 25.696C38.7448 25.8987 38.4035 26 37.9235 26H34.1475C33.3795 26 32.8195 25.792 32.4675 25.376C32.1155 24.9493 31.9395 24.2933 31.9395 23.408C31.9395 21.6907 32.6755 20.832 34.1475 20.832H37.9075V19.824C37.9075 19.0133 37.5075 18.608 36.7075 18.608H32.5795V17.52ZM37.9075 21.92H34.4035C34.0088 21.92 33.7315 22.048 33.5715 22.304C33.4221 22.5493 33.3475 22.9173 33.3475 23.408C33.3475 23.8987 33.4221 24.272 33.5715 24.528C33.7315 24.784 34.0088 24.912 34.4035 24.912H37.4595C37.7581 24.912 37.9075 24.768 37.9075 24.48V21.92ZM40.8521 26V18.912C40.8521 17.984 41.2841 17.52 42.1481 17.52H46.8201C47.6841 17.52 48.1161 17.984 48.1161 18.912V26H46.7721V19.152C46.7721 18.9493 46.7294 18.8107 46.6441 18.736C46.5694 18.6507 46.4468 18.608 46.2761 18.608H42.6921C42.5214 18.608 42.3934 18.6507 42.3081 18.736C42.2334 18.8107 42.1961 18.9493 42.1961 19.152V26H40.8521ZM57.4075 26H56.0635L56.0955 19.296C56.0955 19.1573 56.0688 19.088 56.0155 19.088C55.9728 19.088 55.9035 19.1573 55.8075 19.296L51.7755 25.456C51.6261 25.6907 51.4768 25.856 51.3275 25.952C51.1781 26.048 50.9701 26.096 50.7035 26.096C50.0421 26.096 49.7115 25.7493 49.7115 25.056V17.52H51.0555L51.0235 24.224C51.0235 24.3733 51.0608 24.448 51.1355 24.448C51.1888 24.448 51.2528 24.3733 51.3275 24.224L55.4075 17.968C55.6421 17.6053 55.9781 17.424 56.4155 17.424C56.6821 17.424 56.9115 17.5253 57.1035 17.728C57.3061 17.9307 57.4075 18.208 57.4075 18.56V26ZM65.7284 26H62.3364C60.971 26 60.027 25.648 59.5044 24.944C58.9924 24.24 58.7364 23.1733 58.7364 21.744C58.7364 20.3467 58.9977 19.296 59.5204 18.592C60.043 17.8773 60.9817 17.52 62.3364 17.52H65.5524V18.608H62.5764C61.595 18.608 60.939 18.864 60.6084 19.376C60.2884 19.8773 60.1284 20.6667 60.1284 21.744C60.1284 22.8533 60.2884 23.6587 60.6084 24.16C60.9284 24.6613 61.5844 24.912 62.5764 24.912H65.7284V26ZM67.2826 17.52H71.7466C72.4719 17.52 73.0213 17.728 73.3946 18.144C73.7679 18.56 73.9546 19.1253 73.9546 19.84V24.72C73.9546 25.168 73.8533 25.4933 73.6506 25.696C73.4479 25.8987 73.1066 26 72.6266 26H68.8506C68.0826 26 67.5226 25.792 67.1706 25.376C66.8186 24.9493 66.6426 24.2933 66.6426 23.408C66.6426 21.6907 67.3786 20.832 68.8506 20.832H72.6106V19.824C72.6106 19.0133 72.2106 18.608 71.4106 18.608H67.2826V17.52ZM72.6106 21.92H69.1066C68.7119 21.92 68.4346 22.048 68.2746 22.304C68.1253 22.5493 68.0506 22.9173 68.0506 23.408C68.0506 23.8987 68.1253 24.272 68.2746 24.528C68.4346 24.784 68.7119 24.912 69.1066 24.912H72.1626C72.4613 24.912 72.6106 24.768 72.6106 24.48V21.92ZM79.2832 26H77.9392V18.608H74.7552V17.52H82.4672V18.608H79.2832V26ZM88.49 26H84.57C83.706 26 83.274 25.536 83.274 24.608V17.52H84.618V20.944H88.49C89.2366 20.944 89.77 21.152 90.09 21.568C90.41 21.984 90.57 22.608 90.57 23.44C90.57 24.2827 90.41 24.9227 90.09 25.36C89.77 25.7867 89.2366 26 88.49 26ZM84.618 22.032V24.368C84.618 24.5707 84.6553 24.7147 84.73 24.8C84.8153 24.8747 84.9433 24.912 85.114 24.912H88.106C88.5113 24.912 88.7886 24.7893 88.938 24.544C89.0873 24.2987 89.162 23.9307 89.162 23.44C89.162 22.96 89.0873 22.608 88.938 22.384C88.7993 22.1493 88.522 22.032 88.106 22.032H84.618ZM98.5409 26H95.1489C93.7835 26 92.8395 25.648 92.3169 24.944C91.8049 24.24 91.5489 23.1733 91.5489 21.744C91.5489 20.3467 91.8102 19.296 92.3329 18.592C92.8555 17.8773 93.7942 17.52 95.1489 17.52H98.3649V18.608H95.3889C94.4075 18.608 93.7515 18.864 93.4209 19.376C93.1009 19.8773 92.9409 20.6667 92.9409 21.744C92.9409 22.8533 93.1009 23.6587 93.4209 24.16C93.7409 24.6613 94.3969 24.912 95.3889 24.912H98.5409V26ZM99.3431 26L102.303 23.04C102.388 22.9547 102.431 22.8853 102.431 22.832C102.431 22.7787 102.383 22.752 102.287 22.752H101.663C100.287 22.752 99.5991 21.872 99.5991 20.112C99.5991 18.384 100.287 17.52 101.663 17.52H105.631C106.495 17.52 106.927 17.9787 106.927 18.896V26H105.583V19.152C105.583 18.9493 105.54 18.8107 105.455 18.736C105.38 18.6507 105.258 18.608 105.087 18.608H102.079C101.663 18.608 101.38 18.7413 101.231 19.008C101.082 19.264 101.007 19.6267 101.007 20.096C101.007 21.1413 101.364 21.664 102.079 21.664H103.471C103.951 21.664 104.191 21.872 104.191 22.288C104.191 22.5867 104.09 22.848 103.887 23.072L101.039 26H99.3431ZM119.522 26H118.178V22.176H113.602V26H112.258V17.52H113.602V21.088H118.178V17.52H119.522V26ZM121.486 17.52H125.95C126.675 17.52 127.224 17.728 127.598 18.144C127.971 18.56 128.158 19.1253 128.158 19.84V24.72C128.158 25.168 128.056 25.4933 127.854 25.696C127.651 25.8987 127.31 26 126.83 26H123.054C122.286 26 121.726 25.792 121.374 25.376C121.022 24.9493 120.846 24.2933 120.846 23.408C120.846 21.6907 121.582 20.832 123.054 20.832H126.814V19.824C126.814 19.0133 126.414 18.608 125.614 18.608H121.486V17.52ZM126.814 21.92H123.31C122.915 21.92 122.638 22.048 122.478 22.304C122.328 22.5493 122.254 22.9173 122.254 23.408C122.254 23.8987 122.328 24.272 122.478 24.528C122.638 24.784 122.915 24.912 123.31 24.912H126.366C126.664 24.912 126.814 24.768 126.814 24.48V21.92ZM133.493 26V18.912C133.493 17.984 133.925 17.52 134.789 17.52H139.461C140.325 17.52 140.757 17.984 140.757 18.912V26H139.413V19.152C139.413 18.9493 139.37 18.8107 139.285 18.736C139.21 18.6507 139.087 18.608 138.917 18.608H135.333C135.162 18.608 135.034 18.6507 134.949 18.736C134.874 18.8107 134.837 18.9493 134.837 19.152V26H133.493ZM143.696 26V28.72H142.352V18.848C142.352 17.9627 142.816 17.52 143.744 17.52H146.288C147.579 17.52 148.48 17.872 148.992 18.576C149.504 19.2693 149.76 20.32 149.76 21.728C149.76 23.1467 149.504 24.2133 148.992 24.928C148.48 25.6427 147.579 26 146.288 26H143.696ZM143.696 19.104V24.912H146.048C146.443 24.912 146.779 24.8587 147.056 24.752C147.344 24.6453 147.568 24.5067 147.728 24.336C147.899 24.1547 148.032 23.92 148.128 23.632C148.224 23.344 148.283 23.056 148.304 22.768C148.336 22.48 148.352 22.1333 148.352 21.728C148.352 21.216 148.325 20.7947 148.272 20.464C148.219 20.1227 148.117 19.8027 147.968 19.504C147.819 19.1947 147.584 18.9707 147.264 18.832C146.944 18.6827 146.539 18.608 146.048 18.608H144.192C143.861 18.608 143.696 18.7733 143.696 19.104ZM158.782 26H157.438L157.47 19.296C157.47 19.1573 157.444 19.088 157.39 19.088C157.348 19.088 157.278 19.1573 157.182 19.296L153.15 25.456C153.001 25.6907 152.852 25.856 152.702 25.952C152.553 26.048 152.345 26.096 152.078 26.096C151.417 26.096 151.086 25.7493 151.086 25.056V17.52H152.43L152.398 24.224C152.398 24.3733 152.436 24.448 152.51 24.448C152.564 24.448 152.628 24.3733 152.702 24.224L156.782 17.968C157.017 17.6053 157.353 17.424 157.79 17.424C158.057 17.424 158.286 17.5253 158.478 17.728C158.681 17.9307 158.782 18.208 158.782 18.56V26ZM167.599 26H163.167C161.983 26 161.178 25.6533 160.751 24.96C160.325 24.256 160.111 23.2 160.111 21.792C160.111 20.2133 160.399 19.0933 160.975 18.432C161.551 17.76 162.549 17.424 163.967 17.424C165.194 17.424 166.143 17.6747 166.815 18.176C167.487 18.6667 167.823 19.5147 167.823 20.72C167.823 21.232 167.727 21.6107 167.535 21.856C167.343 22.0907 167.018 22.208 166.559 22.208H161.503C161.503 22.6027 161.525 22.944 161.567 23.232C161.621 23.5093 161.711 23.7867 161.839 24.064C161.967 24.3413 162.165 24.5547 162.431 24.704C162.709 24.8427 163.05 24.912 163.455 24.912H167.599V26ZM161.503 21.12H166.031C166.287 21.12 166.415 20.976 166.415 20.688V20.624C166.415 19.216 165.605 18.512 163.983 18.512C163.098 18.512 162.463 18.7093 162.079 19.104C161.695 19.488 161.503 20.16 161.503 21.12ZM166.047 16.272H164.735V14.8H166.047V16.272ZM163.199 16.272H161.887V14.8H163.199V16.272ZM177.533 19.248L175.021 25.44C174.84 25.8773 174.53 26.096 174.093 26.096C173.656 26.096 173.346 25.8773 173.165 25.44L170.653 19.248C170.621 19.1413 170.584 19.088 170.541 19.088C170.488 19.088 170.461 19.1307 170.461 19.216L170.493 26H169.149V18.48C169.149 18.1387 169.25 17.8773 169.453 17.696C169.666 17.5147 169.938 17.424 170.269 17.424C170.824 17.424 171.202 17.6747 171.405 18.176L173.885 24.272C173.981 24.4853 174.05 24.592 174.093 24.592C174.136 24.592 174.205 24.4853 174.301 24.272L176.781 18.176C176.984 17.6747 177.357 17.424 177.901 17.424C178.242 17.424 178.514 17.5147 178.717 17.696C178.93 17.8667 179.037 18.128 179.037 18.48V26H177.693L177.741 19.216C177.741 19.12 177.714 19.072 177.661 19.072C177.64 19.072 177.597 19.1307 177.533 19.248Z" fill="#181618"/>
<defs>
<linearGradient id="paint0_linear_419_32" x1="2" y1="22" x2="199" y2="22" gradientUnits="userSpaceOnUse">
<stop stop-color="#7EC4FF"/>
<stop offset="1" stop-color="#084C87"/>
</linearGradient>
</defs>
</svg>
